<svg width="1280" height="720" viewBox="0 0 1280 720" fill="none" xmlns="http://www.w3.org/2000/svg">
<rect width="1280" height="720" fill="#023047"/>
<path d="M1010.01 258.445C1010.01 258.445 1030.28 261.87 1031.91 262.305C1033.54 262.739 1039.96 265.786 1040.29 267.744C1040.61 269.703 1040.29 275.468 1040.29 275.468C1040.29 275.468 1039.13 276.414 1038.4 274.527C1037.68 272.64 1037.79 268.908 1037.79 268.908L1034.2 267.526L1036.15 271.007L1036.48 279.167C1036.48 279.167 1033.97 278.938 1033.49 276.984C1033 275.032 1033.01 272.856 1033.01 272.856L1030.39 270.638L1032.35 273.291L1033.01 279.165C1033.01 279.165 1031.1 279.782 1030.5 278.479C1029.89 277.175 1029.84 273.291 1029.84 273.291L1022.46 270.71L1017.57 273.434L1008.43 268.267L1010.01 258.445Z" fill="#B78876"/>
<path d="M939.065 208.355C939.157 208.757 963.486 242.246 963.486 242.246L1012.36 257.444L1010.13 275.8L950.236 263.739L928.979 239.345L939.065 208.355Z" fill="#E8505B"/>
<g opacity="0.2">
<path d="M939.065 208.355C939.157 208.757 963.486 242.246 963.486 242.246L1012.36 257.444L1010.13 275.8L950.236 263.739L928.979 239.345L939.065 208.355Z" fill="black"/>
</g>
<path d="M853.943 273.912H754.089C751.975 273.912 750.26 272.197 750.26 270.082V258.28C750.26 256.165 751.975 254.45 754.089 254.45H853.943C856.058 254.45 857.772 256.165 857.772 258.28V270.082C857.772 272.197 856.058 273.912 853.943 273.912Z" fill="#F5F5F5"/>
<path d="M853.942 273.912C853.941 273.889 854.161 273.903 854.572 273.821C854.976 273.737 855.599 273.57 856.236 273.06C856.866 272.568 857.513 271.701 857.646 270.521C857.692 269.341 857.641 267.933 857.645 266.374C857.636 264.806 857.627 263.068 857.616 261.165C857.609 260.214 857.604 259.222 857.598 258.192C857.578 257.204 857.119 256.193 856.309 255.507C855.908 255.16 855.418 254.907 854.891 254.768C854.366 254.618 853.803 254.645 853.2 254.645C852.013 254.649 850.788 254.653 849.528 254.658C847.006 254.665 844.342 254.673 841.545 254.681C819.139 254.706 788.232 254.738 754.095 254.776C753.114 254.768 752.153 255.202 751.502 255.924C750.836 256.653 750.527 257.603 750.586 258.625C750.586 260.733 750.585 262.829 750.585 264.908C750.585 265.947 750.584 266.983 750.584 268.015V269.56C750.579 270.091 750.58 270.545 750.709 271.001C750.95 271.907 751.575 272.698 752.389 273.148C752.795 273.374 753.246 273.517 753.705 273.568C754.148 273.606 754.692 273.583 755.183 273.59C763.234 273.596 771.002 273.603 778.402 273.609C793.194 273.635 806.517 273.659 817.717 273.679C828.887 273.723 837.936 273.759 844.222 273.784C847.329 273.81 849.753 273.831 851.428 273.845C852.231 273.859 852.853 273.87 853.303 273.878C853.726 273.889 853.942 273.912 853.942 273.912C853.942 273.912 853.726 273.934 853.304 273.946C852.856 273.953 852.232 273.965 851.43 273.978C849.754 273.992 847.33 274.014 844.224 274.04C837.937 274.065 828.888 274.1 817.718 274.144C806.519 274.164 793.196 274.188 778.403 274.215C771.003 274.221 763.236 274.227 755.184 274.233C754.67 274.225 754.203 274.255 753.638 274.208C753.092 274.15 752.558 273.981 752.077 273.713C751.113 273.182 750.374 272.247 750.086 271.173C749.932 270.64 749.93 270.056 749.937 269.563L749.935 268.017C749.935 266.986 749.935 265.949 749.934 264.91C749.934 262.831 749.933 260.737 749.933 258.628C749.86 257.546 750.229 256.321 751.018 255.487C751.788 254.632 752.934 254.116 754.095 254.125C788.232 254.163 819.139 254.197 841.545 254.221C844.342 254.23 847.006 254.237 849.528 254.243C850.788 254.247 852.011 254.252 853.2 254.256C853.78 254.26 854.402 254.233 854.989 254.404C855.57 254.562 856.108 254.846 856.545 255.231C857.431 255.992 857.925 257.108 857.936 258.186C857.932 259.219 857.93 260.214 857.927 261.168C857.917 263.07 857.907 264.809 857.898 266.377C857.876 267.946 857.908 269.321 857.839 270.546C857.677 271.785 856.98 272.674 856.317 273.167C855.643 273.677 854.998 273.826 854.583 273.889C854.161 273.948 853.942 273.912 853.942 273.912Z" fill="#263238"/>
<path d="M1125.04 522.524C1153.38 521.162 1175.24 497.088 1173.88 468.752C1172.52 440.417 1148.44 418.551 1120.11 419.913C1091.77 421.274 1069.91 445.349 1071.27 473.684C1072.63 502.019 1096.7 523.885 1125.04 522.524Z" fill="#263238"/>
<path d="M1071.24 470.398C1071.24 470.442 1071.23 470.486 1071.23 470.53C1070.82 498.895 1093.49 522.223 1121.85 522.633C1150.22 523.042 1173.55 500.378 1173.96 472.012C1173.96 471.967 1173.95 471.924 1173.95 471.879L1071.24 470.398Z" fill="#263238"/>
<path d="M1086.54 470.751C1086.25 490.667 1102.16 507.044 1122.08 507.331C1141.99 507.619 1158.37 491.707 1158.66 471.791C1158.94 451.876 1143.03 435.498 1123.12 435.21C1103.2 434.924 1086.82 450.835 1086.54 470.751Z" fill="#FAFAFA"/>
<path d="M1123.12 435.21C1103.2 434.923 1086.82 450.835 1086.54 470.751L1158.66 471.791C1158.94 451.876 1143.03 435.498 1123.12 435.21Z" fill="#E0E0E0"/>
<path d="M1100.63 470.954C1100.46 483.086 1110.15 493.062 1122.28 493.237C1134.41 493.412 1144.39 483.719 1144.56 471.589C1144.74 459.457 1135.04 449.48 1122.91 449.306C1110.78 449.13 1100.81 458.822 1100.63 470.954Z" fill="#263238"/>
<path d="M1098.21 395.952C1098.21 395.952 1150.81 380.044 1172.56 437.183L1062.5 471.271L1098.21 395.952Z" fill="#E8505B"/>
<path d="M808.11 522.534C836.446 521.173 858.313 497.098 856.951 468.763C855.589 440.428 831.515 418.562 803.179 419.923C774.843 421.285 752.976 445.359 754.338 473.695C755.699 502.03 779.774 523.896 808.11 522.534Z" fill="#263238"/>
<path d="M754.297 470.398C754.296 470.442 754.289 470.486 754.289 470.53C753.879 498.896 776.544 522.224 804.91 522.633C833.277 523.043 856.605 500.378 857.013 472.012C857.013 471.967 857.008 471.924 857.008 471.879L754.297 470.398Z" fill="#263238"/>
<path d="M769.593 470.751C769.306 490.667 785.217 507.044 805.132 507.332C825.048 507.619 841.425 491.707 841.712 471.791C842 451.876 826.088 435.498 806.172 435.211C786.257 434.924 769.88 450.835 769.593 470.751Z" fill="#FAFAFA"/>
<path d="M806.171 435.211C786.256 434.923 769.879 450.835 769.592 470.751L841.712 471.791C841.999 451.877 826.087 435.498 806.171 435.211Z" fill="#E0E0E0"/>
<path d="M783.687 470.955C783.512 483.087 793.205 493.063 805.335 493.237C817.467 493.412 827.443 483.72 827.619 471.589C827.794 459.457 818.1 449.481 805.97 449.306C793.838 449.13 783.862 458.823 783.687 470.955Z" fill="#263238"/>
<path d="M878.716 450.649C878.431 450.795 851.683 446.513 851.683 446.513C848.752 450.332 844.29 452.669 839.482 452.9C827.931 453.454 816.632 453.963 806.849 454.4C797.723 454.808 790.653 462.526 791.038 471.653L791.04 471.667C791.404 480.294 798.327 487.198 806.957 487.539L863.842 489.779C873.195 490.147 885.631 484.461 891.471 477.145L878.716 450.649Z" fill="#455A64"/>
<path d="M738.965 427.916C738.965 427.916 736.518 377.856 783.563 367.426V361.008H948.375V376.312C948.375 376.312 924.185 405.439 932.083 429.63C939.983 453.821 942.45 456.288 942.45 456.288H1036.25C1036.25 456.288 1047.6 441.972 1048.1 420.743C1048.59 399.514 1039.77 363.214 1033.19 340.011C1027.2 318.913 1023.41 301.272 1023.41 301.272L1051.55 291.893C1051.55 291.893 1103.62 359.974 1105.75 363.803C1107.88 367.631 1115.11 376.564 1113.41 396.131C1111.7 415.699 1064.91 476.101 1052.58 482.908C1040.24 489.714 1029.18 490.139 1018.12 491.841C1008.52 493.319 937.512 492.341 918.937 492.057C912.486 491.959 906.116 490.311 900.598 486.964C895.044 483.596 890.866 478.023 886.256 468.87L876.472 449.728L738.965 427.916Z" fill="#E8505B"/>
<path d="M751.577 424.434L730.817 456.949C728.158 461.111 732.459 466.35 736.99 464.386C739.187 463.434 741.554 461.945 743.954 459.663C753.449 450.63 770.371 426.837 770.371 426.837L751.577 424.434Z" fill="#455A64"/>
<path d="M900.435 430.291C900.425 430.287 900.466 430.126 900.557 429.817C900.66 429.479 900.798 429.027 900.974 428.452C901.328 427.249 901.753 425.445 902.06 423.087C902.589 418.408 902.348 411.258 898.848 403.465C897.142 399.58 894.614 395.608 891.201 391.965C887.77 388.348 883.531 385.004 878.585 382.341C873.656 379.659 868.089 377.553 862.123 376.214C856.156 374.875 849.811 374.27 843.321 374.27C836.824 374.269 830.49 374.846 824.412 375.657C818.332 376.476 812.496 377.484 807.004 378.738C796.012 381.209 786.447 384.866 779.048 389.082C771.624 393.27 766.36 397.84 763.073 401.272C761.415 402.983 760.228 404.405 759.433 405.376C759.057 405.846 758.762 406.215 758.541 406.492C758.336 406.742 758.228 406.866 758.218 406.859C758.218 406.859 759.62 404.597 762.889 401.096C766.132 397.595 771.381 392.944 778.82 388.68C786.232 384.387 795.84 380.664 806.869 378.15C812.38 376.876 818.231 375.852 824.326 375.022C830.422 374.2 836.785 373.615 843.321 373.616C849.851 373.616 856.243 374.229 862.265 375.588C868.284 376.948 873.901 379.087 878.876 381.812C883.866 384.518 888.143 387.916 891.598 391.593C895.036 395.297 897.575 399.337 899.273 403.277C902.758 411.181 902.926 418.411 902.314 423.117C901.965 425.489 901.496 427.295 901.101 428.489C900.898 429.058 900.739 429.504 900.619 429.839C900.508 430.141 900.446 430.295 900.435 430.291Z" fill="#263238"/>
<path d="M890.939 419.051C890.869 419.023 891.215 418.261 891.561 416.822C891.948 415.393 892.113 413.215 891.748 410.599C891.389 407.978 890.38 404.939 888.687 401.872C887.858 400.331 886.835 398.792 885.649 397.302C884.481 395.798 883.106 394.367 881.566 393.072C878.468 390.471 875.016 388.64 871.763 387.338C868.487 386.072 865.395 385.314 862.77 384.882C860.143 384.444 857.988 384.259 856.499 384.169C855.01 384.077 854.182 384.043 854.182 383.992C854.182 383.969 854.389 383.95 854.783 383.935C855.178 383.926 855.761 383.894 856.51 383.915C858.008 383.928 860.183 384.042 862.843 384.426C865.502 384.804 868.644 385.523 871.982 386.778C875.299 388.069 878.819 389.914 881.986 392.572C883.567 393.901 884.967 395.366 886.152 396.906C887.355 398.431 888.385 400.005 889.216 401.586C890.913 404.728 891.898 407.849 892.206 410.538C892.52 413.224 892.277 415.45 891.806 416.887C891.658 417.63 891.338 418.143 891.209 418.514C891.052 418.875 890.96 419.06 890.939 419.051Z" fill="#F5F5F5"/>
<g opacity="0.4">
<path d="M858.664 375.192C867.875 376.95 875.927 380.253 883.482 385.295C891.037 390.338 896.819 397.478 900.107 405.945C903.395 414.412 902.903 425.627 899.442 432.641L911.086 433.605C915.009 420.532 910.738 404.485 901.318 394.249C890.265 382.24 875.061 375.192 858.664 375.192Z" fill="black"/>
</g>
<path d="M854.954 361.009H753.077C747.124 361.009 742.299 356.184 742.299 350.231V283.706C742.299 277.753 747.124 272.928 753.077 272.928H854.954C860.906 272.928 865.732 277.753 865.732 283.706V350.231C865.73 356.184 860.906 361.009 854.954 361.009Z" fill="#455A64"/>
<path d="M865.731 292.584C865.731 292.765 837.979 292.911 803.754 292.911C769.518 292.911 741.771 292.765 741.771 292.584C741.771 292.403 769.517 292.257 803.754 292.257C837.979 292.257 865.731 292.403 865.731 292.584Z" fill="#263238"/>
<path d="M948.294 366.839C948.294 367.02 911.252 367.166 865.57 367.166C819.871 367.166 782.837 367.019 782.837 366.839C782.837 366.66 819.871 366.513 865.57 366.513C911.252 366.513 948.294 366.66 948.294 366.839Z" fill="#263238"/>
<path d="M948.374 361.009C948.374 361.009 951.093 357.765 951.353 353.626C951.613 349.486 949.725 344.312 945.271 344.312H888.361C879.139 344.312 871.664 351.788 871.664 361.009H948.374Z" fill="#455A64"/>
<path d="M1023.42 301.272L1013.52 280.632C1010.81 274.762 1012.97 267.799 1018.52 264.487L1048.12 246.835C1049.66 245.911 1051.43 245.424 1053.23 245.424H1059.63L1062.19 287.144L1052.32 290.918L1058.57 301.074L1023.42 301.272Z" fill="#E8505B"/>
<path d="M1059.72 246.939C1059.72 246.939 1069.85 249.261 1071.12 264.871C1072.4 280.482 1062.19 285.34 1062.19 285.34L1059.72 246.939Z" fill="#EBEBEB"/>
<path d="M1026.86 272.546C1026.86 272.546 1006.39 282.247 1003.9 283.839C1002.16 284.943 1000.68 286.878 1002.03 290.279C1004.35 296.078 1013.92 290.623 1013.92 290.623L1032.97 281.098C1032.97 281.098 1040.3 277.639 1037.6 273.314C1034.57 268.471 1026.86 272.546 1026.86 272.546Z" fill="#263238"/>
<path d="M997.896 269.007C997.896 269.007 1017.12 272.304 1018.75 272.738C1020.39 273.173 1026.8 276.219 1027.13 278.178C1027.46 280.137 1027.13 285.902 1027.13 285.902C1027.13 285.902 1025.97 286.848 1025.25 284.961C1024.52 283.074 1024.63 279.341 1024.63 279.341L1021.04 277.959L1023 281.441L1023.32 289.6C1023.32 289.6 1020.82 289.371 1020.33 287.419C1019.84 285.467 1019.85 283.291 1019.85 283.291L1017.23 281.072L1019.19 283.726L1019.85 289.6C1019.85 289.6 1017.94 290.218 1017.34 288.914C1016.74 287.61 1016.69 283.726 1016.69 283.726L1009.3 281.145L1004.41 283.869L996.719 279.654L997.896 269.007Z" fill="#B78876"/>
<path d="M1027.84 242.229C1027.84 250.012 1024.27 256.322 1019.85 256.322C1015.44 256.322 1011.86 250.013 1011.86 242.229C1011.86 234.445 1015.44 228.136 1019.85 228.136C1024.27 228.136 1027.84 234.445 1027.84 242.229Z" fill="#263238"/>
<path d="M1021.16 251.919L1025.55 267.135C1027.52 266.14 1027.92 264.186 1027.6 262.643C1026.5 257.431 1025.88 253.719 1024.67 249.157C1024.52 248.693 1021.16 251.919 1021.16 251.919Z" fill="#263238"/>
<g opacity="0.4">
<path d="M934.253 436.132C933.818 434.879 933.376 433.595 932.956 432.278C932.566 431.051 932.106 429.777 931.769 428.557C931.167 426.373 930.819 424.122 930.671 422.822C923.262 452.995 934.574 474.242 954.004 475.736C982.389 477.918 1017 479.506 1031 475.831C1056.51 469.134 1065.87 447.861 1068.11 444.353C1070.34 440.845 1090.64 403.751 1078.2 368.03C1065.76 332.309 1044.08 294.385 1044.08 294.385L1023.42 301.273C1023.42 301.273 1027.2 318.914 1033.19 340.012C1039.77 363.216 1048.59 399.517 1048.1 420.744C1047.61 441.973 1036.25 456.289 1036.25 456.289H942.454C942.451 456.289 940.441 454.274 934.253 436.132Z" fill="black"/>
</g>
<path d="M735.214 420.066L735.875 412.909L907.083 432.632C916.745 433.765 923.461 442.797 921.767 452.377L920.998 456.717L743.802 430.968C738.495 430.196 734.722 425.405 735.214 420.066Z" fill="#E8505B"/>
<g opacity="0.6">
<path d="M735.214 420.066L735.875 412.909L907.083 432.632C916.745 433.765 923.461 442.797 921.767 452.377L920.998 456.717L743.802 430.968C738.495 430.196 734.722 425.405 735.214 420.066Z" fill="black"/>
</g>
<g opacity="0.3">
<path d="M1068.1 467.963C1068.1 467.963 1105.79 426.509 1113.56 393.917C1116.18 393.891 1122.26 394.156 1125.24 394.782C1125.24 394.782 1102.95 455.366 1068.1 467.963Z" fill="black"/>
</g>
<path d="M1113.02 379.308C1113.04 379.304 1113.11 379.665 1113.22 380.355C1113.32 381.047 1113.53 382.063 1113.65 383.387C1113.9 386.032 1114.06 389.915 1113.36 394.64C1112.68 399.36 1111.07 404.867 1108.39 410.57C1105.77 416.305 1102.16 422.22 1098.41 428.408C1090.86 440.827 1082.46 450.987 1076.35 458.241C1073.28 461.863 1070.75 464.753 1068.99 466.742C1068.13 467.696 1067.45 468.454 1066.95 469.02C1066.47 469.535 1066.22 469.799 1066.2 469.785C1066.18 469.77 1066.41 469.477 1066.85 468.934C1067.33 468.35 1067.98 467.565 1068.79 466.577C1070.54 464.49 1072.98 461.554 1075.99 457.946C1082.01 450.621 1090.33 440.439 1097.85 428.071C1101.6 421.881 1105.21 415.997 1107.84 410.318C1110.53 404.67 1112.17 399.238 1112.9 394.572C1113.65 389.902 1113.56 386.051 1113.4 383.412C1113.31 382.092 1113.15 381.074 1113.09 380.377C1113.02 379.68 1113 379.312 1113.02 379.308Z" fill="#263238"/>
<path d="M1047.87 467.662C1047.74 467.791 1045.04 465.35 1041.83 462.209C1038.62 459.069 1036.12 456.419 1036.25 456.29C1036.38 456.16 1039.08 458.601 1042.29 461.742C1045.49 464.881 1047.99 467.532 1047.87 467.662Z" fill="#263238"/>
<path d="M936.012 466.384C935.857 466.314 936.891 463.789 938.778 461.02C940.654 458.242 942.618 456.349 942.74 456.468C942.882 456.596 941.163 458.657 939.318 461.388C937.463 464.109 936.185 466.468 936.012 466.384Z" fill="#263238"/>
<path d="M863.597 490.319C863.444 490.191 866.301 488.373 868.738 483.787C869.953 481.525 870.954 478.571 871.257 475.188C871.568 471.819 871.08 468.006 869.428 464.462C867.713 460.947 865.057 458.167 862.24 456.288C859.42 454.394 856.494 453.314 853.972 452.835C848.875 451.845 845.665 452.922 845.661 452.722C845.656 452.701 845.848 452.643 846.223 452.552C846.598 452.481 847.145 452.298 847.874 452.232C849.318 452.007 851.467 451.939 854.057 452.38C856.645 452.811 859.66 453.869 862.576 455.787C865.485 457.688 868.244 460.54 870.018 464.18C871.729 467.849 872.21 471.787 871.857 475.243C871.513 478.714 870.439 481.725 869.145 484.007C867.857 486.299 866.453 487.926 865.37 488.907C864.86 489.432 864.374 489.741 864.082 489.988C863.777 490.222 863.611 490.336 863.597 490.319Z" fill="#263238"/>
<path d="M801.079 477.194C800.898 477.203 800.623 474.5 800.464 471.157C800.304 467.812 800.322 465.095 800.503 465.087C800.683 465.079 800.959 467.782 801.118 471.126C801.276 474.468 801.259 477.186 801.079 477.194Z" fill="#263238"/>
<path d="M805.62 477.203C805.44 477.226 804.949 474.528 804.52 471.179C804.092 467.829 803.891 465.095 804.071 465.072C804.25 465.05 804.742 467.746 805.17 471.096C805.597 474.446 805.799 477.181 805.62 477.203Z" fill="#263238"/>
<path d="M876.227 361.009C876.227 361.19 855.41 361.336 829.738 361.336C804.057 361.336 783.245 361.189 783.245 361.009C783.245 360.829 804.057 360.682 829.738 360.682C855.41 360.681 876.227 360.828 876.227 361.009Z" fill="#263238"/>
<path d="M808.82 360.945C808.639 360.945 808.493 337.103 808.493 307.701C808.493 278.287 808.64 254.452 808.82 254.452C809.001 254.452 809.146 278.289 809.146 307.701C809.146 337.104 808.999 360.945 808.82 360.945Z" fill="#263238"/>
<path d="M796.073 360.859C795.892 360.852 796.784 337.023 798.063 307.643C799.343 278.253 800.527 254.443 800.708 254.451C800.888 254.458 799.997 278.282 798.718 307.672C797.437 337.052 796.254 360.867 796.073 360.859Z" fill="#263238"/>
<path d="M767.24 506.144C767.222 506.159 767.034 505.968 766.688 505.59C766.353 505.205 765.819 504.666 765.222 503.897C763.981 502.399 762.316 500.112 760.586 497.085C757.113 491.091 753.671 481.726 753.713 471.007C753.759 460.285 757.28 450.948 760.802 444.982C762.558 441.969 764.24 439.695 765.495 438.209C766.098 437.445 766.637 436.911 766.975 436.528C767.323 436.154 767.514 435.964 767.531 435.979C767.548 435.994 767.39 436.213 767.075 436.615C766.77 437.025 766.264 437.584 765.694 438.368C764.507 439.895 762.894 442.194 761.206 445.209C757.815 451.183 754.414 460.427 754.368 471.008C754.326 481.588 757.65 490.857 760.991 496.859C762.654 499.888 764.249 502.201 765.423 503.739C765.986 504.527 766.487 505.09 766.789 505.502C767.1 505.909 767.256 506.129 767.24 506.144Z" fill="#455A64"/>
<path d="M947.217 410.427L946.825 411.165L939.264 425.401L928.661 435.611L949.851 463.821L967.509 460.893C967.509 460.893 965.526 456.861 956.665 456.084L953.277 439.222L965.729 419.925" fill="#455A64"/>
<path d="M928.661 435.612L949.851 463.823L967.508 460.894L965.078 458.57L950.588 460.162L930.916 433.441L928.661 435.612Z" fill="#E0E0E0"/>
<path d="M955.259 448.334C955.159 448.536 954.045 448.127 952.685 448.393C951.318 448.62 950.419 449.393 950.253 449.24C950.065 449.134 950.884 447.91 952.545 447.619C954.203 447.31 955.399 448.169 955.259 448.334Z" fill="#263238"/>
<path d="M954.276 444.177C954.12 444.331 953.16 443.419 951.706 443.379C950.253 443.324 949.235 444.169 949.09 444.006C949.017 443.937 949.17 443.606 949.621 443.253C950.062 442.903 950.832 442.564 951.732 442.593C952.63 442.623 953.376 443.012 953.793 443.392C954.222 443.772 954.353 444.111 954.276 444.177Z" fill="#263238"/>
<path d="M953.492 438.756C953.315 438.885 952.543 437.966 951.242 437.745C949.943 437.507 948.904 438.108 948.782 437.926C948.721 437.845 948.903 437.561 949.361 437.298C949.811 437.034 950.56 436.826 951.379 436.97C952.198 437.114 952.83 437.566 953.163 437.967C953.503 438.372 953.579 438.701 953.492 438.756Z" fill="#263238"/>
<path d="M957.522 433.782C957.325 433.89 956.661 432.969 955.446 432.442C954.248 431.879 953.117 431.992 953.068 431.771C952.974 431.576 954.292 431.049 955.771 431.724C957.254 432.385 957.729 433.723 957.522 433.782Z" fill="#263238"/>
<path d="M959.221 429.774C959.141 429.848 958.441 429.233 957.373 428.182C956.766 427.565 956.155 426.943 955.528 426.307C955.204 425.936 954.788 425.635 954.471 425.017C954.324 424.703 954.266 424.311 954.401 423.927C954.519 423.522 954.976 423.203 955.374 423.193C956.163 423.177 956.66 423.502 957.166 423.775C957.66 424.075 958.084 424.437 958.442 424.822C959.156 425.599 959.574 426.466 959.793 427.217C960.225 428.75 959.862 429.725 959.794 429.694C959.652 429.688 959.792 428.737 959.265 427.394C959.003 426.732 958.575 425.983 957.917 425.323C957.588 424.996 957.206 424.691 956.774 424.439C956.353 424.201 955.813 423.951 955.446 423.977C955.27 424 955.194 424.059 955.138 424.193C955.086 424.335 955.096 424.53 955.175 424.701C955.333 425.061 955.745 425.442 956.062 425.816C956.646 426.492 957.217 427.152 957.784 427.805C958.745 428.953 959.302 429.701 959.221 429.774Z" fill="#263238"/>
<path d="M959.94 430.193C959.856 430.202 959.769 429.262 960.548 428.041C961.311 426.883 963.172 425.469 965.625 426.226C965.809 426.337 965.978 426.567 966.004 426.811C966.036 427.057 965.961 427.256 965.885 427.405C965.721 427.714 965.513 427.889 965.345 428.066C964.983 428.422 964.6 428.728 964.215 428.987C963.446 429.507 962.669 429.832 962 430.022C960.652 430.398 959.782 430.27 959.784 430.182C959.774 430.056 960.611 429.979 961.821 429.496C962.422 429.255 963.115 428.903 963.797 428.395C964.137 428.143 964.476 427.852 964.797 427.523C964.959 427.351 965.123 427.189 965.188 427.05C965.248 426.88 965.233 426.929 965.198 426.888C965.13 426.831 964.881 426.797 964.655 426.783C964.429 426.767 964.203 426.77 963.983 426.791C963.542 426.83 963.122 426.937 962.743 427.089C961.979 427.39 961.4 427.885 960.998 428.371C960.195 429.365 960.067 430.223 959.94 430.193Z" fill="#263238"/>
<path d="M942.656 432.733C942.85 433.89 942.068 434.984 940.911 435.177C939.754 435.37 938.66 434.589 938.468 433.432C938.274 432.275 939.056 431.18 940.213 430.988C941.369 430.796 942.463 431.576 942.656 432.733Z" fill="#E0E0E0"/>
<path d="M1011.54 423.998L1017.2 460.789L1063.01 453.973C1062.09 449.638 1037.09 444.378 1037.09 444.378L1034.42 420.656L1011.54 423.998Z" fill="#455A64"/>
<path d="M1022.63 444.501C1021.78 444.875 1021.31 445.963 1021.65 446.827C1021.99 447.693 1023.09 448.174 1023.95 447.815C1024.81 447.456 1025.41 446.167 1024.97 445.345C1024.54 444.523 1023.21 444.028 1022.47 444.582" fill="#E0E0E0"/>
<path d="M1017.2 460.789L1016.78 457.057L1060.86 451.918C1060.86 451.918 1063.03 452.502 1063.01 453.972L1017.2 460.789Z" fill="#E0E0E0"/>
<path d="M1037.8 444.035C1037.82 444.26 1036.72 444.527 1035.73 445.41C1034.71 446.267 1034.29 447.321 1034.07 447.262C1033.85 447.25 1033.99 445.863 1035.21 444.815C1036.42 443.756 1037.81 443.821 1037.8 444.035Z" fill="#263238"/>
<path d="M1042.9 445.306C1042.98 445.516 1042.07 446.04 1041.45 447.099C1040.8 448.139 1040.76 449.19 1040.54 449.214C1040.33 449.281 1039.98 447.993 1040.78 446.692C1041.56 445.384 1042.86 445.094 1042.9 445.306Z" fill="#263238"/>
<path d="M1046.48 450.652C1046.28 450.729 1045.81 449.658 1046.2 448.348C1046.58 447.033 1047.56 446.394 1047.69 446.566C1047.84 446.731 1047.26 447.489 1046.95 448.57C1046.62 449.643 1046.7 450.596 1046.48 450.652Z" fill="#263238"/>
<path d="M1036.59 438.695C1036.53 438.913 1035.45 438.757 1034.2 439.031C1032.94 439.28 1032.02 439.85 1031.88 439.675C1031.73 439.533 1032.56 438.562 1034.04 438.259C1035.52 437.948 1036.67 438.503 1036.59 438.695Z" fill="#263238"/>
<path d="M1034.69 433.423C1034.7 433.514 1033.84 433.784 1032.39 433.752C1031.67 433.734 1030.81 433.627 1029.88 433.371C1029.42 433.242 1028.94 433.077 1028.46 432.869C1028.23 432.764 1027.96 432.665 1027.69 432.431C1027.41 432.235 1027.18 431.663 1027.41 431.257C1027.59 430.87 1027.98 430.656 1028.31 430.6C1028.65 430.538 1028.93 430.566 1029.19 430.591C1029.72 430.639 1030.22 430.737 1030.69 430.869C1031.62 431.136 1032.41 431.534 1033.01 431.943C1034.22 432.769 1034.71 433.551 1034.64 433.605C1034.55 433.694 1033.92 433.07 1032.72 432.419C1032.12 432.095 1031.37 431.779 1030.51 431.571C1030.07 431.469 1029.61 431.394 1029.13 431.361C1028.62 431.306 1028.21 431.364 1028.12 431.599C1028.09 431.688 1028.08 431.722 1028.21 431.847C1028.33 431.963 1028.55 432.062 1028.78 432.165C1029.22 432.369 1029.66 432.538 1030.09 432.678C1030.95 432.955 1031.75 433.112 1032.43 433.198C1033.8 433.369 1034.67 433.301 1034.69 433.423Z" fill="#263238"/>
<path d="M1034.45 433.787C1034.37 433.834 1033.81 433.097 1033.51 431.661C1033.37 430.949 1033.31 430.067 1033.45 429.104C1033.52 428.622 1033.64 428.124 1033.83 427.624C1034.03 427.131 1034.27 426.477 1035.12 426.248C1035.57 426.164 1036 426.462 1036.17 426.746C1036.37 427.033 1036.44 427.295 1036.53 427.552C1036.7 428.075 1036.77 428.601 1036.76 429.097C1036.77 430.094 1036.49 430.964 1036.14 431.612C1035.42 432.933 1034.53 433.339 1034.5 433.266C1034.4 433.164 1035.12 432.616 1035.64 431.374C1035.89 430.761 1036.08 429.974 1036.04 429.11C1036.02 428.679 1035.95 428.231 1035.8 427.791C1035.66 427.315 1035.42 426.949 1035.24 427.026C1035.01 427.056 1034.68 427.481 1034.55 427.896C1034.38 428.342 1034.25 428.79 1034.17 429.224C1034 430.095 1034 430.906 1034.06 431.58C1034.2 432.933 1034.56 433.734 1034.45 433.787Z" fill="#263238"/>
<path d="M975.493 337.59L936.206 423.192L962.151 438.768L1016.47 335.767" fill="#263238"/>
<path d="M1040.28 440.723L1012.09 445.243L995.216 344.568L911.865 350.611C909.657 350.747 907.428 350.561 905.294 349.975C881.882 343.561 885.051 313.714 887.307 308.929L1002.65 305.616C1015.16 305.256 1025.94 314.363 1027.68 326.759L1040.28 440.723Z" fill="#263238"/>
<path d="M886.167 313.666L886.585 271.1C886.585 271.1 881.091 243.424 879.466 232.546C876.942 215.653 873.486 207.635 901.151 195.627L907.197 193.295L916.558 193.419C927.721 194.258 939.481 204.347 939.751 211.038L950.521 306.951L886.167 313.666Z" fill="#E8505B"/>
<path d="M887.898 205.525C887.898 205.525 880.091 222.331 881.652 237.642L910.753 265.58C917.281 272.847 925.441 275.933 935.875 276.565L996.107 283.15L997.779 267.392L940.485 251.154C938.206 250.735 937.068 248.353 935.32 246.83L887.898 205.525Z" fill="#E8505B"/>
<path d="M883.191 210.364C883.191 210.364 883.519 210.005 884.346 209.591C885.171 209.184 886.484 208.77 888.238 208.503C889.985 208.256 892.196 208.059 894.745 208.521C895.374 208.668 896.038 208.818 896.659 209.177C897.266 209.524 897.841 209.944 898.429 210.388C899.592 211.289 900.763 212.323 901.95 213.463C904.367 215.712 906.645 218.564 909.322 221.451C911.989 224.358 914.93 227.446 918.111 230.697C921.293 233.948 924.722 237.359 928.4 240.874C930.246 242.624 932.15 244.407 934.159 246.154C935.179 246.991 936.187 247.971 937.154 248.888C938.139 249.788 939.25 250.633 940.536 250.869L940.554 250.873L940.567 250.877C957.606 255.695 977.145 261.219 997.87 267.079L998.136 267.155L998.107 267.428C997.989 268.543 997.86 269.748 997.732 270.956C997.288 275.146 996.847 279.29 996.433 283.185L996.399 283.51L996.074 283.475C987.311 282.513 978.789 281.578 970.583 280.677C966.48 280.225 962.456 279.783 958.521 279.349C954.581 278.951 950.731 278.563 946.977 278.183C943.226 277.773 939.577 277.341 936.045 276.825C932.517 276.312 929.08 275.656 925.925 274.474C922.761 273.319 919.938 271.666 917.398 269.895C914.85 268.124 912.532 266.271 910.359 264.46C901.752 257.112 895.433 250.55 891.047 246.075C888.869 243.821 887.204 242.053 886.087 240.845C885.546 240.251 885.127 239.793 884.827 239.463C884.547 239.149 884.416 238.976 884.416 238.976C884.416 238.976 884.577 239.12 884.872 239.419C885.184 239.739 885.615 240.182 886.176 240.759C887.345 241.952 889.039 243.682 891.218 245.906C895.653 250.325 902.022 256.839 910.64 264.119C912.813 265.911 915.135 267.75 917.671 269.495C920.202 271.243 922.987 272.857 926.104 273.982C929.214 275.136 932.605 275.773 936.124 276.274C939.645 276.778 943.291 277.2 947.039 277.601C950.79 277.971 954.64 278.352 958.58 278.741C962.517 279.168 966.542 279.606 970.645 280.05C978.854 280.944 987.379 281.872 996.144 282.827L995.785 283.116C996.198 279.221 996.638 275.075 997.081 270.886C997.21 269.677 997.338 268.472 997.456 267.358L997.692 267.707C976.973 261.822 957.442 256.274 940.408 251.435L940.438 251.441C938.949 251.158 937.778 250.229 936.77 249.309C935.758 248.347 934.835 247.438 933.792 246.577C931.776 244.813 929.875 243.021 928.031 241.261C924.357 237.727 920.939 234.3 917.768 231.031C914.597 227.762 911.67 224.657 909.016 221.73C906.341 218.813 904.094 215.958 901.712 213.709C900.54 212.568 899.386 211.53 898.243 210.629C897.669 210.186 897.097 209.763 896.518 209.424C895.949 209.085 895.302 208.929 894.694 208.78C892.207 208.3 890 208.464 888.267 208.682C886.524 208.918 885.217 209.3 884.389 209.674C883.558 210.056 883.214 210.393 883.191 210.364Z" fill="#263238"/>
<path d="M898.224 156.378L901.149 197.812C901.626 204.577 907.253 209.821 914.034 209.821C921.5 209.821 927.415 203.508 926.925 196.058C926.666 192.115 926.431 188.885 926.431 188.885C926.431 188.885 936.462 187.324 936.586 177.297C936.658 171.504 935.659 158.359 934.802 148.29C934.223 141.482 928.524 136.256 921.691 136.256H915.632C905.2 136.864 897.327 145.965 898.224 156.378Z" fill="#AA6550"/>
<path d="M926.449 188.739C926.449 188.739 920.111 189.254 913.375 185.023C913.375 185.023 916.465 192.24 926.473 191.337L926.449 188.739Z" fill="#B78876"/>
<path d="M932.546 161.176C932.572 161.932 931.954 162.579 931.165 162.621C930.378 162.662 929.716 162.085 929.689 161.329C929.663 160.573 930.281 159.926 931.069 159.883C931.858 159.842 932.52 160.42 932.546 161.176Z" fill="#263238"/>
<path d="M933.073 158.345C932.896 158.532 931.81 157.73 930.269 157.733C928.73 157.716 927.598 158.509 927.431 158.319C927.349 158.235 927.53 157.898 928.023 157.54C928.508 157.183 929.334 156.835 930.294 156.84C931.254 156.845 932.062 157.2 932.526 157.56C933 157.924 933.161 158.261 933.073 158.345Z" fill="#263238"/>
<path d="M918.074 161.176C918.101 161.932 917.483 162.578 916.694 162.621C915.906 162.663 915.244 162.085 915.218 161.329C915.191 160.573 915.809 159.926 916.597 159.883C917.386 159.842 918.048 160.42 918.074 161.176Z" fill="#263238"/>
<path d="M917.925 158.633C917.748 158.82 916.661 158.017 915.121 158.021C913.582 158.004 912.45 158.796 912.283 158.607C912.201 158.524 912.379 158.186 912.874 157.828C913.359 157.471 914.186 157.123 915.146 157.127C916.106 157.132 916.913 157.486 917.378 157.847C917.849 158.212 918.011 158.55 917.925 158.633Z" fill="#263238"/>
<path d="M923.517 170.063C923.51 169.975 924.468 169.81 926.02 169.612C926.413 169.572 926.786 169.492 926.853 169.224C926.946 168.94 926.781 168.515 926.59 168.058C926.22 167.106 925.833 166.107 925.427 165.062C923.811 160.795 922.641 157.286 922.813 157.222C922.985 157.158 924.435 160.565 926.051 164.832C926.441 165.884 926.813 166.887 927.167 167.847C927.315 168.294 927.571 168.802 927.37 169.391C927.265 169.685 926.976 169.898 926.723 169.966C926.471 170.043 926.25 170.048 926.055 170.059C924.492 170.143 923.522 170.151 923.517 170.063Z" fill="#263238"/>
<path d="M918.982 171.129C919.233 171.114 919.235 172.788 920.668 173.975C922.097 175.166 923.88 174.979 923.894 175.212C923.916 175.317 923.497 175.537 922.744 175.558C922.006 175.583 920.928 175.346 920.052 174.619C919.179 173.891 918.803 172.92 918.746 172.234C918.681 171.534 918.867 171.119 918.982 171.129Z" fill="#263238"/>
<path d="M918.322 152.593C918.17 153.012 916.631 152.814 914.823 153.031C913.01 153.213 911.552 153.742 911.313 153.367C911.206 153.187 911.46 152.793 912.049 152.387C912.633 151.982 913.565 151.597 914.651 151.476C915.736 151.358 916.73 151.53 917.388 151.798C918.053 152.065 918.387 152.394 918.322 152.593Z" fill="#263238"/>
<path d="M932.507 153.886C932.235 154.236 931.174 153.873 929.897 153.855C928.621 153.794 927.539 154.09 927.291 153.725C927.181 153.548 927.352 153.196 927.825 152.865C928.289 152.535 929.068 152.265 929.946 152.291C930.823 152.319 931.583 152.637 932.028 152.995C932.478 153.354 932.627 153.715 932.507 153.886Z" fill="#263238"/>
<path d="M901.606 163.906C901.435 163.832 894.715 161.868 894.934 168.724C895.153 175.581 901.992 173.946 901.997 173.749C902.002 173.553 901.606 163.906 901.606 163.906Z" fill="#AA6550"/>
<path d="M899.82 171.219C899.788 171.197 899.703 171.307 899.504 171.405C899.311 171.501 898.974 171.574 898.612 171.451C897.88 171.209 897.233 170.078 897.16 168.843C897.122 168.22 897.234 167.621 897.44 167.122C897.634 166.613 897.947 166.253 898.31 166.176C898.67 166.081 898.935 166.29 899.026 166.481C899.124 166.67 899.085 166.808 899.121 166.819C899.141 166.836 899.264 166.7 899.2 166.418C899.168 166.283 899.082 166.125 898.916 165.998C898.747 165.869 898.503 165.809 898.251 165.844C897.723 165.897 897.263 166.4 897.037 166.947C896.782 167.499 896.643 168.171 896.684 168.872C896.772 170.253 897.521 171.523 898.521 171.778C899.007 171.888 899.405 171.73 899.607 171.562C899.812 171.385 899.844 171.23 899.82 171.219Z" fill="#B78876"/>
<path d="M897.79 163.673C898.836 163.421 900.645 164.386 901.091 165.364C901.537 166.343 901.635 167.454 902.079 168.432C902.524 169.412 903.529 170.298 904.576 170.05C905.298 169.879 905.814 169.202 906.004 168.486C906.195 167.769 906.117 167.011 906.024 166.275C905.62 163.073 904.946 159.898 904.818 156.673C904.689 153.448 905.148 150.098 906.842 147.35C908.535 144.603 911.646 142.583 914.862 142.842C916.993 143.014 918.948 144.124 921.064 144.421C923.574 144.772 926.228 143.887 928.024 142.098C928.254 141.869 929.324 141.163 929.324 141.163C929.324 140.997 929.167 139.565 928.603 139.043C924.404 135.158 916.836 134.074 911.288 135.471C905.74 136.867 900.54 140.784 898.153 145.982C895.768 151.181 896.475 158.412 897.79 163.673Z" fill="#263238"/>
<path d="M934.914 146.741C934.914 146.741 908.604 138.276 897.222 161.039C897.222 161.039 895.521 155.343 895.521 152.289C895.521 150.25 896.74 138.103 909.238 134.283C909.238 134.283 928.066 127.097 934.914 146.741Z" fill="#E8505B"/>
<path d="M912.307 147.309C913.237 148.812 914.897 149.837 916.655 149.998C918.416 150.157 920.232 149.447 921.417 148.138C921.937 149.435 923.33 150.325 924.726 150.253C926.12 150.18 927.414 149.148 927.795 147.804C928.559 148.545 929.355 149.307 930.354 149.673C931.354 150.039 932.62 149.901 933.277 149.063C933.946 148.209 933.751 146.908 933.095 146.045C932.439 145.181 931.429 144.667 930.428 144.25C927.303 142.945 923.857 142.29 920.5 142.745C917.144 143.2 913.893 144.827 911.795 147.486" fill="#263238"/>
<g opacity="0.4">
<path d="M934.914 146.741C934.914 146.741 931.92 143.18 926.547 142.942C918.787 142.599 904.259 146.964 897.222 161.039C897.222 161.039 895.521 155.343 895.521 152.289C895.521 150.25 896.74 138.103 909.238 134.283C909.238 134.283 928.066 127.097 934.914 146.741Z" fill="black"/>
</g>
<path d="M898.32 158.375C902.222 152.406 907.601 147.47 913.648 143.692C919.696 139.915 929.697 136.177 936.589 134.348C938.658 133.799 940.816 133.319 942.925 133.684C945.034 134.048 947.099 135.452 947.623 137.529C948.279 140.127 943.667 144.137 941.5 145.714C939.333 147.29 934.913 149.603 934.913 149.603C934.913 149.603 934.973 144.784 927.259 143.79C916.766 142.437 898.32 158.375 898.32 158.375Z" fill="#E8505B"/>
<g opacity="0.3">
<path d="M889.062 243.863C891.773 250.412 894.51 258.483 898.441 264.382C902.373 270.28 907.627 275.502 914.166 278.24C922.372 281.674 932.084 282.231 940.252 278.706C940.917 278.418 942.221 278.052 942.102 277.338C942.102 277.338 939.395 277.034 938.564 276.894C922.058 274.11 920.269 272.073 912.369 265.829C907.445 261.936 896.528 250.167 889.062 243.863Z" fill="black"/>
</g>
<path d="M941.519 291.526C941.55 291.54 941.342 292.103 940.833 293.056C940.329 294.014 939.459 295.332 938.165 296.778C935.607 299.692 931.05 302.85 925.382 304.598C919.713 306.34 914.334 306.665 910.505 306.828C908.582 306.899 907.026 306.915 905.952 306.91C904.877 306.904 904.283 306.878 904.281 306.834C904.28 306.789 904.872 306.729 905.945 306.656C907.144 306.579 908.666 306.482 910.481 306.366C914.294 306.085 919.617 305.687 925.188 303.974C930.751 302.256 935.235 299.236 937.828 296.462C940.466 293.702 941.392 291.448 941.519 291.526Z" fill="#263238"/>
<path d="M1012.59 448.252C1012.58 448.253 1012.55 448.121 1012.49 447.862C1012.43 447.567 1012.36 447.187 1012.27 446.707C1012.07 445.645 1011.8 444.153 1011.46 442.252C1010.77 438.335 1009.8 432.742 1008.6 425.847C1006.25 411.949 1003.01 392.818 999.429 371.687C997.834 362.123 996.307 352.97 994.914 344.621L995.239 344.874C980.597 345.945 968.082 346.861 959.178 347.511C954.778 347.81 951.273 348.048 948.821 348.215C947.649 348.284 946.73 348.338 946.062 348.377C945.774 348.388 945.541 348.398 945.351 348.406C945.191 348.41 945.108 348.407 945.108 348.398C945.107 348.389 945.189 348.374 945.347 348.354C945.536 348.333 945.768 348.307 946.054 348.275C946.72 348.212 947.637 348.126 948.806 348.016C951.254 347.808 954.755 347.511 959.149 347.138C968.048 346.428 980.558 345.432 995.193 344.265L995.472 344.242L995.518 344.519C996.924 352.866 998.464 362.016 1000.07 371.579C1003.58 392.723 1006.75 411.865 1009.06 425.772C1010.17 432.68 1011.07 438.284 1011.71 442.21C1012 444.12 1012.23 445.619 1012.4 446.685C1012.46 447.169 1012.52 447.553 1012.56 447.852C1012.59 448.114 1012.6 448.249 1012.59 448.252Z" fill="#455A64"/>
<path d="M1003.68 335.594C1003.8 335.744 1001.6 337.629 999.112 340.168C996.612 342.7 994.761 344.925 994.611 344.809C994.472 344.709 996.112 342.276 998.646 339.71C1001.17 337.136 1003.58 335.457 1003.68 335.594Z" fill="#455A64"/>
<path d="M926.675 196.944C926.697 196.938 926.748 197.078 926.827 197.355C926.919 197.629 926.996 198.043 927.066 198.587C927.193 199.669 927.124 201.297 926.454 203.155C925.776 204.989 924.457 207.055 922.316 208.59C920.189 210.135 917.258 210.935 914.256 210.742C911.247 210.538 908.482 209.406 906.43 207.81C904.355 206.229 902.934 204.316 901.983 202.621C901.044 200.906 900.543 199.4 900.281 198.349C900.152 197.821 900.067 197.409 900.032 197.125C899.99 196.842 899.979 196.693 900.002 196.688C900.144 196.64 900.454 199.081 902.384 202.39C903.364 204.016 904.778 205.836 906.792 207.327C908.781 208.833 911.424 209.893 914.298 210.089C917.165 210.272 919.944 209.528 921.97 208.096C924.013 206.673 925.318 204.729 926.023 202.989C926.719 201.228 926.86 199.665 926.812 198.606C926.768 197.539 926.609 196.959 926.675 196.944Z" fill="#263238"/>
<path d="M944.396 251.802C944.351 251.807 944.258 251.34 944.128 250.492C943.988 249.499 943.819 248.302 943.62 246.898C943.204 243.697 942.669 239.577 942.077 235.022C941.508 230.377 941.061 226.164 940.787 223.11C940.649 221.583 940.551 220.346 940.501 219.489C940.449 218.632 940.442 218.156 940.487 218.153C940.532 218.147 940.625 218.615 940.754 219.463C940.89 220.455 941.055 221.655 941.247 223.06C941.646 226.262 942.159 230.384 942.727 234.943C943.296 239.584 943.788 243.791 944.08 246.844C944.227 248.37 944.329 249.607 944.381 250.464C944.434 251.322 944.442 251.797 944.396 251.802Z" fill="#263238"/>
</svg>
