<svg width="2880" height="1360" viewBox="0 0 2880 1360" fill="none" xmlns="http://www.w3.org/2000/svg">
<rect width="2880" height="1360" fill="#002628"/>
<path d="M2089.19 305.325L2103.99 515.034C2106.41 549.272 2134.89 575.813 2169.21 575.813C2207 575.813 2236.94 543.861 2234.45 506.153C2233.14 486.191 2231.95 469.847 2231.95 469.847C2231.95 469.847 2282.72 461.954 2283.35 411.194C2283.71 381.877 2278.66 315.349 2274.32 264.379C2271.39 229.923 2242.55 203.474 2207.97 203.474H2177.3C2124.49 206.559 2084.65 252.621 2089.19 305.325Z" fill="#B78876"/>
<path d="M2232.04 469.113C2232.04 469.113 2199.96 471.723 2165.87 450.306C2165.87 450.306 2181.51 486.837 2232.16 482.265L2232.04 469.113Z" fill="#AA6550"/>
<path d="M2258.54 325.694C2258.67 329.521 2255.54 332.793 2251.54 333.009C2247.56 333.222 2244.21 330.302 2244.07 326.473C2243.94 322.645 2247.07 319.369 2251.05 319.155C2255.05 318.937 2258.4 321.867 2258.54 325.694Z" fill="#263238"/>
<path d="M2265.57 315.281C2264.67 316.226 2259.18 312.163 2251.38 312.183C2243.59 312.091 2237.87 316.105 2237.02 315.148C2236.61 314.725 2237.52 313.02 2240.01 311.204C2242.47 309.397 2246.65 307.64 2251.51 307.66C2256.37 307.687 2260.46 309.476 2262.81 311.305C2265.2 313.148 2266.01 314.858 2265.57 315.281Z" fill="#263238"/>
<path d="M2182.42 325.694C2182.56 329.521 2179.43 332.793 2175.44 333.007C2171.45 333.22 2168.1 330.3 2167.96 326.47C2167.83 322.643 2170.96 319.367 2174.95 319.153C2178.94 318.937 2182.29 321.867 2182.42 325.694Z" fill="#263238"/>
<path d="M2188.9 316.737C2188 317.682 2182.5 313.618 2174.71 313.641C2166.92 313.549 2161.19 317.56 2160.34 316.606C2159.93 316.183 2160.83 314.478 2163.34 312.664C2165.79 310.855 2169.97 309.1 2174.83 309.118C2179.69 309.145 2183.78 310.934 2186.13 312.766C2188.52 314.604 2189.34 316.314 2188.9 316.737Z" fill="#263238"/>
<path d="M2217.21 374.587C2217.17 374.144 2222.02 373.307 2229.88 372.301C2231.87 372.096 2233.76 371.7 2234.09 370.339C2234.56 368.899 2233.73 366.755 2232.76 364.435C2230.89 359.615 2228.93 354.562 2226.87 349.268C2218.69 327.672 2212.77 309.915 2213.64 309.593C2214.51 309.272 2221.85 326.513 2230.03 348.109C2232 353.435 2233.88 358.511 2235.67 363.368C2236.43 365.632 2237.72 368.199 2236.71 371.185C2236.17 372.672 2234.71 373.754 2233.43 374.099C2232.15 374.488 2231.03 374.51 2230.05 374.569C2222.14 374.994 2217.24 375.03 2217.21 374.587Z" fill="#263238"/>
<path d="M2194.25 379.982C2195.52 379.908 2195.54 388.375 2202.78 394.385C2210.02 400.415 2219.04 399.463 2219.11 400.646C2219.23 401.177 2217.1 402.289 2213.29 402.395C2209.55 402.523 2204.1 401.321 2199.66 397.647C2195.24 393.962 2193.34 389.043 2193.05 385.569C2192.73 382.03 2193.67 379.933 2194.25 379.982Z" fill="#263238"/>
<path d="M2190.91 286.168C2190.14 288.29 2182.36 287.284 2173.2 288.389C2164.03 289.307 2156.65 291.987 2155.43 290.086C2154.89 289.174 2156.18 287.181 2159.16 285.127C2162.12 283.077 2166.84 281.128 2172.33 280.516C2177.83 279.918 2182.86 280.789 2186.19 282.145C2189.55 283.495 2191.24 285.163 2190.91 286.168Z" fill="#263238"/>
<path d="M2262.71 292.707C2261.33 294.477 2255.96 292.639 2249.5 292.554C2243.04 292.241 2237.57 293.744 2236.31 291.892C2235.75 290.992 2236.61 289.219 2239.01 287.541C2241.36 285.869 2245.3 284.503 2249.74 284.638C2254.18 284.78 2258.03 286.384 2260.28 288.2C2262.56 290.018 2263.31 291.843 2262.71 292.707Z" fill="#263238"/>
<path d="M2106.3 343.424C2105.44 343.049 2071.42 333.108 2072.53 367.81C2073.64 402.514 2108.25 394.243 2108.28 393.244C2108.31 392.249 2106.3 343.424 2106.3 343.424Z" fill="#B78876"/>
<path d="M2097.26 380.437C2097.1 380.331 2096.67 380.88 2095.66 381.379C2094.68 381.868 2092.98 382.237 2091.15 381.616C2087.44 380.387 2084.16 374.665 2083.79 368.417C2083.6 365.26 2084.17 362.232 2085.21 359.707C2086.19 357.133 2087.77 355.309 2089.61 354.922C2091.43 354.438 2092.77 355.502 2093.23 356.465C2093.72 357.421 2093.53 358.121 2093.71 358.175C2093.81 358.258 2094.44 357.57 2094.12 356.146C2093.95 355.462 2093.52 354.656 2092.68 354.015C2091.83 353.365 2090.59 353.059 2089.31 353.236C2086.64 353.506 2084.31 356.047 2083.17 358.819C2081.88 361.609 2081.17 365.015 2081.38 368.557C2081.83 375.541 2085.61 381.971 2090.68 383.26C2093.14 383.818 2095.15 383.017 2096.18 382.167C2097.22 381.278 2097.38 380.497 2097.26 380.437Z" fill="#AA6550"/>
<path d="M2086.99 342.247C2092.29 340.967 2101.44 345.852 2103.7 350.808C2105.96 355.765 2106.45 361.379 2108.7 366.338C2110.95 371.297 2116.04 375.781 2121.34 374.528C2124.99 373.662 2127.61 370.237 2128.57 366.608C2129.53 362.979 2129.14 359.142 2128.67 355.416C2126.63 339.21 2123.22 323.138 2122.57 306.816C2121.92 290.495 2124.24 273.537 2132.81 259.632C2141.38 245.727 2157.12 235.5 2173.41 236.812C2184.19 237.681 2194.08 243.306 2204.8 244.806C2217.5 246.586 2230.93 242.102 2240.02 233.048C2241.19 231.889 2246.6 228.316 2246.6 228.316C2246.6 227.475 2245.81 220.227 2242.95 217.586C2221.69 197.928 2183.39 192.44 2155.31 199.507C2127.24 206.574 2100.91 226.399 2088.83 252.711C2076.75 279.022 2080.34 315.621 2086.99 342.247Z" fill="#263238"/>
<path d="M2274.89 256.547C2274.89 256.547 2141.72 213.702 2084.11 328.914C2084.11 328.914 2075.51 300.082 2075.51 284.627C2075.51 274.304 2081.68 212.829 2144.94 193.493C2144.94 193.493 2240.23 157.122 2274.89 256.547Z" fill="#E8505B"/>
<path d="M2160.47 259.42C2165.17 267.023 2173.57 272.216 2182.48 273.026C2191.38 273.836 2200.58 270.242 2206.58 263.614C2209.21 270.175 2216.26 274.684 2223.32 274.315C2230.38 273.946 2236.93 268.724 2238.86 261.922C2242.72 265.675 2246.75 269.529 2251.81 271.381C2256.87 273.235 2263.28 272.533 2266.61 268.292C2269.99 263.969 2269.01 257.388 2265.69 253.016C2262.37 248.645 2257.25 246.044 2252.19 243.929C2236.37 237.323 2218.93 234.011 2201.94 236.31C2184.95 238.61 2168.5 246.847 2157.88 260.304" fill="#263238"/>
<g opacity="0.4">
<path d="M2274.89 256.547C2274.89 256.547 2259.73 238.52 2232.54 237.318C2193.26 235.584 2119.74 257.67 2084.11 328.914C2084.11 328.914 2075.51 300.082 2075.51 284.627C2075.51 274.304 2081.68 212.829 2144.94 193.493C2144.94 193.493 2240.23 157.122 2274.89 256.547Z" fill="black"/>
</g>
<path d="M2089.68 315.427C2109.42 285.216 2136.65 260.239 2167.26 241.116C2197.87 221.994 2248.49 203.08 2283.37 193.821C2293.84 191.043 2304.76 188.613 2315.44 190.458C2326.11 192.303 2336.57 199.413 2339.22 209.918C2342.53 223.069 2319.19 243.362 2308.23 251.343C2297.26 259.321 2274.89 271.028 2274.89 271.028C2274.89 271.028 2275.19 246.636 2236.15 241.605C2183.04 234.762 2089.68 315.427 2089.68 315.427Z" fill="#E8505B"/>
<path d="M2198.89 215.918C2198.89 215.918 2218.08 205.303 2237.35 202.83C2233.39 199.932 2231.28 198.539 2226.9 196.557C2217.04 198.517 2207.05 201.019 2196.93 206.635L2198.89 215.918Z" fill="#E0E0E0"/>
<path d="M2306.97 513.499L2264.73 504.193L2247.55 499.898L2233.23 477.706C2233.23 477.706 2226.4 517.369 2200.85 538.724C2193.89 544.538 2184.56 546.624 2175.69 544.763C2169.9 543.548 2163.1 542.047 2158.07 540.704C2156.99 540.418 2155.81 540.038 2154.55 539.588C2135.96 532.914 2120.77 519.275 2111.07 502.069C2105.38 491.985 2100.59 481.635 2102.23 477.708L2082.18 519.228L1964.06 573.633L1897 737.392L2026.97 775.836L2031.02 910.768L2006.53 1080.95L2374.26 1081.21L2361.22 702.546" fill="#E8505B"/>
<path d="M2211.9 660.08C2211.9 660.132 2211.1 660.148 2209.59 660.13C2207.94 660.091 2205.76 660.04 2203.05 659.977C2197.26 659.77 2189.25 659.486 2179.67 659.144L2179.21 659.128L2179.19 658.667C2178.8 648.52 2178.33 636.507 2177.82 623.653C2177.21 605.146 2176.66 588.402 2176.25 576.094C2176.11 570.123 2175.99 565.236 2175.91 561.676C2175.9 560.077 2175.88 558.776 2175.88 557.755C2175.88 556.857 2175.9 556.384 2175.94 556.384C2175.98 556.382 2176.04 556.852 2176.11 557.746C2176.18 558.767 2176.26 560.063 2176.37 561.658C2176.54 565.213 2176.78 570.094 2177.08 576.061C2177.58 588.364 2178.25 605.104 2179 623.605C2179.44 636.464 2179.85 648.477 2180.19 658.627L2179.72 658.15C2189.29 658.663 2197.29 659.09 2203.08 659.401C2205.78 659.578 2207.96 659.72 2209.6 659.828C2211.1 659.938 2211.91 660.026 2211.9 660.08Z" fill="#263238"/>
<path d="M2191.86 605.384C2191.84 605.337 2192.41 604.957 2193.61 604.813C2194.79 604.662 2196.65 604.901 2198.46 606.158C2199.35 606.788 2200.23 607.666 2200.82 608.843C2201.41 610.015 2201.69 611.468 2201.46 612.929C2201.06 615.815 2198.86 618.846 2195.45 619.71C2192.04 620.5 2188.72 618.896 2186.9 616.657C2184.97 614.366 2184.77 611.446 2185.29 609.385C2185.79 607.263 2186.87 605.805 2187.72 604.986C2188.58 604.158 2189.19 603.888 2189.22 603.942C2189.28 604.023 2188.77 604.417 2188.05 605.294C2187.34 606.163 2186.45 607.594 2186.1 609.554C2185.73 611.477 2186.01 614.015 2187.72 615.966C2189.36 617.901 2192.31 619.249 2195.17 618.574C2198.02 617.87 2200 615.246 2200.39 612.767C2200.87 610.213 2199.52 607.985 2197.97 606.824C2196.4 605.614 2194.74 605.263 2193.63 605.267C2192.51 605.265 2191.89 605.483 2191.86 605.384Z" fill="#263238"/>
<path d="M2187.92 557.838C2187.89 557.797 2188.47 557.311 2189.77 556.996C2191.05 556.679 2193.11 556.681 2195.26 557.804C2196.32 558.369 2197.4 559.208 2198.21 560.414C2199.01 561.615 2199.51 563.172 2199.43 564.801C2199.33 568.003 2197.21 571.612 2193.49 572.782C2189.75 573.849 2186.01 572.053 2184.09 569.504C2183.08 568.228 2182.57 566.691 2182.46 565.265C2182.36 563.829 2182.65 562.502 2183.09 561.39C2184 559.149 2185.5 557.779 2186.62 557.111C2187.76 556.431 2188.5 556.328 2188.52 556.382C2188.56 556.479 2187.88 556.731 2186.88 557.487C2185.9 558.229 2184.6 559.597 2183.87 561.681C2183.12 563.712 2183.1 566.606 2184.94 568.842C2186.66 571.052 2190.02 572.575 2193.16 571.659C2196.28 570.699 2198.22 567.54 2198.35 564.754C2198.57 561.865 2196.75 559.577 2194.86 558.528C2192.96 557.419 2191.07 557.28 2189.86 557.446C2188.62 557.604 2187.97 557.937 2187.92 557.838Z" fill="#263238"/>
<path d="M2175.94 739.449C2175.93 739.428 2176.13 739.341 2176.51 739.188C2176.95 739.017 2177.5 738.803 2178.19 738.535C2179.7 738.027 2181.84 737.077 2184.57 735.813C2189.95 733.146 2197.49 728.565 2205.26 721.1C2213.1 713.718 2221.16 703.642 2228.95 691.71C2236.78 679.788 2244.61 666.175 2252.04 651.485C2266.91 622.077 2277.44 594.092 2284.82 573.81C2288.51 563.661 2291.36 555.399 2293.36 549.699C2294.34 546.916 2295.12 544.72 2295.67 543.138C2295.93 542.445 2296.14 541.887 2296.3 541.442C2296.45 541.062 2296.53 540.87 2296.55 540.877C2296.57 540.884 2296.53 541.089 2296.41 541.48C2296.28 541.935 2296.11 542.506 2295.9 543.215C2295.39 544.815 2294.69 547.033 2293.79 549.848C2291.92 555.594 2289.19 563.897 2285.6 574.092C2278.42 594.459 2267.99 622.536 2253.08 652.018C2245.64 666.742 2237.76 680.382 2229.85 692.307C2221.98 704.252 2213.8 714.345 2205.83 721.707C2197.92 729.155 2190.24 733.673 2184.77 736.227C2181.99 737.437 2179.81 738.321 2178.27 738.76C2177.57 738.983 2177 739.161 2176.54 739.302C2176.15 739.419 2175.95 739.469 2175.94 739.449Z" fill="#263238"/>
<path d="M2253.41 694.516C2254.37 694.516 2276.76 692.975 2276.76 692.975C2276.76 692.975 2267.52 709.314 2257.89 715.412H2238.3L2253.41 694.516Z" fill="#FAFAFA"/>
<path d="M2172.03 788.921C2172 788.888 2172.44 788.552 2173.3 787.949C2174.26 787.288 2175.52 786.419 2177.08 785.342C2180.35 783.062 2185.04 779.723 2190.69 775.388C2202.04 766.77 2216.92 753.884 2232.93 739.167C2240.96 731.825 2248.65 724.884 2255.31 718.231C2261.97 711.593 2267.55 705.208 2271.8 699.511C2276.08 693.832 2278.99 688.85 2280.83 685.329C2281.81 683.594 2282.42 682.175 2282.9 681.243C2283.37 680.305 2283.63 679.817 2283.67 679.832C2283.71 679.848 2283.52 680.366 2283.12 681.338C2282.7 682.303 2282.15 683.761 2281.24 685.536C2279.51 689.138 2276.69 694.221 2272.47 700.004C2268.28 705.802 2262.72 712.289 2256.07 718.994C2249.43 725.719 2241.75 732.694 2233.72 740.033C2217.7 754.755 2202.69 767.58 2191.19 776.049C2185.47 780.311 2180.68 783.555 2177.33 785.722C2175.66 786.809 2174.33 787.603 2173.43 788.15C2172.53 788.687 2172.05 788.955 2172.03 788.921Z" fill="#263238"/>
<path d="M2108.94 1038.89C2108.93 1038.87 2109.02 1038.7 2109.22 1038.36C2109.46 1037.97 2109.77 1037.48 2110.14 1036.88C2110.96 1035.58 2112.23 1033.7 2113.91 1031.32C2117.3 1026.58 2122.52 1019.93 2129.4 1012.11C2143.25 996.547 2162.67 975.337 2184.06 951.847C2205.5 928.447 2224.91 907.27 2239.03 891.859C2246.06 884.275 2251.77 878.112 2255.79 873.772C2257.74 871.706 2259.27 870.075 2260.39 868.894C2260.88 868.385 2261.28 867.976 2261.61 867.645C2261.89 867.368 2262.04 867.233 2262.05 867.247C2262.07 867.26 2261.95 867.422 2261.7 867.726C2261.4 868.077 2261.03 868.513 2260.57 869.053C2259.49 870.271 2258.01 871.951 2256.13 874.08C2252.17 878.481 2246.56 884.727 2239.65 892.417C2225.59 907.886 2206.27 929.146 2184.93 952.634C2163.51 976.043 2144.13 997.234 2130.02 1012.66C2123.07 1020.4 2117.77 1026.94 2114.28 1031.59C2112.54 1033.92 2111.22 1035.76 2110.34 1037C2109.92 1037.58 2109.59 1038.05 2109.32 1038.42C2109.09 1038.74 2108.96 1038.9 2108.94 1038.89Z" fill="#263238"/>
<path d="M2304.04 512.36C2305.97 515.258 2349.45 520.091 2360.08 530.72C2370.71 541.349 2477 622.518 2477 622.518L2401.29 724.637L2352.36 713.866L2304.04 512.36Z" fill="#E8505B"/>
<path opacity="0.4" d="M2464.21 612.717L2379.22 719.779L2401.29 724.637L2477.01 622.518L2464.21 612.717Z" fill="black"/>
<path d="M2327.2 618.662C2327.13 618.68 2326.82 617.413 2326.32 615.104C2326.06 613.952 2325.78 612.535 2325.58 610.87C2325.36 609.207 2325.03 607.322 2324.92 605.209C2324.74 603.103 2324.57 600.794 2324.59 598.306C2324.49 595.82 2324.66 593.165 2324.78 590.372C2325.2 584.797 2326.06 578.69 2327.59 572.415C2329.18 566.153 2331.28 560.355 2333.53 555.234C2334.73 552.707 2335.83 550.286 2337.08 548.135C2338.23 545.93 2339.46 543.971 2340.61 542.193C2341.69 540.38 2342.87 538.868 2343.84 537.502C2344.8 536.125 2345.71 535.004 2346.48 534.111C2348 532.302 2348.86 531.33 2348.93 531.382C2348.99 531.434 2348.24 532.505 2346.84 534.39C2346.13 535.324 2345.28 536.476 2344.37 537.88C2343.46 539.273 2342.34 540.805 2341.31 542.632C2340.22 544.423 2339.04 546.389 2337.93 548.594C2336.73 550.745 2335.68 553.16 2334.52 555.671C2332.35 560.762 2330.3 566.507 2328.73 572.699C2327.21 578.906 2326.33 584.939 2325.86 590.451C2325.71 593.214 2325.51 595.84 2325.56 598.304C2325.51 600.767 2325.63 603.058 2325.75 605.15C2325.8 607.247 2326.08 609.126 2326.23 610.787C2326.37 612.449 2326.58 613.869 2326.77 615.028C2327.13 617.35 2327.28 618.646 2327.2 618.662Z" fill="#263238"/>
<path d="M2361.22 702.546C2360.92 702.672 2356.72 693.378 2351.82 681.788C2346.93 670.196 2343.2 660.699 2343.5 660.573C2343.8 660.447 2348.01 669.739 2352.9 681.333C2357.8 692.921 2361.52 702.42 2361.22 702.546Z" fill="#263238"/>
<path d="M2026.97 628.422C2026.79 628.521 2024.97 625.173 2021.53 620.106C2018.1 615.037 2012.89 608.334 2006.2 601.82C1999.48 595.322 1992.63 590.309 1987.46 587.033C1982.29 583.746 1978.89 582.027 1978.98 581.845C1979.02 581.773 1979.89 582.142 1981.46 582.873C1983.02 583.589 1985.23 584.761 1987.89 586.327C1993.21 589.448 2000.23 594.409 2007.01 600.979C2013.78 607.562 2018.95 614.425 2022.23 619.649C2023.87 622.259 2025.11 624.431 2025.87 625.979C2026.65 627.518 2027.05 628.384 2026.97 628.422Z" fill="#263238"/>
<path opacity="0.4" d="M1897 737.39L1902.23 724.637L2046.02 763.782L2040.32 779.782L1897 737.39Z" fill="black"/>
<path d="M2280.82 686.965H2335.56V709.564L2265.53 709.116C2265.53 709.116 2276.35 696.005 2280.82 686.965Z" fill="#FAFAFA"/>
<g opacity="0.2">
<path d="M2085.57 524.169C2087.55 541.725 2089.7 559.824 2098.38 575.214C2107.06 590.604 2124.06 602.727 2141.54 600.147C2153.2 598.425 2163.08 590.622 2171.02 581.908C2178.97 573.194 2185.61 563.285 2194.28 555.293C2199.72 560.736 2205.22 566.23 2211.74 570.312C2218.26 574.393 2225.99 577.003 2233.62 576.085C2241.26 575.165 2245.47 572.143 2247.88 564.837C2239.73 567.369 2235.24 566.991 2227.14 565.418C2218.57 563.753 2210.24 560.164 2202.58 554.13C2197.8 550.372 2196.09 544.729 2190.02 545.078C2184.42 545.402 2180.03 549.837 2176.34 554.062C2170.69 560.524 2163.55 567.549 2156.83 572.881C2150.1 578.214 2143.54 581.816 2134.96 581.627C2120.8 581.319 2109.21 570.201 2101.39 558.389C2094.21 547.526 2088.87 535.446 2085.66 522.821" fill="black"/>
</g>
<path d="M2251.25 502.274C2251.29 502.269 2251.38 502.701 2251.49 503.527C2251.6 504.355 2251.78 505.572 2251.93 507.152C2252.27 510.304 2252.61 514.883 2252.74 520.555C2253.03 531.882 2252.18 547.65 2248.53 564.606C2248.51 564.729 2248.48 564.851 2248.46 564.966L2248.38 565.321L2248.03 565.409C2239.52 567.522 2231 566.772 2223.79 564.77C2216.54 562.772 2210.45 559.64 2205.84 556.355C2201.22 553.07 2197.94 549.801 2196.03 547.287C2194.97 546.108 2194.39 545.01 2193.9 544.342C2193.44 543.649 2193.22 543.276 2193.26 543.253C2193.51 542.994 2196.97 549.378 2206.31 555.675C2210.91 558.825 2216.94 561.829 2224.07 563.73C2231.16 565.643 2239.49 566.325 2247.74 564.277L2247.31 564.72C2247.34 564.608 2247.36 564.486 2247.39 564.365C2251.01 547.515 2251.99 531.855 2251.91 520.571C2251.89 514.923 2251.67 510.351 2251.48 507.195C2251.39 505.721 2251.32 504.519 2251.26 503.559C2251.22 502.717 2251.22 502.278 2251.25 502.274Z" fill="#263238"/>
<path d="M2182.91 546.668C2182.95 546.689 2182.7 547.152 2182.19 548.016C2181.68 548.876 2180.86 550.109 2179.7 551.614C2177.39 554.645 2173.64 558.692 2168.63 563.285C2166.14 565.584 2163.33 568.025 2160.29 570.606C2158.76 571.893 2157.23 573.239 2155.53 574.575C2153.82 575.873 2151.96 577.082 2149.96 578.162C2145.97 580.31 2141.35 581.888 2136.39 582.284C2131.44 582.72 2126.13 581.624 2121.55 579.003C2116.93 576.418 2113.2 572.816 2109.91 569.2C2106.64 565.546 2103.71 561.827 2101.15 558.125C2095.99 550.734 2092.31 543.467 2089.69 537.198C2087.1 530.907 2085.55 525.613 2084.64 521.927C2084.17 520.087 2083.88 518.64 2083.7 517.657C2083.52 516.676 2083.44 516.156 2083.48 516.147C2083.52 516.138 2083.68 516.642 2083.94 517.605C2084.19 518.57 2084.55 519.995 2085.08 521.808C2086.12 525.442 2087.78 530.666 2090.45 536.872C2093.15 543.055 2096.88 550.219 2102.03 557.504C2104.6 561.154 2107.51 564.824 2110.76 568.426C2114.02 571.985 2117.68 575.493 2122.12 577.977C2126.53 580.493 2131.54 581.534 2136.31 581.136C2141.07 580.769 2145.56 579.271 2149.45 577.205C2151.41 576.168 2153.23 575.003 2154.91 573.752C2156.56 572.476 2158.13 571.124 2159.67 569.859C2162.73 567.314 2165.56 564.918 2168.08 562.666C2173.13 558.173 2176.95 554.242 2179.34 551.324C2180.55 549.872 2181.42 548.691 2182 547.881C2182.56 547.069 2182.88 546.648 2182.91 546.668Z" fill="#263238"/>
<path d="M2134.44 805.182L2151.78 779.906C2151.78 779.906 2163.7 738.445 2162.09 732.665C2160.47 726.884 2155.2 705.257 2156.44 705.003C2157.69 704.749 2170.67 699.912 2177.71 717.246C2182.09 728.041 2183.53 742.254 2183.99 751.441C2184.24 756.274 2188.7 759.735 2193.44 758.765C2205.44 756.308 2225.39 752.548 2230.13 753.682C2237.01 755.331 2243.18 764.113 2243.77 767.047C2244.37 769.981 2239.62 776.627 2239.62 776.627C2239.62 776.627 2245.47 779.622 2247.27 784.145C2247.51 784.757 2247.72 785.36 2247.9 785.942C2249.04 789.63 2248.09 793.64 2245.49 796.493L2243.66 798.504C2243.66 798.504 2250.95 800.505 2251.86 804.687C2252.76 808.868 2251.61 813.908 2251.61 813.908L2244.76 820.984C2244.76 820.984 2247.96 823.824 2248.31 827.68C2248.66 831.537 2238.39 841.061 2238.39 841.061L2194.27 856.876L2176.76 861.34L2134.44 805.182Z" fill="#B78876"/>
<path d="M2239.75 776.664C2239.8 776.994 2232.91 778.243 2224.47 779.969C2216.02 781.683 2209.19 783.225 2209.11 782.901C2209.07 782.748 2210.72 782.16 2213.46 781.393C2216.18 780.624 2219.99 779.685 2224.23 778.821C2228.47 777.96 2232.34 777.334 2235.16 776.976C2237.97 776.614 2239.73 776.506 2239.75 776.664Z" fill="#AA6550"/>
<path d="M2243.78 798.482C2243.88 798.792 2238.65 800.66 2232.11 802.656C2225.57 804.651 2220.19 806.019 2220.1 805.709C2220 805.398 2225.23 803.531 2231.77 801.535C2238.31 799.542 2243.69 798.174 2243.78 798.482Z" fill="#AA6550"/>
<path d="M2246.42 820.017C2246.55 820.314 2241 823.027 2234.02 826.078C2227.04 829.132 2221.28 831.364 2221.15 831.067C2221.02 830.77 2226.57 828.056 2233.55 825.005C2240.52 821.952 2246.29 819.72 2246.42 820.017Z" fill="#AA6550"/>
<path d="M2032.78 961.478L2195.04 852.621L2154.11 778.463L2006 854.628L2022.8 774.598L1922.3 744.869L1897.22 881.799C1893.34 942.727 1942.2 991.921 2001.12 975.919C2012.39 972.863 2023.08 967.983 2032.78 961.478Z" fill="#B78876"/>
<path d="M1984.57 897.599C1984.5 897.612 1984.27 896.895 1984.01 895.558C1983.75 894.224 1983.5 892.262 1983.45 889.821C1983.32 884.965 1984.27 878.069 1987.63 871.344C1990.98 864.614 1995.92 859.704 1999.88 856.885C2001.86 855.456 2003.57 854.475 2004.8 853.884C2006.02 853.29 2006.73 853.038 2006.77 853.103C2006.87 853.29 2004.14 854.577 2000.38 857.547C1996.63 860.481 1991.93 865.338 1988.68 871.868C1985.42 878.395 1984.36 885.064 1984.28 889.825C1984.17 894.615 1984.78 897.565 1984.57 897.599Z" fill="#AA6550"/>
<path d="M2401.29 724.637C2402.3 723.253 2516.86 793.032 2516.86 793.032L2553.57 960.327L2606.42 979.719C2606.42 979.719 2622.91 793.554 2610.35 764.565C2597.79 735.576 2470.52 631.338 2470.52 631.338L2401.29 724.637Z" fill="#B78876"/>
<path d="M2541.87 780.198C2542.12 780.347 2538.4 785.436 2531.94 789.556C2525.51 793.728 2519.34 794.999 2519.31 794.718C2519.19 794.369 2525.06 792.63 2531.31 788.571C2537.59 784.572 2541.6 779.951 2541.87 780.198Z" fill="#AA6550"/>
<path d="M2263.53 725.001L2272.49 885.555L2455.56 873.182L2450.02 753.662L2423.37 717.786L2263.53 725.001Z" fill="#263238"/>
<path d="M2221.9 889.128C2222.46 892.213 2238 1037.63 2238 1037.63L2510.45 1018.68L2556.56 1012.51L2535.3 877.09L2502.73 869.296L2221.9 889.128Z" fill="#E8505B"/>
<path opacity="0.4" d="M2502.73 869.298L2221.9 889.128C2222.46 892.212 2238 1037.63 2238 1037.63L2521.65 1017.9L2502.73 869.298Z" fill="black"/>
<path d="M2428.11 875.038L2272.49 885.555L2263.53 725.001L2423.37 717.786L2428.11 875.038Z" fill="#455A64"/>
<path d="M2321.55 722.382L2324.83 771.862L2333.15 767.099L2337.78 771.862L2343.5 767.099L2352.36 771.862V720.99L2321.55 722.382Z" fill="#263238"/>
<path d="M2386.6 878.402L2375.95 757.901L2479.97 786.57L2490 869.739L2386.6 878.402Z" fill="#E8505B"/>
<path d="M2479.97 786.57C2480 786.593 2479.77 786.887 2479.32 787.434C2478.8 788.055 2478.13 788.838 2477.32 789.803C2475.44 791.943 2472.86 794.888 2469.67 798.536C2462.99 806.028 2453.74 816.389 2443.08 828.346L2442.68 828.8L2442.26 828.357C2437.81 823.702 2433.04 818.696 2428.1 813.518C2413.67 798.266 2400.61 784.464 2391.04 774.355C2386.41 769.38 2382.63 765.319 2379.91 762.394C2378.68 761.035 2377.69 759.941 2376.93 759.102C2376.25 758.339 2375.91 757.928 2375.94 757.898C2375.97 757.871 2376.37 758.229 2377.1 758.938C2377.9 759.741 2378.94 760.783 2380.24 762.079C2383.03 764.941 2386.9 768.914 2391.64 773.783C2401.27 783.832 2414.42 797.55 2428.95 812.711C2433.87 817.897 2438.64 822.914 2443.07 827.579L2442.24 827.59C2453.03 815.746 2462.38 805.479 2469.14 798.059C2472.43 794.501 2475.09 791.633 2477.03 789.547C2477.91 788.633 2478.61 787.891 2479.18 787.304C2479.68 786.8 2479.95 786.548 2479.97 786.57Z" fill="#263238"/>
<path d="M2421.65 808.899C2421.93 809.054 2414.52 823.277 2405.09 840.665C2395.66 858.057 2387.78 872.03 2387.5 871.875C2387.21 871.719 2394.63 857.499 2404.06 840.107C2413.49 822.719 2421.37 808.744 2421.65 808.899Z" fill="#263238"/>
<path d="M2487.58 869.739C2487.31 869.906 2480.09 858.386 2471.48 844.013C2462.86 829.635 2456.1 817.847 2456.38 817.681C2456.66 817.514 2463.87 829.032 2472.48 843.41C2481.1 857.783 2487.86 869.573 2487.58 869.739Z" fill="#263238"/>
<path d="M2442.45 873.702L2435.67 796.963L2501.91 815.222L2508.3 868.185L2442.45 873.702Z" fill="#E8505B"/>
<path opacity="0.4" d="M2442.45 873.702L2435.67 796.963L2501.91 815.222L2508.3 868.185L2442.45 873.702Z" fill="white"/>
<path d="M2501.91 815.222C2501.96 815.267 2501.38 816.005 2500.27 817.326C2499.02 818.775 2497.41 820.649 2495.45 822.928C2491.13 827.799 2485.29 834.385 2478.57 841.961L2478.17 842.415L2477.74 841.972C2474.91 839.007 2471.87 835.821 2468.72 832.529C2459.47 822.818 2451.15 813.982 2445.17 807.545C2442.3 804.42 2439.92 801.837 2438.13 799.881C2436.48 798.054 2435.6 797.017 2435.66 796.961C2435.72 796.905 2436.71 797.836 2438.46 799.566C2440.32 801.456 2442.79 803.954 2445.77 806.973C2451.9 813.262 2460.32 822.008 2469.57 831.719C2472.7 835.022 2475.74 838.217 2478.56 841.191L2477.73 841.203C2484.57 833.737 2490.52 827.248 2494.91 822.447C2496.98 820.257 2498.67 818.457 2499.98 817.067C2501.19 815.829 2501.86 815.177 2501.91 815.222Z" fill="#263238"/>
<path d="M2464.77 829.439C2465.06 829.592 2460.42 838.698 2454.41 849.77C2448.4 860.847 2443.31 869.699 2443.02 869.543C2442.74 869.388 2447.37 860.287 2453.38 849.212C2459.39 838.138 2464.49 829.286 2464.77 829.439Z" fill="#263238"/>
<path d="M2506.76 868.185C2506.48 868.351 2501.81 861.063 2496.32 851.91C2490.83 842.755 2486.61 835.2 2486.89 835.033C2487.16 834.867 2491.84 842.152 2497.32 851.307C2502.81 860.46 2507.03 868.018 2506.76 868.185Z" fill="#263238"/>
<path d="M2484.67 811.978V818.152L2494.35 819.274L2494.85 814.563L2484.67 811.978Z" fill="white"/>
<path d="M2450.53 780.68C2450.53 781.339 2450.53 789.702 2450.53 789.702L2468.79 792.715L2469.8 785.848L2450.53 780.68Z" fill="white"/>
<path d="M2379.22 923.28L2378.32 878.402L2341.92 880.863L2345.82 926.437L2379.22 923.28Z" fill="#E8505B"/>
<path d="M2497.76 946.871L2436.68 952.662L2441.81 1006.69L2502.88 1000.9L2497.76 946.871Z" fill="#FAFAFA"/>
<path d="M2502.89 1000.95C2502.87 1000.93 2502.82 1000.58 2502.74 999.911C2502.65 999.17 2502.54 998.203 2502.41 996.988C2502.12 994.36 2501.73 990.663 2501.23 985.994C2500.27 976.504 2498.91 963.087 2497.28 946.966L2497.82 947.414C2480.22 949.108 2459.24 951.128 2436.75 953.293C2436.63 953.43 2437.75 952.089 2437.28 952.663L2437.28 952.676L2437.28 952.706L2437.29 952.764L2437.3 952.879L2437.32 953.108L2437.36 953.567L2437.45 954.485L2437.63 956.317C2437.74 957.534 2437.86 958.749 2437.97 959.957C2438.2 962.374 2438.42 964.77 2438.65 967.144C2439.09 971.889 2439.53 976.54 2439.95 981.074C2440.8 990.137 2441.59 998.734 2442.33 1006.69L2441.77 1006.22C2459.88 1004.61 2475.07 1003.26 2485.84 1002.3C2491.15 1001.86 2495.37 1001.51 2498.36 1001.25C2499.75 1001.15 2500.86 1001.06 2501.7 1001C2502.47 1000.95 2502.87 1000.93 2502.89 1000.95C2502.92 1000.96 2502.55 1001.02 2501.83 1001.11C2501.02 1001.2 2499.95 1001.32 2498.6 1001.47C2495.64 1001.78 2491.47 1002.23 2486.22 1002.78C2475.38 1003.87 2460.1 1005.41 2441.87 1007.25L2441.35 1007.3L2441.3 1006.78C2440.53 998.831 2439.7 990.238 2438.82 981.177C2438.39 976.643 2437.94 971.995 2437.49 967.252C2437.27 964.88 2437.04 962.484 2436.81 960.068C2436.69 958.859 2436.58 957.647 2436.46 956.427L2436.29 954.596L2436.2 953.678L2436.16 953.219L2436.13 952.989L2436.12 952.874L2436.12 952.816L2436.12 952.787L2436.11 952.773C2435.64 953.338 2436.75 951.986 2436.65 952.125C2459.14 950.026 2480.12 948.068 2497.73 946.424L2498.22 946.376L2498.27 946.869C2499.7 963.139 2500.9 976.682 2501.74 986.26C2502.13 990.89 2502.43 994.558 2502.65 997.166C2502.74 998.347 2502.81 999.285 2502.86 1000.01C2502.9 1000.64 2502.91 1000.96 2502.89 1000.95Z" fill="#263238"/>
<path d="M2493 959.863C2493.03 960.185 2482.36 961.573 2469.16 962.963C2455.95 964.354 2445.22 965.22 2445.19 964.898C2445.15 964.577 2455.83 963.188 2469.03 961.798C2482.23 960.407 2492.97 959.543 2493 959.863Z" fill="#263238"/>
<path d="M2492.65 969.041C2492.68 969.191 2490.18 969.848 2486.08 970.665C2481.99 971.482 2476.29 972.429 2469.97 973.174C2463.64 973.914 2457.88 974.312 2453.71 974.463C2449.54 974.616 2446.95 974.555 2446.95 974.402C2446.94 974.234 2449.51 974.002 2453.65 973.637C2457.8 973.275 2463.53 972.749 2469.83 972.011C2476.13 971.27 2481.82 970.456 2485.94 969.85C2490.06 969.243 2492.61 968.874 2492.65 969.041Z" fill="#263238"/>
<path d="M2495.22 989.113C2495.25 989.264 2492.75 989.921 2488.66 990.737C2484.57 991.554 2478.87 992.501 2472.55 993.246C2466.21 993.986 2460.46 994.385 2456.28 994.535C2452.11 994.688 2449.53 994.628 2449.52 994.475C2449.52 994.306 2452.09 994.074 2456.23 993.71C2460.38 993.347 2466.1 992.821 2472.41 992.083C2478.71 991.34 2484.4 990.528 2488.52 989.923C2492.64 989.315 2495.19 988.946 2495.22 989.113Z" fill="#263238"/>
<path d="M2492.15 978.828C2492.19 979.147 2482.22 980.839 2469.88 982.603C2457.53 984.367 2447.49 985.54 2447.44 985.218C2447.4 984.898 2457.37 983.209 2469.71 981.442C2482.06 979.678 2492.1 978.508 2492.15 978.828Z" fill="#263238"/>
<path d="M2546.07 1062.49C2546.07 1062.49 2596.36 1029.23 2600.23 1012.21C2604.09 995.191 2606.42 979.717 2606.42 979.717L2552.69 957.465L2558.02 976.824C2558.02 976.824 2538.76 988.279 2536.79 1002.15C2535.48 1011.41 2510.58 1027.23 2510.58 1027.23C2506.35 1022.12 2499.91 1019.37 2493.3 1019.84L2472.37 1021.32L2486.51 1053.21L2546.07 1062.49Z" fill="#B78876"/>
<path d="M2565.72 1016.89C2565.75 1016.96 2564.92 1017.36 2563.34 1017.86C2561.78 1018.38 2559.44 1018.9 2556.68 1019.8C2553.9 1020.65 2550.97 1022.44 2547.95 1024.87C2544.96 1027.28 2541.44 1029.98 2537.21 1031.69C2528.77 1035.33 2520.11 1035.09 2514.4 1033.61C2512.98 1033.24 2511.63 1032.92 2510.59 1032.19C2509.52 1031.53 2508.97 1030.3 2509.2 1029.41C2509.34 1028.51 2509.89 1027.95 2510.32 1027.78C2510.77 1027.62 2511.02 1027.72 2511.01 1027.74C2511.02 1027.8 2510.77 1027.79 2510.43 1028C2510.1 1028.2 2509.7 1028.71 2509.65 1029.46C2509.54 1030.22 2509.99 1031.09 2510.94 1031.64C2511.87 1032.22 2513.17 1032.49 2514.58 1032.8C2520.2 1034.04 2528.58 1034.14 2536.75 1030.62C2540.86 1028.95 2544.22 1026.41 2547.3 1024.02C2550.36 1021.62 2553.54 1019.78 2556.43 1019.02C2559.29 1018.19 2561.63 1017.81 2563.22 1017.42C2564.82 1017.06 2565.69 1016.81 2565.72 1016.89Z" fill="#AA6550"/>
<path d="M2530.89 1042.7C2530.79 1042.87 2528.3 1041.39 2524.02 1039.63C2519.76 1037.86 2513.6 1035.95 2506.58 1035.28C2504.82 1035.09 2503.09 1035.04 2501.43 1035L2501.11 1035L2500.95 1034.74C2497.83 1029.84 2494.29 1026.13 2491.59 1023.7C2488.88 1021.25 2487.08 1019.99 2487.17 1019.85C2487.21 1019.8 2487.71 1020.05 2488.56 1020.59C2489.42 1021.13 2490.64 1021.97 2492.07 1023.13C2494.95 1025.45 2498.68 1029.14 2501.91 1034.12L2501.43 1033.86C2503.13 1033.88 2504.9 1033.93 2506.7 1034.12C2513.86 1034.8 2520.11 1036.89 2524.36 1038.87C2526.49 1039.85 2528.13 1040.81 2529.25 1041.49C2530.35 1042.2 2530.93 1042.63 2530.89 1042.7Z" fill="#AA6550"/>
<path d="M2544.47 1033.56C2544.57 1033.89 2541.07 1035.15 2537.12 1037.42C2533.15 1039.65 2530.26 1042.02 2530.03 1041.76C2529.82 1041.55 2532.43 1038.71 2536.54 1036.4C2540.63 1034.06 2544.4 1033.26 2544.47 1033.56Z" fill="#AA6550"/>
<path d="M2571.71 973.746C2571.67 974.097 2568.22 973.672 2564.2 974.752C2560.16 975.773 2557.36 977.827 2557.15 977.544C2556.93 977.348 2559.58 974.725 2563.9 973.618C2568.22 972.47 2571.81 973.465 2571.71 973.746Z" fill="#AA6550"/>
</svg>
