<svg width="1280" height="720" viewBox="0 0 1280 720" fill="none" xmlns="http://www.w3.org/2000/svg">
<rect width="1280" height="720" fill="#002628"/>
<path d="M908.417 149.589L914.996 242.793C916.07 258.01 928.728 269.806 943.983 269.806C960.778 269.806 974.083 255.605 972.98 238.846C972.397 229.974 971.869 222.71 971.869 222.71C971.869 222.71 994.433 219.202 994.711 196.642C994.872 183.612 992.625 154.044 990.698 131.391C989.396 116.077 976.576 104.322 961.207 104.322H947.579C924.109 105.693 906.398 126.165 908.417 149.589Z" fill="#B78876"/>
<path d="M971.907 222.384C971.907 222.384 957.649 223.544 942.496 214.025C942.496 214.025 949.448 230.261 971.96 228.229L971.907 222.384Z" fill="#AA6550"/>
<path d="M983.683 158.642C983.743 160.343 982.352 161.797 980.576 161.893C978.804 161.988 977.315 160.69 977.255 158.988C977.195 157.287 978.585 155.831 980.358 155.736C982.134 155.639 983.623 156.941 983.683 158.642Z" fill="#263238"/>
<path d="M986.811 154.014C986.411 154.434 983.971 152.628 980.504 152.637C977.041 152.596 974.497 154.38 974.121 153.955C973.936 153.767 974.343 153.009 975.451 152.202C976.541 151.399 978.402 150.618 980.561 150.627C982.721 150.639 984.538 151.434 985.582 152.247C986.646 153.066 987.007 153.826 986.811 154.014Z" fill="#263238"/>
<path d="M949.856 158.642C949.916 160.343 948.525 161.797 946.75 161.892C944.978 161.987 943.489 160.689 943.429 158.987C943.369 157.286 944.76 155.83 946.533 155.735C948.307 155.639 949.796 156.941 949.856 158.642Z" fill="#263238"/>
<path d="M952.733 154.661C952.333 155.081 949.889 153.275 946.425 153.285C942.963 153.244 940.418 155.027 940.041 154.603C939.857 154.415 940.26 153.657 941.372 152.851C942.462 152.047 944.322 151.267 946.481 151.275C948.641 151.287 950.457 152.082 951.502 152.896C952.565 153.713 952.928 154.473 952.733 154.661Z" fill="#263238"/>
<path d="M965.315 180.372C965.299 180.175 967.454 179.803 970.946 179.356C971.832 179.265 972.67 179.089 972.818 178.484C973.027 177.844 972.656 176.891 972.227 175.86C971.394 173.718 970.524 171.472 969.609 169.119C965.973 159.521 963.342 151.629 963.729 151.486C964.117 151.343 967.379 159.006 971.014 168.604C971.889 170.971 972.726 173.227 973.522 175.386C973.856 176.392 974.433 177.533 973.981 178.86C973.743 179.521 973.093 180.002 972.525 180.155C971.958 180.328 971.46 180.338 971.022 180.364C967.508 180.553 965.328 180.569 965.315 180.372Z" fill="#263238"/>
<path d="M955.112 182.77C955.676 182.737 955.683 186.5 958.904 189.171C962.119 191.851 966.131 191.428 966.16 191.954C966.212 192.19 965.266 192.684 963.574 192.731C961.913 192.788 959.488 192.254 957.517 190.621C955.552 188.983 954.707 186.797 954.579 185.253C954.435 183.68 954.854 182.748 955.112 182.77Z" fill="#263238"/>
<path d="M953.627 141.075C953.285 142.018 949.824 141.571 945.757 142.062C941.679 142.47 938.399 143.661 937.859 142.816C937.618 142.411 938.19 141.525 939.517 140.612C940.831 139.701 942.929 138.835 945.37 138.563C947.812 138.297 950.048 138.684 951.529 139.287C953.022 139.887 953.774 140.628 953.627 141.075Z" fill="#263238"/>
<path d="M985.536 143.981C984.926 144.768 982.538 143.951 979.666 143.913C976.796 143.774 974.363 144.442 973.803 143.619C973.558 143.219 973.94 142.431 975.003 141.685C976.05 140.942 977.801 140.335 979.775 140.395C981.749 140.458 983.459 141.171 984.458 141.978C985.472 142.786 985.805 143.597 985.536 143.981Z" fill="#263238"/>
<path d="M916.023 166.522C915.638 166.355 900.522 161.937 901.015 177.36C901.508 192.784 916.89 189.108 916.903 188.664C916.916 188.222 916.023 166.522 916.023 166.522Z" fill="#B78876"/>
<path d="M912.004 182.972C911.934 182.925 911.741 183.169 911.293 183.391C910.857 183.608 910.1 183.772 909.286 183.496C907.637 182.95 906.183 180.407 906.019 177.63C905.934 176.227 906.186 174.881 906.648 173.759C907.082 172.615 907.787 171.804 908.603 171.632C909.413 171.417 910.01 171.89 910.212 172.318C910.432 172.743 910.344 173.054 910.427 173.078C910.472 173.115 910.75 172.809 910.606 172.176C910.532 171.872 910.34 171.514 909.969 171.229C909.589 170.94 909.04 170.804 908.47 170.883C907.284 171.003 906.248 172.132 905.74 173.364C905.167 174.604 904.851 176.118 904.946 177.692C905.144 180.796 906.828 183.654 909.078 184.227C910.172 184.475 911.066 184.119 911.522 183.741C911.988 183.346 912.059 182.999 912.004 182.972Z" fill="#AA6550"/>
<path d="M907.442 165.999C909.795 165.43 913.864 167.601 914.866 169.804C915.87 172.007 916.09 174.502 917.09 176.706C918.09 178.91 920.35 180.903 922.706 180.346C924.33 179.961 925.492 178.439 925.92 176.826C926.349 175.213 926.175 173.508 925.966 171.852C925.057 164.649 923.543 157.506 923.253 150.252C922.963 142.998 923.996 135.461 927.805 129.281C931.614 123.101 938.611 118.556 945.847 119.139C950.641 119.525 955.037 122.025 959.799 122.692C965.446 123.483 971.415 121.49 975.454 117.466C975.972 116.951 978.38 115.363 978.38 115.363C978.38 114.989 978.027 111.768 976.757 110.594C967.309 101.857 950.286 99.4178 937.806 102.559C925.327 105.7 913.629 114.511 908.26 126.205C902.891 137.899 904.484 154.165 907.442 165.999Z" fill="#263238"/>
<path d="M990.949 127.91C990.949 127.91 931.764 108.868 906.162 160.073C906.162 160.073 902.336 147.259 902.336 140.39C902.336 135.802 905.081 108.48 933.194 99.8857C933.194 99.8857 975.547 83.7207 990.949 127.91Z" fill="#E8505B"/>
<path d="M940.095 129.187C942.186 132.566 945.919 134.874 949.877 135.234C953.835 135.594 957.923 133.997 960.589 131.051C961.758 133.967 964.894 135.971 968.031 135.807C971.169 135.643 974.078 133.322 974.935 130.299C976.654 131.967 978.444 133.68 980.693 134.503C982.942 135.327 985.792 135.015 987.269 133.13C988.773 131.209 988.336 128.284 986.86 126.341C985.384 124.398 983.112 123.242 980.861 122.302C973.831 119.366 966.078 117.894 958.528 118.916C950.978 119.938 943.665 123.599 938.947 129.58" fill="#263238"/>
<g opacity="0.4">
<path d="M990.949 127.91C990.949 127.91 984.214 119.898 972.129 119.364C954.671 118.593 921.994 128.409 906.162 160.073C906.162 160.073 902.336 147.259 902.336 140.39C902.336 135.802 905.081 108.48 933.194 99.8857C933.194 99.8857 975.547 83.7207 990.949 127.91Z" fill="black"/>
</g>
<path d="M908.634 154.079C917.411 140.652 929.51 129.551 943.115 121.052C956.72 112.553 979.216 104.147 994.72 100.032C999.375 98.7967 1004.23 97.7167 1008.97 98.5367C1013.72 99.3567 1018.36 102.517 1019.54 107.186C1021.01 113.031 1010.64 122.05 1005.77 125.597C1000.89 129.143 990.95 134.346 990.95 134.346C990.95 134.346 991.083 123.505 973.732 121.269C950.13 118.228 908.634 154.079 908.634 154.079Z" fill="#E8505B"/>
<path d="M957.174 109.853C957.174 109.853 965.702 105.135 974.266 104.036C972.507 102.748 971.568 102.129 969.621 101.248C965.24 102.119 960.799 103.231 956.301 105.727L957.174 109.853Z" fill="#E0E0E0"/>
<path d="M1005.21 242.111L986.435 237.975L978.799 236.066L972.436 226.203C972.436 226.203 969.402 243.831 958.045 253.322C954.953 255.906 950.805 256.833 946.861 256.006C944.287 255.466 941.268 254.799 939.029 254.202C938.552 254.075 938.027 253.906 937.468 253.706C929.206 250.74 922.452 244.678 918.141 237.031C915.614 232.549 913.485 227.949 914.212 226.204L905.303 244.657L852.806 268.837L823 341.619L880.765 358.705L882.563 418.675L871.682 494.312L1035.12 494.425L1029.32 326.132" fill="#E8505B"/>
<path d="M962.957 307.258C962.956 307.281 962.598 307.288 961.928 307.28C961.195 307.263 960.225 307.24 959.022 307.212C956.45 307.12 952.889 306.994 948.632 306.842L948.428 306.835L948.42 306.63C948.244 302.12 948.035 296.781 947.811 291.068C947.539 282.843 947.293 275.401 947.112 269.931C947.049 267.277 946.997 265.105 946.96 263.523C946.954 262.812 946.949 262.234 946.945 261.78C946.947 261.381 946.957 261.171 946.975 261.171C946.993 261.17 947.018 261.379 947.05 261.776C947.079 262.23 947.117 262.806 947.163 263.515C947.241 265.095 947.349 267.264 947.481 269.916C947.701 275.384 948.001 282.824 948.332 291.047C948.527 296.762 948.71 302.101 948.864 306.612L948.652 306.4C952.906 306.628 956.463 306.818 959.034 306.956C960.235 307.035 961.203 307.098 961.935 307.146C962.602 307.195 962.958 307.234 962.957 307.258Z" fill="#263238"/>
<path d="M954.049 282.949C954.038 282.928 954.292 282.759 954.827 282.695C955.352 282.628 956.178 282.734 956.982 283.293C957.376 283.573 957.768 283.963 958.031 284.486C958.294 285.007 958.416 285.653 958.316 286.302C958.137 287.585 957.159 288.932 955.645 289.316C954.127 289.667 952.652 288.954 951.844 287.959C950.988 286.941 950.899 285.643 951.127 284.727C951.35 283.784 951.829 283.136 952.207 282.772C952.591 282.404 952.863 282.284 952.877 282.308C952.903 282.344 952.675 282.519 952.356 282.909C952.042 283.295 951.646 283.931 951.487 284.802C951.324 285.657 951.448 286.785 952.211 287.652C952.937 288.512 954.25 289.111 955.522 288.811C956.785 288.498 957.668 287.332 957.841 286.23C958.052 285.095 957.455 284.105 956.763 283.589C956.068 283.051 955.328 282.895 954.837 282.897C954.338 282.896 954.064 282.993 954.049 282.949Z" fill="#263238"/>
<path d="M952.299 261.817C952.286 261.799 952.544 261.583 953.121 261.443C953.687 261.302 954.605 261.303 955.561 261.802C956.031 262.053 956.512 262.426 956.871 262.962C957.227 263.496 957.448 264.188 957.412 264.912C957.368 266.335 956.425 267.939 954.775 268.459C953.113 268.933 951.448 268.135 950.595 267.002C950.148 266.435 949.921 265.752 949.871 265.118C949.827 264.48 949.955 263.89 950.151 263.396C950.554 262.4 951.222 261.791 951.721 261.494C952.228 261.192 952.557 261.146 952.563 261.17C952.58 261.213 952.279 261.325 951.836 261.661C951.398 261.991 950.822 262.599 950.496 263.525C950.165 264.428 950.157 265.714 950.974 266.708C951.739 267.69 953.23 268.367 954.626 267.96C956.012 267.533 956.877 266.129 956.934 264.891C957.031 263.607 956.221 262.59 955.384 262.124C954.539 261.631 953.698 261.569 953.158 261.643C952.607 261.713 952.32 261.861 952.299 261.817Z" fill="#263238"/>
<path d="M946.974 342.533C946.971 342.524 947.056 342.485 947.225 342.417C947.422 342.341 947.668 342.246 947.975 342.127C948.644 341.901 949.596 341.479 950.81 340.917C953.2 339.732 956.549 337.696 960.006 334.378C963.491 331.097 967.072 326.619 970.535 321.316C974.014 316.017 977.493 309.967 980.795 303.438C987.405 290.368 992.086 277.93 995.364 268.916C997.003 264.405 998.273 260.733 999.162 258.2C999.597 256.963 999.941 255.987 1000.19 255.284C1000.3 254.976 1000.39 254.728 1000.47 254.53C1000.53 254.361 1000.57 254.276 1000.58 254.279C1000.59 254.282 1000.57 254.373 1000.52 254.547C1000.46 254.749 1000.38 255.003 1000.29 255.318C1000.06 256.029 999.749 257.015 999.353 258.266C998.522 260.82 997.305 264.51 995.71 269.041C992.519 278.093 987.886 290.572 981.259 303.675C977.949 310.219 974.447 316.281 970.935 321.581C967.437 326.89 963.801 331.376 960.257 334.648C956.741 337.958 953.329 339.966 950.897 341.101C949.661 341.639 948.693 342.032 948.01 342.227C947.696 342.326 947.443 342.405 947.242 342.468C947.067 342.52 946.977 342.542 946.974 342.533Z" fill="#263238"/>
<path d="M981.405 322.563C981.833 322.563 991.782 321.878 991.782 321.878C991.782 321.878 987.675 329.14 983.397 331.85H974.691L981.405 322.563Z" fill="#FAFAFA"/>
<path d="M945.234 364.521C945.224 364.506 945.42 364.357 945.802 364.089C946.228 363.795 946.786 363.409 947.48 362.93C948.932 361.917 951.02 360.433 953.531 358.506C958.572 354.676 965.187 348.949 972.303 342.408C975.872 339.145 979.291 336.06 982.247 333.103C985.211 330.153 987.69 327.315 989.578 324.783C991.478 322.259 992.773 320.045 993.591 318.48C994.025 317.709 994.296 317.078 994.511 316.664C994.719 316.247 994.836 316.03 994.853 316.037C994.87 316.044 994.785 316.274 994.607 316.706C994.423 317.135 994.18 317.783 993.772 318.572C993.006 320.173 991.75 322.432 989.875 325.002C988.013 327.579 985.544 330.462 982.587 333.442C979.637 336.431 976.222 339.531 972.654 342.793C965.535 349.336 958.863 355.036 953.753 358.8C951.208 360.694 949.082 362.136 947.593 363.099C946.849 363.582 946.258 363.935 945.859 364.178C945.458 364.417 945.244 364.536 945.234 364.521Z" fill="#263238"/>
<path d="M917.196 475.616C917.189 475.611 917.231 475.532 917.32 475.382C917.428 475.208 917.563 474.991 917.729 474.723C918.095 474.147 918.656 473.312 919.405 472.255C920.91 470.146 923.229 467.192 926.288 463.715C932.445 456.799 941.074 447.372 950.581 436.932C960.112 426.532 968.737 417.12 975.014 410.271C978.138 406.9 980.675 404.161 982.462 402.232C983.328 401.314 984.011 400.589 984.506 400.064C984.726 399.838 984.904 399.656 985.048 399.509C985.172 399.386 985.239 399.326 985.246 399.332C985.253 399.338 985.199 399.41 985.088 399.545C984.955 399.701 984.789 399.895 984.585 400.135C984.107 400.676 983.448 401.423 982.613 402.369C980.855 404.325 978.359 407.101 975.287 410.519C969.039 417.394 960.453 426.843 950.967 437.282C941.45 447.686 932.834 457.104 926.565 463.958C923.476 467.398 921.122 470.307 919.57 472.374C918.797 473.41 918.211 474.225 917.817 474.78C917.633 475.036 917.485 475.243 917.366 475.41C917.261 475.552 917.204 475.621 917.196 475.616Z" fill="#263238"/>
<path d="M1003.91 241.605C1004.77 242.893 1024.09 245.041 1028.82 249.765C1033.54 254.489 1080.78 290.564 1080.78 290.564L1047.13 335.95L1025.38 331.163L1003.91 241.605Z" fill="#E8505B"/>
<path opacity="0.4" d="M1075.09 286.208L1037.32 333.791L1047.13 335.95L1080.78 290.564L1075.09 286.208Z" fill="black"/>
<path d="M1014.2 288.85C1014.17 288.858 1014.03 288.295 1013.81 287.269C1013.69 286.757 1013.57 286.127 1013.48 285.387C1013.38 284.648 1013.24 283.81 1013.19 282.871C1013.11 281.935 1013.03 280.909 1013.04 279.803C1013 278.698 1013.07 277.518 1013.13 276.277C1013.31 273.799 1013.69 271.085 1014.37 268.296C1015.08 265.513 1016.01 262.936 1017.01 260.66C1017.55 259.537 1018.03 258.461 1018.59 257.505C1019.1 256.525 1019.65 255.654 1020.16 254.864C1020.64 254.058 1021.16 253.386 1021.6 252.779C1022.02 252.167 1022.43 251.669 1022.77 251.272C1023.44 250.468 1023.83 250.036 1023.86 250.059C1023.88 250.082 1023.55 250.558 1022.93 251.396C1022.61 251.811 1022.23 252.323 1021.83 252.947C1021.43 253.566 1020.93 254.247 1020.47 255.059C1019.99 255.855 1019.46 256.729 1018.97 257.709C1018.44 258.665 1017.97 259.738 1017.45 260.854C1016.49 263.117 1015.58 265.67 1014.88 268.422C1014.21 271.181 1013.81 273.862 1013.61 276.312C1013.54 277.54 1013.45 278.707 1013.47 279.802C1013.45 280.897 1013.5 281.915 1013.56 282.845C1013.58 283.777 1013.7 284.612 1013.77 285.35C1013.83 286.089 1013.93 286.72 1014.01 287.235C1014.17 288.267 1014.24 288.843 1014.2 288.85Z" fill="#263238"/>
<path d="M1029.32 326.132C1029.19 326.188 1027.32 322.057 1025.14 316.906C1022.97 311.754 1021.31 307.533 1021.45 307.477C1021.58 307.421 1023.45 311.551 1025.62 316.704C1027.8 321.854 1029.45 326.076 1029.32 326.132Z" fill="#263238"/>
<path d="M880.766 293.188C880.686 293.232 879.877 291.744 878.348 289.492C876.823 287.239 874.506 284.26 871.531 281.365C868.547 278.477 865.5 276.249 863.203 274.793C860.905 273.332 859.395 272.568 859.436 272.487C859.452 272.455 859.842 272.619 860.536 272.944C861.233 273.262 862.214 273.783 863.396 274.479C865.761 275.866 868.878 278.071 871.894 280.991C874.902 283.917 877.199 286.967 878.656 289.289C879.387 290.449 879.937 291.414 880.276 292.102C880.622 292.786 880.798 293.171 880.766 293.188Z" fill="#263238"/>
<path opacity="0.4" d="M823.001 341.618L825.323 335.95L889.232 353.348L886.698 360.459L823.001 341.618Z" fill="black"/>
<path d="M993.585 319.207H1017.91V329.251L986.791 329.052C986.791 329.052 991.601 323.225 993.585 319.207Z" fill="#FAFAFA"/>
<g opacity="0.2">
<path d="M906.81 246.853C907.69 254.656 908.645 262.7 912.503 269.54C916.361 276.38 923.915 281.768 931.684 280.621C936.868 279.856 941.258 276.388 944.788 272.515C948.318 268.642 951.273 264.238 955.125 260.686C957.542 263.105 959.985 265.547 962.883 267.361C965.781 269.175 969.216 270.335 972.611 269.927C976.006 269.518 977.877 268.175 978.948 264.928C975.324 266.053 973.331 265.885 969.729 265.186C965.918 264.446 962.22 262.851 958.813 260.169C956.691 258.499 955.928 255.991 953.233 256.146C950.743 256.29 948.793 258.261 947.152 260.139C944.642 263.011 941.466 266.133 938.478 268.503C935.49 270.873 932.574 272.474 928.761 272.39C922.467 272.253 917.315 267.312 913.842 262.062C910.648 257.234 908.274 251.865 906.851 246.254" fill="black"/>
</g>
<path d="M980.446 237.122C980.464 237.12 980.5 237.312 980.552 237.679C980.6 238.047 980.681 238.588 980.747 239.29C980.896 240.691 981.047 242.726 981.106 245.247C981.237 250.281 980.857 257.289 979.237 264.825C979.226 264.88 979.214 264.934 979.204 264.985L979.171 265.143L979.015 265.182C975.232 266.121 971.444 265.788 968.241 264.898C965.018 264.01 962.31 262.618 960.261 261.158C958.21 259.698 956.752 258.245 955.9 257.128C955.431 256.604 955.172 256.116 954.955 255.819C954.752 255.511 954.654 255.345 954.669 255.335C954.782 255.22 956.322 258.057 960.47 260.856C962.515 262.256 965.197 263.591 968.366 264.436C971.516 265.286 975.219 265.589 978.883 264.679L978.695 264.876C978.705 264.826 978.716 264.772 978.728 264.718C980.339 257.229 980.775 250.269 980.738 245.254C980.727 242.744 980.631 240.712 980.545 239.309C980.506 238.654 980.474 238.12 980.448 237.693C980.43 237.319 980.429 237.124 980.446 237.122Z" fill="#263238"/>
<path d="M950.072 256.853C950.087 256.862 949.977 257.068 949.752 257.452C949.524 257.834 949.16 258.382 948.643 259.051C947.619 260.398 945.949 262.197 943.726 264.238C942.616 265.26 941.369 266.345 940.019 267.492C939.34 268.064 938.657 268.662 937.902 269.256C937.141 269.833 936.315 270.37 935.427 270.85C933.654 271.805 931.601 272.506 929.395 272.682C927.194 272.876 924.837 272.389 922.799 271.224C920.747 270.075 919.09 268.474 917.626 266.867C916.173 265.243 914.872 263.59 913.733 261.945C911.442 258.66 909.804 255.43 908.638 252.644C907.487 249.848 906.8 247.495 906.396 245.857C906.188 245.039 906.06 244.396 905.98 243.959C905.898 243.523 905.863 243.292 905.881 243.288C905.899 243.284 905.968 243.508 906.083 243.936C906.195 244.365 906.355 244.998 906.592 245.804C907.054 247.419 907.791 249.741 908.977 252.499C910.178 255.247 911.836 258.431 914.126 261.669C915.265 263.291 916.562 264.922 918.004 266.523C919.453 268.105 921.079 269.664 923.053 270.768C925.013 271.886 927.24 272.349 929.358 272.172C931.477 272.009 933.471 271.343 935.202 270.425C936.069 269.964 936.878 269.446 937.625 268.89C938.358 268.323 939.059 267.722 939.741 267.16C941.102 266.029 942.358 264.964 943.479 263.963C945.724 261.966 947.421 260.219 948.485 258.922C949.022 258.277 949.409 257.752 949.665 257.392C949.916 257.031 950.056 256.844 950.072 256.853Z" fill="#263238"/>
<path d="M928.531 371.748L936.236 360.514C936.236 360.514 941.535 342.087 940.816 339.518C940.097 336.949 937.754 327.337 938.308 327.224C938.862 327.111 944.632 324.961 947.759 332.665C949.707 337.463 950.347 343.78 950.553 347.863C950.661 350.011 952.645 351.549 954.752 351.118C960.083 350.026 968.951 348.355 971.057 348.859C974.117 349.592 976.856 353.495 977.122 354.799C977.389 356.103 975.276 359.057 975.276 359.057C975.276 359.057 977.877 360.388 978.676 362.398C978.784 362.67 978.877 362.938 978.957 363.197C979.463 364.836 979.041 366.618 977.885 367.886L977.07 368.78C977.07 368.78 980.313 369.669 980.715 371.528C981.117 373.386 980.604 375.626 980.604 375.626L977.56 378.771C977.56 378.771 978.982 380.033 979.139 381.747C979.295 383.461 974.728 387.694 974.728 387.694L955.119 394.723L947.34 396.707L928.531 371.748Z" fill="#B78876"/>
<path d="M975.334 359.073C975.355 359.22 972.295 359.775 968.541 360.542C964.785 361.304 961.751 361.989 961.714 361.845C961.696 361.777 962.433 361.516 963.647 361.175C964.86 360.833 966.552 360.416 968.437 360.032C970.322 359.649 972.042 359.371 973.292 359.212C974.543 359.051 975.323 359.003 975.334 359.073Z" fill="#AA6550"/>
<path d="M977.127 368.77C977.169 368.908 974.846 369.738 971.939 370.625C969.031 371.512 966.641 372.12 966.599 371.982C966.557 371.844 968.88 371.014 971.787 370.127C974.694 369.241 977.085 368.633 977.127 368.77Z" fill="#AA6550"/>
<path d="M978.297 378.341C978.355 378.473 975.887 379.679 972.786 381.035C969.684 382.392 967.124 383.384 967.066 383.252C967.008 383.12 969.475 381.914 972.577 380.558C975.678 379.201 978.239 378.209 978.297 378.341Z" fill="#AA6550"/>
<path d="M883.345 441.213L955.462 392.832L937.27 359.873L871.445 393.724L878.913 358.155L834.243 344.942L823.098 405.8C821.373 432.879 843.09 454.743 869.276 447.631C874.283 446.273 879.036 444.104 883.345 441.213Z" fill="#B78876"/>
<path d="M861.919 412.822C861.887 412.828 861.787 412.509 861.671 411.915C861.554 411.322 861.443 410.45 861.421 409.365C861.365 407.207 861.788 404.142 863.28 401.153C864.771 398.162 866.966 395.98 868.723 394.727C869.603 394.092 870.366 393.656 870.911 393.393C871.455 393.129 871.771 393.017 871.785 393.046C871.829 393.129 870.618 393.701 868.946 395.021C867.279 396.325 865.193 398.484 863.746 401.386C862.299 404.287 861.828 407.251 861.789 409.367C861.741 411.496 862.013 412.807 861.919 412.822Z" fill="#AA6550"/>
<path d="M1047.13 335.95C1047.58 335.335 1098.49 366.348 1098.49 366.348L1114.81 440.701L1138.3 449.32C1138.3 449.32 1145.63 366.58 1140.05 353.696C1134.46 340.812 1077.9 294.484 1077.9 294.484L1047.13 335.95Z" fill="#B78876"/>
<path d="M1109.61 360.644C1109.72 360.71 1108.07 362.972 1105.2 364.803C1102.34 366.657 1099.6 367.222 1099.58 367.097C1099.53 366.942 1102.14 366.169 1104.91 364.365C1107.71 362.588 1109.49 360.534 1109.61 360.644Z" fill="#AA6550"/>
<path d="M985.902 336.112L989.886 407.469L1071.25 401.97L1068.79 348.85L1056.94 332.905L985.902 336.112Z" fill="#263238"/>
<path d="M967.402 409.057C967.649 410.428 974.555 475.059 974.555 475.059L1095.64 466.637L1116.14 463.895L1106.69 403.707L1092.21 400.243L967.402 409.057Z" fill="#E8505B"/>
<path opacity="0.4" d="M1092.21 400.244L967.402 409.057C967.649 410.428 974.555 475.059 974.555 475.059L1100.62 466.291L1092.21 400.244Z" fill="black"/>
<path d="M1059.05 402.795L989.886 407.469L985.902 336.112L1056.94 332.905L1059.05 402.795Z" fill="#455A64"/>
<path d="M1011.69 334.948L1013.15 356.939L1016.85 354.822L1018.9 356.939L1021.45 354.822L1025.38 356.939V334.329L1011.69 334.948Z" fill="#263238"/>
<path d="M1040.6 404.29L1035.87 350.734L1082.1 363.476L1086.56 400.44L1040.6 404.29Z" fill="#E8505B"/>
<path d="M1082.1 363.476C1082.11 363.486 1082.01 363.617 1081.81 363.86C1081.58 364.136 1081.28 364.484 1080.92 364.913C1080.09 365.864 1078.94 367.173 1077.52 368.794C1074.55 372.124 1070.44 376.729 1065.7 382.043L1065.52 382.245L1065.34 382.048C1063.36 379.979 1061.24 377.754 1059.04 375.453C1052.63 368.674 1046.83 362.54 1042.57 358.047C1040.52 355.836 1038.84 354.031 1037.63 352.731C1037.08 352.127 1036.64 351.641 1036.3 351.268C1036 350.929 1035.85 350.746 1035.86 350.733C1035.88 350.721 1036.05 350.88 1036.38 351.195C1036.73 351.552 1037.2 352.015 1037.77 352.591C1039.01 353.863 1040.73 355.629 1042.84 357.793C1047.12 362.259 1052.96 368.356 1059.42 375.094C1061.61 377.399 1063.73 379.629 1065.7 381.702L1065.33 381.707C1070.12 376.443 1074.28 371.88 1077.28 368.582C1078.75 367.001 1079.93 365.726 1080.79 364.799C1081.18 364.393 1081.5 364.063 1081.75 363.802C1081.97 363.578 1082.09 363.466 1082.1 363.476Z" fill="#263238"/>
<path d="M1056.18 373.399C1056.3 373.468 1053.01 379.79 1048.82 387.518C1044.62 395.248 1041.12 401.458 1041 401.389C1040.87 401.32 1044.17 394.999 1048.36 387.269C1052.55 379.541 1056.05 373.33 1056.18 373.399Z" fill="#263238"/>
<path d="M1085.48 400.44C1085.36 400.514 1082.15 395.394 1078.32 389.006C1074.49 382.616 1071.49 377.377 1071.61 377.303C1071.74 377.229 1074.94 382.348 1078.77 388.738C1082.6 395.126 1085.6 400.366 1085.48 400.44Z" fill="#263238"/>
<path d="M1065.42 402.201L1062.41 368.095L1091.85 376.21L1094.69 399.749L1065.42 402.201Z" fill="#E8505B"/>
<path opacity="0.4" d="M1065.42 402.201L1062.41 368.095L1091.85 376.21L1094.69 399.749L1065.42 402.201Z" fill="white"/>
<path d="M1091.85 376.21C1091.87 376.23 1091.61 376.558 1091.12 377.145C1090.57 377.789 1089.85 378.622 1088.98 379.635C1087.06 381.8 1084.46 384.727 1081.48 388.094L1081.3 388.296L1081.11 388.099C1079.85 386.781 1078.5 385.365 1077.1 383.902C1072.99 379.586 1069.29 375.659 1066.63 372.798C1065.35 371.409 1064.3 370.261 1063.5 369.392C1062.77 368.58 1062.38 368.119 1062.41 368.094C1062.43 368.069 1062.87 368.483 1063.65 369.252C1064.48 370.092 1065.57 371.202 1066.9 372.544C1069.62 375.339 1073.37 379.226 1077.48 383.542C1078.87 385.01 1080.22 386.43 1081.47 387.752L1081.1 387.757C1084.14 384.439 1086.79 381.555 1088.74 379.421C1089.66 378.448 1090.41 377.648 1090.99 377.03C1091.53 376.48 1091.83 376.19 1091.85 376.21Z" fill="#263238"/>
<path d="M1075.34 382.529C1075.47 382.597 1073.41 386.644 1070.74 391.565C1068.07 396.488 1065.8 400.422 1065.68 400.353C1065.55 400.284 1067.61 396.239 1070.28 391.317C1072.95 386.395 1075.22 382.461 1075.34 382.529Z" fill="#263238"/>
<path d="M1094 399.749C1093.88 399.823 1091.8 396.584 1089.36 392.516C1086.93 388.447 1085.05 385.089 1085.17 385.015C1085.3 384.941 1087.37 388.179 1089.81 392.248C1092.25 396.316 1094.13 399.675 1094 399.749Z" fill="#263238"/>
<path d="M1084.19 374.768V377.512L1088.49 378.011L1088.71 375.917L1084.19 374.768Z" fill="white"/>
<path d="M1069.01 360.857C1069.01 361.15 1069.01 364.867 1069.01 364.867L1077.13 366.206L1077.58 363.154L1069.01 360.857Z" fill="white"/>
<path d="M1037.32 424.236L1036.92 404.29L1020.74 405.384L1022.48 425.639L1037.32 424.236Z" fill="#E8505B"/>
<path d="M1090 434.72L1062.86 437.294L1065.14 461.306L1092.28 458.732L1090 434.72Z" fill="#FAFAFA"/>
<path d="M1092.29 458.753C1092.28 458.746 1092.25 458.589 1092.22 458.293C1092.18 457.964 1092.13 457.534 1092.07 456.994C1091.94 455.826 1091.77 454.183 1091.55 452.108C1091.12 447.89 1090.52 441.927 1089.79 434.762L1090.03 434.961C1082.21 435.714 1072.88 436.612 1062.89 437.574C1062.84 437.635 1063.33 437.039 1063.12 437.294L1063.12 437.3L1063.13 437.313L1063.13 437.339L1063.13 437.39L1063.14 437.492L1063.16 437.696L1063.2 438.104L1063.28 438.918C1063.33 439.459 1063.38 439.999 1063.43 440.536C1063.53 441.61 1063.63 442.675 1063.73 443.73C1063.93 445.839 1064.12 447.906 1064.31 449.921C1064.69 453.949 1065.04 457.77 1065.37 461.305L1065.12 461.098C1073.17 460.383 1079.92 459.783 1084.71 459.357C1087.07 459.159 1088.94 459.002 1090.27 458.89C1090.89 458.842 1091.38 458.805 1091.76 458.776C1092.1 458.753 1092.28 458.745 1092.29 458.753C1092.3 458.761 1092.13 458.785 1091.81 458.824C1091.45 458.865 1090.98 458.919 1090.38 458.987C1089.06 459.126 1087.21 459.322 1084.88 459.569C1080.06 460.054 1073.26 460.738 1065.16 461.554L1064.93 461.577L1064.91 461.347C1064.57 457.813 1064.2 453.994 1063.81 449.967C1063.62 447.952 1063.42 445.886 1063.22 443.778C1063.12 442.724 1063.02 441.659 1062.91 440.585C1062.86 440.048 1062.81 439.509 1062.76 438.967L1062.68 438.153L1062.64 437.745L1062.62 437.541L1062.61 437.439L1062.61 437.388L1062.61 437.362L1062.61 437.349L1062.61 437.343C1062.4 437.594 1062.89 436.993 1062.84 437.055C1072.84 436.122 1082.17 435.252 1089.99 434.521L1090.21 434.5L1090.23 434.719C1090.87 441.95 1091.4 447.969 1091.77 452.226C1091.95 454.284 1092.08 455.914 1092.18 457.073C1092.22 457.598 1092.25 458.015 1092.27 458.335C1092.29 458.618 1092.29 458.76 1092.29 458.753Z" fill="#263238"/>
<path d="M1087.89 440.494C1087.9 440.637 1083.16 441.254 1077.29 441.872C1071.42 442.49 1066.65 442.875 1066.64 442.732C1066.62 442.589 1071.37 441.972 1077.24 441.354C1083.1 440.736 1087.87 440.352 1087.89 440.494Z" fill="#263238"/>
<path d="M1087.73 444.573C1087.74 444.64 1086.63 444.932 1084.81 445.295C1082.99 445.658 1080.46 446.079 1077.65 446.41C1074.84 446.739 1072.28 446.916 1070.42 446.983C1068.57 447.051 1067.42 447.024 1067.42 446.956C1067.42 446.881 1068.56 446.778 1070.4 446.616C1072.24 446.455 1074.79 446.221 1077.59 445.893C1080.39 445.564 1082.92 445.202 1084.75 444.933C1086.58 444.663 1087.72 444.499 1087.73 444.573Z" fill="#263238"/>
<path d="M1088.88 453.494C1088.89 453.561 1087.78 453.853 1085.96 454.216C1084.14 454.579 1081.61 455 1078.8 455.331C1075.98 455.66 1073.42 455.837 1071.57 455.904C1069.72 455.972 1068.57 455.945 1068.57 455.877C1068.56 455.802 1069.7 455.699 1071.55 455.537C1073.39 455.376 1075.93 455.142 1078.74 454.814C1081.54 454.484 1084.07 454.123 1085.9 453.854C1087.73 453.584 1088.86 453.42 1088.88 453.494Z" fill="#263238"/>
<path d="M1087.51 448.924C1087.53 449.066 1083.1 449.817 1077.61 450.601C1072.13 451.385 1067.66 451.907 1067.64 451.764C1067.62 451.622 1072.05 450.87 1077.54 450.085C1083.02 449.301 1087.49 448.782 1087.51 448.924Z" fill="#263238"/>
<path d="M1111.48 486.109C1111.48 486.109 1133.83 471.324 1135.55 463.76C1137.26 456.196 1138.3 449.319 1138.3 449.319L1114.42 439.429L1116.79 448.033C1116.79 448.033 1108.23 453.124 1107.35 459.29C1106.77 463.404 1095.7 470.436 1095.7 470.436C1093.82 468.166 1090.96 466.943 1088.02 467.151L1078.72 467.808L1085 481.984L1111.48 486.109Z" fill="#B78876"/>
<path d="M1120.21 465.842C1120.22 465.872 1119.85 466.051 1119.15 466.271C1118.46 466.503 1117.42 466.732 1116.19 467.134C1114.96 467.511 1113.66 468.308 1112.31 469.387C1110.98 470.457 1109.42 471.657 1107.54 472.42C1103.79 474.035 1099.94 473.927 1097.4 473.27C1096.77 473.105 1096.17 472.963 1095.71 472.641C1095.23 472.347 1094.99 471.8 1095.09 471.403C1095.15 471.006 1095.39 470.756 1095.59 470.682C1095.79 470.608 1095.9 470.653 1095.9 470.664C1095.9 470.688 1095.79 470.685 1095.64 470.776C1095.49 470.865 1095.31 471.092 1095.29 471.429C1095.24 471.765 1095.44 472.15 1095.86 472.398C1096.27 472.655 1096.85 472.773 1097.48 472.912C1099.98 473.463 1103.7 473.505 1107.33 471.942C1109.16 471.2 1110.65 470.07 1112.02 469.008C1113.38 467.944 1114.79 467.124 1116.08 466.785C1117.35 466.419 1118.39 466.248 1119.1 466.077C1119.81 465.917 1120.2 465.805 1120.21 465.842Z" fill="#AA6550"/>
<path d="M1104.73 477.312C1104.68 477.386 1103.58 476.73 1101.68 475.945C1099.78 475.162 1097.05 474.31 1093.93 474.015C1093.14 473.931 1092.38 473.908 1091.64 473.891L1091.49 473.888L1091.42 473.774C1090.04 471.598 1088.46 469.947 1087.26 468.866C1086.06 467.78 1085.26 467.218 1085.3 467.158C1085.32 467.133 1085.54 467.244 1085.92 467.483C1086.3 467.723 1086.84 468.098 1087.48 468.615C1088.75 469.643 1090.41 471.285 1091.85 473.499L1091.64 473.382C1092.39 473.392 1093.18 473.412 1093.98 473.498C1097.16 473.799 1099.94 474.727 1101.83 475.608C1102.77 476.043 1103.5 476.471 1104 476.773C1104.49 477.09 1104.75 477.282 1104.73 477.312Z" fill="#AA6550"/>
<path d="M1110.77 473.248C1110.81 473.394 1109.25 473.957 1107.5 474.963C1105.73 475.957 1104.45 477.007 1104.35 476.893C1104.25 476.799 1105.42 475.54 1107.24 474.51C1109.06 473.471 1110.73 473.118 1110.77 473.248Z" fill="#AA6550"/>
<path d="M1122.87 446.665C1122.85 446.821 1121.32 446.632 1119.53 447.112C1117.74 447.566 1116.5 448.479 1116.4 448.353C1116.3 448.266 1117.48 447.1 1119.4 446.608C1121.32 446.098 1122.92 446.54 1122.87 446.665Z" fill="#AA6550"/>
</svg>
