<svg width="1280" height="720" viewBox="0 0 1280 720" fill="none" xmlns="http://www.w3.org/2000/svg">
<rect width="1280" height="720" fill="#450920"/>
<path d="M888.707 539.604C885.751 536.082 880.824 534.666 876.24 535.04C871.657 535.414 867.994 537.461 863.978 539.702C860.481 541.653 859.278 544.829 855.091 546.282L851.587 547.307C852.024 547.506 853.819 548.441 854.296 548.506C863.784 549.801 873.413 549.345 882.978 548.886C885.609 548.76 888.695 548.368 889.981 546.069C891.124 544.029 890.21 541.395 888.707 539.604Z" fill="#172F35"/>
<path d="M1068.33 178.374C1074.38 152.169 1058.05 126.017 1031.84 119.962C1005.63 113.908 979.483 130.244 973.428 156.449C967.374 182.655 983.71 208.807 1009.92 214.861C1036.12 220.916 1062.27 204.58 1068.33 178.374Z" fill="#F46B29"/>
<path d="M1063.87 177.789C1069.61 154.03 1055.01 130.116 1031.25 124.375C1007.49 118.633 983.576 133.239 977.834 156.997C972.093 180.755 986.698 204.669 1010.46 210.41C1034.21 216.152 1058.13 201.547 1063.87 177.789Z" fill="#F8F4D9"/>
<path d="M1062.61 182.094C1063.2 180.428 1063.69 178.717 1064.07 176.967H1059.74V146.231C1058.29 143.567 1056.57 141.075 1054.62 138.779V176.967H993.863V157.484H1046.67V131.447C1045.04 130.274 1043.33 129.208 1041.54 128.262V152.357H1006.94V125.385C1005.18 125.968 1003.46 126.65 1001.81 127.44V152.357H988.736V168.763H976.644C976.697 170.498 976.841 172.21 977.089 173.89H988.737V197.811C990.323 199.485 992.035 201.035 993.864 202.445V182.094H1062.61Z" fill="#FFC088"/>
<path d="M1039.94 182.77L1020.98 162.708L1002.03 182.77H1007.82V202.357H1034.15V182.77H1039.94Z" fill="#0C4E5F"/>
<path d="M1029.85 140.664C1029.85 145.657 1020.81 154.323 1020.81 154.323C1020.81 154.323 1011.77 145.656 1011.77 140.664C1011.77 135.671 1015.82 131.624 1020.81 131.624C1025.81 131.624 1029.85 135.671 1029.85 140.664Z" fill="#F46B29"/>
<path d="M1020.86 144.582C1023.22 144.582 1025.14 142.669 1025.14 140.31C1025.14 137.95 1023.22 136.037 1020.86 136.037C1018.5 136.037 1016.59 137.95 1016.59 140.31C1016.59 142.669 1018.5 144.582 1020.86 144.582Z" fill="#FFC088"/>
<path d="M903.872 229.674C904.962 228.936 906.058 227.82 905.881 226.515C905.658 224.876 903.687 224.202 902.056 223.931C890.974 222.087 879.585 222.837 868.537 224.877C857.49 226.918 846.723 230.229 835.986 233.533C834.14 234.101 831.947 235.083 831.819 237.01C831.742 238.16 832.52 239.235 833.508 239.828C834.496 240.421 835.665 240.621 836.808 240.769C843.658 241.661 850.611 241.138 857.473 240.345C870.007 238.896 882.438 236.548 894.637 233.327C897.853 232.477 901.116 231.539 903.872 229.674Z" fill="#172F35"/>
<path d="M1010.88 286.228C1010.32 277.06 1009.12 267.799 1010.66 258.744C1004.98 258.122 999.287 257.5 993.6 256.878C992.338 262.873 990.832 268.816 989.093 274.69C988.673 273.829 988.264 272.963 987.884 272.081C985.562 266.693 984.092 260.978 981.994 255.499C979.895 250.02 977.059 244.644 972.593 240.838C970.953 239.44 968.821 238.222 966.738 238.773C965.41 239.124 964.364 240.138 963.497 241.204C961.06 244.199 959.556 247.849 958.466 251.553C956.723 257.477 955.968 263.831 957.401 269.837C960.169 281.437 970.325 289.603 976.345 299.898C977.99 302.711 979.636 304.8 981.183 307.667C983.917 312.965 983.635 314.022 985.114 316.383C987.931 320.879 994.8 322.134 999.982 320.997C1004.71 319.961 1005.23 317.605 1007.32 313.245C1011.29 304.961 1011.45 295.396 1010.88 286.228Z" fill="#A6BEBD"/>
<path d="M997.739 261.155C997.819 260.883 997.663 260.599 997.39 260.519C997.121 260.437 996.834 260.596 996.755 260.867C992.763 274.542 990.482 288.699 989.977 302.947C989.869 305.995 989.855 309.215 990.958 312.144C991.088 312.489 991.233 312.833 991.38 313.176C991.844 314.266 992.281 315.295 992.213 316.363C992.166 317.097 991.653 317.88 990.994 318.224C990.814 318.319 990.569 318.403 990.314 318.384C990.604 317.732 990.866 317.016 990.895 316.242C990.93 315.257 990.489 314.062 989.425 313.61C989.079 313.463 988.718 313.422 988.401 313.386C988.215 313.364 988.028 313.345 987.848 313.299C986.368 312.923 985.856 310.924 985.494 309.08C984.049 301.73 980.278 295.223 976.631 288.932L973.559 283.631C973.529 284.062 973.478 284.438 973.388 284.956C973.371 285.054 973.33 285.131 973.287 285.206L975.744 289.446C979.349 295.665 983.076 302.096 984.489 309.279C984.815 310.942 985.363 313.726 987.596 314.293C987.82 314.35 988.053 314.379 988.285 314.405C988.557 314.436 988.815 314.466 989.025 314.555C989.638 314.814 989.892 315.592 989.87 316.205C989.842 316.98 989.489 317.735 989.15 318.466C989.04 318.703 989.125 318.986 989.349 319.121C989.674 319.317 990.026 319.415 990.39 319.415C990.744 319.415 991.111 319.321 991.469 319.134C992.44 318.627 993.167 317.514 993.236 316.429C993.319 315.118 992.813 313.927 992.324 312.775C992.183 312.444 992.043 312.114 991.917 311.782C990.881 309.031 990.897 305.927 991.002 302.983C991.504 288.821 993.771 274.748 997.739 261.155Z" fill="#E8E8E8"/>
<path d="M969.469 296.626C972.252 282.14 973.384 267.31 972.388 252.593C974.481 258.417 976.591 264.317 977.164 270.479C978.028 279.746 975.214 289.305 969.469 296.626Z" fill="#172F35"/>
<path d="M994.701 263.639C996.303 264.732 998.208 265.374 1000.15 265.473C1002.54 265.595 1004.93 264.897 1007.08 263.835C1008.38 263.196 1009.7 262.312 1010.14 260.937C1010.44 259.994 1010.28 258.972 1010.11 257.995C1009.86 256.48 1009.6 254.966 1009.34 253.451C1009.25 252.938 1009.15 252.399 1008.82 251.997C1008.38 251.455 1007.62 251.295 1006.93 251.198C1004.11 250.805 1001.23 250.89 998.443 251.45C996.674 251.805 994.75 252.508 993.975 254.138C993.618 254.889 993.558 255.742 993.504 256.572C993.416 257.918 993.328 259.265 993.24 260.612C993.207 261.111 993.177 261.625 993.337 262.099C993.562 262.759 994.124 263.245 994.701 263.639Z" fill="#172F35"/>
<path d="M1000.41 234.552C1000.67 234.661 1000.97 234.568 1001.24 234.474C1002.99 233.856 1004.74 233.237 1006.49 232.618C1004.48 229.347 1002.08 226.316 999.351 223.61C999.539 226.889 999.726 230.168 999.914 233.447C999.938 233.874 1000.02 234.387 1000.41 234.552Z" fill="#FFC088"/>
<path d="M998.654 247.834H983.544C982.652 247.834 981.929 247.111 981.929 246.219V215.806C981.929 214.914 982.652 214.191 983.544 214.191H998.653C999.545 214.191 1000.27 214.914 1000.27 215.806V246.219C1000.27 247.111 999.545 247.834 998.654 247.834Z" fill="#A6BEBD"/>
<path d="M983.613 245.631C984.035 246.436 985.11 246.576 986.019 246.592C989.503 246.651 992.981 246.339 996.451 246.027C996.832 245.993 997.237 245.949 997.534 245.709C997.865 245.442 997.982 244.997 998.076 244.582C999.422 238.623 999.76 232.437 999.07 226.366C994.439 225.921 989.807 225.475 985.176 225.03C984.578 224.973 983.897 224.942 983.464 225.359C983.052 225.757 983.036 226.401 983.047 226.974C983.166 232.801 983.286 238.628 983.405 244.454C983.414 244.856 983.426 245.275 983.613 245.631Z" fill="#172F35"/>
<path d="M1007.91 251.232C1007.87 246.525 1007.79 238.516 1007.74 234.153C1007.72 231.895 1005.98 230.868 1004.01 230.357C1002.25 229.901 983.528 226.033 983.534 225.995C983.371 226.949 983.754 227.931 984.348 228.696C984.942 229.461 985.732 230.044 986.512 230.617C985.631 231.249 984.741 231.89 984.045 232.721C983.35 233.552 982.859 234.608 982.923 235.69C982.987 236.772 983.701 237.848 984.751 238.119C984.109 238.95 983.441 239.846 983.358 240.893C983.275 241.94 984.065 243.123 985.112 243.035C984.727 244.293 984.524 245.608 984.512 246.924C987.06 248.06 988.977 250.511 989.466 253.258C990.111 253.249 990.685 252.79 990.993 252.223C991.016 252.181 991.029 252.135 991.05 252.092C992.628 253.549 994.331 254.863 995.571 256.64C999.725 257.266 1004.08 256.811 1007.88 255.068C1007.93 253.789 1007.93 252.501 1007.91 251.232Z" fill="#FFC088"/>
<path d="M816.974 243.491C810.471 250.576 808.105 260.548 807.507 270.146C806.635 284.136 808.994 298.133 812.181 311.783C814.525 321.823 817.356 331.849 822.183 340.96C827.01 350.071 833.991 358.285 843.089 363.136C856.924 370.513 873.732 369.298 889.043 365.922C904.354 362.545 919.418 357.186 935.093 356.85C940.401 356.736 946.639 356.789 949.795 352.519C951.945 349.61 951.821 345.663 951.585 342.053C950.75 329.235 949.692 316.432 948.414 303.651C947.158 291.096 945.672 278.478 941.963 266.418C938.253 254.358 932.172 242.78 922.889 234.234C918.348 230.054 912.999 226.611 907.032 225.033C900.811 223.388 894.247 223.834 887.84 224.437C874.007 225.74 860.238 227.724 846.599 230.38C835.81 232.482 824.407 235.393 816.974 243.491Z" fill="#F46B29"/>
<path d="M808.483 193.779L811.463 230.135C811.85 234.853 816.063 238.268 820.674 237.6L908.936 224.81C913.183 224.194 916.221 220.318 915.862 215.972L913.082 182.37C912.7 177.753 908.646 174.366 904.116 174.88L815.654 184.916C811.297 185.41 808.119 189.339 808.483 193.779Z" fill="#172F35"/>
<path d="M814.195 194.903L817.076 229.48C817.45 233.968 821.524 237.215 825.982 236.58L911.317 224.416C915.423 223.831 918.361 220.144 918.013 216.01L915.325 184.052C914.956 179.661 911.036 176.44 906.656 176.928L821.128 186.473C816.916 186.943 813.843 190.679 814.195 194.903Z" fill="#A6BEBD"/>
<path d="M909.035 236.473C889.289 237.623 869.669 240.919 850.63 246.282C849.399 246.629 848.98 248.19 849.883 249.096C851.263 250.481 852.566 252.285 853.016 252.926C864.618 269.443 864.342 291.503 864.942 310.801C865.436 326.674 864.87 342.555 864.291 358.417C864.215 360.506 864.271 362.947 865.945 364.198C867.091 365.054 868.643 365.051 870.073 365.006C897.435 364.134 924.722 360.956 951.552 355.518C952.956 318.604 949.795 285.872 938.293 258.444C936.758 254.784 926.042 240.68 922.668 238.59C918.693 236.127 913.703 236.201 909.035 236.473Z" fill="#172F35"/>
<path d="M850.691 261.435C849.082 257.309 846.477 252.689 843.746 249.203C841.015 245.717 837.279 242.861 832.951 241.926C825.417 240.299 817.498 245.016 813.705 251.725C818.471 247.582 825.557 246.707 831.562 248.661C837.568 250.615 842.529 255.085 846.027 260.344C849.525 265.602 851.685 271.633 853.42 277.705C861.33 305.379 860.991 334.726 858.695 363.416C863.046 329.036 863.282 293.72 850.691 261.435Z" fill="#FFC088"/>
<path d="M969.424 337.94H894.174V353.94H969.424V337.94Z" fill="#172F35"/>
<path d="M972.239 241.238C971.862 239.85 971.408 238.417 970.404 237.386C968.318 235.244 964.868 235.649 961.898 235.304C956.398 234.665 951.664 230.925 948.525 226.34C937.687 231.287 925.053 232.242 915.343 224.428C914.325 225.379 913.256 226.274 912.146 227.104C906.432 231.38 899.706 234.122 892.86 236.14C890.48 236.842 887.944 237.538 886.245 239.347C883.262 242.523 884.09 247.558 884.973 251.825C890.661 279.308 890.419 307.998 884.319 335.389C883.314 339.9 886.313 344.315 890.858 345.15C918.212 350.177 946.693 349.033 973.542 341.766C965.263 309.087 981.084 273.77 972.239 241.238Z" fill="#A6BEBD"/>
<path d="M932.966 263.172C926.977 265.093 920.602 265.806 914.337 265.254C914.331 262.827 914.325 260.401 914.319 257.974C920.505 257.46 926.667 256.662 932.78 255.581C932.841 258.112 932.904 260.642 932.966 263.172Z" fill="white"/>
<path d="M932.812 231.34C937.552 236.405 937.683 244.106 937.569 251.042C937.017 284.621 937.229 318.212 938.204 351.782C941.2 351.526 944.196 351.27 947.192 351.014C946.481 319.476 945.77 287.938 945.059 256.4C944.866 247.828 944.657 239.15 942.349 230.892C939.17 231.041 935.991 231.19 932.812 231.34Z" fill="#172F35"/>
<path d="M943.106 310.139C942.279 292.847 941.423 274.965 942.764 257.244C943.497 247.539 941.6 239.916 939.442 232.025C939.107 232.101 938.77 232.163 938.433 232.223C940.575 240.052 942.464 247.605 941.741 257.167C940.397 274.951 941.254 292.865 942.082 310.188C942.349 315.759 942.625 321.52 942.825 327.217C943.077 334.397 943.338 341.821 942.307 349.031C942.267 349.311 942.462 349.571 942.743 349.611C942.767 349.614 942.792 349.616 942.816 349.616C943.066 349.616 943.286 349.432 943.323 349.175C944.365 341.876 944.104 334.406 943.851 327.181C943.648 321.477 943.373 315.713 943.106 310.139Z" fill="#A6BEBD"/>
<path d="M912.384 226.797C917.965 231.147 924.88 233.761 931.944 234.188C939.007 234.616 946.187 232.856 952.252 229.21C950.785 227.959 949.647 226.324 948.984 224.513C943.796 226.794 938.13 228.269 932.482 227.802C926.834 227.335 921.206 224.738 917.899 220.135C916.688 222.788 914.764 225.112 912.384 226.797Z" fill="#172F35"/>
<path d="M937.577 431.448C935.755 431.448 928.794 431.448 926.972 431.448C913.531 431.448 902.634 454.028 902.634 481.882C902.634 509.736 913.53 532.314 926.972 532.314C928.794 532.314 935.755 532.314 937.577 532.314C951.018 532.314 961.915 509.735 961.915 481.882C961.915 454.028 951.018 431.448 937.577 431.448Z" fill="#172F35"/>
<path d="M921.951 517.421C928.222 517.421 933.306 501.509 933.306 481.882C933.306 462.254 928.222 446.343 921.951 446.343C915.68 446.343 910.596 462.254 910.596 481.882C910.596 501.509 915.68 517.421 921.951 517.421Z" fill="#A6BEBD"/>
<path d="M919.388 504.582C924.64 504.582 928.897 491.257 928.897 474.821C928.897 458.384 924.64 445.06 919.388 445.06C914.136 445.06 909.879 458.384 909.879 474.821C909.879 491.257 914.136 504.582 919.388 504.582Z" fill="#172F35"/>
<path d="M1006.84 386.005C996.818 373.365 981.833 364.773 965.864 362.512C949.894 360.25 933.113 364.344 919.978 373.705C915.257 377.069 910.889 381.236 908.581 386.553C905.191 394.36 906.704 403.319 908.275 411.684C912.427 433.791 916.578 455.898 920.73 478.005C921.213 480.575 921.736 483.242 923.289 485.346C925.327 488.108 928.765 489.411 932.064 490.358C956.603 497.402 982.79 492.328 1007.8 487.222C1012.85 486.192 1018.41 484.831 1021.29 480.56C1022.87 478.222 1023.38 475.345 1023.78 472.553C1025.78 458.445 1025.78 444.056 1023.8 429.945C1021.59 414.211 1016.71 398.456 1006.84 386.005Z" fill="#172F35"/>
<path d="M923.638 411.895C920.037 402.914 914.822 391.647 904.816 388.888C896.378 386.562 887.192 390.981 881.603 397.718C876.014 404.455 873.361 413.111 871.317 421.622C865.842 444.425 867.005 468.883 874.826 490.991C895.063 493.237 911.398 494.466 932.633 493.581C933.917 493.528 934.014 470.392 933.971 468.162C933.806 459.566 933.001 450.984 931.572 442.506C929.885 432.505 927.701 422.106 923.883 412.508C923.802 412.306 923.721 412.101 923.638 411.895Z" fill="#F46B29"/>
<path d="M923.386 417.927C927.864 429.072 927.752 441.639 925.224 453.381C922.696 465.123 917.877 476.227 913.088 487.242C912.285 489.089 910.795 491.296 908.851 490.771C907.404 490.38 906.814 488.688 906.448 487.235C903.702 476.353 900.946 465.413 899.973 454.232C899 443.051 899.881 431.518 904.192 421.155C905.591 417.792 907.457 414.444 910.486 412.422C913.515 410.4 917.955 410.116 920.598 412.623L923.386 417.927Z" fill="#172F35"/>
<path d="M945.593 488.59C937.09 487.649 927.761 486.297 922.116 479.869C921.019 483.384 922.568 487.313 925.159 489.929C927.749 492.545 931.224 494.076 934.682 495.342C959.756 504.521 987.472 502.621 1013.84 498.398C1015.13 494.612 1010.85 499.567 1012.15 495.781C988.91 502.596 969.663 491.252 945.593 488.59Z" fill="#F46B29"/>
<path d="M852.613 498.215C865.577 507.495 882.236 511.447 897.474 506.761C883.374 500.115 868.094 496.388 852.613 498.215Z" fill="#172F35"/>
<path d="M888.392 519.875C889.091 512.483 889.79 505.09 890.49 497.698C881.193 498.122 871.851 497.547 862.677 495.985C862.14 502.812 861.18 509.606 859.804 516.315C869.333 517.502 878.862 518.688 888.392 519.875Z" fill="white"/>
<path d="M1049.88 411.821C1044.12 398.141 1040.78 383.467 1038.91 368.714C1036.7 351.271 1036.48 333.646 1036.26 316.065C1022.87 314.639 1009.21 315.76 996.235 319.35C1005.11 352.22 1015.84 386.318 1035.11 416.014C1040.07 414.87 1044.99 413.357 1049.88 411.821Z" fill="#FFC088"/>
<path d="M878.518 508.643C881.644 509.16 884.701 510.585 886.733 513.017C890.231 517.204 890.033 523.278 889.343 528.69C888.653 534.102 887.716 539.906 890.18 544.773C877.69 544.728 865.198 545.295 852.763 546.471C851.473 537.66 852.002 528.241 856.406 520.501C860.809 512.76 869.732 507.19 878.518 508.643Z" fill="#0C4E5F"/>
<path d="M875.196 507.641C873.645 507.805 871.962 508.285 871.128 509.603C870.681 510.309 870.543 511.162 870.441 511.991C869.722 517.845 870.358 523.861 872.285 529.436C872.579 530.286 872.976 531.208 873.797 531.576C874.336 531.818 874.954 531.769 875.544 531.733C879.488 531.497 883.481 532.117 887.168 533.538C886.753 527.715 886.957 521.848 887.774 516.068C887.995 514.506 888.231 512.792 887.398 511.453C886.903 510.657 886.093 510.114 885.271 509.664C882.22 507.993 878.655 507.277 875.196 507.641Z" fill="#F46B29"/>
<path d="M858.127 522.242C858.972 521.222 860.154 520.239 861.464 520.435C862.556 520.599 863.362 521.543 863.88 522.517C864.934 524.496 865.215 526.779 865.753 528.956C866.291 531.133 867.207 533.383 869.075 534.623C865.652 537.417 861.569 539.398 857.256 540.357C856.413 540.545 855.539 540.694 854.69 540.537C853.841 540.381 853.012 539.862 852.702 539.056C852.445 538.388 852.573 537.642 852.705 536.939C853.675 531.747 854.756 526.309 858.127 522.242Z" fill="#A6BEBD"/>
<path d="M891.146 539.741C890.965 535.779 890 531.491 886.897 529.02C883.239 526.107 877.806 526.742 873.622 528.829C870.422 530.425 867.641 532.731 864.646 534.684C861.651 536.637 858.277 538.279 854.701 538.278C853.565 538.278 852.312 538.143 851.405 538.827C850.379 539.601 850.255 541.067 850.219 542.352C850.18 543.788 850.184 545.36 851.088 546.476C852.052 547.665 853.725 547.952 855.248 548.116C864.976 549.161 874.796 548.523 884.559 547.883C885.988 547.789 887.488 547.673 888.689 546.893C890.906 545.454 891.267 542.382 891.146 539.741Z" fill="#FFC088"/>
<path d="M957.606 182.055C960.753 192.973 958.688 205.272 952.147 214.564C950.775 216.513 949.15 218.388 946.991 219.398C942.999 221.267 938.32 219.77 934.178 218.259C929.516 216.558 924.675 214.742 921.272 211.131C918.065 207.728 916.501 203.08 915.727 198.469C914.803 192.964 914.959 186.998 917.826 182.207C921.397 176.239 928.599 173.211 935.545 172.867C942.491 172.523 949.327 174.449 956.015 176.357L957.606 182.055Z" fill="#172F35"/>
<path d="M949.601 227.8C949.078 227.142 948.585 226.462 948.133 225.762C945.003 220.915 943.371 215.279 941.78 209.733C935.966 209.82 930.152 209.908 924.338 209.995C923.115 214.655 920.589 218.869 917.321 222.433C926.248 229.341 938.705 230.052 949.601 227.8Z" fill="#FFC088"/>
<path d="M955.886 194.666C955.847 194.46 955.805 194.254 955.76 194.05C955.423 192.517 954.725 190.698 955.506 189.176C956.724 186.805 956.531 186.228 954.95 181.322L953.243 177.505C949.272 173.2 943.261 171.158 937.405 171.095C931.549 171.032 925.807 172.77 920.423 175.075C918.629 175.843 916.686 176.867 916.086 178.724C915.745 179.779 915.909 180.923 916.087 182.017C916.793 186.368 917.653 190.693 918.513 195.016C919.206 198.5 919.917 202.038 921.562 205.186C923.649 209.18 927.087 212.269 930.452 215.266C931.822 216.486 933.22 217.725 934.894 218.474C938.089 219.905 941.941 219.319 944.959 217.545C947.977 215.771 950.248 212.942 951.995 209.908C953.866 206.659 955.212 203.108 955.964 199.434C956.287 197.865 956.182 196.237 955.886 194.666Z" fill="#FFC088"/>
<path d="M930.434 190.531C932.594 188.316 935.356 187.288 938.305 187.528C938.415 187.074 938.637 186.647 938.959 186.308C935.556 185.894 932.028 187.383 929.785 189.976C930.039 190.111 930.25 190.309 930.434 190.531Z" fill="#0C4E5F"/>
<path d="M935.373 195.247C935.065 195.278 934.734 195.295 934.465 195.14C934.218 194.998 934.068 194.733 933.972 194.465C933.784 193.938 933.767 193.351 933.926 192.814C934.082 192.289 934.416 191.804 934.895 191.539C935.374 191.274 936.001 191.257 936.457 191.561C937.017 191.935 937.204 192.665 937.281 193.334C937.317 193.646 937.337 193.971 937.225 194.264C937.092 194.608 936.787 194.864 936.449 195.012C936.111 195.158 935.74 195.21 935.373 195.247Z" fill="#0C4E5F"/>
<path d="M936.597 193.046C936.418 192.732 936.084 192.449 935.73 192.52C935.353 192.595 935.161 193.019 935.101 193.398C935.059 193.667 935.053 193.948 935.141 194.206C935.228 194.464 935.419 194.696 935.676 194.785C936.078 194.924 936.546 194.659 936.718 194.27C936.889 193.881 936.808 193.415 936.597 193.046Z" fill="#172F35"/>
<path d="M934.969 193.354C935.099 193.363 935.224 193.289 935.312 193.193C935.484 193.005 935.525 192.672 935.328 192.51C935.21 192.413 935.032 192.403 934.897 192.473C934.761 192.543 934.668 192.683 934.639 192.834C934.596 193.062 934.738 193.339 934.969 193.354Z" fill="white"/>
<path d="M951.693 187.457C952.872 187.457 953.903 188.156 954.417 189.15C954.423 189.16 954.431 189.17 954.437 189.18C954.656 189.099 954.804 188.838 954.78 188.592C954.751 188.296 954.554 188.045 954.352 187.827C953.938 187.378 953.46 186.978 952.907 186.719C952.354 186.46 951.719 186.35 951.123 186.486C950.73 186.575 950.341 186.791 950.162 187.152C950.049 187.38 950.06 187.662 950.172 187.885C950.625 187.62 951.141 187.457 951.693 187.457Z" fill="#0C4E5F"/>
<path d="M951.387 192.843C951.345 192.458 951.493 192.074 951.707 191.752C952.011 191.293 952.54 190.903 953.077 191.024C953.439 191.106 953.721 191.408 953.87 191.749C954.019 192.089 954.056 192.467 954.084 192.837C954.117 193.283 954.11 193.803 953.762 194.084C953.466 194.323 953.034 194.287 952.673 194.171C952.051 193.97 951.458 193.49 951.387 192.843Z" fill="#0C4E5F"/>
<path d="M953.346 192.19C953.2 192.018 952.974 191.87 952.761 191.944C952.597 192.001 952.502 192.17 952.436 192.331C952.335 192.578 952.266 192.847 952.308 193.11C952.35 193.373 952.521 193.628 952.775 193.709C953.122 193.819 953.513 193.553 953.616 193.204C953.718 192.854 953.582 192.468 953.346 192.19Z" fill="#172F35"/>
<path d="M952.47 192.425C952.569 192.432 952.664 192.376 952.731 192.302C952.861 192.159 952.893 191.906 952.743 191.783C952.653 191.709 952.518 191.702 952.415 191.755C952.312 191.808 952.241 191.915 952.219 192.029C952.186 192.203 952.294 192.413 952.47 192.425Z" fill="white"/>
<path d="M953.273 194.485C950.055 192.63 944.211 193.423 940.733 194.015C937.255 194.607 933.081 196.69 929.942 198.301C929.066 198.751 928.143 199.293 927.768 200.203C927.551 200.73 927.548 201.317 927.553 201.888C927.576 204.806 927.71 207.723 927.955 210.631C928.034 211.578 928.131 212.546 928.528 213.409C928.935 214.295 929.632 215.013 930.365 215.657C931.488 216.644 932.744 217.51 934.153 218.011C936.423 218.819 942.57 220.142 944.814 219.264C947.058 218.386 946.849 218.296 948.488 216.53C951.736 213.03 954.268 209.441 956.008 204.994C956.777 203.029 957.642 199.511 956.862 198.414C956.274 197.588 954.153 194.992 953.273 194.485Z" fill="#172F35"/>
<path d="M943.123 194.763C938.135 195.14 933.305 197.206 929.539 200.494C930.023 205.292 930.139 209.565 930.767 214.363C931.344 215.42 932.565 217.105 933.395 217.727C936.007 219.686 938.595 220.139 941.823 220.632C946.909 221.409 950.317 218.122 953.102 213.796C955.887 209.47 957.092 203.275 957.631 198.159C953.085 194.506 948.939 194.323 943.123 194.763Z" fill="white"/>
<path d="M930.283 201.978C926.305 199.853 923.663 198.365 921.109 196.927L919.529 196.039L920.031 195.145L921.612 196.034C924.162 197.469 926.799 198.954 930.768 201.074L930.283 201.978Z" fill="white"/>
<path d="M921.89 206.755L921.44 207.677L931.438 212.548L931.888 211.626L921.89 206.755Z" fill="white"/>
<path d="M926.187 188.589C930.929 184.786 946.567 185.684 956.222 184.957C956.025 184.004 955.556 183.202 954.95 181.322L953.243 177.505C949.272 173.2 943.261 171.158 937.405 171.095C931.549 171.032 925.807 172.77 920.423 175.075C918.629 175.843 916.686 176.867 916.086 178.724C915.745 179.779 915.909 180.923 916.087 182.017C916.793 186.368 917.653 190.693 918.513 195.016C919.206 198.5 919.917 202.038 921.562 205.186C922.198 206.404 922.971 207.531 923.819 208.604C922.528 200.748 921.439 193.337 926.187 188.589Z" fill="#172F35"/>
<path d="M925.572 158.725C919.99 160.246 914.663 163.171 911.031 167.675C907.316 172.282 905.604 178.219 904.958 184.103C904.372 189.444 904.61 194.943 906.315 200.038C908.135 205.476 911.726 210.434 916.793 213.175C917.652 213.64 918.622 213.932 919.591 213.803C922.28 213.446 922.814 210.693 922.91 208.397C923.127 203.229 922.696 197.558 921.527 192.229C920.682 188.377 923.492 184.673 927.431 184.488C938.098 183.988 948.688 183.881 959.406 183.117C959.902 183.082 960.437 183.03 960.806 182.697C961.245 182.301 961.302 181.642 961.304 181.051C961.33 172.925 956.257 165.216 949.2 161.185C942.144 157.154 933.412 156.588 925.572 158.725Z" fill="#F46B29"/>
<path d="M918.76 214.016C918.093 214.016 917.481 213.795 917.02 213.383C916.808 213.195 916.79 212.871 916.978 212.66C917.167 212.448 917.491 212.43 917.702 212.618C918.087 212.96 918.559 213.011 918.894 212.986C919.543 212.943 920.214 212.608 920.644 212.111C921.456 211.17 921.687 209.838 921.816 208.539C922.186 204.781 921.893 201.021 920.943 197.366C920.843 196.98 920.735 196.59 920.628 196.198C919.889 193.517 919.126 190.745 920.219 188.159C921.041 186.215 922.913 184.636 925.356 183.825C927.495 183.115 929.74 183.033 931.912 182.953L955.328 182.091C957.325 182.017 959.588 181.934 961.461 181.001C961.712 180.876 962.023 180.978 962.148 181.232C962.274 181.485 962.171 181.793 961.918 181.919C959.846 182.951 957.466 183.038 955.366 183.115L931.95 183.977C929.85 184.055 927.679 184.134 925.679 184.798C923.517 185.515 921.871 186.885 921.164 188.558C920.21 190.816 920.925 193.413 921.617 195.926C921.726 196.323 921.835 196.717 921.937 197.107C922.918 200.88 923.221 204.761 922.838 208.64C922.7 210.036 922.423 211.62 921.422 212.781C920.81 213.49 919.89 213.949 918.963 214.01C918.893 214.013 918.827 214.016 918.76 214.016Z" fill="#A6BEBD"/>
<path d="M939.396 159.498C930.072 157.457 919.75 160.932 913.558 168.196C907.366 175.46 905.571 186.202 909.063 195.085C907.449 187.517 909.024 179.321 913.328 172.89C917.631 166.459 924.607 161.877 932.219 160.481L939.396 159.498Z" fill="#FFC088"/>
<path d="M896.857 244.798C898.1 244.007 899.811 244.321 900.993 245.2C902.176 246.079 902.927 247.414 903.548 248.75C906.869 255.898 907.36 264.1 906.303 271.91C905.246 279.72 902.722 287.246 900.211 294.717C909.698 300.538 919.654 305.595 929.949 309.824C913.429 313.388 895.709 311.107 880.63 303.476C890.306 287.229 891.931 267.644 894.893 248.968C895.142 247.4 895.519 245.649 896.857 244.798Z" fill="#172F35"/>
<path d="M908.719 330.485C913.084 331.582 917.829 332.495 921.97 330.734C925.34 329.302 927.764 326.318 929.94 323.374C932.164 320.366 934.368 316.464 932.731 313.1C931.254 310.065 927.455 309.165 924.165 308.413C913.934 306.077 904.132 301.879 895.382 296.086C896.775 289.091 899.693 282.511 902.093 275.794C904.493 269.078 906.407 261.977 905.664 254.883C904.921 247.789 901.054 240.668 894.556 237.727C892.409 236.755 889.936 236.271 887.683 236.961C884.5 237.936 882.449 240.962 880.816 243.863C870.797 261.67 872.391 280.317 866.511 302.816C865.645 306.128 866.548 309.845 868.288 312.793C870.231 316.086 873.86 317.947 877.343 319.526C887.446 324.108 897.961 327.78 908.719 330.485Z" fill="#A6BEBD"/>
<path d="M920.88 323.596C920.54 325.638 920.677 327.958 922.107 329.454C923.066 330.457 924.445 330.92 925.765 331.348C926.941 331.729 928.173 332.115 929.393 331.916C930.662 331.71 931.747 330.895 932.675 330.005C935.023 327.752 936.725 324.833 937.529 321.68C937.982 319.903 938.13 317.929 937.26 316.315C936.43 314.777 934.774 313.81 933.062 313.462C930.171 312.875 927.075 313.915 924.884 315.89C922.693 317.865 921.364 320.687 920.88 323.596Z" fill="#172F35"/>
<path d="M920.418 330.648C920.232 330.648 920.052 330.547 919.962 330.37C919.411 329.302 918.73 329.357 917.359 329.571C916.395 329.722 915.301 329.893 914.104 329.482C909.634 327.95 904.928 326.889 900.377 325.864C895.897 324.854 891.265 323.81 886.832 322.314C878.443 319.483 870.142 315.591 866.239 306.367C866.129 306.106 866.251 305.805 866.511 305.695C866.771 305.584 867.073 305.707 867.183 305.967C870.928 314.818 878.997 318.588 887.159 321.342C891.541 322.821 896.147 323.859 900.601 324.863C905.179 325.895 909.912 326.961 914.435 328.511C915.393 328.84 916.312 328.696 917.199 328.557C918.492 328.354 919.958 328.126 920.871 329.899C921.001 330.151 920.902 330.46 920.65 330.589C920.577 330.63 920.497 330.648 920.418 330.648Z" fill="#E8E8E8"/>
<path d="M869.29 518.131C872.321 516.531 875.686 515.374 879.163 515.262C882.64 515.15 886.238 516.167 888.743 518.429C889.57 519.176 890.068 520.429 890.138 521.586C890.158 521.919 889.745 522.084 889.505 521.852C886.745 519.198 882.986 517.495 879.035 517.671C874.79 517.86 870.719 519.655 867.555 522.316C866.748 521.82 866.664 520.673 867.128 519.88C867.593 519.088 868.449 518.575 869.29 518.131Z" fill="#172F35"/>
<path d="M869.484 521.689C872.515 520.089 875.88 518.932 879.357 518.82C882.834 518.708 886.432 519.725 888.937 521.987C889.764 522.734 890.262 523.987 890.332 525.144C890.352 525.477 889.939 525.642 889.699 525.41C886.939 522.756 883.18 521.053 879.229 521.229C874.984 521.418 870.913 523.213 867.75 525.874C866.943 525.378 866.859 524.232 867.323 523.438C867.786 522.646 868.643 522.133 869.484 521.689Z" fill="#172F35"/>
<path d="M868.152 527.98C870.686 525.148 874.383 523.432 878.174 523.154C881.964 522.876 885.814 524 888.96 526.132C889.547 526.53 890.138 526.996 890.397 527.657C890.656 528.318 890.439 529.212 889.777 529.468C886.782 527.281 883.113 526.032 879.406 525.938C875.699 525.844 871.971 526.905 868.869 528.937C868.592 529.118 868.224 529.308 867.956 529.113C867.606 528.857 867.862 528.304 868.152 527.98Z" fill="#172F35"/>
<path d="M945.11 349.783H911.835C904.961 350.935 896.048 347.579 891.008 351.896C883.092 358.676 881.391 375.058 882.643 384.765C882.869 386.517 883.299 388.331 884.554 389.696C887.111 392.477 891.821 392.333 895.862 392.342C903.304 392.36 910.739 393.75 917.559 396.4C921.619 397.978 925.941 400.05 930.231 399.063C933.463 398.319 935.872 395.985 938.078 393.758C943.242 388.544 948.451 383.199 951.609 376.844C954.767 370.49 955.621 362.864 952.013 356.702C950.387 353.929 947.96 351.628 945.11 349.783Z" fill="#A6BEBD"/>
<path d="M938.637 361.055C936.534 358.537 933.964 355.862 930.683 355.814C928.238 355.779 926.048 357.244 924.112 358.738C910.632 369.145 900.912 383.621 892.43 398.389C874.521 429.571 861.037 463.291 852.508 498.224C867.671 499.931 882.701 502.814 897.419 506.839C908.406 468.777 919.565 430.3 939.227 395.907C943.061 389.2 947.37 381.887 946.04 374.276C945.162 369.241 941.914 364.979 938.637 361.055Z" fill="#A6BEBD"/>
<path d="M884.235 389.216C886.132 391.805 889.659 392.878 892.827 392.362C895.995 391.845 898.805 389.945 900.991 387.594C903.177 385.243 904.815 382.448 906.436 379.677C900.589 385.495 892.48 388.979 884.235 389.216Z" fill="#172F35"/>
<path d="M857.694 499.17C857.65 499.17 857.605 499.164 857.561 499.153C857.287 499.08 857.125 498.799 857.198 498.525C864.692 470.47 876.245 441.065 892.517 408.63C896.626 400.439 901.288 392.07 909.048 387.614C909.334 387.45 909.512 387.17 909.536 386.849C909.559 386.54 909.431 386.252 909.186 386.059L907.899 385.045C907.279 384.555 906.953 383.792 907.027 383.002C907.1 382.233 907.548 381.563 908.226 381.212C910.809 379.871 913.571 378.949 916.437 378.47C914.708 378.096 912.935 377.986 911.166 378.139C910.624 378.183 910.114 377.87 909.914 377.35C909.713 376.831 909.873 376.258 910.312 375.924C912.169 374.508 914.178 373.294 916.289 372.304L898.157 375.759C895.295 376.304 892.336 376.866 889.356 376.411C885.943 375.891 883.469 374.201 882.389 371.653C882.279 371.392 882.401 371.091 882.661 370.981C882.92 370.869 883.223 370.991 883.333 371.252C884.532 374.083 887.354 375.069 889.51 375.398C892.318 375.826 895.188 375.28 897.965 374.752L924.046 369.782C924.327 369.73 924.593 369.912 924.646 370.19C924.699 370.468 924.516 370.737 924.238 370.79C919.442 371.703 914.841 373.761 910.932 376.74C910.826 376.82 910.847 376.926 910.868 376.982C910.889 377.037 910.949 377.135 911.077 377.118C912.945 376.957 914.82 377.074 916.649 377.46C917.143 377.564 917.481 377.987 917.471 378.488C917.461 378.989 917.104 379.398 916.604 379.481C913.844 379.943 911.184 380.831 908.697 382.121C908.324 382.315 908.087 382.672 908.046 383.098C908.004 383.541 908.186 383.967 908.532 384.24L909.819 385.254C910.328 385.655 910.604 386.28 910.557 386.924C910.508 387.581 910.134 388.172 909.557 388.503C902.044 392.816 897.471 401.038 893.432 409.09C877.192 441.46 865.664 470.801 858.187 498.788C858.128 499.019 857.921 499.17 857.694 499.17Z" fill="#E8E8E8"/>
<path d="M1070.3 352.786C1068 345.345 1065.52 337.593 1060.02 332.07C1052.66 324.67 1041.47 322.811 1031.04 322.327C1010.58 321.378 989.601 324.389 971.334 333.657C965.048 336.846 958.989 340.88 954.872 346.601C949.645 353.863 948.05 363.1 947.455 372.028C945.389 403.061 953.619 433.741 957.117 464.646C958.16 473.86 958.494 484.12 952.68 491.344C950.89 493.568 948.418 496.263 949.687 498.82C950.621 500.702 953.057 501.148 955.147 501.353C985.702 504.352 1017.38 504.454 1046.09 493.557C1062.3 487.401 1077.86 477.078 1085.51 461.512C1090.86 450.631 1091.91 438.035 1090.57 425.985C1089.22 413.934 1085.62 402.267 1082.04 390.684C1078.13 378.052 1074.21 365.419 1070.3 352.786Z" fill="#F46B29"/>
<path d="M1074.83 436.402C1069.4 425.82 1059.63 416.954 1047.89 415.028C1037.08 413.254 1025.83 417.604 1017.75 424.991C1009.67 432.378 1004.48 442.505 1001.38 453.006C998.275 463.507 997.102 474.468 995.957 485.359C995.463 490.063 995.274 495.58 998.873 498.649C1002.09 501.391 1006.88 500.875 1011.02 500.056C1025.06 497.281 1038.75 492.799 1051.71 486.738C1062.91 481.502 1074.4 474.074 1078.14 462.292C1080.84 453.782 1078.9 444.345 1074.83 436.402Z" fill="#172F35"/>
<path d="M971.991 349.115C970.719 346.946 967.795 346.515 965.916 348.186C960.18 353.288 956.906 361.093 956.013 368.836C954.9 378.486 956.947 388.2 958.977 397.689C965.771 396.595 962.893 397.058 969.687 395.964C968.929 389.394 968.477 382.696 969.788 376.217C970.911 370.668 973.473 365.242 977.581 361.42C978.838 360.251 978.905 358.313 977.761 357.033C975.582 354.594 973.646 351.937 971.991 349.115Z" fill="white"/>
<path d="M1056.93 341.688C1056.82 343.179 1056.55 344.658 1056.13 346.094C1055.81 347.232 1056.12 348.461 1056.99 349.261C1062.1 353.936 1065.98 359.94 1068.13 366.521C1069.14 366.836 1070.21 365.981 1070.53 364.971C1070.85 363.961 1070.62 362.87 1070.38 361.837C1068.83 354.948 1064.58 346.497 1059.53 340.763C1058.65 339.77 1057.03 340.366 1056.93 341.688Z" fill="white"/>
<path d="M959.328 453.493C960.257 439.091 957.249 424.768 954.728 410.559C952.206 396.349 950.162 381.712 952.99 367.56C955.818 353.408 964.385 339.643 977.745 334.186C963.674 338.503 955.051 350.866 951.552 365.162C948.053 379.458 949.512 395.473 952.449 409.895C955.386 424.316 958.594 438.793 959.328 453.493Z" fill="#FFC088"/>
<path d="M1036.42 328.119C1036.35 324.119 1036.3 320.12 1036.25 316.122C1021.6 314.562 1006.67 315.788 992.475 319.714C993.323 322.855 994.194 326.008 995.078 329.166C998.763 348.235 1017.21 421.37 1017.21 421.37L1035.59 416.971L1011.6 332.765C1019.97 332.064 1028.28 330.471 1036.42 328.119Z" fill="#172F35"/>
<path d="M1036.42 327.036C1024.4 330.509 1011.98 332.177 999.601 331.504C1007.87 360.528 1018.2 389.965 1035.11 416.014C1040.07 414.87 1044.99 413.357 1049.88 411.821C1044.11 398.141 1040.78 383.467 1038.91 368.714C1037.16 354.898 1036.66 340.968 1036.42 327.036Z" fill="#FFC088"/>
<path d="M1071.92 303.476C1071.92 306.378 1070.2 308.731 1068.08 308.731C1065.95 308.731 1064.23 306.378 1064.23 303.476C1064.23 300.574 1065.95 298.221 1068.08 298.221C1070.2 298.221 1071.92 300.574 1071.92 303.476Z" fill="#172F35"/>
<path d="M1083.5 305.892C1083.14 306.75 1082.25 307.292 1081.34 307.48C1080.43 307.668 1079.48 307.557 1078.56 307.445C1074.01 306.896 1069.45 306.347 1064.9 305.798C1065.01 304.132 1065.12 302.466 1065.23 300.799C1069.5 301.043 1073.76 301.287 1078.03 301.53C1079.4 301.609 1080.84 301.705 1082.02 302.407C1083.21 303.11 1084.04 304.622 1083.5 305.892Z" fill="#172F35"/>
<path d="M1066.96 298.645C1060.9 299.192 1056.24 297.291 1051.87 293.065C1049.27 290.555 1047.27 287.354 1044.19 285.465C1039.14 282.366 1032.71 283.587 1026.81 284.199C1018.1 285.103 1008.97 284.499 1000.97 288.074C995.074 290.71 990.38 295.379 985.361 299.445C976.704 306.458 966.739 311.837 956.148 315.294C958.09 317.443 959.538 320.069 960.582 322.88C969.074 321.149 977.973 320.955 986.674 321.284C1000.23 321.797 1013.83 323.45 1027.31 321.942C1032.85 321.322 1038.43 320.133 1043.29 317.404C1047.22 315.199 1050.55 312.065 1054.37 309.69C1058.2 307.315 1061.66 306.149 1065.97 307.458C1068.72 305.515 1068.93 300.801 1066.96 298.645Z" fill="#F46B29"/>
<path d="M987.188 304.946C987.721 304.839 988.241 304.643 988.684 304.329C990.878 302.773 990.366 299.186 992.2 297.22C988.589 299.976 984.978 302.733 981.367 305.489C983.123 304.607 985.26 305.332 987.188 304.946Z" fill="#FFC088"/>
<path d="M969.203 329.971C970.29 329.479 970.884 328.261 970.566 327.11C970.285 326.094 970.207 325.022 970.348 323.977C970.512 322.759 970.964 321.577 970.955 320.348C970.941 318.565 969.963 316.941 968.923 315.492C968.157 314.425 967.291 313.357 966.094 312.816C964.294 312.002 962.201 312.556 960.308 313.12C959.079 313.486 957.665 314.033 957.331 315.271C957.176 315.844 957.299 316.454 957.465 317.024C958.133 319.307 959.524 321.372 961.389 322.848C962.548 323.765 963.993 324.619 964.284 326.068C964.497 327.133 963.98 328.236 963.221 329.013C962.463 329.79 961.485 330.309 960.542 330.847C952.857 335.225 946.456 341.589 941.037 348.579C940.896 348.76 940.76 348.953 940.633 349.15C940.616 349.174 940.594 349.192 940.578 349.216C940.267 349.674 940.014 350.207 940.056 350.758C940.129 351.697 941.041 352.371 941.956 352.591C942.634 352.754 943.504 352.648 943.796 352.014C943.998 351.576 943.838 351.067 943.732 350.596C943.627 350.134 943.586 349.66 943.593 349.187C950.595 341.022 959.403 334.408 969.203 329.971Z" fill="white"/>
<path d="M1045.94 310.3C1048.17 306.754 1047.92 302.231 1047.19 298.109C1046.67 295.119 1045.84 291.96 1043.57 289.95C1041.47 288.097 1038.53 287.579 1035.75 287.303C1026.95 286.431 1017.98 287.246 1009.48 289.69C1004.19 291.209 998.638 293.764 996.306 298.743C993.854 303.978 995.402 311.757 999.673 315.653C1003.94 319.549 1009.79 319.279 1015.57 319.413C1022.32 319.569 1029.65 318.508 1036.09 316.492C1042.9 314.363 1043.87 313.6 1045.94 310.3Z" fill="white"/>
<path d="M1038.15 288.869C1040.96 291.7 1042.59 295.523 1043.4 299.422C1044.22 303.321 1044.29 307.333 1044.35 311.316C1046.71 305.65 1046.72 299.041 1044.36 293.372C1043.82 292.071 1043.14 290.788 1042.07 289.865C1041.01 288.942 1039.49 288.437 1038.15 288.869Z" fill="#172F35"/>
<path d="M1067.63 311.326C1068.32 311.571 1069.07 311.363 1069.8 311.399C1075.47 311.679 1080.13 311.212 1084.74 313.388C1084.45 313.529 1084.29 314.516 1084.47 314.784C1084.99 315.38 1086.11 314.992 1086.35 314.236C1086.59 313.479 1086.13 312.643 1085.48 312.191C1084.83 311.739 1083.6 311.141 1082.82 310.996C1078.26 310.149 1074.12 309.745 1069.56 308.898C1068.36 308.52 1067.98 306.964 1068.21 305.725C1068.43 304.486 1069.05 303.317 1069.06 302.058C1069.09 300.024 1067.19 298.254 1065.21 298.157C1064.71 298.133 1064.34 298.62 1064.52 299.083C1065.5 301.673 1065.23 304.718 1063.83 307.108C1063.57 307.558 1063.71 308.136 1064.17 308.377C1065.39 309.01 1066.21 310.823 1067.63 311.326Z" fill="white"/>
<path d="M1071.82 276.852C1077.72 274.431 1080.53 267.691 1078.11 261.798C1075.69 255.905 1068.95 253.09 1063.06 255.511C1057.16 257.932 1054.35 264.672 1056.77 270.565C1059.19 276.459 1065.93 279.274 1071.82 276.852Z" fill="white"/>
<path d="M1066.64 301.696C1066.14 301.696 1065.71 301.338 1065.63 300.833L1063.34 286.595C1063.07 284.891 1063.21 283.126 1063.76 281.493L1068.13 268.541C1068.31 268.005 1068.89 267.716 1069.43 267.897C1069.97 268.078 1070.25 268.659 1070.07 269.196L1065.71 282.148C1065.26 283.467 1065.14 284.892 1065.37 286.269L1067.65 300.508C1067.74 301.067 1067.36 301.593 1066.8 301.683C1066.75 301.692 1066.69 301.696 1066.64 301.696Z" fill="white"/>
<path d="M937.21 297.196C945.28 297.196 951.822 290.654 951.822 282.584C951.822 274.514 945.28 267.972 937.21 267.972C929.14 267.972 922.598 274.514 922.598 282.584C922.598 290.654 929.14 297.196 937.21 297.196Z" fill="white"/>
<path d="M963.441 316.592C962.977 316.592 962.557 316.276 962.445 315.805L957.981 297.084C957.518 295.144 956.249 293.484 954.499 292.53L938.855 283.997C938.357 283.726 938.174 283.103 938.445 282.606C938.716 282.109 939.342 281.925 939.836 282.197L955.48 290.73C957.74 291.962 959.378 294.105 959.975 296.609L964.439 315.33C964.57 315.881 964.231 316.434 963.68 316.565C963.601 316.583 963.52 316.592 963.441 316.592Z" fill="white"/>
<path d="M922.339 328.115C923.126 330.044 923.913 331.973 924.7 333.902C935.798 329.219 947.222 325.308 958.862 322.206C958.167 320.047 957.123 318.002 955.783 316.173C944.634 320.153 933.486 324.134 922.339 328.115Z" fill="#172F35"/>
<path d="M952.078 316.757C951.988 315.412 952.995 314.139 954.27 313.701C955.544 313.263 956.994 313.567 958.138 314.279C959.282 314.992 960.152 316.074 960.849 317.228C961.714 318.661 962.351 320.264 962.444 321.935C962.486 322.699 962.199 323.608 961.764 324.486C960.855 326.323 958.418 326.804 956.916 325.409C954.444 323.118 952.243 319.208 952.078 316.757Z" fill="#172F35"/>
<path d="M926.784 330.577C928.149 333.179 927.553 336.181 925.453 337.282C923.353 338.384 920.544 337.168 919.179 334.567C917.814 331.966 918.41 328.963 920.51 327.862C922.61 326.76 925.419 327.975 926.784 330.577Z" fill="#172F35"/>
<path d="M1056.77 432.384C1054.79 432.643 1047.22 433.635 1045.24 433.894C1030.62 435.808 1021.99 461.908 1025.96 492.191C1029.92 522.474 1044.99 545.471 1059.6 543.557C1061.58 543.298 1069.15 542.306 1071.13 542.047C1085.74 540.133 1094.37 514.033 1090.41 483.75C1086.44 453.467 1071.38 430.47 1056.77 432.384Z" fill="#172F35"/>
<path d="M1056.28 488.219C1058.98 508.811 1056.12 526.164 1049.91 526.979C1043.69 527.793 1036.46 511.76 1033.77 491.168C1031.07 470.576 1033.92 453.223 1040.14 452.408C1046.36 451.594 1053.59 467.627 1056.28 488.219Z" fill="#A6BEBD"/>
<path d="M1079.56 434.508C1075.17 428.416 1069.5 423.092 1062.65 420.015C1048.53 413.675 1035.28 418.993 1028.52 432.494C1023.8 441.922 1019.75 454.485 1020.36 465.109C1021.04 476.984 1021.3 490.368 1023.9 501.976C1046.43 499.338 1078.76 494.013 1098.52 486.639C1095.72 468.856 1090.09 449.113 1079.56 434.508Z" fill="#F46B29"/>
<path d="M1038.25 424.012C1034.19 426.198 1031.02 429.994 1029.6 434.381C1031.42 432.239 1034.66 431.66 1037.33 432.537C1040 433.413 1042.12 435.524 1043.57 437.929C1045.03 440.334 1045.89 443.042 1046.73 445.721C1050.89 458.838 1055.04 471.955 1059.19 485.073C1059.73 486.762 1060.31 488.532 1061.61 489.736C1064.05 491.991 1067.88 491.402 1071.12 490.669C1069.45 491.026 1067.72 490.084 1066.65 488.75C1065.59 487.416 1065.06 485.746 1064.56 484.115C1059.11 466.483 1054.25 448.672 1049.98 430.72C1049.3 427.866 1048.39 424.672 1045.8 423.293C1043.47 422.056 1040.57 422.764 1038.25 424.012Z" fill="#FFC088"/>
<path d="M1026 455.328C1024.76 470.711 1030.12 485.738 1033.76 500.735C1034.48 503.722 1035.18 506.8 1036.87 509.363C1038.57 511.927 1041.54 513.9 1044.59 513.467C1047.92 512.992 1050.32 509.752 1050.93 506.435C1051.53 503.117 1050.74 499.722 1049.95 496.443C1045.86 479.45 1041.77 462.457 1037.69 445.463C1035.43 443.157 1031.26 443.954 1029.08 446.335C1026.9 448.717 1026.26 452.11 1026 455.328Z" fill="#172F35"/>
<path d="M1041.29 495.866C1041.29 502.662 1039.39 508.171 1037.06 508.171C1034.72 508.171 1032.83 502.662 1032.83 495.866C1032.83 489.07 1034.72 483.561 1037.06 483.561C1039.39 483.561 1041.29 489.07 1041.29 495.866Z" fill="#A6BEBD"/>
<path d="M1044.96 509.462C1045.54 510.175 1046.64 510.318 1047.49 509.964C1048.34 509.61 1048.97 508.85 1049.39 508.027C1050.7 505.421 1050.14 502.3 1049.48 499.455C1045.81 483.497 1040.14 468.006 1037.32 451.873C1037.09 450.532 1036.85 449.132 1036.04 448.038C1035.23 446.944 1033.65 446.287 1032.47 446.963C1031.66 447.427 1031.24 448.396 1031.2 449.33C1031.15 450.263 1031.41 451.182 1031.66 452.081C1034.34 461.572 1036.41 471.231 1037.88 480.982C1039.94 481.515 1041.26 483.494 1042.19 485.407C1045.3 491.808 1046.21 499.257 1044.73 506.219C1044.5 507.319 1044.24 508.594 1044.96 509.462Z" fill="#A6BEBD"/>
<path d="M1034.79 482.261C1033.39 483.994 1032.35 486.021 1031.77 488.173C1031.58 485.851 1032.8 483.471 1034.79 482.261Z" fill="#A6BEBD"/>
<path d="M953.615 327.018C952.9 324.91 951.667 319.484 949.684 318.473C947.213 317.212 944.324 317.073 941.608 316.919C938.727 316.756 935.787 316.383 932.936 317.02C930.792 317.5 929.082 318.44 927.638 320.096C926.1 321.86 925.242 323.226 925.331 325.565C925.42 327.904 929.275 331.978 931.614 332.067C930.923 332.396 930.724 333.342 930.983 334.063C931.242 334.783 931.83 335.327 932.397 335.841C933.659 336.984 934.922 338.127 936.184 339.269C937.11 340.107 938.101 340.98 939.328 341.218C940.891 341.522 942.447 340.728 943.77 339.842C946.139 338.254 948.799 337.138 950.539 334.879C952.623 332.174 954.712 330.251 953.615 327.018Z" fill="#FFC088"/>
</svg>
