<svg width="447" height="392" viewBox="0 0 447 392" fill="none" xmlns="http://www.w3.org/2000/svg">
<path d="M280.009 125.445C280.009 125.445 300.279 128.87 301.911 129.305C303.543 129.739 309.962 132.786 310.288 134.744C310.615 136.703 310.288 142.468 310.288 142.468C310.288 142.468 309.13 143.414 308.404 141.527C307.678 139.64 307.787 135.908 307.787 135.908L304.196 134.526L306.155 138.007L306.482 146.167C306.482 146.167 303.974 145.938 303.487 143.984C303 142.032 303.008 139.856 303.008 139.856L300.389 137.638L302.347 140.291L303.008 146.165C303.008 146.165 301.097 146.782 300.495 145.479C299.895 144.175 299.845 140.291 299.845 140.291L292.459 137.71L287.566 140.434L278.429 135.267L280.009 125.445Z" fill="#B78876"/>
<path d="M209.065 75.3546C209.157 75.7566 233.486 109.246 233.486 109.246L282.356 124.444L280.13 142.8L220.236 130.739L198.979 106.345L209.065 75.3546Z" fill="#E8505B"/>
<g opacity="0.2">
<path d="M209.065 75.3546C209.157 75.7566 233.486 109.246 233.486 109.246L282.356 124.444L280.13 142.8L220.236 130.739L198.979 106.345L209.065 75.3546Z" fill="black"/>
</g>
<path d="M123.943 140.912H24.0889C21.9746 140.912 20.2598 139.197 20.2598 137.082V125.28C20.2598 123.165 21.9746 121.45 24.0889 121.45H123.943C126.058 121.45 127.772 123.165 127.772 125.28V137.082C127.772 139.197 126.058 140.912 123.943 140.912Z" fill="#F5F5F5"/>
<path d="M123.942 140.912C123.941 140.889 124.161 140.903 124.572 140.821C124.976 140.737 125.599 140.57 126.236 140.06C126.866 139.568 127.513 138.701 127.646 137.521C127.692 136.341 127.641 134.933 127.645 133.374C127.636 131.806 127.627 130.068 127.616 128.165C127.609 127.214 127.604 126.222 127.598 125.192C127.578 124.204 127.119 123.193 126.309 122.507C125.908 122.16 125.418 121.907 124.891 121.768C124.366 121.618 123.803 121.645 123.2 121.645C122.013 121.649 120.788 121.653 119.528 121.658C117.006 121.665 114.342 121.673 111.545 121.681C89.1393 121.706 58.2321 121.738 24.0949 121.776C23.1138 121.768 22.1527 122.202 21.5019 122.924C20.8361 123.653 20.5271 124.603 20.5861 125.625C20.5861 127.733 20.5849 129.829 20.5849 131.908C20.5849 132.947 20.5836 133.983 20.5836 135.015V136.56C20.5786 137.091 20.5798 137.545 20.7092 138.001C20.9505 138.907 21.5748 139.698 22.3889 140.148C22.7947 140.374 23.2457 140.517 23.7055 140.568C24.1477 140.606 24.6916 140.583 25.1829 140.59C33.2344 140.596 41.0021 140.603 48.4016 140.609C63.1944 140.635 76.5173 140.659 87.7172 140.679C98.8868 140.723 107.936 140.759 114.222 140.784C117.329 140.81 119.753 140.831 121.428 140.845C122.231 140.859 122.853 140.87 123.303 140.878C123.726 140.889 123.942 140.912 123.942 140.912C123.942 140.912 123.726 140.934 123.304 140.946C122.856 140.953 122.232 140.965 121.43 140.978C119.754 140.992 117.33 141.014 114.224 141.04C107.937 141.065 98.8881 141.1 87.7184 141.144C76.5186 141.164 63.1956 141.188 48.4028 141.215C41.0033 141.221 33.2357 141.227 25.1841 141.233C24.6703 141.225 24.203 141.255 23.6376 141.208C23.0924 141.15 22.5585 140.981 22.0773 140.713C21.1125 140.182 20.3738 139.247 20.0861 138.173C19.9316 137.64 19.9303 137.056 19.9366 136.563L19.9353 135.017C19.9353 133.986 19.9354 132.949 19.9341 131.91C19.9341 129.831 19.9328 127.737 19.9328 125.628C19.86 124.546 20.2293 123.321 21.0183 122.487C21.7884 121.632 22.9341 121.116 24.0949 121.125C58.2321 121.163 89.1393 121.197 111.545 121.221C114.342 121.23 117.006 121.237 119.528 121.243C120.788 121.247 122.011 121.252 123.2 121.256C123.78 121.26 124.402 121.233 124.989 121.404C125.57 121.562 126.108 121.846 126.545 122.231C127.431 122.992 127.925 124.108 127.936 125.186C127.932 126.219 127.93 127.214 127.927 128.168C127.917 130.07 127.907 131.809 127.898 133.377C127.876 134.946 127.908 136.321 127.839 137.546C127.677 138.785 126.98 139.674 126.317 140.167C125.643 140.677 124.998 140.826 124.583 140.889C124.161 140.948 123.942 140.912 123.942 140.912Z" fill="#263238"/>
<path d="M395.04 389.524C423.376 388.162 445.243 364.088 443.881 335.752C442.519 307.417 418.444 285.551 390.108 286.913C361.773 288.274 339.906 312.349 341.267 340.684C342.629 369.019 366.704 390.885 395.04 389.524Z" fill="#263238"/>
<path d="M341.243 337.398C341.242 337.442 341.234 337.486 341.234 337.53C340.824 365.895 363.489 389.223 391.855 389.633C420.222 390.042 443.55 367.378 443.958 339.012C443.959 338.967 443.953 338.924 443.953 338.879L341.243 337.398Z" fill="#263238"/>
<path d="M356.537 337.751C356.249 357.667 372.162 374.044 392.076 374.331C411.992 374.619 428.369 358.707 428.657 338.791C428.945 318.876 413.032 302.498 393.116 302.21C373.202 301.924 356.825 317.835 356.537 337.751Z" fill="#FAFAFA"/>
<path d="M393.116 302.21C373.202 301.923 356.825 317.835 356.537 337.751L428.657 338.791C428.943 318.876 413.032 302.498 393.116 302.21Z" fill="#E0E0E0"/>
<path d="M370.631 337.954C370.457 350.086 380.149 360.062 392.28 360.237C404.412 360.412 414.388 350.719 414.564 338.589C414.738 326.457 405.045 316.48 392.914 316.306C380.782 316.13 370.806 325.822 370.631 337.954Z" fill="#263238"/>
<path d="M368.214 262.952C368.214 262.952 420.807 247.044 442.559 304.183L332.503 338.271L368.214 262.952Z" fill="#E8505B"/>
<path d="M78.11 389.534C106.446 388.173 128.313 364.098 126.951 335.763C125.589 307.428 101.515 285.562 73.1788 286.923C44.8429 288.285 22.976 312.359 24.3377 340.695C25.6994 369.03 49.7741 390.896 78.11 389.534Z" fill="#263238"/>
<path d="M24.2975 337.398C24.2962 337.442 24.2887 337.486 24.2887 337.53C23.8791 365.896 46.5438 389.224 74.9096 389.633C103.277 390.043 126.605 367.378 127.013 339.012C127.013 338.967 127.008 338.924 127.008 338.879L24.2975 337.398Z" fill="#263238"/>
<path d="M39.5927 337.751C39.3062 357.667 55.2171 374.044 75.1318 374.332C95.0478 374.619 111.425 358.707 111.712 338.791C112 318.876 96.088 302.498 76.172 302.211C56.2574 301.924 39.8804 317.835 39.5927 337.751Z" fill="#FAFAFA"/>
<path d="M76.1712 302.211C56.2565 301.923 39.8795 317.835 39.5918 337.751L111.712 338.791C111.999 318.877 96.0871 302.498 76.1712 302.211Z" fill="#E0E0E0"/>
<path d="M53.6869 337.955C53.5123 350.087 63.2045 360.063 75.3353 360.237C87.4672 360.412 97.4434 350.72 97.6193 338.589C97.7939 326.457 88.1004 316.481 75.9697 316.306C63.8377 316.13 53.8615 325.823 53.6869 337.955Z" fill="#263238"/>
<path d="M148.716 317.649C148.431 317.795 121.683 313.513 121.683 313.513C118.752 317.332 114.29 319.669 109.482 319.9C97.9307 320.454 86.6316 320.963 76.8489 321.4C67.7232 321.808 60.6528 329.526 61.0385 338.653L61.0398 338.667C61.4041 347.294 68.3275 354.198 76.9569 354.539L133.842 356.779C143.195 357.147 155.631 351.461 161.471 344.145L148.716 317.649Z" fill="#455A64"/>
<path d="M8.96509 294.916C8.96509 294.916 6.51784 244.856 53.5633 234.426V228.008H218.375V243.312C218.375 243.312 194.185 272.439 202.083 296.63C209.983 320.821 212.45 323.288 212.45 323.288H306.25C306.25 323.288 317.604 308.972 318.098 287.743C318.591 266.514 309.77 230.214 303.185 207.011C297.199 185.913 293.413 168.272 293.413 168.272L321.552 158.893C321.552 158.893 373.622 226.974 375.749 230.803C377.876 234.631 385.107 243.564 383.406 263.131C381.705 282.699 334.913 343.101 322.578 349.908C310.242 356.714 299.182 357.139 288.123 358.841C278.522 360.319 207.512 359.341 188.937 359.057C182.486 358.959 176.116 357.311 170.598 353.964C165.044 350.596 160.866 345.023 156.256 335.87L146.472 316.728L8.96509 294.916Z" fill="#E8505B"/>
<path d="M21.5767 291.434L0.816557 323.949C-1.84175 328.111 2.45853 333.35 6.98996 331.386C9.18721 330.434 11.5541 328.945 13.9536 326.663C23.4486 317.63 40.3708 293.837 40.3708 293.837L21.5767 291.434Z" fill="#455A64"/>
<path d="M170.435 297.291C170.425 297.287 170.466 297.126 170.557 296.817C170.66 296.479 170.798 296.027 170.974 295.452C171.328 294.249 171.753 292.445 172.06 290.087C172.589 285.408 172.348 278.258 168.848 270.465C167.142 266.58 164.614 262.608 161.201 258.965C157.77 255.348 153.531 252.004 148.585 249.341C143.656 246.659 138.089 244.553 132.123 243.214C126.156 241.875 119.811 241.27 113.321 241.27C106.824 241.269 100.49 241.846 94.4116 242.657C88.3325 243.476 82.4957 244.484 77.0045 245.738C66.0119 248.209 56.4466 251.866 49.0483 256.082C41.6236 260.27 36.3598 264.84 33.0733 268.272C31.415 269.983 30.2278 271.405 29.4326 272.376C29.057 272.846 28.7617 273.215 28.5406 273.492C28.3359 273.742 28.2278 273.866 28.2178 273.859C28.2178 273.859 29.6198 271.597 32.8886 268.096C36.1324 264.595 41.3812 259.944 48.8196 255.68C56.2317 251.387 65.8398 247.664 76.8688 245.15C82.3801 243.876 88.2307 242.852 94.3262 242.022C100.422 241.2 106.785 240.615 113.321 240.616C119.851 240.616 126.243 241.229 132.265 242.588C138.284 243.948 143.901 246.087 148.876 248.812C153.866 251.518 158.143 254.916 161.598 258.593C165.036 262.297 167.575 266.337 169.273 270.277C172.758 278.181 172.926 285.411 172.314 290.117C171.965 292.489 171.496 294.295 171.101 295.489C170.898 296.058 170.739 296.504 170.619 296.839C170.508 297.141 170.446 297.295 170.435 297.291Z" fill="#263238"/>
<path d="M160.939 286.051C160.869 286.023 161.215 285.261 161.561 283.822C161.948 282.393 162.113 280.215 161.748 277.599C161.389 274.978 160.38 271.939 158.687 268.872C157.858 267.331 156.835 265.792 155.649 264.302C154.481 262.798 153.106 261.367 151.566 260.072C148.468 257.471 145.016 255.64 141.763 254.338C138.487 253.072 135.395 252.314 132.77 251.882C130.143 251.444 127.988 251.259 126.499 251.169C125.01 251.077 124.182 251.043 124.182 250.992C124.182 250.969 124.389 250.95 124.783 250.935C125.178 250.926 125.761 250.894 126.51 250.915C128.008 250.928 130.183 251.042 132.843 251.426C135.502 251.804 138.644 252.523 141.982 253.778C145.299 255.069 148.819 256.914 151.986 259.572C153.567 260.901 154.967 262.366 156.152 263.906C157.355 265.431 158.385 267.005 159.216 268.586C160.913 271.728 161.898 274.849 162.206 277.538C162.52 280.224 162.277 282.45 161.806 283.887C161.658 284.63 161.338 285.143 161.209 285.514C161.052 285.875 160.96 286.06 160.939 286.051Z" fill="#F5F5F5"/>
<g opacity="0.4">
<path d="M128.664 242.192C137.875 243.95 145.927 247.253 153.482 252.295C161.037 257.338 166.819 264.478 170.107 272.945C173.395 281.412 172.903 292.627 169.442 299.641L181.086 300.605C185.009 287.532 180.738 271.485 171.318 261.249C160.265 249.24 145.061 242.192 128.664 242.192Z" fill="black"/>
</g>
<path d="M124.954 228.009H23.0765C17.1242 228.009 12.2988 223.184 12.2988 217.231V150.706C12.2988 144.753 17.1242 139.928 23.0765 139.928H124.954C130.906 139.928 135.732 144.753 135.732 150.706V217.231C135.73 223.184 130.906 228.009 124.954 228.009Z" fill="#455A64"/>
<path d="M135.731 159.584C135.731 159.765 107.979 159.911 73.7543 159.911C39.5179 159.911 11.7715 159.765 11.7715 159.584C11.7715 159.403 39.5166 159.257 73.7543 159.257C107.979 159.257 135.731 159.403 135.731 159.584Z" fill="#263238"/>
<path d="M218.294 233.839C218.294 234.02 181.252 234.166 135.57 234.166C89.8711 234.166 52.8369 234.019 52.8369 233.839C52.8369 233.66 89.8711 233.513 135.57 233.513C181.252 233.513 218.294 233.66 218.294 233.839Z" fill="#263238"/>
<path d="M218.374 228.009C218.374 228.009 221.093 224.765 221.353 220.626C221.613 216.486 219.725 211.312 215.271 211.312H158.361C149.139 211.312 141.664 218.788 141.664 228.009H218.374Z" fill="#455A64"/>
<path d="M293.415 168.272L283.518 147.632C280.812 141.762 282.971 134.799 288.521 131.487L318.115 113.835C319.663 112.911 321.432 112.424 323.233 112.424H329.629L332.191 154.144L322.324 157.918L328.568 168.074L293.415 168.272Z" fill="#E8505B"/>
<path d="M329.722 113.939C329.722 113.939 339.847 116.261 341.121 131.871C342.395 147.482 332.19 152.34 332.19 152.34L329.722 113.939Z" fill="#EBEBEB"/>
<path d="M296.865 139.546C296.865 139.546 276.395 149.247 273.896 150.839C272.164 151.943 270.675 153.878 272.034 157.279C274.352 163.078 283.924 157.623 283.924 157.623L302.974 148.098C302.974 148.098 310.301 144.639 307.596 140.314C304.568 135.471 296.865 139.546 296.865 139.546Z" fill="#263238"/>
<path d="M267.896 136.007C267.896 136.007 287.122 139.304 288.754 139.738C290.386 140.173 296.804 143.219 297.131 145.178C297.458 147.137 297.131 152.902 297.131 152.902C297.131 152.902 295.973 153.848 295.247 151.961C294.52 150.074 294.63 146.341 294.63 146.341L291.039 144.959L292.998 148.441L293.324 156.6C293.324 156.6 290.817 156.371 290.329 154.419C289.843 152.467 289.851 150.291 289.851 150.291L287.231 148.072L289.19 150.726L289.851 156.6C289.851 156.6 287.94 157.218 287.338 155.914C286.738 154.61 286.687 150.726 286.687 150.726L279.302 148.145L274.41 150.869L266.719 146.654L267.896 136.007Z" fill="#B78876"/>
<path d="M297.843 109.229C297.843 117.012 294.266 123.322 289.851 123.322C285.436 123.322 281.858 117.013 281.858 109.229C281.858 101.445 285.438 95.1362 289.851 95.1362C294.266 95.1362 297.843 101.445 297.843 109.229Z" fill="#263238"/>
<path d="M291.164 118.919L295.555 134.135C297.516 133.14 297.924 131.186 297.599 129.643C296.497 124.431 295.875 120.719 294.665 116.157C294.517 115.693 291.164 118.919 291.164 118.919Z" fill="#263238"/>
<g opacity="0.4">
<path d="M204.253 303.132C203.818 301.879 203.376 300.595 202.956 299.278C202.566 298.051 202.106 296.777 201.769 295.557C201.167 293.373 200.819 291.122 200.671 289.822C193.262 319.995 204.574 341.242 224.004 342.736C252.389 344.918 286.996 346.506 300.996 342.831C326.511 336.134 335.874 314.861 338.107 311.353C340.339 307.845 360.638 270.751 348.2 235.03C335.761 199.309 314.083 161.385 314.083 161.385L293.417 168.273C293.417 168.273 297.203 185.914 303.189 207.012C309.774 230.216 318.594 266.517 318.101 287.744C317.608 308.973 306.253 323.289 306.253 323.289H212.454C212.451 323.289 210.441 321.274 204.253 303.132Z" fill="black"/>
</g>
<path d="M5.21407 287.066L5.87488 279.909L177.083 299.632C186.745 300.765 193.461 309.797 191.767 319.377L190.998 323.717L13.8021 297.968C8.4955 297.196 4.72161 292.405 5.21407 287.066Z" fill="#E8505B"/>
<g opacity="0.6">
<path d="M5.21407 287.066L5.87488 279.909L177.083 299.632C186.745 300.765 193.461 309.797 191.767 319.377L190.998 323.717L13.8021 297.968C8.4955 297.196 4.72161 292.405 5.21407 287.066Z" fill="black"/>
</g>
<g opacity="0.3">
<path d="M338.104 334.963C338.104 334.963 375.794 293.509 383.565 260.917C386.175 260.891 392.261 261.156 395.239 261.782C395.239 261.782 372.95 322.366 338.104 334.963Z" fill="black"/>
</g>
<path d="M383.018 246.308C383.04 246.304 383.109 246.665 383.222 247.355C383.32 248.047 383.525 249.063 383.652 250.387C383.897 253.032 384.058 256.915 383.359 261.64C382.681 266.36 381.067 271.867 378.387 277.57C375.768 283.305 372.162 289.22 368.408 295.408C360.858 307.827 352.456 317.987 346.348 325.241C343.276 328.863 340.747 331.753 338.987 333.742C338.133 334.696 337.453 335.454 336.947 336.02C336.475 336.535 336.218 336.799 336.202 336.785C336.185 336.77 336.408 336.477 336.848 335.934C337.33 335.35 337.979 334.565 338.794 333.577C340.535 331.49 342.984 328.554 345.992 324.946C352.006 317.621 360.33 307.439 367.849 295.071C371.604 288.881 375.211 282.997 377.841 277.318C380.53 271.67 382.171 266.238 382.902 261.572C383.652 256.902 383.563 253.051 383.398 250.412C383.312 249.092 383.148 248.074 383.093 247.377C383.023 246.68 382.996 246.312 383.018 246.308Z" fill="#263238"/>
<path d="M317.866 334.662C317.739 334.791 315.037 332.35 311.83 329.209C308.621 326.069 306.124 323.419 306.251 323.29C306.376 323.16 309.079 325.601 312.287 328.742C315.494 331.881 317.992 334.532 317.866 334.662Z" fill="#263238"/>
<path d="M206.012 333.384C205.857 333.314 206.891 330.789 208.778 328.02C210.654 325.242 212.618 323.349 212.74 323.468C212.882 323.596 211.163 325.657 209.318 328.388C207.463 331.109 206.185 333.468 206.012 333.384Z" fill="#263238"/>
<path d="M133.597 357.319C133.444 357.191 136.301 355.373 138.738 350.787C139.953 348.525 140.954 345.571 141.257 342.188C141.568 338.819 141.08 335.006 139.428 331.462C137.713 327.947 135.057 325.167 132.24 323.288C129.42 321.394 126.494 320.314 123.972 319.835C118.875 318.845 115.665 319.922 115.661 319.722C115.656 319.701 115.848 319.643 116.223 319.552C116.598 319.481 117.145 319.298 117.874 319.232C119.318 319.007 121.467 318.939 124.057 319.38C126.645 319.811 129.66 320.869 132.576 322.787C135.485 324.688 138.244 327.54 140.018 331.18C141.729 334.849 142.21 338.787 141.857 342.243C141.513 345.714 140.439 348.725 139.145 351.007C137.857 353.299 136.453 354.926 135.37 355.907C134.86 356.432 134.374 356.741 134.082 356.988C133.777 357.222 133.611 357.336 133.597 357.319Z" fill="#263238"/>
<path d="M71.0792 344.194C70.8983 344.203 70.6231 341.5 70.4636 338.157C70.304 334.812 70.3216 332.095 70.5025 332.087C70.6834 332.079 70.9585 334.782 71.1181 338.126C71.2764 341.468 71.2588 344.186 71.0792 344.194Z" fill="#263238"/>
<path d="M75.6197 344.203C75.44 344.226 74.9488 341.528 74.5204 338.179C74.092 334.829 73.891 332.095 74.0706 332.072C74.2503 332.05 74.7415 334.746 75.1699 338.096C75.597 341.446 75.7993 344.181 75.6197 344.203Z" fill="#263238"/>
<path d="M146.227 228.009C146.227 228.19 125.41 228.336 99.7378 228.336C74.0568 228.336 53.2451 228.189 53.2451 228.009C53.2451 227.829 74.0568 227.682 99.7378 227.682C125.41 227.681 146.227 227.828 146.227 228.009Z" fill="#263238"/>
<path d="M78.8198 227.945C78.6389 227.945 78.4932 204.103 78.4932 174.701C78.4932 145.287 78.6402 121.452 78.8198 121.452C79.0007 121.452 79.1465 145.289 79.1465 174.701C79.1465 204.104 78.9995 227.945 78.8198 227.945Z" fill="#263238"/>
<path d="M66.0731 227.859C65.8922 227.852 66.7842 204.023 68.0631 174.643C69.3432 145.253 70.5266 121.443 70.7076 121.451C70.8885 121.458 69.9965 145.282 68.7176 174.672C67.4375 204.052 66.254 227.867 66.0731 227.859Z" fill="#263238"/>
<path d="M37.2397 373.144C37.2222 373.159 37.0337 372.968 36.6882 372.59C36.3528 372.205 35.8189 371.666 35.2221 370.897C33.9809 369.399 32.3163 367.112 30.5864 364.085C27.1128 358.091 23.6706 348.726 23.7133 338.007C23.7585 327.285 27.2799 317.948 30.8025 311.982C32.5575 308.969 34.2397 306.695 35.4947 305.209C36.0978 304.445 36.6367 303.911 36.9747 303.528C37.3227 303.154 37.5136 302.964 37.5312 302.979C37.5475 302.994 37.3905 303.213 37.0752 303.615C36.7699 304.025 36.2636 304.584 35.6945 305.368C34.5073 306.895 32.8942 309.194 31.2058 312.209C27.8151 318.183 24.4143 327.427 24.3678 338.008C24.3263 348.588 27.6505 357.857 30.991 363.859C32.6543 366.888 34.2485 369.201 35.4231 370.739C35.9859 371.527 36.4872 372.09 36.7887 372.502C37.1003 372.909 37.2561 373.129 37.2397 373.144Z" fill="#455A64"/>
<path d="M217.217 277.427L216.825 278.165L209.264 292.401L198.661 302.611L219.851 330.821L237.509 327.893C237.509 327.893 235.526 323.861 226.665 323.084L223.277 306.222L235.729 286.925" fill="#455A64"/>
<path d="M198.661 302.612L219.851 330.823L237.508 327.894L235.078 325.57L220.588 327.162L200.916 300.441L198.661 302.612Z" fill="#E0E0E0"/>
<path d="M225.259 315.334C225.159 315.536 224.045 315.127 222.685 315.393C221.318 315.62 220.419 316.393 220.253 316.24C220.065 316.134 220.884 314.91 222.545 314.619C224.203 314.31 225.399 315.169 225.259 315.334Z" fill="#263238"/>
<path d="M224.276 311.177C224.12 311.331 223.16 310.419 221.706 310.379C220.253 310.324 219.235 311.169 219.09 311.006C219.017 310.937 219.17 310.606 219.621 310.253C220.062 309.903 220.832 309.564 221.732 309.593C222.63 309.623 223.376 310.012 223.793 310.392C224.222 310.772 224.353 311.111 224.276 311.177Z" fill="#263238"/>
<path d="M223.492 305.756C223.315 305.885 222.543 304.966 221.242 304.745C219.943 304.507 218.904 305.108 218.782 304.926C218.721 304.845 218.903 304.561 219.361 304.298C219.811 304.034 220.56 303.826 221.379 303.97C222.198 304.114 222.83 304.566 223.163 304.967C223.503 305.372 223.579 305.701 223.492 305.756Z" fill="#263238"/>
<path d="M227.522 300.782C227.325 300.89 226.661 299.969 225.446 299.442C224.248 298.879 223.117 298.992 223.068 298.771C222.974 298.576 224.292 298.049 225.771 298.724C227.254 299.385 227.729 300.723 227.522 300.782Z" fill="#263238"/>
<path d="M229.221 296.774C229.141 296.848 228.441 296.233 227.373 295.182C226.766 294.565 226.155 293.943 225.528 293.307C225.204 292.936 224.788 292.635 224.471 292.017C224.324 291.703 224.266 291.311 224.401 290.927C224.519 290.522 224.976 290.203 225.374 290.193C226.163 290.177 226.66 290.502 227.166 290.775C227.66 291.075 228.084 291.437 228.442 291.822C229.156 292.599 229.574 293.466 229.793 294.217C230.225 295.75 229.862 296.725 229.794 296.694C229.652 296.688 229.792 295.737 229.265 294.394C229.003 293.732 228.575 292.983 227.917 292.323C227.588 291.996 227.206 291.691 226.774 291.439C226.353 291.201 225.813 290.951 225.446 290.977C225.27 291 225.194 291.059 225.138 291.193C225.086 291.335 225.096 291.53 225.175 291.701C225.333 292.061 225.745 292.442 226.062 292.816C226.646 293.492 227.217 294.152 227.784 294.805C228.745 295.953 229.302 296.701 229.221 296.774Z" fill="#263238"/>
<path d="M229.94 297.193C229.856 297.202 229.769 296.262 230.548 295.041C231.311 293.883 233.172 292.469 235.625 293.226C235.809 293.337 235.978 293.567 236.004 293.811C236.036 294.057 235.961 294.256 235.885 294.405C235.721 294.714 235.513 294.889 235.345 295.066C234.983 295.422 234.6 295.728 234.215 295.987C233.446 296.507 232.669 296.832 232 297.022C230.652 297.398 229.782 297.27 229.784 297.182C229.774 297.056 230.611 296.979 231.821 296.496C232.422 296.255 233.115 295.903 233.797 295.395C234.137 295.143 234.476 294.852 234.797 294.523C234.959 294.351 235.123 294.189 235.188 294.05C235.248 293.88 235.233 293.929 235.198 293.888C235.13 293.831 234.881 293.797 234.655 293.783C234.429 293.767 234.203 293.77 233.983 293.791C233.542 293.83 233.122 293.937 232.743 294.089C231.979 294.39 231.4 294.885 230.998 295.371C230.195 296.365 230.067 297.223 229.94 297.193Z" fill="#263238"/>
<path d="M212.656 299.733C212.85 300.89 212.068 301.984 210.911 302.177C209.754 302.37 208.66 301.589 208.468 300.432C208.274 299.275 209.056 298.18 210.213 297.988C211.369 297.796 212.463 298.576 212.656 299.733Z" fill="#E0E0E0"/>
<path d="M281.538 290.998L287.204 327.789L333.012 320.973C332.092 316.638 307.087 311.378 307.087 311.378L304.424 287.656L281.538 290.998Z" fill="#455A64"/>
<path d="M292.629 311.501C291.778 311.875 291.313 312.963 291.653 313.827C291.992 314.693 293.094 315.174 293.95 314.815C294.807 314.456 295.405 313.167 294.97 312.345C294.537 311.523 293.212 311.028 292.465 311.582" fill="#E0E0E0"/>
<path d="M287.204 327.789L286.778 324.057L330.858 318.918C330.858 318.918 333.029 319.502 333.012 320.972L287.204 327.789Z" fill="#E0E0E0"/>
<path d="M307.796 311.035C307.822 311.26 306.719 311.527 305.725 312.41C304.708 313.267 304.286 314.321 304.067 314.262C303.855 314.25 303.989 312.863 305.21 311.815C306.421 310.756 307.813 310.821 307.796 311.035Z" fill="#263238"/>
<path d="M312.896 312.306C312.98 312.516 312.067 313.04 311.449 314.099C310.798 315.139 310.759 316.19 310.535 316.214C310.331 316.281 309.98 314.993 310.775 313.692C311.557 312.384 312.86 312.094 312.896 312.306Z" fill="#263238"/>
<path d="M316.48 317.652C316.284 317.729 315.807 316.658 316.199 315.348C316.582 314.033 317.564 313.394 317.688 313.566C317.841 313.731 317.26 314.489 316.954 315.57C316.622 316.643 316.699 317.596 316.48 317.652Z" fill="#263238"/>
<path d="M306.588 305.695C306.525 305.913 305.452 305.757 304.201 306.031C302.944 306.28 302.023 306.85 301.878 306.675C301.725 306.533 302.562 305.562 304.04 305.259C305.517 304.948 306.672 305.503 306.588 305.695Z" fill="#263238"/>
<path d="M304.689 300.423C304.705 300.514 303.842 300.784 302.392 300.752C301.671 300.734 300.808 300.627 299.882 300.371C299.42 300.242 298.941 300.077 298.461 299.869C298.23 299.764 297.96 299.665 297.689 299.431C297.406 299.235 297.177 298.663 297.408 298.257C297.591 297.87 297.983 297.656 298.313 297.6C298.648 297.538 298.932 297.566 299.191 297.591C299.72 297.639 300.223 297.737 300.69 297.869C301.625 298.136 302.411 298.534 303.012 298.943C304.221 299.769 304.708 300.551 304.637 300.605C304.547 300.694 303.925 300.07 302.723 299.419C302.123 299.095 301.372 298.779 300.505 298.571C300.072 298.469 299.61 298.394 299.128 298.361C298.625 298.306 298.211 298.364 298.118 298.599C298.086 298.688 298.084 298.722 298.207 298.847C298.332 298.963 298.548 299.062 298.775 299.165C299.22 299.369 299.662 299.538 300.091 299.678C300.949 299.955 301.753 300.112 302.435 300.198C303.802 300.369 304.675 300.301 304.689 300.423Z" fill="#263238"/>
<path d="M304.446 300.787C304.372 300.834 303.809 300.097 303.511 298.661C303.367 297.949 303.311 297.067 303.451 296.104C303.524 295.622 303.644 295.124 303.828 294.624C304.029 294.131 304.266 293.477 305.119 293.248C305.57 293.164 305.998 293.462 306.173 293.746C306.37 294.033 306.441 294.295 306.534 294.552C306.697 295.075 306.766 295.601 306.765 296.097C306.766 297.094 306.487 297.964 306.138 298.612C305.419 299.933 304.526 300.339 304.496 300.266C304.404 300.164 305.12 299.616 305.635 298.374C305.889 297.761 306.079 296.974 306.04 296.11C306.022 295.679 305.948 295.231 305.801 294.791C305.657 294.315 305.416 293.949 305.241 294.026C305.012 294.056 304.681 294.481 304.55 294.896C304.377 295.342 304.251 295.79 304.167 296.224C304.004 297.095 303.996 297.906 304.063 298.58C304.2 299.933 304.563 300.734 304.446 300.787Z" fill="#263238"/>
<path d="M245.493 204.59L206.206 290.192L232.151 305.768L286.472 202.767" fill="#263238"/>
<path d="M310.278 307.723L282.087 312.243L265.216 211.568L181.865 217.611C179.657 217.747 177.428 217.561 175.294 216.975C151.882 210.561 155.051 180.714 157.307 175.929L272.651 172.616C285.162 172.256 295.943 181.363 297.679 193.759L310.278 307.723Z" fill="#263238"/>
<path d="M156.167 180.666L156.585 138.1C156.585 138.1 151.091 110.424 149.466 99.546C146.942 82.6527 143.486 74.6351 171.151 62.6275L177.197 60.2946L186.558 60.4189C197.721 61.2581 209.481 71.3474 209.751 78.0384L220.521 173.951L156.167 180.666Z" fill="#E8505B"/>
<path d="M157.898 72.5248C157.898 72.5248 150.091 89.3314 151.652 104.642L180.753 132.58C187.281 139.847 195.441 142.933 205.875 143.565L266.107 150.15L267.779 134.392L210.485 118.154C208.206 117.735 207.068 115.353 205.32 113.83L157.898 72.5248Z" fill="#E8505B"/>
<path d="M153.191 77.364C153.191 77.364 153.519 77.0047 154.346 76.5914C155.171 76.1843 156.484 75.7698 158.238 75.5034C159.985 75.256 162.196 75.0587 164.745 75.521C165.374 75.668 166.038 75.8175 166.659 76.1768C167.266 76.5235 167.841 76.9444 168.429 77.3879C169.592 78.2886 170.763 79.3226 171.95 80.4633C174.367 82.712 176.645 85.5638 179.322 88.4508C181.989 91.3578 184.93 94.4458 188.111 97.697C191.293 100.948 194.722 104.359 198.4 107.874C200.246 109.624 202.15 111.407 204.159 113.154C205.179 113.991 206.187 114.971 207.154 115.888C208.139 116.788 209.25 117.633 210.536 117.869L210.554 117.873L210.567 117.877C227.606 122.695 247.145 128.219 267.87 134.079L268.136 134.155L268.107 134.428C267.989 135.543 267.86 136.748 267.732 137.956C267.288 142.146 266.847 146.29 266.433 150.185L266.399 150.51L266.074 150.475C257.311 149.513 248.789 148.578 240.583 147.677C236.48 147.225 232.456 146.783 228.521 146.349C224.581 145.951 220.731 145.563 216.977 145.183C213.226 144.773 209.577 144.341 206.045 143.825C202.517 143.312 199.08 142.656 195.925 141.474C192.761 140.319 189.938 138.666 187.398 136.895C184.85 135.124 182.532 133.271 180.359 131.46C171.752 124.112 165.433 117.55 161.047 113.075C158.869 110.821 157.204 109.053 156.087 107.845C155.546 107.251 155.127 106.793 154.827 106.463C154.547 106.149 154.416 105.976 154.416 105.976C154.416 105.976 154.577 106.12 154.872 106.419C155.184 106.739 155.615 107.182 156.176 107.759C157.345 108.952 159.039 110.682 161.218 112.906C165.653 117.325 172.022 123.839 180.64 131.119C182.813 132.911 185.135 134.75 187.671 136.495C190.202 138.243 192.987 139.857 196.104 140.982C199.214 142.136 202.605 142.773 206.124 143.274C209.645 143.778 213.291 144.2 217.039 144.601C220.79 144.971 224.64 145.352 228.58 145.741C232.517 146.168 236.542 146.606 240.645 147.05C248.854 147.944 257.379 148.872 266.144 149.827L265.785 150.116C266.198 146.221 266.638 142.075 267.081 137.886C267.21 136.677 267.338 135.472 267.456 134.358L267.692 134.707C246.973 128.822 227.442 123.274 210.408 118.435L210.438 118.441C208.949 118.158 207.778 117.229 206.77 116.309C205.758 115.347 204.835 114.438 203.792 113.577C201.776 111.813 199.875 110.021 198.031 108.261C194.357 104.727 190.939 101.3 187.768 98.0312C184.597 94.7624 181.67 91.6568 179.016 88.7296C176.341 85.8125 174.094 82.9583 171.712 80.7095C170.54 79.5675 169.386 78.5298 168.243 77.6291C167.669 77.1856 167.097 76.7635 166.518 76.4243C165.949 76.0851 165.302 75.9293 164.694 75.7798C162.207 75.2999 160 75.4645 158.267 75.6818C156.524 75.918 155.217 76.2999 154.389 76.6743C153.558 77.0562 153.214 77.3929 153.191 77.364Z" fill="#263238"/>
<path d="M168.224 23.3782L171.149 64.8119C171.626 71.577 177.253 76.8207 184.034 76.8207C191.5 76.8207 197.415 70.5079 196.925 63.0581C196.666 59.1146 196.431 55.8847 196.431 55.8847C196.431 55.8847 206.462 54.3244 206.586 44.2967C206.658 38.5039 205.659 25.3594 204.802 15.2902C204.223 8.48238 198.524 3.25623 191.691 3.25623H185.632C175.2 3.86427 167.327 12.9648 168.224 23.3782Z" fill="#AA6550"/>
<path d="M196.449 55.7391C196.449 55.7391 190.111 56.2541 183.375 52.0229C183.375 52.0229 186.465 59.2403 196.473 58.3371L196.449 55.7391Z" fill="#B78876"/>
<path d="M202.546 28.1758C202.572 28.9321 201.954 29.5791 201.165 29.6205C200.378 29.662 199.716 29.0854 199.689 28.3291C199.663 27.5728 200.281 26.9258 201.069 26.8831C201.858 26.8416 202.52 27.4195 202.546 28.1758Z" fill="#263238"/>
<path d="M203.073 25.3453C202.896 25.5325 201.81 24.7297 200.269 24.7335C198.73 24.7159 197.598 25.5086 197.431 25.3189C197.349 25.2347 197.53 24.8981 198.023 24.54C198.508 24.1832 199.334 23.8352 200.294 23.8403C201.254 23.8453 202.062 24.1996 202.526 24.5601C203 24.9244 203.161 25.2611 203.073 25.3453Z" fill="#263238"/>
<path d="M188.074 28.1759C188.101 28.9322 187.483 29.5779 186.694 29.6207C185.906 29.6634 185.244 29.0855 185.218 28.3292C185.191 27.5729 185.809 26.9259 186.597 26.8832C187.386 26.8417 188.048 27.4196 188.074 28.1759Z" fill="#263238"/>
<path d="M187.925 25.633C187.748 25.8202 186.661 25.0175 185.121 25.0212C183.582 25.0036 182.45 25.7964 182.283 25.6067C182.201 25.5237 182.379 25.1858 182.874 24.8277C183.359 24.471 184.186 24.123 185.146 24.1267C186.106 24.1318 186.913 24.486 187.378 24.8466C187.849 25.2122 188.011 25.5501 187.925 25.633Z" fill="#263238"/>
<path d="M193.517 37.0628C193.51 36.9749 194.468 36.8103 196.02 36.6118C196.413 36.5716 196.786 36.4925 196.853 36.2236C196.946 35.9397 196.781 35.5151 196.59 35.0578C196.22 34.1055 195.833 33.1068 195.427 32.0616C193.811 27.7952 192.641 24.2864 192.813 24.2223C192.985 24.1583 194.435 27.5653 196.051 31.8317C196.441 32.8844 196.813 33.887 197.167 34.8468C197.315 35.294 197.571 35.8015 197.37 36.3907C197.265 36.6847 196.976 36.8983 196.723 36.9661C196.471 37.0427 196.25 37.0478 196.055 37.0591C194.492 37.1433 193.522 37.1508 193.517 37.0628Z" fill="#263238"/>
<path d="M188.982 38.1295C189.233 38.1144 189.235 39.7878 190.668 40.9749C192.097 42.1659 193.88 41.9787 193.894 42.2124C193.916 42.3167 193.497 42.5365 192.744 42.5579C192.006 42.583 190.928 42.3456 190.052 41.6194C189.179 40.8908 188.803 39.9197 188.746 39.2337C188.681 38.534 188.867 38.1194 188.982 38.1295Z" fill="#263238"/>
<path d="M188.322 19.5928C188.17 20.0124 186.631 19.8139 184.823 20.0313C183.01 20.2134 181.552 20.7423 181.313 20.3667C181.206 20.1871 181.46 19.7926 182.049 19.3868C182.633 18.9823 183.565 18.5966 184.651 18.476C185.736 18.3579 186.73 18.53 187.388 18.7976C188.053 19.0652 188.387 19.3943 188.322 19.5928Z" fill="#263238"/>
<path d="M202.507 20.8856C202.235 21.2361 201.174 20.873 199.897 20.8554C198.621 20.7939 197.539 21.0903 197.291 20.7248C197.181 20.5476 197.352 20.1959 197.825 19.8655C198.289 19.5351 199.068 19.265 199.946 19.2913C200.823 19.319 201.583 19.6368 202.028 19.9949C202.478 20.3542 202.627 20.7147 202.507 20.8856Z" fill="#263238"/>
<path d="M171.606 30.9058C171.435 30.8317 164.715 28.8681 164.934 35.7237C165.153 42.5805 171.992 40.9461 171.997 40.7488C172.002 40.5529 171.606 30.9058 171.606 30.9058Z" fill="#AA6550"/>
<path d="M169.82 38.2188C169.788 38.1974 169.703 38.3067 169.504 38.4047C169.311 38.5014 168.974 38.5743 168.612 38.4512C167.88 38.2087 167.233 37.0781 167.16 35.8431C167.122 35.22 167.234 34.6208 167.44 34.122C167.634 33.6132 167.947 33.2527 168.31 33.176C168.67 33.0805 168.935 33.2903 169.026 33.4813C169.124 33.6697 169.085 33.8079 169.121 33.8193C169.141 33.8356 169.264 33.6999 169.2 33.4185C169.168 33.2828 169.082 33.1245 168.916 32.9976C168.747 32.8695 168.503 32.8092 168.251 32.8444C167.723 32.8971 167.263 33.3996 167.037 33.9474C166.782 34.4989 166.643 35.171 166.684 35.872C166.772 37.2527 167.521 38.5228 168.521 38.7778C169.007 38.8884 169.405 38.7301 169.607 38.5617C169.812 38.3846 169.844 38.2301 169.82 38.2188Z" fill="#B78876"/>
<path d="M167.79 30.6733C168.836 30.4208 170.645 31.3857 171.091 32.3643C171.537 33.343 171.635 34.4535 172.079 35.4322C172.524 36.4121 173.529 37.2978 174.576 37.0503C175.298 36.8794 175.814 36.2023 176.004 35.4862C176.195 34.7689 176.117 34.0113 176.024 33.2751C175.62 30.0728 174.946 26.8982 174.818 23.6733C174.689 20.4484 175.148 17.0979 176.842 14.3504C178.535 11.6029 181.646 9.58276 184.862 9.84156C186.993 10.0137 188.948 11.1242 191.064 11.4207C193.574 11.7725 196.228 10.8868 198.024 9.09784C198.254 8.8692 199.324 8.16316 199.324 8.16316C199.324 7.99733 199.167 6.56517 198.603 6.04256C194.404 2.15811 186.836 1.07393 181.288 2.47093C175.74 3.86666 170.54 7.78376 168.153 12.9823C165.768 18.1808 166.475 25.412 167.79 30.6733Z" fill="#263238"/>
<path d="M204.914 13.7413C204.914 13.7413 178.604 5.27647 167.222 28.0392C167.222 28.0392 165.521 22.3432 165.521 19.2891C165.521 17.2502 166.74 5.10311 179.238 1.28274C179.238 1.28274 198.066 -5.90324 204.914 13.7413Z" fill="#E8505B"/>
<path d="M182.307 14.3091C183.237 15.8116 184.897 16.8368 186.655 16.9976C188.416 17.1571 190.232 16.4473 191.417 15.1383C191.937 16.4347 193.33 17.3255 194.726 17.2526C196.12 17.1797 197.414 16.1483 197.795 14.8041C198.559 15.5453 199.355 16.3066 200.354 16.6734C201.354 17.039 202.62 16.9008 203.277 16.0629C203.946 15.2086 203.751 13.9083 203.095 13.0453C202.439 12.181 201.429 11.6671 200.428 11.25C197.303 9.94476 193.857 9.29023 190.5 9.74501C187.144 10.1998 183.893 11.8267 181.795 14.4862" fill="#263238"/>
<g opacity="0.4">
<path d="M204.914 13.7413C204.914 13.7413 201.92 10.1798 196.547 9.94232C188.787 9.59936 174.259 13.9637 167.222 28.0392C167.222 28.0392 165.521 22.3432 165.521 19.2891C165.521 17.2502 166.74 5.10311 179.238 1.28274C179.238 1.28274 198.066 -5.90324 204.914 13.7413Z" fill="black"/>
</g>
<path d="M168.32 25.3747C172.222 19.406 177.601 14.4701 183.648 10.6924C189.696 6.91474 199.697 3.1773 206.589 1.34814C208.658 0.799145 210.816 0.319234 212.925 0.683557C215.034 1.04788 217.099 2.45242 217.623 4.52906C218.279 7.12707 213.667 11.1371 211.5 12.7138C209.333 14.2904 204.913 16.6032 204.913 16.6032C204.913 16.6032 204.973 11.7841 197.259 10.7904C186.766 9.43737 168.32 25.3747 168.32 25.3747Z" fill="#E8505B"/>
<g opacity="0.3">
<path d="M159.062 110.863C161.773 117.412 164.51 125.483 168.441 131.382C172.373 137.28 177.627 142.502 184.166 145.24C192.372 148.674 202.084 149.231 210.252 145.706C210.917 145.418 212.221 145.052 212.102 144.338C212.102 144.338 209.395 144.034 208.564 143.894C192.058 141.11 190.269 139.073 182.369 132.829C177.445 128.936 166.528 117.167 159.062 110.863Z" fill="black"/>
</g>
<path d="M211.519 158.526C211.55 158.54 211.342 159.103 210.833 160.056C210.329 161.014 209.459 162.332 208.165 163.778C205.607 166.692 201.05 169.85 195.382 171.598C189.713 173.34 184.334 173.665 180.505 173.828C178.582 173.899 177.026 173.915 175.952 173.91C174.877 173.904 174.283 173.878 174.281 173.834C174.28 173.789 174.872 173.729 175.945 173.656C177.144 173.579 178.666 173.482 180.481 173.366C184.294 173.085 189.617 172.687 195.188 170.974C200.751 169.256 205.235 166.236 207.828 163.462C210.466 160.702 211.392 158.448 211.519 158.526Z" fill="#263238"/>
<path d="M282.591 315.252C282.58 315.253 282.546 315.121 282.492 314.862C282.434 314.567 282.359 314.187 282.266 313.707C282.074 312.645 281.802 311.153 281.457 309.252C280.775 305.335 279.802 299.742 278.603 292.847C276.248 278.949 273.008 259.818 269.429 238.687C267.834 229.123 266.307 219.97 264.914 211.621L265.239 211.874C250.597 212.945 238.082 213.861 229.178 214.511C224.778 214.81 221.273 215.048 218.821 215.215C217.649 215.284 216.73 215.338 216.062 215.377C215.774 215.388 215.541 215.398 215.351 215.406C215.191 215.41 215.108 215.407 215.108 215.398C215.107 215.389 215.189 215.374 215.347 215.354C215.536 215.333 215.768 215.307 216.054 215.275C216.72 215.212 217.637 215.126 218.806 215.016C221.254 214.808 224.755 214.511 229.149 214.138C238.048 213.428 250.558 212.432 265.193 211.265L265.472 211.242L265.518 211.519C266.924 219.866 268.464 229.016 270.075 238.579C273.58 259.723 276.753 278.865 279.059 292.772C280.172 299.68 281.075 305.284 281.708 309.21C282.002 311.12 282.232 312.619 282.395 313.685C282.463 314.169 282.516 314.553 282.557 314.852C282.591 315.114 282.603 315.249 282.591 315.252Z" fill="#455A64"/>
<path d="M273.68 202.594C273.798 202.744 271.602 204.629 269.112 207.168C266.612 209.7 264.761 211.925 264.611 211.809C264.472 211.709 266.112 209.276 268.646 206.71C271.171 204.136 273.578 202.457 273.68 202.594Z" fill="#455A64"/>
<path d="M196.675 63.944C196.697 63.9377 196.748 64.0784 196.827 64.3548C196.919 64.6287 196.996 65.0432 197.066 65.5872C197.193 66.6689 197.124 68.297 196.454 70.1551C195.776 71.9893 194.457 74.0546 192.316 75.5898C190.189 77.135 187.258 77.9353 184.256 77.7418C181.247 77.5383 178.482 76.4064 176.43 74.8096C174.355 73.2292 172.934 71.3159 171.983 69.6211C171.044 67.9063 170.543 66.4 170.281 65.3485C170.152 64.8209 170.067 64.4088 170.032 64.1249C169.99 63.8422 169.979 63.6927 170.002 63.6877C170.144 63.64 170.454 66.0809 172.384 69.39C173.364 71.0156 174.778 72.836 176.792 74.3272C178.781 75.8335 181.424 76.8925 184.298 77.0885C187.165 77.2719 189.944 76.5282 191.97 75.0961C194.013 73.6727 195.318 71.7292 196.023 69.9892C196.719 68.2279 196.86 66.6651 196.812 65.606C196.768 64.5395 196.609 63.9591 196.675 63.944Z" fill="#263238"/>
<path d="M214.396 118.802C214.351 118.807 214.258 118.34 214.128 117.492C213.988 116.499 213.819 115.302 213.62 113.898C213.204 110.697 212.669 106.577 212.077 102.022C211.508 97.3774 211.061 93.1639 210.787 90.1098C210.649 88.5834 210.551 87.346 210.501 86.4892C210.449 85.6324 210.442 85.1563 210.487 85.1525C210.532 85.1475 210.625 85.6148 210.754 86.4628C210.89 87.4553 211.055 88.655 211.247 90.0596C211.646 93.2619 212.159 97.3837 212.727 101.943C213.296 106.584 213.788 110.791 214.08 113.844C214.227 115.37 214.329 116.607 214.381 117.464C214.434 118.322 214.442 118.797 214.396 118.802Z" fill="#263238"/>
</svg>
