<svg width="719" height="895" viewBox="0 0 719 895" fill="none" xmlns="http://www.w3.org/2000/svg">
<path d="M192.188 118.325L206.991 328.034C209.407 362.272 237.888 388.813 272.211 388.813C310 388.813 339.936 356.861 337.455 319.153C336.143 299.191 334.955 282.847 334.955 282.847C334.955 282.847 385.724 274.954 386.349 224.194C386.712 194.877 381.656 128.349 377.32 77.3794C374.391 42.9229 345.546 16.4741 310.965 16.4741H280.302C227.495 19.5589 187.645 65.6209 192.188 118.325Z" fill="#B78876"/>
<path d="M335.04 282.113C335.04 282.113 302.959 284.723 268.865 263.306C268.865 263.306 284.507 299.837 335.159 295.265L335.04 282.113Z" fill="#AA6550"/>
<path d="M361.536 138.694C361.671 142.521 358.541 145.793 354.545 146.009C350.558 146.222 347.208 143.302 347.073 139.473C346.938 135.645 350.065 132.369 354.054 132.155C358.05 131.937 361.401 134.867 361.536 138.694Z" fill="#263238"/>
<path d="M368.574 128.281C367.674 129.226 362.184 125.163 354.383 125.183C346.591 125.091 340.867 129.105 340.021 128.148C339.605 127.725 340.521 126.02 343.014 124.204C345.466 122.397 349.654 120.64 354.511 120.66C359.371 120.687 363.46 122.476 365.809 124.305C368.203 126.148 369.015 127.858 368.574 128.281Z" fill="#263238"/>
<path d="M285.425 138.694C285.56 142.521 282.43 145.793 278.436 146.007C274.449 146.22 271.099 143.3 270.964 139.47C270.829 135.643 273.959 132.367 277.948 132.153C281.94 131.937 285.29 134.867 285.425 138.694Z" fill="#263238"/>
<path d="M291.898 129.737C290.998 130.682 285.499 126.618 277.705 126.641C269.916 126.549 264.19 130.56 263.341 129.606C262.927 129.183 263.834 127.478 266.336 125.664C268.789 123.855 272.974 122.1 277.831 122.118C282.691 122.145 286.777 123.934 289.129 125.766C291.52 127.604 292.337 129.314 291.898 129.737Z" fill="#263238"/>
<path d="M320.208 187.587C320.172 187.144 325.021 186.307 332.878 185.301C334.871 185.096 336.757 184.7 337.09 183.339C337.56 181.899 336.725 179.755 335.76 177.435C333.886 172.615 331.928 167.562 329.87 162.268C321.689 140.672 315.769 122.915 316.64 122.593C317.513 122.272 324.852 139.513 333.031 161.109C335 166.435 336.883 171.511 338.674 176.368C339.425 178.632 340.724 181.199 339.707 184.185C339.171 185.672 337.709 186.754 336.431 187.099C335.155 187.488 334.034 187.51 333.049 187.569C325.142 187.994 320.237 188.03 320.208 187.587Z" fill="#263238"/>
<path d="M297.252 192.982C298.521 192.908 298.536 201.375 305.784 207.385C313.017 213.415 322.044 212.463 322.11 213.646C322.227 214.177 320.098 215.289 316.291 215.395C312.554 215.523 307.098 214.321 302.663 210.647C298.242 206.962 296.34 202.043 296.052 198.569C295.728 195.03 296.671 192.933 297.252 192.982Z" fill="#263238"/>
<path d="M293.912 99.1684C293.143 101.29 285.356 100.284 276.205 101.389C267.029 102.307 259.649 104.987 258.434 103.086C257.892 102.174 259.179 100.181 262.165 98.1266C265.121 96.0769 269.842 94.1284 275.334 93.5164C280.829 92.9179 285.86 93.7886 289.192 95.1454C292.551 96.4954 294.243 98.1626 293.912 99.1684Z" fill="#263238"/>
<path d="M365.705 105.707C364.333 107.477 358.96 105.639 352.498 105.554C346.04 105.241 340.566 106.744 339.306 104.892C338.755 103.992 339.614 102.219 342.006 100.541C344.362 98.8689 348.302 97.5031 352.743 97.6381C357.185 97.7799 361.032 99.3841 363.28 101.2C365.561 103.018 366.311 104.843 365.705 105.707Z" fill="#263238"/>
<path d="M209.301 156.424C208.435 156.049 174.424 146.108 175.533 180.81C176.643 215.514 211.252 207.243 211.281 206.244C211.311 205.249 209.301 156.424 209.301 156.424Z" fill="#B78876"/>
<path d="M200.261 193.437C200.103 193.331 199.669 193.88 198.661 194.379C197.68 194.868 195.977 195.237 194.145 194.616C190.435 193.387 187.164 187.665 186.795 181.417C186.603 178.26 187.17 175.232 188.21 172.707C189.186 170.133 190.773 168.309 192.609 167.922C194.431 167.438 195.774 168.502 196.229 169.465C196.724 170.421 196.526 171.121 196.713 171.175C196.814 171.258 197.439 170.57 197.115 169.146C196.949 168.462 196.517 167.656 195.682 167.015C194.827 166.365 193.592 166.059 192.309 166.236C189.641 166.506 187.31 169.047 186.167 171.819C184.878 174.609 184.167 178.015 184.38 181.557C184.826 188.541 188.615 194.971 193.677 196.26C196.139 196.818 198.15 196.017 199.176 195.167C200.225 194.278 200.385 193.497 200.261 193.437Z" fill="#AA6550"/>
<path d="M189.994 155.247C195.288 153.967 204.443 158.852 206.698 163.808C208.957 168.765 209.452 174.379 211.702 179.338C213.952 184.297 219.037 188.781 224.338 187.528C227.992 186.662 230.606 183.237 231.569 179.608C232.535 175.979 232.143 172.142 231.673 168.416C229.628 152.21 226.221 136.138 225.569 119.816C224.916 103.495 227.24 86.5367 235.811 72.6317C244.381 58.7267 260.124 48.5004 276.405 49.8122C287.192 50.6807 297.083 56.3057 307.797 57.8064C320.503 59.5862 333.933 55.1019 343.021 46.0479C344.186 44.8892 349.604 41.3162 349.604 41.3162C349.604 40.4747 348.81 33.2274 345.953 30.5859C324.695 10.9277 286.393 5.4399 258.313 12.5072C230.235 19.5744 203.915 39.3992 191.834 65.7107C179.754 92.0222 183.338 128.621 189.994 155.247Z" fill="#263238"/>
<path d="M377.885 69.5468C377.885 69.5468 244.719 26.7023 187.114 141.914C187.114 141.914 178.506 113.082 178.506 97.6268C178.506 87.3038 184.682 25.8293 247.936 6.49278C247.936 6.49278 343.231 -29.8785 377.885 69.5468Z" fill="#E8505B"/>
<path d="M263.466 72.4198C268.171 80.0226 276.57 85.2156 285.475 86.0256C294.381 86.8356 303.579 83.2423 309.577 76.6138C312.208 83.1748 319.264 87.6838 326.322 87.3148C333.382 86.9458 339.928 81.7236 341.856 74.9218C345.724 78.6748 349.751 82.5291 354.811 84.3808C359.872 86.2348 366.284 85.5328 369.607 81.2916C372.991 76.9693 372.008 70.3881 368.687 66.0163C365.366 61.6446 360.254 59.0436 355.189 56.9286C339.372 50.3226 321.928 47.0106 304.94 49.3101C287.953 51.6096 271.498 59.8468 260.883 73.3041" fill="#263238"/>
<g opacity="0.4">
<path d="M377.885 69.5468C377.885 69.5468 362.731 51.5198 335.54 50.3183C296.26 48.5835 222.736 70.6695 187.114 141.914C187.114 141.914 178.506 113.082 178.506 97.6268C178.506 87.3038 184.682 25.8293 247.936 6.49278C247.936 6.49278 343.231 -29.8785 377.885 69.5468Z" fill="black"/>
</g>
<path d="M192.676 128.427C212.424 98.2163 239.647 73.239 270.258 54.1163C300.869 34.9935 351.485 16.08 386.369 6.82126C396.843 4.04251 407.76 1.61252 418.439 3.45752C429.115 5.30252 439.566 12.4125 442.217 22.9178C445.533 36.069 422.194 56.3618 411.227 64.3425C400.261 72.321 377.887 84.0278 377.887 84.0278C377.887 84.0278 378.186 59.6355 339.146 54.6045C286.042 47.7623 192.676 128.427 192.676 128.427Z" fill="#E8505B"/>
<path d="M301.891 28.9184C301.891 28.9184 321.079 18.3029 340.348 15.8301C336.39 12.9321 334.278 11.5394 329.897 9.55713C320.04 11.5169 310.047 14.0189 299.927 19.6349L301.891 28.9184Z" fill="#E0E0E0"/>
<path d="M409.966 326.499L367.729 317.193L350.548 312.898L336.231 290.706C336.231 290.706 329.404 330.369 303.851 351.724C296.894 357.538 287.561 359.624 278.687 357.763C272.896 356.548 266.103 355.047 261.065 353.704C259.992 353.418 258.811 353.038 257.553 352.588C238.964 345.914 223.767 332.275 214.067 315.069C208.382 304.985 203.591 294.635 205.227 290.708L185.182 332.228L67.0635 386.633L0 550.392L129.971 588.836L134.017 723.768L109.535 893.951L477.261 894.206L464.222 515.546" fill="#E8505B"/>
<path d="M314.903 473.08C314.901 473.132 314.095 473.148 312.588 473.13C310.938 473.091 308.756 473.04 306.049 472.977C300.262 472.77 292.25 472.486 282.672 472.144L282.213 472.128L282.195 471.667C281.799 461.52 281.328 449.507 280.824 436.653C280.212 418.146 279.659 401.402 279.252 389.094C279.11 383.123 278.993 378.236 278.91 374.676C278.896 373.077 278.885 371.776 278.876 370.755C278.88 369.857 278.903 369.384 278.943 369.384C278.984 369.382 279.04 369.852 279.112 370.746C279.177 371.767 279.263 373.063 279.366 374.658C279.542 378.213 279.785 383.094 280.082 389.061C280.577 401.364 281.252 418.104 281.997 436.605C282.435 449.464 282.847 461.477 283.194 471.627L282.717 471.15C292.288 471.663 300.291 472.09 306.076 472.401C308.778 472.578 310.956 472.72 312.603 472.828C314.104 472.938 314.905 473.026 314.903 473.08Z" fill="#263238"/>
<path d="M294.86 418.384C294.836 418.337 295.407 417.957 296.611 417.813C297.792 417.662 299.65 417.901 301.459 419.158C302.346 419.788 303.228 420.666 303.82 421.843C304.412 423.015 304.686 424.468 304.461 425.929C304.058 428.815 301.858 431.846 298.451 432.71C295.036 433.5 291.717 431.896 289.899 429.657C287.973 427.366 287.773 424.446 288.286 422.385C288.788 420.263 289.865 418.805 290.716 417.986C291.58 417.158 292.192 416.888 292.223 416.942C292.282 417.023 291.769 417.417 291.051 418.294C290.345 419.163 289.454 420.594 289.096 422.554C288.729 424.477 289.008 427.015 290.725 428.966C292.358 430.901 295.313 432.249 298.175 431.574C301.016 430.87 303.003 428.246 303.392 425.767C303.867 423.213 302.524 420.985 300.967 419.824C299.403 418.614 297.738 418.263 296.633 418.267C295.511 418.265 294.894 418.483 294.86 418.384Z" fill="#263238"/>
<path d="M290.923 370.838C290.894 370.797 291.474 370.311 292.772 369.996C294.046 369.679 296.111 369.681 298.262 370.804C299.32 371.369 300.402 372.208 301.21 373.414C302.011 374.615 302.508 376.172 302.427 377.801C302.328 381.003 300.206 384.612 296.494 385.782C292.754 386.849 289.008 385.053 287.089 382.504C286.083 381.228 285.572 379.691 285.46 378.265C285.361 376.829 285.649 375.502 286.09 374.39C286.997 372.149 288.5 370.779 289.622 370.111C290.763 369.431 291.503 369.328 291.517 369.382C291.555 369.479 290.878 369.731 289.881 370.487C288.896 371.229 287.6 372.597 286.866 374.681C286.121 376.712 286.103 379.606 287.942 381.842C289.663 384.052 293.018 385.575 296.159 384.659C299.277 383.699 301.223 380.54 301.352 377.754C301.57 374.865 299.747 372.577 297.864 371.528C295.963 370.419 294.071 370.28 292.856 370.446C291.616 370.604 290.97 370.937 290.923 370.838Z" fill="#263238"/>
<path d="M278.942 552.449C278.935 552.428 279.126 552.341 279.506 552.188C279.95 552.017 280.503 551.803 281.194 551.535C282.699 551.027 284.841 550.077 287.573 548.813C292.95 546.146 300.485 541.565 308.264 534.1C316.105 526.718 324.162 516.642 331.954 504.71C339.782 492.788 347.609 479.175 355.039 464.485C369.911 435.077 380.444 407.092 387.819 386.81C391.507 376.661 394.364 368.399 396.365 362.699C397.343 359.916 398.117 357.72 398.673 356.138C398.93 355.445 399.137 354.887 399.301 354.442C399.449 354.062 399.535 353.87 399.553 353.877C399.573 353.884 399.526 354.089 399.413 354.48C399.278 354.935 399.107 355.506 398.896 356.215C398.39 357.815 397.685 360.033 396.794 362.848C394.925 368.594 392.186 376.897 388.598 387.092C381.418 407.459 370.994 435.536 356.083 465.018C348.635 479.742 340.756 493.382 332.854 505.307C324.983 517.252 316.802 527.345 308.828 534.707C300.917 542.155 293.24 546.673 287.768 549.227C284.987 550.437 282.809 551.321 281.273 551.76C280.566 551.983 279.997 552.161 279.545 552.302C279.151 552.419 278.948 552.469 278.942 552.449Z" fill="#263238"/>
<path d="M356.411 507.516C357.374 507.516 379.759 505.975 379.759 505.975C379.759 505.975 370.519 522.314 360.893 528.412H341.305L356.411 507.516Z" fill="#FAFAFA"/>
<path d="M275.026 601.921C275.004 601.888 275.445 601.552 276.304 600.949C277.263 600.288 278.518 599.419 280.08 598.342C283.347 596.062 288.045 592.723 293.694 588.388C305.037 579.77 319.92 566.884 335.931 552.167C343.962 544.825 351.654 537.884 358.305 531.231C364.974 524.593 370.552 518.208 374.8 512.511C379.075 506.832 381.989 501.85 383.829 498.329C384.806 496.594 385.416 495.175 385.899 494.243C386.367 493.305 386.631 492.817 386.669 492.832C386.707 492.848 386.516 493.366 386.115 494.338C385.701 495.303 385.155 496.761 384.237 498.536C382.513 502.138 379.687 507.221 375.468 513.004C371.279 518.802 365.724 525.289 359.07 531.994C352.433 538.719 344.749 545.694 336.721 553.033C320.703 567.755 305.691 580.58 294.194 589.049C288.468 593.311 283.684 596.555 280.334 598.722C278.66 599.809 277.33 600.603 276.432 601.15C275.53 601.687 275.049 601.955 275.026 601.921Z" fill="#263238"/>
<path d="M211.941 851.886C211.925 851.874 212.02 851.697 212.22 851.359C212.463 850.968 212.767 850.479 213.14 849.876C213.964 848.58 215.226 846.702 216.911 844.323C220.298 839.578 225.515 832.932 232.398 825.108C246.251 809.547 265.667 788.337 287.057 764.847C308.502 741.447 327.908 720.27 342.032 704.859C349.061 697.275 354.769 691.112 358.79 686.772C360.738 684.706 362.275 683.075 363.389 681.894C363.884 681.385 364.284 680.976 364.608 680.645C364.887 680.368 365.038 680.233 365.054 680.247C365.069 680.26 364.948 680.422 364.698 680.726C364.399 681.077 364.025 681.513 363.566 682.053C362.491 683.271 361.008 684.951 359.129 687.08C355.174 691.481 349.558 697.727 342.646 705.417C328.588 720.886 309.269 742.146 287.926 765.634C266.513 789.043 247.127 810.234 233.021 825.655C226.071 833.395 220.775 839.94 217.283 844.591C215.543 846.922 214.225 848.756 213.338 850.005C212.924 850.581 212.591 851.046 212.324 851.422C212.087 851.742 211.959 851.897 211.941 851.886Z" fill="#263238"/>
<path d="M407.038 325.36C408.971 328.258 452.454 333.091 463.083 343.72C473.712 354.349 580.005 435.518 580.005 435.518L504.29 537.637L455.364 526.866L407.038 325.36Z" fill="#E8505B"/>
<path opacity="0.4" d="M567.205 425.717L482.223 532.779L504.291 537.637L580.005 435.518L567.205 425.717Z" fill="black"/>
<path d="M430.204 431.662C430.125 431.68 429.817 430.413 429.324 428.104C429.061 426.952 428.782 425.535 428.58 423.87C428.364 422.207 428.031 420.322 427.92 418.209C427.745 416.103 427.574 413.794 427.59 411.306C427.493 408.82 427.659 406.165 427.783 403.372C428.199 397.797 429.059 391.69 430.587 385.415C432.18 379.153 434.281 373.355 436.529 368.234C437.73 365.707 438.826 363.286 440.077 361.135C441.229 358.93 442.462 356.971 443.605 355.193C444.69 353.38 445.869 351.868 446.841 350.502C447.799 349.125 448.71 348.004 449.482 347.111C450.999 345.302 451.865 344.33 451.926 344.382C451.989 344.434 451.242 345.505 449.842 347.39C449.129 348.324 448.276 349.476 447.374 350.88C446.46 352.273 445.338 353.805 444.307 355.632C443.218 357.423 442.037 359.389 440.934 361.594C439.731 363.745 438.68 366.16 437.517 368.671C435.348 373.762 433.3 379.507 431.725 385.699C430.213 391.906 429.331 397.939 428.861 403.451C428.71 406.214 428.508 408.84 428.564 411.304C428.505 413.767 428.627 416.058 428.748 418.15C428.802 420.247 429.077 422.126 429.23 423.787C429.367 425.449 429.581 426.869 429.774 428.028C430.125 430.35 430.283 431.646 430.204 431.662Z" fill="#263238"/>
<path d="M464.224 515.546C463.925 515.672 459.717 506.378 454.824 494.788C449.93 483.196 446.204 473.699 446.503 473.573C446.8 473.447 451.01 482.739 455.904 494.333C460.795 505.921 464.521 515.42 464.224 515.546Z" fill="#263238"/>
<path d="M129.974 441.422C129.794 441.521 127.974 438.173 124.533 433.106C121.102 428.037 115.889 421.334 109.195 414.82C102.481 408.322 95.6253 403.309 90.4571 400.033C85.2866 396.746 81.8891 395.027 81.9813 394.845C82.0173 394.773 82.8948 395.142 84.4563 395.873C86.0246 396.589 88.2318 397.761 90.8913 399.327C96.2126 402.448 103.226 407.409 110.012 413.979C116.78 420.562 121.948 427.425 125.226 432.649C126.871 435.259 128.109 437.431 128.871 438.979C129.65 440.518 130.046 441.384 129.974 441.422Z" fill="#263238"/>
<path opacity="0.4" d="M0.00195312 550.39L5.22645 537.637L149.022 576.782L143.32 592.782L0.00195312 550.39Z" fill="black"/>
<path d="M383.816 499.965H438.556V522.564L368.529 522.116C368.529 522.116 379.352 509.005 383.816 499.965Z" fill="#FAFAFA"/>
<g opacity="0.2">
<path d="M188.572 337.169C190.552 354.725 192.701 372.824 201.382 388.214C210.062 403.604 227.059 415.727 244.539 413.147C256.203 411.425 266.08 403.622 274.023 394.908C281.965 386.194 288.614 376.285 297.281 368.293C302.719 373.736 308.216 379.23 314.737 383.312C321.257 387.393 328.986 390.003 336.625 389.085C344.263 388.165 348.473 385.143 350.883 377.837C342.729 380.369 338.245 379.991 330.14 378.418C321.565 376.753 313.245 373.164 305.579 367.13C300.805 363.372 299.088 357.729 293.024 358.078C287.422 358.402 283.034 362.837 279.342 367.062C273.694 373.524 266.548 380.549 259.825 385.881C253.102 391.214 246.541 394.816 237.962 394.627C223.801 394.319 212.209 383.201 204.394 371.389C197.208 360.526 191.866 348.446 188.665 335.821" fill="black"/>
</g>
<path d="M354.254 315.274C354.294 315.269 354.375 315.701 354.492 316.527C354.6 317.355 354.782 318.572 354.931 320.152C355.266 323.304 355.606 327.883 355.739 333.555C356.033 344.882 355.178 360.65 351.533 377.606C351.509 377.729 351.482 377.851 351.459 377.966L351.385 378.321L351.034 378.409C342.522 380.522 333.999 379.772 326.792 377.77C319.541 375.772 313.448 372.64 308.837 369.355C304.223 366.07 300.942 362.801 299.025 360.287C297.97 359.108 297.387 358.01 296.899 357.342C296.442 356.649 296.222 356.276 296.255 356.253C296.51 355.994 299.975 362.378 309.308 368.675C313.909 371.825 319.943 374.829 327.074 376.73C334.161 378.643 342.493 379.325 350.737 377.277L350.314 377.72C350.336 377.608 350.361 377.486 350.388 377.365C354.013 360.515 354.994 344.855 354.911 333.571C354.886 327.923 354.67 323.351 354.476 320.195C354.389 318.721 354.317 317.519 354.258 316.559C354.218 315.717 354.215 315.278 354.254 315.274Z" fill="#263238"/>
<path d="M285.912 359.668C285.946 359.689 285.698 360.152 285.192 361.016C284.679 361.876 283.86 363.109 282.697 364.614C280.393 367.645 276.635 371.692 271.633 376.285C269.136 378.584 266.33 381.025 263.293 383.606C261.765 384.893 260.228 386.239 258.529 387.575C256.817 388.873 254.959 390.082 252.961 391.162C248.971 393.31 244.352 394.888 239.389 395.284C234.436 395.72 229.133 394.624 224.548 392.003C219.931 389.418 216.202 385.816 212.908 382.2C209.639 378.546 206.712 374.827 204.149 371.125C198.994 363.734 195.309 356.467 192.685 350.198C190.096 343.907 188.55 338.613 187.641 334.927C187.173 333.087 186.885 331.64 186.705 330.657C186.52 329.676 186.442 329.156 186.482 329.147C186.523 329.138 186.678 329.642 186.937 330.605C187.189 331.57 187.549 332.995 188.082 334.808C189.121 338.442 190.78 343.666 193.448 349.872C196.15 356.055 199.881 363.219 205.033 370.504C207.596 374.154 210.514 377.824 213.759 381.426C217.019 384.985 220.678 388.493 225.119 390.977C229.529 393.493 234.54 394.534 239.305 394.136C244.073 393.769 248.56 392.271 252.454 390.205C254.405 389.168 256.225 388.003 257.906 386.752C259.555 385.476 261.133 384.124 262.667 382.859C265.729 380.314 268.555 377.918 271.078 375.666C276.129 371.173 279.947 367.242 282.341 364.324C283.549 362.872 284.42 361.691 284.996 360.881C285.561 360.069 285.876 359.648 285.912 359.668Z" fill="#263238"/>
<path d="M237.444 618.182L254.781 592.906C254.781 592.906 266.703 551.445 265.086 545.665C263.468 539.884 258.196 518.257 259.443 518.003C260.689 517.749 273.672 512.912 280.707 530.246C285.09 541.041 286.53 555.254 286.994 564.441C287.237 569.274 291.701 572.735 296.442 571.765C308.436 569.308 328.389 565.548 333.128 566.682C340.013 568.331 346.176 577.113 346.774 580.047C347.375 582.981 342.621 589.627 342.621 589.627C342.621 589.627 348.473 592.622 350.271 597.145C350.514 597.757 350.723 598.36 350.903 598.942C352.041 602.63 351.092 606.64 348.491 609.493L346.657 611.504C346.657 611.504 353.954 613.505 354.858 617.687C355.763 621.868 354.609 626.908 354.609 626.908L347.76 633.984C347.76 633.984 350.959 636.824 351.312 640.68C351.663 644.537 341.388 654.061 341.388 654.061L297.267 669.876L279.765 674.34L237.444 618.182Z" fill="#B78876"/>
<path d="M342.751 589.664C342.798 589.994 335.913 591.243 327.467 592.969C319.016 594.683 312.189 596.225 312.106 595.901C312.066 595.748 313.724 595.16 316.455 594.393C319.185 593.624 322.992 592.685 327.233 591.821C331.474 590.96 335.344 590.334 338.157 589.976C340.971 589.614 342.726 589.506 342.751 589.664Z" fill="#AA6550"/>
<path d="M346.785 611.482C346.879 611.792 341.653 613.66 335.112 615.656C328.569 617.651 323.191 619.019 323.097 618.709C323.002 618.398 328.229 616.531 334.77 614.535C341.311 612.542 346.69 611.174 346.785 611.482Z" fill="#AA6550"/>
<path d="M349.418 633.017C349.548 633.314 343.995 636.027 337.018 639.078C330.038 642.132 324.278 644.364 324.148 644.067C324.017 643.77 329.568 641.056 336.548 638.005C343.525 634.952 349.287 632.72 349.418 633.017Z" fill="#AA6550"/>
<path d="M135.776 774.478L298.039 665.621L257.107 591.463L109.001 667.628L125.804 587.598L25.2965 557.869L0.220285 694.799C-3.66096 755.727 45.2023 804.921 104.121 788.919C115.387 785.863 126.081 780.983 135.776 774.478Z" fill="#B78876"/>
<path d="M87.5678 710.599C87.4958 710.612 87.2708 709.895 87.0098 708.558C86.7466 707.224 86.4968 705.262 86.4473 702.821C86.3213 697.965 87.2731 691.069 90.6301 684.344C93.9848 677.614 98.9236 672.704 102.877 669.885C104.857 668.456 106.574 667.475 107.8 666.884C109.024 666.29 109.735 666.038 109.766 666.103C109.865 666.29 107.141 667.577 103.379 670.547C99.6278 673.481 94.9343 678.338 91.6786 684.868C88.4228 691.395 87.3631 698.064 87.2753 702.825C87.1673 707.615 87.7793 710.565 87.5678 710.599Z" fill="#AA6550"/>
<path d="M504.29 537.637C505.305 536.253 619.857 606.032 619.857 606.032L656.568 773.327L709.416 792.719C709.416 792.719 725.915 606.554 713.353 577.565C700.792 548.576 573.525 444.338 573.525 444.338L504.29 537.637Z" fill="#B78876"/>
<path d="M644.875 593.198C645.116 593.347 641.399 598.436 634.941 602.556C628.513 606.728 622.341 607.999 622.307 607.718C622.193 607.369 628.063 605.63 634.309 601.571C640.589 597.572 644.605 592.951 644.875 593.198Z" fill="#AA6550"/>
<path d="M366.529 538.001L375.493 698.555L558.556 686.182L553.016 566.662L526.367 530.786L366.529 538.001Z" fill="#263238"/>
<path d="M324.904 702.128C325.46 705.213 340.999 850.632 340.999 850.632L613.449 831.683L659.563 825.513L638.3 690.09L605.727 682.296L324.904 702.128Z" fill="#E8505B"/>
<path opacity="0.4" d="M605.729 682.298L324.904 702.128C325.46 705.212 340.999 850.632 340.999 850.632L624.652 830.904L605.729 682.298Z" fill="black"/>
<path d="M531.112 688.038L375.493 698.555L366.529 538.001L526.367 530.786L531.112 688.038Z" fill="#455A64"/>
<path d="M424.548 535.382L427.828 584.862L436.153 580.099L440.777 584.862L446.503 580.099L455.364 584.862V533.99L424.548 535.382Z" fill="#263238"/>
<path d="M489.6 691.402L478.946 570.901L582.971 599.57L592.999 682.739L489.6 691.402Z" fill="#E8505B"/>
<path d="M582.971 599.57C582.995 599.593 582.775 599.887 582.325 600.434C581.798 601.055 581.135 601.838 580.316 602.803C578.441 604.943 575.863 607.888 572.668 611.536C565.985 619.028 556.745 629.389 546.084 641.346L545.679 641.8L545.256 641.357C540.815 636.702 536.036 631.696 531.097 626.518C516.665 611.266 503.609 597.464 494.042 587.355C489.411 582.38 485.633 578.319 482.911 575.394C481.68 574.035 480.69 572.941 479.927 572.102C479.255 571.339 478.915 570.928 478.944 570.898C478.973 570.871 479.369 571.229 480.098 571.938C480.902 572.741 481.943 573.783 483.242 575.079C486.029 577.941 489.902 581.914 494.642 586.783C504.272 596.832 517.419 610.55 531.945 625.711C536.873 630.897 541.64 635.914 546.073 640.579L545.245 640.59C556.029 628.746 565.378 618.479 572.137 611.059C575.433 607.501 578.095 604.633 580.03 602.547C580.905 601.633 581.614 600.891 582.176 600.304C582.676 599.8 582.946 599.548 582.971 599.57Z" fill="#263238"/>
<path d="M524.649 621.899C524.932 622.054 517.518 636.277 508.089 653.665C498.657 671.057 490.782 685.03 490.498 684.875C490.215 684.719 497.626 670.499 507.058 653.107C516.488 635.719 524.365 621.744 524.649 621.899Z" fill="#263238"/>
<path d="M590.582 682.739C590.306 682.906 583.094 671.386 574.479 657.013C565.862 642.635 559.103 630.847 559.379 630.681C559.656 630.514 566.865 642.032 575.483 656.41C584.098 670.783 590.859 682.573 590.582 682.739Z" fill="#263238"/>
<path d="M545.449 686.702L538.665 609.963L604.91 628.222L611.295 681.185L545.449 686.702Z" fill="#E8505B"/>
<path opacity="0.4" d="M545.449 686.702L538.665 609.963L604.91 628.222L611.295 681.185L545.449 686.702Z" fill="white"/>
<path d="M604.91 628.222C604.959 628.267 604.381 629.005 603.272 630.326C602.023 631.775 600.41 633.649 598.446 635.928C594.126 640.799 588.287 647.385 581.573 654.961L581.168 655.415L580.743 654.972C577.91 652.007 574.866 648.821 571.72 645.529C562.473 635.818 554.15 626.982 548.167 620.545C545.296 617.42 542.925 614.837 541.127 612.881C539.484 611.054 538.602 610.017 538.661 609.961C538.719 609.905 539.712 610.836 541.458 612.566C543.323 614.456 545.787 616.954 548.768 619.973C554.904 626.262 563.321 635.008 572.568 644.719C575.703 648.022 578.736 651.217 581.559 654.191L580.731 654.203C587.569 646.737 593.516 640.248 597.912 635.447C599.976 633.257 601.672 631.457 602.984 630.067C604.185 628.829 604.86 628.177 604.91 628.222Z" fill="#263238"/>
<path d="M567.77 642.439C568.055 642.592 563.416 651.698 557.411 662.77C551.403 673.847 546.307 682.699 546.021 682.543C545.738 682.388 550.375 673.287 556.38 662.212C562.385 651.138 567.486 642.286 567.77 642.439Z" fill="#263238"/>
<path d="M609.757 681.185C609.48 681.351 604.807 674.063 599.319 664.91C593.831 655.755 589.608 648.2 589.887 648.033C590.164 647.867 594.837 655.152 600.325 664.307C605.81 673.46 610.034 681.018 609.757 681.185Z" fill="#263238"/>
<path d="M587.673 624.978V631.152L597.348 632.274L597.854 627.563L587.673 624.978Z" fill="white"/>
<path d="M553.526 593.68C553.526 594.339 553.526 602.702 553.526 602.702L571.787 605.715L572.795 598.848L553.526 593.68Z" fill="white"/>
<path d="M482.222 736.28L481.322 691.402L444.919 693.863L448.82 739.437L482.222 736.28Z" fill="#E8505B"/>
<path d="M600.756 759.871L539.684 765.662L544.807 819.688L605.879 813.897L600.756 759.871Z" fill="#FAFAFA"/>
<path d="M605.893 813.946C605.873 813.93 605.821 813.577 605.74 812.911C605.655 812.17 605.545 811.203 605.405 809.988C605.124 807.36 604.73 803.663 604.233 798.994C603.27 789.504 601.911 776.087 600.275 759.966L600.815 760.414C583.22 762.108 562.239 764.128 539.755 766.293C539.633 766.43 540.749 765.089 540.279 765.663L540.281 765.676L540.283 765.706L540.288 765.764L540.299 765.879L540.322 766.108L540.364 766.567L540.452 767.485L540.625 769.317C540.74 770.534 540.855 771.749 540.97 772.957C541.197 775.374 541.424 777.77 541.647 780.144C542.092 784.889 542.529 789.54 542.954 794.074C543.796 803.137 544.592 811.734 545.33 819.688L544.768 819.222C562.88 817.613 578.072 816.263 588.841 815.305C594.153 814.859 598.372 814.506 601.36 814.254C602.755 814.146 603.862 814.063 604.701 813.997C605.468 813.946 605.873 813.928 605.893 813.946C605.916 813.964 605.551 814.018 604.827 814.105C604.017 814.198 602.946 814.319 601.596 814.472C598.642 814.785 594.472 815.226 589.221 815.782C578.385 816.873 563.096 818.412 544.867 820.248L544.354 820.3L544.304 819.782C543.535 811.831 542.702 803.238 541.825 794.177C541.39 789.643 540.945 784.995 540.49 780.252C540.265 777.88 540.036 775.484 539.806 773.068C539.692 771.859 539.577 770.647 539.46 769.427L539.287 767.596L539.199 766.678L539.156 766.219L539.134 765.989L539.122 765.874L539.118 765.816L539.116 765.787L539.113 765.773C538.641 766.338 539.755 764.986 539.647 765.125C562.138 763.026 583.123 761.068 600.725 759.424L601.222 759.376L601.265 759.869C602.703 776.139 603.898 789.682 604.744 799.26C605.128 803.89 605.432 807.558 605.648 810.166C605.736 811.347 605.806 812.285 605.86 813.005C605.902 813.642 605.914 813.961 605.893 813.946Z" fill="#263238"/>
<path d="M596 772.863C596.034 773.185 585.358 774.573 572.157 775.963C558.952 777.354 548.221 778.22 548.188 777.898C548.154 777.577 558.828 776.188 572.033 774.798C585.234 773.407 595.966 772.543 596 772.863Z" fill="#263238"/>
<path d="M595.647 782.041C595.677 782.191 593.177 782.848 589.082 783.665C584.989 784.482 579.294 785.429 572.967 786.174C566.638 786.914 560.878 787.312 556.707 787.463C552.535 787.616 549.952 787.555 549.945 787.402C549.939 787.234 552.508 787.002 556.655 786.637C560.802 786.275 566.526 785.749 572.83 785.011C579.132 784.27 584.823 783.456 588.94 782.85C593.06 782.243 595.614 781.874 595.647 782.041Z" fill="#263238"/>
<path d="M598.223 802.113C598.252 802.264 595.753 802.921 591.66 803.737C587.567 804.554 581.872 805.501 575.545 806.246C569.214 806.986 563.456 807.385 559.285 807.535C555.113 807.688 552.528 807.628 552.523 807.475C552.517 807.306 555.086 807.074 559.233 806.71C563.38 806.347 569.104 805.821 575.408 805.083C581.71 804.34 587.401 803.528 591.518 802.923C595.638 802.315 598.192 801.946 598.223 802.113Z" fill="#263238"/>
<path d="M595.145 791.828C595.19 792.147 585.22 793.839 572.879 795.603C560.533 797.367 550.492 798.54 550.444 798.218C550.399 797.898 560.367 796.209 572.713 794.442C585.056 792.678 595.1 791.508 595.145 791.828Z" fill="#263238"/>
<path d="M649.073 875.495C649.073 875.495 699.358 842.229 703.226 825.21C707.094 808.191 709.416 792.717 709.416 792.717L655.692 770.465L661.023 789.824C661.023 789.824 641.756 801.279 639.792 815.152C638.48 824.409 613.579 840.231 613.579 840.231C609.349 835.123 602.914 832.371 596.299 832.839L575.374 834.318L589.506 866.214L649.073 875.495Z" fill="#B78876"/>
<path d="M668.722 829.894C668.747 829.961 667.919 830.364 666.344 830.859C664.778 831.381 662.438 831.896 659.684 832.801C656.898 833.649 653.973 835.442 650.954 837.87C647.957 840.278 644.442 842.978 640.208 844.694C631.77 848.328 623.106 848.085 617.4 846.607C615.975 846.236 614.63 845.916 613.586 845.192C612.522 844.53 611.97 843.299 612.195 842.406C612.337 841.513 612.886 840.95 613.325 840.784C613.773 840.617 614.02 840.719 614.013 840.743C614.016 840.797 613.773 840.791 613.431 840.995C613.098 841.196 612.704 841.706 612.648 842.465C612.537 843.221 612.992 844.087 613.944 844.645C614.866 845.223 616.167 845.489 617.584 845.801C623.205 847.041 631.584 847.136 639.749 843.619C643.857 841.949 647.219 839.407 650.297 837.017C653.357 834.623 656.536 832.778 659.432 832.016C662.292 831.192 664.634 830.807 666.225 830.423C667.822 830.063 668.693 829.811 668.722 829.894Z" fill="#AA6550"/>
<path d="M633.887 855.701C633.788 855.868 631.304 854.392 627.025 852.626C622.756 850.864 616.6 848.947 609.583 848.283C607.823 848.094 606.093 848.042 604.428 848.004L604.111 847.997L603.946 847.741C600.83 842.845 597.289 839.13 594.589 836.698C591.884 834.254 590.075 832.99 590.17 832.855C590.208 832.799 590.705 833.048 591.565 833.586C592.424 834.126 593.639 834.97 595.075 836.133C597.946 838.446 601.676 842.141 604.912 847.122L604.432 846.859C606.133 846.881 607.897 846.926 609.695 847.12C616.861 847.797 623.114 849.885 627.355 851.867C629.491 852.846 631.129 853.809 632.247 854.489C633.347 855.202 633.93 855.634 633.887 855.701Z" fill="#AA6550"/>
<path d="M647.473 846.557C647.575 846.886 644.067 848.153 640.116 850.416C636.147 852.653 633.262 855.015 633.033 854.759C632.817 854.547 635.434 851.715 639.538 849.397C643.628 847.059 647.401 846.265 647.473 846.557Z" fill="#AA6550"/>
<path d="M674.711 786.746C674.666 787.097 671.222 786.672 667.199 787.752C663.16 788.773 660.363 790.827 660.152 790.544C659.929 790.348 662.577 787.725 666.902 786.618C671.217 785.47 674.81 786.465 674.711 786.746Z" fill="#AA6550"/>
</svg>
