<svg width="292" height="441" viewBox="0 0 292 441" fill="none" xmlns="http://www.w3.org/2000/svg">
<path d="M81.3827 430.604C78.4267 427.082 73.4997 425.666 68.9157 426.04C64.3327 426.414 60.6697 428.461 56.6537 430.702C53.1567 432.653 51.9537 435.829 47.7667 437.282L44.2627 438.307C44.6997 438.506 46.4947 439.441 46.9717 439.506C56.4597 440.801 66.0887 440.345 75.6537 439.886C78.2847 439.76 81.3707 439.368 82.6567 437.069C83.7997 435.029 82.8857 432.395 81.3827 430.604Z" fill="#172F35"/>
<path d="M261.003 69.3747C267.057 43.1692 250.722 17.0172 224.516 10.9627C198.311 4.90827 172.159 21.244 166.104 47.4496C160.05 73.6551 176.385 99.807 202.591 105.862C228.797 111.916 254.948 95.5803 261.003 69.3747Z" fill="#5068E8"/>
<path d="M256.546 68.7883C262.287 45.0302 247.682 21.1161 223.924 15.3745C200.166 9.63298 176.252 24.2383 170.51 47.9964C164.769 71.7544 179.374 95.6686 203.132 101.41C226.89 107.152 250.804 92.5464 256.546 68.7883Z" fill="#F8F4D9"/>
<path d="M255.288 73.0947C255.875 71.4287 256.362 69.7177 256.749 67.9677H252.42V37.2317C250.967 34.5677 249.242 32.0757 247.293 29.7797V67.9677H186.538V48.4847H239.346V22.4477C237.716 21.2747 236.005 20.2087 234.219 19.2627V43.3577H199.612V16.3857C197.853 16.9687 196.139 17.6507 194.485 18.4407V43.3577H181.411V59.7637H169.319C169.372 61.4987 169.516 63.2107 169.764 64.8907H181.412V88.8107C182.998 90.4847 184.71 92.0357 186.539 93.4457V73.0947H255.288Z" fill="#41408F"/>
<path d="M232.616 73.7695L213.66 53.7075L194.705 73.7695H200.498V93.3565H226.823V73.7695H232.616Z" fill="#0C4E5F"/>
<path d="M222.53 31.6635C222.53 36.6565 213.49 45.3225 213.49 45.3225C213.49 45.3225 204.45 36.6555 204.45 31.6635C204.45 26.6705 208.497 22.6235 213.49 22.6235C218.482 22.6235 222.53 26.6705 222.53 31.6635Z" fill="#5068E8"/>
<path d="M213.541 35.5816C215.901 35.5816 217.813 33.6686 217.813 31.3096C217.813 28.9496 215.9 27.0366 213.541 27.0366C211.181 27.0366 209.268 28.9496 209.268 31.3096C209.268 33.6686 211.181 35.5816 213.541 35.5816Z" fill="#41408F"/>
<path d="M96.5475 120.674C97.6375 119.936 98.7335 118.82 98.5565 117.515C98.3335 115.876 96.3625 115.202 94.7315 114.931C83.6495 113.087 72.2605 113.837 61.2125 115.877C50.1655 117.918 39.3985 121.229 28.6615 124.533C26.8155 125.101 24.6225 126.083 24.4945 128.01C24.4175 129.16 25.1955 130.235 26.1835 130.828C27.1715 131.421 28.3405 131.621 29.4835 131.769C36.3335 132.661 43.2865 132.138 50.1485 131.345C62.6825 129.896 75.1135 127.548 87.3125 124.327C90.5285 123.477 93.7915 122.539 96.5475 120.674Z" fill="#172F35"/>
<path d="M203.558 177.228C202.996 168.06 201.8 158.799 203.339 149.744C197.651 149.122 191.963 148.5 186.276 147.878C185.014 153.873 183.508 159.816 181.769 165.69C181.349 164.829 180.94 163.963 180.56 163.081C178.238 157.693 176.768 151.978 174.67 146.499C172.571 141.02 169.735 135.644 165.269 131.838C163.629 130.44 161.497 129.222 159.414 129.773C158.086 130.124 157.04 131.138 156.173 132.204C153.736 135.199 152.232 138.849 151.142 142.553C149.399 148.477 148.644 154.831 150.077 160.837C152.845 172.437 163.001 180.603 169.021 190.898C170.666 193.711 172.312 195.8 173.859 198.667C176.593 203.965 176.311 205.022 177.79 207.383C180.607 211.879 187.476 213.134 192.658 211.997C197.381 210.961 197.91 208.605 199.999 204.245C203.967 195.961 204.121 186.396 203.558 177.228Z" fill="#A6BEBD"/>
<path d="M190.415 152.155C190.495 151.883 190.339 151.599 190.066 151.519C189.797 151.437 189.51 151.596 189.431 151.867C185.439 165.542 183.158 179.699 182.653 193.947C182.545 196.995 182.531 200.215 183.634 203.144C183.764 203.489 183.909 203.833 184.056 204.176C184.52 205.266 184.957 206.295 184.889 207.363C184.842 208.097 184.329 208.88 183.67 209.224C183.49 209.319 183.245 209.403 182.99 209.384C183.28 208.732 183.542 208.016 183.571 207.242C183.606 206.257 183.165 205.062 182.101 204.61C181.755 204.463 181.394 204.422 181.077 204.386C180.891 204.364 180.704 204.345 180.524 204.299C179.044 203.923 178.532 201.924 178.17 200.08C176.725 192.73 172.954 186.223 169.307 179.932L166.235 174.631C166.205 175.062 166.154 175.438 166.064 175.956C166.047 176.054 166.006 176.131 165.963 176.206L168.42 180.446C172.025 186.665 175.752 193.096 177.165 200.279C177.491 201.942 178.039 204.726 180.272 205.293C180.496 205.35 180.729 205.379 180.961 205.405C181.233 205.436 181.491 205.466 181.701 205.555C182.314 205.814 182.568 206.592 182.546 207.205C182.518 207.98 182.165 208.735 181.826 209.466C181.716 209.703 181.801 209.986 182.025 210.121C182.35 210.317 182.702 210.415 183.066 210.415C183.42 210.415 183.787 210.321 184.145 210.134C185.116 209.627 185.843 208.514 185.912 207.429C185.995 206.118 185.489 204.927 185 203.775C184.859 203.444 184.719 203.114 184.593 202.782C183.557 200.031 183.573 196.927 183.678 193.983C184.18 179.821 186.447 165.748 190.415 152.155Z" fill="#E8E8E8"/>
<path d="M162.145 187.626C164.928 173.14 166.06 158.31 165.064 143.593C167.157 149.417 169.267 155.317 169.84 161.479C170.704 170.746 167.89 180.305 162.145 187.626Z" fill="#172F35"/>
<path d="M187.377 154.639C188.979 155.732 190.884 156.374 192.821 156.473C195.219 156.595 197.602 155.897 199.755 154.835C201.051 154.196 202.372 153.312 202.815 151.937C203.118 150.994 202.955 149.972 202.789 148.995C202.531 147.48 202.274 145.966 202.016 144.451C201.929 143.938 201.83 143.399 201.499 142.997C201.053 142.455 200.3 142.295 199.605 142.198C196.789 141.805 193.907 141.89 191.119 142.45C189.35 142.805 187.426 143.508 186.651 145.138C186.294 145.889 186.234 146.742 186.18 147.572C186.092 148.918 186.004 150.265 185.916 151.612C185.883 152.111 185.853 152.625 186.013 153.099C186.238 153.759 186.8 154.245 187.377 154.639Z" fill="#172F35"/>
<path d="M193.089 125.551C193.349 125.66 193.645 125.567 193.911 125.473C195.663 124.855 197.416 124.236 199.168 123.617C197.155 120.346 194.752 117.315 192.026 114.609C192.214 117.888 192.401 121.167 192.589 124.446C192.613 124.873 192.695 125.386 193.089 125.551Z" fill="#41408F"/>
<path d="M191.329 138.833H176.219C175.327 138.833 174.604 138.11 174.604 137.218V106.805C174.604 105.913 175.327 105.19 176.219 105.19H191.328C192.22 105.19 192.943 105.913 192.943 106.805V137.218C192.943 138.11 192.22 138.833 191.329 138.833Z" fill="#A6BEBD"/>
<path d="M176.289 136.631C176.711 137.436 177.786 137.576 178.695 137.592C182.179 137.651 185.657 137.339 189.127 137.027C189.508 136.993 189.913 136.949 190.21 136.709C190.541 136.442 190.658 135.997 190.752 135.582C192.098 129.623 192.436 123.437 191.746 117.366C187.115 116.921 182.483 116.475 177.852 116.03C177.254 115.973 176.573 115.942 176.14 116.359C175.728 116.757 175.712 117.401 175.723 117.974C175.842 123.801 175.962 129.628 176.081 135.454C176.09 135.856 176.102 136.275 176.289 136.631Z" fill="#172F35"/>
<path d="M200.59 142.232C200.543 137.525 200.463 129.516 200.419 125.153C200.396 122.895 198.653 121.868 196.684 121.357C194.929 120.901 176.203 117.033 176.209 116.995C176.046 117.949 176.429 118.931 177.023 119.696C177.617 120.461 178.407 121.044 179.187 121.617C178.306 122.249 177.416 122.89 176.72 123.721C176.025 124.552 175.534 125.608 175.598 126.69C175.662 127.772 176.376 128.848 177.426 129.119C176.784 129.95 176.116 130.846 176.033 131.893C175.95 132.94 176.74 134.123 177.787 134.035C177.402 135.293 177.199 136.608 177.187 137.924C179.735 139.06 181.652 141.511 182.141 144.258C182.786 144.249 183.36 143.79 183.668 143.223C183.691 143.181 183.704 143.135 183.725 143.092C185.303 144.549 187.006 145.863 188.246 147.64C192.4 148.266 196.76 147.811 200.556 146.068C200.609 144.789 200.603 143.501 200.59 142.232Z" fill="#41408F"/>
<path d="M9.6499 134.491C3.1469 141.576 0.780905 151.548 0.182905 161.146C-0.689095 175.136 1.6699 189.133 4.8569 202.783C7.2009 212.823 10.0319 222.849 14.8589 231.96C19.6859 241.071 26.6669 249.285 35.7649 254.136C49.5999 261.513 66.4079 260.298 81.7189 256.922C97.0299 253.545 112.094 248.186 127.769 247.85C133.077 247.736 139.315 247.789 142.471 243.519C144.621 240.61 144.497 236.663 144.261 233.053C143.426 220.235 142.368 207.432 141.09 194.651C139.834 182.096 138.348 169.478 134.639 157.418C130.929 145.358 124.848 133.78 115.565 125.234C111.024 121.054 105.675 117.611 99.7079 116.033C93.4869 114.388 86.9229 114.834 80.5159 115.437C66.6829 116.74 52.9139 118.724 39.2749 121.38C28.4859 123.482 17.0829 126.393 9.6499 134.491Z" fill="#5068E8"/>
<path d="M1.15924 84.7787L4.13924 121.135C4.52624 125.853 8.73925 129.268 13.3503 128.6L101.612 115.81C105.859 115.194 108.897 111.318 108.538 106.972L105.758 73.3697C105.376 68.7527 101.322 65.3657 96.7922 65.8797L8.33025 75.9157C3.97325 76.4097 0.795244 80.3387 1.15924 84.7787Z" fill="#172F35"/>
<path d="M6.8712 85.9028L9.7522 120.48C10.1262 124.968 14.2002 128.215 18.6582 127.58L103.993 115.416C108.099 114.831 111.037 111.144 110.689 107.01L108.001 75.0518C107.632 70.6608 103.712 67.4398 99.3322 67.9278L13.8042 77.4728C9.5922 77.9428 6.5192 81.6788 6.8712 85.9028Z" fill="#A6BEBD"/>
<path d="M101.71 127.473C81.9645 128.623 62.3445 131.919 43.3055 137.282C42.0745 137.629 41.6555 139.19 42.5585 140.096C43.9385 141.481 45.2415 143.285 45.6915 143.926C57.2935 160.443 57.0175 182.503 57.6175 201.801C58.1115 217.674 57.5455 233.555 56.9665 249.417C56.8905 251.506 56.9465 253.947 58.6205 255.198C59.7665 256.054 61.3185 256.051 62.7485 256.006C90.1105 255.134 117.397 251.956 144.227 246.518C145.631 209.604 142.47 176.872 130.968 149.444C129.433 145.784 118.717 131.68 115.343 129.59C111.368 127.127 106.378 127.201 101.71 127.473Z" fill="#172F35"/>
<path d="M43.3669 152.435C41.7579 148.309 39.1529 143.689 36.4219 140.203C33.6909 136.717 29.9549 133.861 25.6269 132.926C18.0929 131.299 10.1739 136.016 6.38086 142.725C11.1469 138.582 18.2329 137.707 24.2379 139.661C30.2439 141.615 35.2049 146.085 38.7029 151.344C42.2009 156.602 44.3609 162.633 46.0959 168.705C54.0059 196.379 53.6669 225.726 51.3709 254.416C55.7219 220.036 55.9579 184.72 43.3669 152.435Z" fill="#41408F"/>
<path d="M162.1 228.941H86.8496V244.941H162.1V228.941Z" fill="#172F35"/>
<path d="M164.915 132.239C164.538 130.851 164.084 129.418 163.08 128.387C160.994 126.245 157.544 126.65 154.574 126.305C149.074 125.666 144.34 121.926 141.201 117.341C130.363 122.288 117.729 123.243 108.019 115.429C107.001 116.38 105.932 117.275 104.822 118.105C99.1081 122.381 92.3821 125.123 85.5361 127.141C83.1561 127.843 80.6201 128.539 78.9211 130.348C75.9381 133.524 76.7661 138.559 77.6491 142.826C83.3371 170.309 83.0951 198.999 76.9951 226.39C75.9901 230.901 78.9891 235.316 83.5341 236.151C110.888 241.178 139.369 240.034 166.218 232.767C157.939 200.088 173.76 164.771 164.915 132.239Z" fill="#5068E8"/>
<path d="M125.642 154.172C119.653 156.093 113.278 156.806 107.013 156.254C107.007 153.827 107.001 151.401 106.995 148.974C113.181 148.46 119.343 147.662 125.456 146.581C125.517 149.112 125.58 151.642 125.642 154.172Z" fill="white"/>
<path d="M125.487 122.34C130.227 127.405 130.358 135.106 130.244 142.042C129.692 175.621 129.904 209.212 130.879 242.782C133.875 242.526 136.871 242.27 139.867 242.014C139.156 210.476 138.445 178.938 137.734 147.4C137.541 138.828 137.332 130.15 135.024 121.892C131.845 122.041 128.666 122.19 125.487 122.34Z" fill="#172F35"/>
<path d="M135.781 201.138C134.954 183.846 134.098 165.964 135.439 148.243C136.172 138.538 134.275 130.915 132.117 123.024C131.782 123.1 131.445 123.162 131.108 123.222C133.25 131.051 135.139 138.604 134.416 148.166C133.072 165.95 133.929 183.864 134.757 201.187C135.024 206.758 135.3 212.519 135.5 218.216C135.752 225.396 136.013 232.82 134.982 240.03C134.942 240.31 135.137 240.57 135.418 240.61C135.442 240.613 135.467 240.615 135.491 240.615C135.741 240.615 135.961 240.431 135.998 240.174C137.04 232.875 136.779 225.405 136.526 218.18C136.323 212.476 136.048 206.712 135.781 201.138Z" fill="#5068E8"/>
<path d="M105.06 117.798C110.641 122.148 117.556 124.762 124.62 125.189C131.683 125.617 138.863 123.857 144.928 120.211C143.461 118.96 142.323 117.325 141.66 115.514C136.472 117.795 130.806 119.27 125.158 118.803C119.51 118.336 113.882 115.739 110.575 111.136C109.364 113.789 107.44 116.113 105.06 117.798Z" fill="#172F35"/>
<path d="M130.253 322.449C128.431 322.449 121.47 322.449 119.648 322.449C106.207 322.449 95.3096 345.029 95.3096 372.882C95.3096 400.736 106.206 423.315 119.648 423.315C121.47 423.315 128.431 423.315 130.253 423.315C143.694 423.315 154.591 400.735 154.591 372.882C154.591 345.028 143.694 322.449 130.253 322.449Z" fill="#172F35"/>
<path d="M114.626 408.421C120.898 408.421 125.981 392.509 125.981 372.882C125.981 353.254 120.898 337.343 114.626 337.343C108.355 337.343 103.271 353.254 103.271 372.882C103.271 392.509 108.355 408.421 114.626 408.421Z" fill="#A6BEBD"/>
<path d="M112.064 395.582C117.315 395.582 121.573 382.257 121.573 365.821C121.573 349.384 117.315 336.06 112.064 336.06C106.812 336.06 102.555 349.384 102.555 365.821C102.555 382.257 106.812 395.582 112.064 395.582Z" fill="#172F35"/>
<path d="M199.513 277.004C189.494 264.364 174.509 255.772 158.54 253.511C142.57 251.249 125.789 255.343 112.654 264.704C107.933 268.068 103.565 272.235 101.257 277.552C97.8667 285.359 99.3797 294.318 100.951 302.683C105.103 324.79 109.254 346.897 113.406 369.004C113.889 371.574 114.412 374.241 115.965 376.345C118.003 379.107 121.441 380.41 124.74 381.357C149.279 388.401 175.466 383.327 200.479 378.221C205.527 377.191 211.088 375.83 213.969 371.559C215.545 369.221 216.056 366.344 216.452 363.552C218.452 349.444 218.461 335.055 216.477 320.944C214.266 305.21 209.383 289.455 199.513 277.004Z" fill="#172F35"/>
<path d="M116.314 302.894C112.713 293.913 107.498 282.646 97.4918 279.887C89.0538 277.561 79.8678 281.98 74.2788 288.717C68.6898 295.454 66.0368 304.11 63.9928 312.621C58.5178 335.424 59.6808 359.882 67.5018 381.99C87.7388 384.236 104.074 385.465 125.309 384.58C126.593 384.527 126.69 361.391 126.647 359.161C126.482 350.565 125.677 341.983 124.248 333.505C122.561 323.504 120.377 313.105 116.559 303.507C116.478 303.305 116.397 303.1 116.314 302.894Z" fill="#5068E8"/>
<path d="M116.061 308.926C120.539 320.071 120.427 332.638 117.899 344.38C115.371 356.122 110.552 367.226 105.763 378.241C104.96 380.088 103.47 382.295 101.526 381.77C100.079 381.379 99.4895 379.687 99.1235 378.234C96.3775 367.352 93.6215 356.412 92.6485 345.231C91.6755 334.05 92.5565 322.517 96.8675 312.154C98.2665 308.791 100.132 305.443 103.161 303.421C106.19 301.399 110.63 301.115 113.273 303.622L116.061 308.926Z" fill="#172F35"/>
<path d="M138.269 379.589C129.766 378.648 120.437 377.296 114.792 370.868C113.695 374.383 115.244 378.312 117.835 380.928C120.425 383.544 123.9 385.075 127.358 386.341C152.432 395.52 180.148 393.62 206.513 389.397C207.809 385.611 203.529 390.566 204.824 386.78C181.586 393.595 162.339 382.251 138.269 379.589Z" fill="#5068E8"/>
<path d="M45.2891 389.216C58.2531 398.496 74.9121 402.447 90.1501 397.761C76.0501 391.115 60.7701 387.389 45.2891 389.216Z" fill="#172F35"/>
<path d="M81.0675 410.874C81.7665 403.482 82.4655 396.089 83.1655 388.697C73.8685 389.121 64.5265 388.546 55.3525 386.984C54.8155 393.811 53.8555 400.605 52.4795 407.314C62.0085 408.501 71.5375 409.687 81.0675 410.874Z" fill="white"/>
<path d="M242.554 302.82C236.791 289.14 233.454 274.466 231.587 259.713C229.379 242.27 229.157 224.645 228.937 207.064C215.547 205.638 201.89 206.759 188.911 210.349C197.783 243.219 208.511 277.317 227.789 307.013C232.749 305.869 237.667 304.356 242.554 302.82Z" fill="#41408F"/>
<path d="M71.1936 399.643C74.3196 400.16 77.3766 401.585 79.4086 404.017C82.9066 408.204 82.7086 414.278 82.0186 419.69C81.3286 425.102 80.3916 430.906 82.8556 435.773C70.3656 435.728 57.8736 436.295 45.4386 437.471C44.1486 428.66 44.6776 419.241 49.0816 411.501C53.4846 403.76 62.4076 398.19 71.1936 399.643Z" fill="#0C4E5F"/>
<path d="M67.8714 398.641C66.3204 398.805 64.6374 399.285 63.8034 400.603C63.3564 401.309 63.2184 402.162 63.1164 402.991C62.3975 408.845 63.0334 414.861 64.9604 420.436C65.2544 421.286 65.6514 422.208 66.4724 422.576C67.0114 422.818 67.6294 422.769 68.2194 422.733C72.1634 422.497 76.1564 423.117 79.8434 424.538C79.4284 418.715 79.6324 412.848 80.4494 407.068C80.6704 405.506 80.9065 403.792 80.0735 402.453C79.5785 401.657 78.7685 401.114 77.9465 400.664C74.8955 398.993 71.3304 398.277 67.8714 398.641Z" fill="#5068E8"/>
<path d="M50.8028 413.241C51.6478 412.221 52.8298 411.238 54.1398 411.434C55.2318 411.598 56.0378 412.542 56.5558 413.516C57.6098 415.495 57.8908 417.778 58.4288 419.955C58.9668 422.132 59.8828 424.382 61.7508 425.622C58.3278 428.416 54.2448 430.397 49.9318 431.356C49.0888 431.544 48.2148 431.693 47.3658 431.536C46.5168 431.38 45.6878 430.861 45.3778 430.055C45.1208 429.387 45.2488 428.641 45.3808 427.938C46.3508 422.746 47.4318 417.308 50.8028 413.241Z" fill="#A6BEBD"/>
<path d="M83.8218 430.741C83.6408 426.779 82.6758 422.491 79.5728 420.02C75.9148 417.107 70.4818 417.742 66.2978 419.829C63.0978 421.425 60.3168 423.731 57.3218 425.684C54.3268 427.637 50.9528 429.279 47.3768 429.278C46.2408 429.278 44.9878 429.143 44.0808 429.827C43.0548 430.601 42.9308 432.067 42.8948 433.352C42.8558 434.788 42.8598 436.36 43.7638 437.476C44.7278 438.665 46.4008 438.952 47.9238 439.116C57.6518 440.161 67.4718 439.523 77.2348 438.883C78.6638 438.789 80.1638 438.673 81.3648 437.893C83.5818 436.454 83.9428 433.382 83.8218 430.741Z" fill="#41408F"/>
<path d="M150.282 73.0548C153.429 83.9728 151.364 96.2718 144.823 105.564C143.451 107.513 141.826 109.388 139.667 110.398C135.675 112.267 130.996 110.77 126.854 109.259C122.192 107.558 117.351 105.742 113.948 102.131C110.741 98.7278 109.177 94.0798 108.403 89.4688C107.479 83.9638 107.635 77.9978 110.502 73.2068C114.073 67.2388 121.275 64.2108 128.221 63.8668C135.167 63.5228 142.003 65.4488 148.691 67.3568L150.282 73.0548Z" fill="#172F35"/>
<path d="M142.277 118.799C141.754 118.141 141.261 117.461 140.809 116.761C137.679 111.914 136.047 106.278 134.456 100.732C128.642 100.819 122.828 100.907 117.014 100.994C115.791 105.654 113.265 109.868 109.997 113.432C118.924 120.34 131.381 121.051 142.277 118.799Z" fill="#41408F"/>
<path d="M148.561 85.6654C148.522 85.4594 148.48 85.2534 148.435 85.0494C148.098 83.5164 147.4 81.6974 148.181 80.1754C149.399 77.8044 149.206 77.2274 147.625 72.3214L145.918 68.5044C141.947 64.1994 135.936 62.1574 130.08 62.0944C124.224 62.0314 118.482 63.7694 113.098 66.0744C111.304 66.8424 109.361 67.8664 108.761 69.7234C108.42 70.7784 108.584 71.9224 108.762 73.0164C109.468 77.3674 110.328 81.6924 111.188 86.0154C111.881 89.4994 112.592 93.0374 114.237 96.1854C116.324 100.179 119.762 103.268 123.127 106.265C124.497 107.485 125.895 108.724 127.569 109.473C130.764 110.904 134.616 110.318 137.634 108.544C140.652 106.77 142.923 103.941 144.67 100.907C146.541 97.6584 147.887 94.1074 148.639 90.4334C148.962 88.8644 148.857 87.2364 148.561 85.6654Z" fill="#41408F"/>
<path d="M123.11 81.5304C125.27 79.3154 128.032 78.2874 130.981 78.5274C131.091 78.0734 131.313 77.6464 131.635 77.3074C128.232 76.8934 124.704 78.3824 122.461 80.9754C122.715 81.1104 122.926 81.3084 123.11 81.5304Z" fill="#0C4E5F"/>
<path d="M128.048 86.2463C127.74 86.2773 127.409 86.2943 127.14 86.1393C126.893 85.9973 126.743 85.7323 126.647 85.4643C126.459 84.9373 126.442 84.3503 126.601 83.8133C126.757 83.2883 127.091 82.8033 127.57 82.5383C128.049 82.2733 128.676 82.2563 129.132 82.5603C129.692 82.9343 129.879 83.6643 129.956 84.3333C129.992 84.6453 130.012 84.9703 129.9 85.2633C129.767 85.6073 129.462 85.8633 129.124 86.0113C128.786 86.1573 128.415 86.2093 128.048 86.2463Z" fill="#0C4E5F"/>
<path d="M129.273 84.0453C129.094 83.7313 128.76 83.4483 128.406 83.5193C128.029 83.5943 127.837 84.0183 127.777 84.3973C127.735 84.6663 127.729 84.9473 127.817 85.2053C127.904 85.4633 128.095 85.6953 128.352 85.7843C128.754 85.9233 129.222 85.6583 129.394 85.2693C129.565 84.8803 129.484 84.4143 129.273 84.0453Z" fill="#172F35"/>
<path d="M127.644 84.3531C127.774 84.3621 127.899 84.2881 127.987 84.1921C128.159 84.0041 128.2 83.6711 128.003 83.5091C127.885 83.4121 127.707 83.4021 127.572 83.4721C127.436 83.5421 127.343 83.6821 127.314 83.8331C127.271 84.0611 127.413 84.3381 127.644 84.3531Z" fill="white"/>
<path d="M144.368 78.4564C145.547 78.4564 146.578 79.1554 147.092 80.1494C147.098 80.1594 147.106 80.1694 147.112 80.1794C147.331 80.0984 147.479 79.8374 147.455 79.5914C147.426 79.2954 147.229 79.0444 147.027 78.8264C146.613 78.3774 146.135 77.9774 145.582 77.7184C145.029 77.4594 144.394 77.3494 143.798 77.4854C143.405 77.5744 143.016 77.7904 142.837 78.1514C142.724 78.3794 142.735 78.6614 142.847 78.8844C143.3 78.6194 143.816 78.4564 144.368 78.4564Z" fill="#0C4E5F"/>
<path d="M144.063 83.8423C144.021 83.4573 144.169 83.0733 144.383 82.7513C144.687 82.2923 145.216 81.9023 145.753 82.0233C146.115 82.1053 146.397 82.4073 146.546 82.7483C146.695 83.0883 146.732 83.4663 146.76 83.8363C146.793 84.2823 146.786 84.8023 146.438 85.0833C146.142 85.3223 145.71 85.2863 145.349 85.1703C144.727 84.9693 144.134 84.4893 144.063 83.8423Z" fill="#0C4E5F"/>
<path d="M146.022 83.1894C145.876 83.0174 145.65 82.8694 145.437 82.9434C145.273 83.0004 145.178 83.1694 145.112 83.3304C145.011 83.5774 144.942 83.8464 144.984 84.1094C145.026 84.3724 145.197 84.6274 145.451 84.7084C145.798 84.8184 146.189 84.5524 146.292 84.2034C146.394 83.8534 146.258 83.4674 146.022 83.1894Z" fill="#172F35"/>
<path d="M145.146 83.4243C145.245 83.4313 145.34 83.3753 145.407 83.3013C145.537 83.1583 145.569 82.9053 145.419 82.7823C145.329 82.7083 145.194 82.7013 145.091 82.7543C144.988 82.8073 144.917 82.9143 144.895 83.0283C144.862 83.2023 144.97 83.4123 145.146 83.4243Z" fill="white"/>
<path d="M145.949 85.4847C142.731 83.6297 136.887 84.4226 133.409 85.0146C129.931 85.6066 125.757 87.6897 122.618 89.3007C121.742 89.7507 120.819 90.2927 120.444 91.2027C120.227 91.7297 120.224 92.3167 120.229 92.8877C120.252 95.8057 120.386 98.7227 120.631 101.631C120.71 102.578 120.807 103.546 121.204 104.409C121.611 105.295 122.308 106.013 123.041 106.657C124.164 107.644 125.42 108.51 126.829 109.011C129.099 109.819 135.246 111.142 137.49 110.264C139.734 109.386 139.525 109.296 141.164 107.53C144.412 104.03 146.944 100.441 148.684 95.9937C149.453 94.0287 150.318 90.5107 149.538 89.4137C148.95 88.5877 146.829 85.9917 145.949 85.4847Z" fill="#172F35"/>
<path d="M135.799 85.7629C130.811 86.1399 125.981 88.2059 122.215 91.4939C122.699 96.2919 122.815 100.565 123.443 105.363C124.02 106.42 125.241 108.105 126.071 108.727C128.683 110.686 131.271 111.139 134.499 111.632C139.585 112.409 142.993 109.122 145.778 104.796C148.563 100.47 149.768 94.2749 150.307 89.1589C145.761 85.5059 141.615 85.3229 135.799 85.7629Z" fill="white"/>
<path d="M122.959 92.9775C118.981 90.8525 116.339 89.3645 113.785 87.9265L112.205 87.0385L112.707 86.1445L114.288 87.0335C116.838 88.4685 119.475 89.9535 123.444 92.0735L122.959 92.9775Z" fill="white"/>
<path d="M114.566 97.7549L114.116 98.6772L124.114 103.548L124.563 102.626L114.566 97.7549Z" fill="white"/>
<path d="M118.862 79.5884C123.604 75.7854 139.242 76.6834 148.897 75.9564C148.7 75.0034 148.231 74.2014 147.625 72.3214L145.918 68.5044C141.947 64.1994 135.936 62.1574 130.08 62.0944C124.224 62.0314 118.482 63.7694 113.098 66.0744C111.304 66.8424 109.361 67.8664 108.761 69.7234C108.42 70.7784 108.584 71.9224 108.762 73.0164C109.468 77.3674 110.328 81.6924 111.188 86.0154C111.881 89.4994 112.592 93.0374 114.237 96.1854C114.873 97.4034 115.646 98.5304 116.494 99.6034C115.203 91.7474 114.114 84.3364 118.862 79.5884Z" fill="#172F35"/>
<path d="M118.248 49.7246C112.666 51.2456 107.339 54.1706 103.707 58.6746C99.9921 63.2816 98.2801 69.2186 97.6341 75.1026C97.0481 80.4436 97.2861 85.9426 98.9911 91.0376C100.811 96.4756 104.402 101.434 109.469 104.175C110.328 104.64 111.298 104.932 112.267 104.803C114.956 104.446 115.49 101.693 115.586 99.3966C115.803 94.2286 115.372 88.5576 114.203 83.2286C113.358 79.3766 116.168 75.6726 120.107 75.4876C130.774 74.9876 141.364 74.8806 152.082 74.1166C152.578 74.0816 153.113 74.0296 153.482 73.6966C153.921 73.3006 153.978 72.6416 153.98 72.0506C154.006 63.9246 148.933 56.2156 141.876 52.1846C134.82 48.1536 126.088 47.5876 118.248 49.7246Z" fill="#5068E8"/>
<path d="M111.436 105.016C110.769 105.016 110.157 104.795 109.696 104.383C109.484 104.195 109.466 103.871 109.654 103.66C109.843 103.448 110.167 103.43 110.378 103.618C110.763 103.96 111.235 104.011 111.57 103.986C112.219 103.943 112.89 103.608 113.32 103.111C114.132 102.17 114.363 100.838 114.492 99.5386C114.862 95.7806 114.569 92.0206 113.619 88.3656C113.519 87.9796 113.411 87.5896 113.304 87.1976C112.565 84.5166 111.802 81.7446 112.895 79.1586C113.717 77.2146 115.589 75.6356 118.032 74.8246C120.171 74.1146 122.416 74.0326 124.588 73.9526L148.004 73.0906C150.001 73.0166 152.264 72.9336 154.137 72.0006C154.388 71.8756 154.699 71.9776 154.824 72.2316C154.95 72.4846 154.847 72.7926 154.594 72.9186C152.522 73.9506 150.142 74.0376 148.042 74.1146L124.626 74.9766C122.526 75.0546 120.355 75.1336 118.355 75.7976C116.193 76.5146 114.547 77.8846 113.84 79.5576C112.886 81.8156 113.601 84.4126 114.293 86.9256C114.402 87.3226 114.511 87.7166 114.613 88.1066C115.594 91.8796 115.897 95.7606 115.514 99.6396C115.376 101.036 115.099 102.62 114.098 103.781C113.486 104.49 112.566 104.949 111.639 105.01C111.569 105.013 111.503 105.016 111.436 105.016Z" fill="#A6BEBD"/>
<path d="M132.072 50.4987C122.748 48.4577 112.426 51.9327 106.234 59.1967C100.042 66.4607 98.2469 77.2027 101.739 86.0857C100.125 78.5177 101.7 70.3217 106.004 63.8907C110.307 57.4597 117.283 52.8777 124.895 51.4817L132.072 50.4987Z" fill="#41408F"/>
<path d="M89.5327 135.798C90.7757 135.007 92.4867 135.321 93.6687 136.2C94.8517 137.079 95.6027 138.414 96.2237 139.75C99.5447 146.898 100.036 155.1 98.9787 162.91C97.9217 170.72 95.3977 178.246 92.8867 185.717C102.374 191.538 112.33 196.595 122.625 200.824C106.105 204.388 88.3847 202.107 73.3057 194.476C82.9817 178.229 84.6067 158.644 87.5687 139.968C87.8177 138.4 88.1947 136.649 89.5327 135.798Z" fill="#172F35"/>
<path d="M101.395 221.485C105.76 222.582 110.505 223.495 114.646 221.734C118.016 220.302 120.44 217.318 122.616 214.374C124.84 211.366 127.044 207.464 125.407 204.1C123.93 201.065 120.131 200.165 116.841 199.413C106.61 197.077 96.8077 192.879 88.0577 187.086C89.4507 180.091 92.3687 173.511 94.7687 166.794C97.1687 160.078 99.0827 152.977 98.3397 145.883C97.5967 138.789 93.7297 131.668 87.2317 128.727C85.0847 127.755 82.6117 127.271 80.3587 127.961C77.1757 128.936 75.1247 131.962 73.4917 134.863C63.4727 152.67 65.0667 171.317 59.1867 193.816C58.3207 197.128 59.2237 200.845 60.9637 203.793C62.9067 207.086 66.5357 208.947 70.0187 210.526C80.1217 215.108 90.6367 218.78 101.395 221.485Z" fill="#A6BEBD"/>
<path d="M113.556 214.596C113.216 216.638 113.353 218.958 114.783 220.454C115.742 221.457 117.121 221.92 118.441 222.348C119.617 222.729 120.849 223.115 122.069 222.916C123.338 222.71 124.423 221.895 125.351 221.005C127.699 218.752 129.401 215.833 130.205 212.68C130.658 210.903 130.806 208.929 129.936 207.315C129.106 205.777 127.45 204.81 125.738 204.462C122.847 203.875 119.751 204.915 117.56 206.89C115.369 208.865 114.04 211.687 113.556 214.596Z" fill="#172F35"/>
<path d="M113.093 221.649C112.907 221.649 112.728 221.548 112.638 221.371C112.087 220.303 111.406 220.358 110.035 220.572C109.071 220.723 107.976 220.894 106.779 220.483C102.309 218.951 97.6035 217.89 93.0525 216.865C88.5725 215.855 83.9405 214.811 79.5075 213.315C71.1185 210.484 62.8175 206.592 58.9145 197.368C58.8045 197.107 58.9265 196.806 59.1865 196.696C59.4465 196.585 59.7485 196.708 59.8585 196.968C63.6035 205.819 71.6725 209.589 79.8345 212.343C84.2165 213.822 88.8225 214.86 93.2765 215.864C97.8545 216.896 102.587 217.962 107.11 219.512C108.068 219.841 108.988 219.697 109.875 219.558C111.168 219.355 112.633 219.127 113.546 220.9C113.676 221.152 113.578 221.461 113.326 221.59C113.253 221.631 113.172 221.649 113.093 221.649Z" fill="#E8E8E8"/>
<path d="M61.9661 409.132C64.9971 407.532 68.3621 406.375 71.8391 406.263C75.3161 406.151 78.9141 407.168 81.4191 409.43C82.2461 410.177 82.744 411.43 82.814 412.587C82.834 412.92 82.421 413.085 82.181 412.853C79.421 410.199 75.662 408.496 71.711 408.672C67.466 408.861 63.3951 410.656 60.2311 413.317C59.4241 412.821 59.3401 411.674 59.8041 410.881C60.2691 410.089 61.1251 409.576 61.9661 409.132Z" fill="#172F35"/>
<path d="M62.1594 412.688C65.1904 411.088 68.5554 409.931 72.0324 409.819C75.5094 409.707 79.1074 410.724 81.6124 412.986C82.4394 413.733 82.9374 414.986 83.0074 416.143C83.0274 416.476 82.6144 416.641 82.3744 416.409C79.6144 413.755 75.8554 412.052 71.9044 412.228C67.6594 412.417 63.5884 414.212 60.4254 416.873C59.6184 416.377 59.5344 415.231 59.9984 414.437C60.4614 413.645 61.3184 413.132 62.1594 412.688Z" fill="#172F35"/>
<path d="M60.8282 418.98C63.3622 416.148 67.0592 414.432 70.8502 414.154C74.6402 413.876 78.4902 415 81.6362 417.132C82.2232 417.53 82.8142 417.996 83.0732 418.657C83.3322 419.318 83.1152 420.212 82.4532 420.468C79.4582 418.281 75.7892 417.032 72.0822 416.938C68.3752 416.844 64.6472 417.905 61.5452 419.937C61.2682 420.118 60.9002 420.308 60.6322 420.113C60.2822 419.857 60.5382 419.304 60.8282 418.98Z" fill="#172F35"/>
<path d="M137.786 240.783H104.511C97.6368 241.935 88.7238 238.579 83.6838 242.896C75.7678 249.676 74.0668 266.058 75.3188 275.765C75.5448 277.517 75.9747 279.331 77.2297 280.696C79.7867 283.477 84.4967 283.333 88.5377 283.342C95.9797 283.36 103.415 284.75 110.235 287.4C114.295 288.978 118.617 291.05 122.907 290.063C126.139 289.319 128.548 286.985 130.754 284.758C135.918 279.544 141.127 274.199 144.285 267.844C147.443 261.49 148.297 253.864 144.689 247.702C143.063 244.929 140.636 242.628 137.786 240.783Z" fill="#263238"/>
<path d="M131.313 252.055C129.21 249.537 126.64 246.862 123.359 246.814C120.914 246.779 118.724 248.244 116.788 249.738C103.308 260.145 93.5876 274.621 85.1056 289.389C67.1966 320.571 53.7126 354.291 45.1836 389.224C60.3466 390.931 75.3766 393.814 90.0946 397.839C101.082 359.777 112.241 321.3 131.903 286.907C135.737 280.2 140.046 272.887 138.716 265.276C137.838 260.241 134.59 255.979 131.313 252.055Z" fill="#263238"/>
<path d="M76.9111 280.216C78.8081 282.805 82.3351 283.878 85.5031 283.362C88.6711 282.845 91.4811 280.945 93.6671 278.594C95.8531 276.243 97.4911 273.448 99.1121 270.677C93.2651 276.495 85.1561 279.979 76.9111 280.216Z" fill="#172F35"/>
<path d="M50.3699 390.17C50.3259 390.17 50.281 390.164 50.237 390.153C49.963 390.08 49.8009 389.799 49.8739 389.525C57.3679 361.47 68.9209 332.065 85.1929 299.63C89.3019 291.439 93.9639 283.07 101.724 278.614C102.01 278.45 102.188 278.17 102.212 277.849C102.235 277.54 102.107 277.252 101.862 277.059L100.575 276.045C99.9549 275.555 99.629 274.792 99.703 274.002C99.776 273.233 100.224 272.563 100.902 272.212C103.485 270.871 106.247 269.949 109.113 269.47C107.384 269.096 105.611 268.986 103.842 269.139C103.3 269.183 102.79 268.87 102.59 268.35C102.389 267.831 102.549 267.258 102.988 266.924C104.845 265.508 106.854 264.294 108.965 263.304L90.8329 266.759C87.9709 267.304 85.0119 267.866 82.0319 267.411C78.6189 266.891 76.145 265.201 75.065 262.653C74.955 262.392 75.077 262.091 75.337 261.981C75.596 261.869 75.899 261.991 76.009 262.252C77.208 265.083 80.03 266.069 82.186 266.398C84.994 266.826 87.864 266.28 90.641 265.752L116.722 260.782C117.003 260.73 117.269 260.912 117.322 261.19C117.375 261.468 117.192 261.737 116.914 261.79C112.118 262.703 107.517 264.761 103.608 267.74C103.502 267.82 103.523 267.926 103.544 267.982C103.565 268.037 103.625 268.135 103.753 268.118C105.621 267.957 107.496 268.074 109.325 268.46C109.819 268.564 110.157 268.987 110.147 269.488C110.137 269.989 109.78 270.398 109.28 270.481C106.52 270.943 103.86 271.831 101.373 273.121C101 273.315 100.763 273.672 100.722 274.098C100.68 274.541 100.862 274.967 101.208 275.24L102.495 276.254C103.004 276.655 103.28 277.28 103.233 277.924C103.184 278.581 102.81 279.172 102.233 279.503C94.72 283.816 90.147 292.038 86.108 300.09C69.868 332.46 58.34 361.801 50.863 389.788C50.804 390.019 50.5969 390.17 50.3699 390.17Z" fill="#E8E8E8"/>
<path d="M262.981 243.785C260.678 236.344 258.192 228.592 252.698 223.069C245.336 215.669 234.142 213.81 223.714 213.326C203.252 212.377 182.277 215.388 164.01 224.656C157.724 227.845 151.665 231.879 147.548 237.6C142.321 244.862 140.726 254.099 140.131 263.027C138.065 294.06 146.295 324.74 149.793 355.645C150.836 364.859 151.17 375.119 145.356 382.343C143.566 384.567 141.094 387.262 142.363 389.819C143.297 391.701 145.733 392.147 147.823 392.352C178.378 395.351 210.059 395.453 238.762 384.556C254.978 378.4 270.536 368.077 278.189 352.511C283.538 341.63 284.584 329.034 283.242 316.984C281.9 304.933 278.297 293.266 274.711 281.683C270.801 269.051 266.891 256.418 262.981 243.785Z" fill="#5068E8"/>
<path d="M267.502 327.402C262.077 316.82 252.301 307.954 240.566 306.028C229.76 304.254 218.51 308.604 210.425 315.991C202.341 323.378 197.16 333.505 194.055 344.006C190.95 354.507 189.777 365.468 188.632 376.359C188.138 381.063 187.949 386.58 191.548 389.649C194.764 392.391 199.552 391.875 203.698 391.056C217.733 388.281 231.43 383.799 244.389 377.738C255.586 372.502 267.076 365.074 270.814 353.292C273.514 344.782 271.575 335.345 267.502 327.402Z" fill="#172F35"/>
<path d="M164.667 240.114C163.395 237.945 160.471 237.514 158.592 239.185C152.856 244.287 149.582 252.092 148.689 259.835C147.576 269.485 149.623 279.199 151.653 288.688C158.447 287.594 155.569 288.057 162.363 286.963C161.605 280.393 161.153 273.695 162.464 267.216C163.587 261.667 166.149 256.241 170.257 252.419C171.514 251.25 171.581 249.312 170.437 248.032C168.258 245.593 166.322 242.936 164.667 240.114Z" fill="white"/>
<path d="M249.608 232.687C249.494 234.178 249.226 235.657 248.81 237.093C248.481 238.231 248.796 239.46 249.669 240.26C254.773 244.935 258.655 250.939 260.803 257.52C261.814 257.835 262.887 256.98 263.204 255.97C263.521 254.96 263.291 253.869 263.059 252.836C261.509 245.947 257.259 237.496 252.204 231.762C251.327 230.769 249.709 231.365 249.608 232.687Z" fill="white"/>
<path d="M152.004 344.493C152.933 330.091 149.925 315.768 147.404 301.559C144.882 287.349 142.838 272.712 145.666 258.56C148.494 244.408 157.061 230.643 170.421 225.186C156.35 229.503 147.727 241.866 144.228 256.162C140.729 270.458 142.188 286.473 145.125 300.895C148.062 315.316 151.27 329.793 152.004 344.493Z" fill="#41408F"/>
<path d="M229.095 219.118C229.025 215.118 228.971 211.119 228.921 207.121C214.278 205.561 199.343 206.787 185.15 210.713C185.998 213.854 186.869 217.007 187.753 220.165C191.438 239.234 209.883 312.369 209.883 312.369L228.268 307.97L204.278 223.764C212.643 223.063 220.954 221.47 229.095 219.118Z" fill="#172F35"/>
<path d="M229.095 218.035C217.077 221.508 204.652 223.176 192.276 222.503C200.547 251.527 210.878 280.964 227.788 307.013C232.748 305.869 237.666 304.356 242.553 302.82C236.79 289.14 233.453 274.466 231.586 259.713C229.837 245.897 229.338 231.967 229.095 218.035Z" fill="#41408F"/>
<path d="M264.596 194.475C264.596 197.377 262.875 199.73 260.751 199.73C258.627 199.73 256.906 197.377 256.906 194.475C256.906 191.573 258.628 189.22 260.751 189.22C262.875 189.22 264.596 191.573 264.596 194.475Z" fill="#172F35"/>
<path d="M276.177 196.891C275.816 197.749 274.925 198.291 274.013 198.479C273.101 198.667 272.157 198.556 271.233 198.444C266.681 197.895 262.128 197.346 257.576 196.797C257.686 195.131 257.796 193.465 257.906 191.798C262.172 192.042 266.438 192.286 270.705 192.529C272.08 192.608 273.515 192.704 274.7 193.406C275.883 194.109 276.711 195.621 276.177 196.891Z" fill="#172F35"/>
<path d="M259.636 189.644C253.578 190.191 248.918 188.29 244.543 184.064C241.945 181.554 239.949 178.353 236.869 176.464C231.817 173.365 225.383 174.586 219.487 175.198C210.776 176.102 201.642 175.498 193.647 179.073C187.75 181.709 183.056 186.378 178.037 190.444C169.38 197.457 159.415 202.836 148.824 206.293C150.766 208.442 152.214 211.068 153.258 213.879C161.75 212.148 170.649 211.954 179.35 212.283C192.902 212.796 206.503 214.449 219.981 212.941C225.522 212.321 231.101 211.132 235.964 208.403C239.892 206.198 243.222 203.064 247.049 200.689C250.876 198.314 254.336 197.148 258.646 198.457C261.392 196.514 261.605 191.8 259.636 189.644Z" fill="#5068E8"/>
<path d="M179.864 195.945C180.397 195.838 180.917 195.642 181.36 195.328C183.554 193.772 183.042 190.185 184.876 188.219C181.265 190.975 177.654 193.732 174.043 196.488C175.799 195.606 177.936 196.331 179.864 195.945Z" fill="#41408F"/>
<path d="M161.879 220.97C162.966 220.478 163.56 219.26 163.242 218.109C162.961 217.093 162.883 216.021 163.024 214.976C163.188 213.758 163.64 212.576 163.631 211.347C163.617 209.564 162.639 207.94 161.599 206.491C160.833 205.424 159.967 204.356 158.77 203.815C156.97 203.001 154.877 203.555 152.984 204.119C151.755 204.485 150.341 205.032 150.007 206.27C149.852 206.843 149.975 207.453 150.141 208.023C150.809 210.306 152.2 212.371 154.065 213.847C155.224 214.764 156.669 215.618 156.96 217.067C157.173 218.132 156.656 219.235 155.897 220.012C155.139 220.789 154.161 221.308 153.218 221.846C145.533 226.224 139.132 232.588 133.713 239.578C133.572 239.759 133.436 239.952 133.309 240.149C133.292 240.173 133.27 240.191 133.254 240.215C132.943 240.673 132.69 241.206 132.732 241.757C132.805 242.696 133.717 243.37 134.632 243.59C135.31 243.753 136.18 243.647 136.472 243.013C136.674 242.575 136.514 242.066 136.408 241.595C136.303 241.133 136.262 240.659 136.269 240.186C143.271 232.021 152.079 225.407 161.879 220.97Z" fill="white"/>
<path d="M238.618 201.299C240.842 197.753 240.595 193.23 239.87 189.108C239.345 186.118 238.521 182.959 236.246 180.949C234.148 179.096 231.211 178.578 228.426 178.302C219.623 177.43 210.655 178.245 202.153 180.689C196.869 182.208 191.314 184.763 188.982 189.742C186.53 194.977 188.078 202.756 192.349 206.652C196.62 210.548 202.463 210.278 208.243 210.412C214.996 210.568 222.325 209.507 228.771 207.491C235.577 205.362 236.548 204.599 238.618 201.299Z" fill="white"/>
<path d="M230.829 179.868C233.632 182.699 235.261 186.522 236.079 190.421C236.897 194.32 236.962 198.332 237.024 202.315C239.389 196.649 239.394 190.04 237.036 184.371C236.495 183.07 235.811 181.787 234.747 180.864C233.682 179.941 232.17 179.436 230.829 179.868Z" fill="#172F35"/>
<path d="M260.303 202.325C260.993 202.57 261.748 202.362 262.48 202.398C268.144 202.678 272.806 202.211 277.415 204.387C277.123 204.528 276.963 205.515 277.146 205.783C277.669 206.379 278.788 205.991 279.027 205.235C279.266 204.478 278.81 203.642 278.158 203.19C277.506 202.738 276.272 202.14 275.493 201.995C270.933 201.148 266.8 200.744 262.239 199.897C261.038 199.519 260.657 197.963 260.882 196.724C261.106 195.485 261.725 194.316 261.74 193.057C261.764 191.023 259.87 189.253 257.884 189.156C257.389 189.132 257.016 189.619 257.192 190.082C258.177 192.672 257.911 195.717 256.511 198.107C256.247 198.557 256.386 199.135 256.849 199.376C258.063 200.009 258.888 201.822 260.303 202.325Z" fill="white"/>
<path d="M264.499 167.852C270.392 165.431 273.207 158.691 270.786 152.798C268.365 146.905 261.625 144.09 255.731 146.511C249.838 148.932 247.023 155.672 249.444 161.565C251.865 167.459 258.605 170.274 264.499 167.852Z" fill="white"/>
<path d="M259.314 192.696C258.819 192.696 258.384 192.338 258.303 191.833L256.015 177.594C255.743 175.89 255.889 174.126 256.44 172.493L260.806 159.541C260.986 159.005 261.57 158.716 262.105 158.897C262.642 159.078 262.93 159.659 262.749 160.196L258.383 173.148C257.938 174.467 257.82 175.892 258.041 177.269L260.329 191.508C260.419 192.067 260.039 192.593 259.479 192.683C259.422 192.692 259.368 192.696 259.314 192.696Z" fill="white"/>
<path d="M129.885 188.195C137.955 188.195 144.497 181.653 144.497 173.583C144.497 165.513 137.955 158.971 129.885 158.971C121.815 158.971 115.273 165.513 115.273 173.583C115.273 181.653 121.815 188.195 129.885 188.195Z" fill="white"/>
<path d="M156.116 207.591C155.652 207.591 155.232 207.275 155.12 206.804L150.656 188.083C150.193 186.143 148.924 184.483 147.174 183.529L131.53 174.996C131.032 174.725 130.849 174.102 131.12 173.605C131.391 173.108 132.017 172.924 132.511 173.196L148.155 181.729C150.415 182.961 152.053 185.104 152.65 187.608L157.114 206.329C157.245 206.88 156.906 207.433 156.355 207.564C156.276 207.582 156.195 207.591 156.116 207.591Z" fill="white"/>
<path d="M115.015 219.114C115.802 221.043 116.589 222.972 117.376 224.901C128.474 220.218 139.898 216.307 151.538 213.205C150.843 211.046 149.799 209.001 148.459 207.172C137.31 211.152 126.162 215.133 115.015 219.114Z" fill="#172F35"/>
<path d="M144.754 207.757C144.664 206.412 145.671 205.139 146.946 204.701C148.22 204.263 149.67 204.567 150.814 205.279C151.958 205.992 152.828 207.074 153.525 208.228C154.39 209.661 155.027 211.264 155.12 212.935C155.162 213.699 154.875 214.608 154.44 215.486C153.531 217.323 151.094 217.804 149.592 216.409C147.12 214.118 144.919 210.208 144.754 207.757Z" fill="#172F35"/>
<path d="M119.46 221.577C120.825 224.179 120.229 227.181 118.129 228.282C116.029 229.384 113.22 228.168 111.855 225.567C110.49 222.966 111.086 219.963 113.186 218.862C115.286 217.76 118.095 218.975 119.46 221.577Z" fill="#172F35"/>
<path d="M249.443 323.383C247.462 323.642 239.894 324.634 237.913 324.893C223.299 326.807 214.668 352.907 218.634 383.19C222.6 413.473 237.662 436.47 252.275 434.556C254.256 434.297 261.824 433.305 263.805 433.046C278.419 431.132 287.05 405.032 283.084 374.749C279.119 344.466 264.057 321.469 249.443 323.383Z" fill="#172F35"/>
<path d="M248.958 379.218C251.655 399.81 248.8 417.163 242.583 417.978C236.365 418.792 229.138 402.759 226.441 382.167C223.744 361.575 226.599 344.222 232.816 343.407C239.035 342.593 246.262 358.626 248.958 379.218Z" fill="#A6BEBD"/>
<path d="M272.238 325.507C267.846 319.415 262.178 314.091 255.327 311.014C241.21 304.674 227.956 309.992 221.196 323.493C216.475 332.921 212.428 345.484 213.037 356.108C213.717 367.983 213.979 381.367 216.576 392.975C239.105 390.337 271.433 385.012 291.193 377.638C288.391 359.855 282.766 340.112 272.238 325.507Z" fill="#5068E8"/>
<path d="M230.929 315.011C226.867 317.197 223.699 320.993 222.274 325.38C224.093 323.238 227.332 322.659 230.002 323.536C232.672 324.412 234.796 326.523 236.249 328.928C237.702 331.333 238.562 334.041 239.41 336.72C243.562 349.837 247.714 362.954 251.866 376.072C252.401 377.761 252.985 379.531 254.286 380.735C256.723 382.99 260.553 382.401 263.791 381.668C262.123 382.025 260.391 381.083 259.328 379.749C258.265 378.415 257.735 376.745 257.232 375.114C251.79 357.482 246.928 339.671 242.655 321.719C241.976 318.865 241.064 315.671 238.474 314.292C236.15 313.055 233.248 313.763 230.929 315.011Z" fill="#41408F"/>
<path d="M218.676 346.327C217.439 361.71 222.793 376.737 226.435 391.734C227.16 394.721 227.851 397.799 229.547 400.362C231.244 402.926 234.218 404.899 237.261 404.466C240.6 403.991 242.996 400.751 243.601 397.434C244.206 394.116 243.413 390.721 242.624 387.442C238.537 370.449 234.45 353.456 230.363 336.462C228.103 334.156 223.937 334.953 221.756 337.334C219.575 339.716 218.934 343.109 218.676 346.327Z" fill="#172F35"/>
<path d="M233.963 386.865C233.963 393.661 232.069 399.17 229.733 399.17C227.397 399.17 225.503 393.661 225.503 386.865C225.503 380.069 227.397 374.56 229.733 374.56C232.07 374.56 233.963 380.069 233.963 386.865Z" fill="#A6BEBD"/>
<path d="M237.633 400.461C238.219 401.174 239.315 401.317 240.167 400.963C241.019 400.609 241.646 399.849 242.062 399.026C243.378 396.42 242.816 393.299 242.16 390.454C238.483 374.496 232.813 359.005 229.999 342.872C229.765 341.531 229.528 340.131 228.718 339.037C227.908 337.943 226.327 337.286 225.146 337.962C224.335 338.426 223.92 339.395 223.872 340.329C223.825 341.262 224.086 342.181 224.339 343.08C227.013 352.571 229.089 362.23 230.552 371.981C232.612 372.514 233.934 374.493 234.865 376.406C237.979 382.807 238.889 390.256 237.405 397.218C237.172 398.318 236.919 399.593 237.633 400.461Z" fill="#A6BEBD"/>
<path d="M227.464 373.26C226.063 374.993 225.028 377.02 224.445 379.172C224.257 376.85 225.473 374.47 227.464 373.26Z" fill="#A6BEBD"/>
<path d="M146.291 218.018C145.576 215.91 144.343 210.484 142.36 209.473C139.889 208.212 137 208.073 134.284 207.919C131.403 207.756 128.463 207.383 125.612 208.02C123.468 208.5 121.758 209.44 120.314 211.096C118.776 212.86 117.918 214.226 118.007 216.565C118.096 218.904 121.951 222.978 124.29 223.067C123.599 223.396 123.4 224.342 123.659 225.063C123.918 225.783 124.506 226.327 125.073 226.841C126.335 227.984 127.598 229.127 128.86 230.269C129.786 231.107 130.777 231.98 132.004 232.218C133.567 232.522 135.123 231.728 136.446 230.842C138.815 229.254 141.475 228.138 143.215 225.879C145.299 223.174 147.388 221.251 146.291 218.018Z" fill="#41408F"/>
</svg>
