<svg width="292" height="441" viewBox="0 0 292 441" fill="none" xmlns="http://www.w3.org/2000/svg">
<path d="M81.7069 430.604C78.7509 427.082 73.8239 425.666 69.2399 426.04C64.6569 426.414 60.9939 428.461 56.9779 430.702C53.4809 432.653 52.2779 435.829 48.0909 437.282L44.5869 438.307C45.0239 438.506 46.8189 439.441 47.2959 439.506C56.7839 440.801 66.4129 440.345 75.9779 439.886C78.6089 439.76 81.6949 439.368 82.9809 437.069C84.1239 435.029 83.2099 432.395 81.7069 430.604Z" fill="#172F35"/>
<path d="M261.327 69.3745C267.382 43.1689 251.046 17.017 224.84 10.9625C198.635 4.90802 172.483 21.2437 166.428 47.4493C160.374 73.6549 176.71 99.8068 202.915 105.861C229.121 111.916 255.273 95.5801 261.327 69.3745Z" fill="#F46B29"/>
<path d="M256.87 68.7885C262.612 45.0305 248.006 21.1163 224.248 15.3748C200.49 9.63322 176.576 24.2385 170.834 47.9966C165.093 71.7547 179.698 95.6688 203.456 101.41C227.214 107.152 251.129 92.5466 256.87 68.7885Z" fill="#F8F4D9"/>
<path d="M255.613 73.0945C256.2 71.4285 256.687 69.7175 257.074 67.9675H252.745V37.2315C251.292 34.5675 249.567 32.0755 247.618 29.7795V67.9675H186.863V48.4845H239.671V22.4475C238.041 21.2745 236.33 20.2085 234.544 19.2625V43.3575H199.937V16.3855C198.178 16.9685 196.464 17.6505 194.81 18.4405V43.3575H181.736V59.7635H169.644C169.697 61.4985 169.841 63.2105 170.089 64.8905H181.737V88.8105C183.323 90.4845 185.035 92.0355 186.864 93.4455V73.0945H255.613Z" fill="#FFC088"/>
<path d="M232.94 73.7695L213.984 53.7075L195.029 73.7695H200.822V93.3565H227.147V73.7695H232.94Z" fill="#0C4E5F"/>
<path d="M222.854 31.6635C222.854 36.6565 213.814 45.3225 213.814 45.3225C213.814 45.3225 204.774 36.6555 204.774 31.6635C204.774 26.6705 208.821 22.6235 213.814 22.6235C218.806 22.6235 222.854 26.6705 222.854 31.6635Z" fill="#F46B29"/>
<path d="M213.865 35.5816C216.225 35.5816 218.137 33.6686 218.137 31.3096C218.137 28.9496 216.224 27.0366 213.865 27.0366C211.505 27.0366 209.592 28.9496 209.592 31.3096C209.592 33.6686 211.505 35.5816 213.865 35.5816Z" fill="#FFC088"/>
<path d="M96.8717 120.674C97.9617 119.936 99.0577 118.82 98.8807 117.515C98.6577 115.876 96.6867 115.202 95.0557 114.931C83.9737 113.087 72.5847 113.837 61.5367 115.877C50.4897 117.918 39.7227 121.229 28.9857 124.533C27.1397 125.101 24.9467 126.083 24.8187 128.01C24.7417 129.16 25.5197 130.235 26.5077 130.828C27.4957 131.421 28.6647 131.621 29.8077 131.769C36.6577 132.661 43.6107 132.138 50.4727 131.345C63.0067 129.896 75.4377 127.548 87.6367 124.327C90.8527 123.477 94.1157 122.539 96.8717 120.674Z" fill="#172F35"/>
<path d="M203.882 177.228C203.32 168.06 202.124 158.799 203.663 149.744C197.975 149.122 192.287 148.5 186.6 147.878C185.338 153.873 183.832 159.816 182.093 165.69C181.673 164.829 181.264 163.963 180.884 163.081C178.562 157.693 177.092 151.978 174.994 146.499C172.895 141.02 170.059 135.644 165.593 131.838C163.953 130.44 161.821 129.222 159.738 129.773C158.41 130.124 157.364 131.138 156.497 132.204C154.06 135.199 152.556 138.849 151.466 142.553C149.723 148.477 148.968 154.831 150.401 160.837C153.169 172.437 163.325 180.603 169.345 190.898C170.99 193.711 172.636 195.8 174.183 198.667C176.917 203.965 176.635 205.022 178.114 207.383C180.931 211.879 187.8 213.134 192.982 211.997C197.705 210.961 198.234 208.605 200.323 204.245C204.291 195.961 204.445 186.396 203.882 177.228Z" fill="#A6BEBD"/>
<path d="M190.739 152.155C190.819 151.883 190.663 151.599 190.39 151.519C190.121 151.437 189.834 151.596 189.755 151.867C185.763 165.542 183.482 179.699 182.977 193.947C182.869 196.995 182.855 200.215 183.958 203.144C184.088 203.489 184.233 203.833 184.38 204.176C184.844 205.266 185.281 206.295 185.213 207.363C185.166 208.097 184.653 208.88 183.994 209.224C183.814 209.319 183.569 209.403 183.314 209.384C183.604 208.732 183.866 208.016 183.895 207.242C183.93 206.257 183.489 205.062 182.425 204.61C182.079 204.463 181.718 204.422 181.401 204.386C181.215 204.364 181.028 204.345 180.848 204.299C179.368 203.923 178.856 201.924 178.494 200.08C177.049 192.73 173.278 186.223 169.631 179.932L166.559 174.631C166.529 175.062 166.478 175.438 166.388 175.956C166.371 176.054 166.33 176.131 166.287 176.206L168.744 180.446C172.349 186.665 176.076 193.096 177.489 200.279C177.815 201.942 178.363 204.726 180.596 205.293C180.82 205.35 181.053 205.379 181.285 205.405C181.557 205.436 181.815 205.466 182.025 205.555C182.638 205.814 182.892 206.592 182.87 207.205C182.842 207.98 182.489 208.735 182.15 209.466C182.04 209.703 182.125 209.986 182.349 210.121C182.674 210.317 183.026 210.415 183.39 210.415C183.744 210.415 184.111 210.321 184.469 210.134C185.44 209.627 186.167 208.514 186.236 207.429C186.319 206.118 185.813 204.927 185.324 203.775C185.183 203.444 185.043 203.114 184.917 202.782C183.881 200.031 183.897 196.927 184.002 193.983C184.504 179.821 186.771 165.748 190.739 152.155Z" fill="#E8E8E8"/>
<path d="M162.469 187.626C165.252 173.14 166.384 158.31 165.388 143.593C167.481 149.417 169.591 155.317 170.164 161.479C171.028 170.746 168.214 180.305 162.469 187.626Z" fill="#172F35"/>
<path d="M187.701 154.639C189.303 155.732 191.208 156.374 193.145 156.473C195.543 156.595 197.926 155.897 200.079 154.835C201.375 154.196 202.696 153.312 203.139 151.937C203.442 150.994 203.279 149.972 203.113 148.995C202.855 147.48 202.598 145.966 202.34 144.451C202.253 143.938 202.154 143.399 201.823 142.997C201.377 142.455 200.624 142.295 199.929 142.198C197.113 141.805 194.231 141.89 191.443 142.45C189.674 142.805 187.75 143.508 186.975 145.138C186.618 145.889 186.558 146.742 186.504 147.572C186.416 148.918 186.328 150.265 186.24 151.612C186.207 152.111 186.177 152.625 186.337 153.099C186.562 153.759 187.124 154.245 187.701 154.639Z" fill="#172F35"/>
<path d="M193.414 125.552C193.674 125.661 193.97 125.568 194.236 125.474C195.988 124.856 197.741 124.237 199.493 123.618C197.48 120.347 195.077 117.316 192.351 114.61C192.539 117.889 192.726 121.168 192.914 124.447C192.938 124.874 193.02 125.387 193.414 125.552Z" fill="#FFC088"/>
<path d="M191.654 138.834H176.544C175.652 138.834 174.929 138.111 174.929 137.219V106.806C174.929 105.914 175.652 105.191 176.544 105.191H191.653C192.545 105.191 193.268 105.914 193.268 106.806V137.219C193.268 138.111 192.545 138.834 191.654 138.834Z" fill="#A6BEBD"/>
<path d="M176.613 136.631C177.035 137.436 178.11 137.576 179.019 137.592C182.503 137.651 185.981 137.339 189.451 137.027C189.832 136.993 190.237 136.949 190.534 136.709C190.865 136.442 190.982 135.997 191.076 135.582C192.422 129.623 192.76 123.437 192.07 117.366C187.439 116.921 182.807 116.475 178.176 116.03C177.578 115.973 176.897 115.942 176.464 116.359C176.052 116.757 176.036 117.401 176.047 117.974C176.166 123.801 176.286 129.628 176.405 135.454C176.414 135.856 176.426 136.275 176.613 136.631Z" fill="#172F35"/>
<path d="M200.915 142.232C200.868 137.525 200.788 129.516 200.744 125.153C200.721 122.895 198.978 121.868 197.009 121.357C195.254 120.901 176.528 117.033 176.534 116.995C176.371 117.949 176.754 118.931 177.348 119.696C177.942 120.461 178.732 121.044 179.512 121.617C178.631 122.249 177.741 122.89 177.045 123.721C176.35 124.552 175.859 125.608 175.923 126.69C175.987 127.772 176.701 128.848 177.751 129.119C177.109 129.95 176.441 130.846 176.358 131.893C176.275 132.94 177.065 134.123 178.112 134.035C177.727 135.293 177.524 136.608 177.512 137.924C180.06 139.06 181.977 141.511 182.466 144.258C183.111 144.249 183.685 143.79 183.993 143.223C184.016 143.181 184.029 143.135 184.05 143.092C185.628 144.549 187.331 145.863 188.571 147.64C192.725 148.266 197.085 147.811 200.881 146.068C200.934 144.789 200.928 143.501 200.915 142.232Z" fill="#FFC088"/>
<path d="M9.97412 134.491C3.47112 141.576 1.10512 151.548 0.507124 161.146C-0.364876 175.136 1.99412 189.133 5.18112 202.783C7.52512 212.823 10.3561 222.849 15.1831 231.96C20.0101 241.071 26.9911 249.285 36.0891 254.136C49.9241 261.513 66.7321 260.298 82.0431 256.922C97.3541 253.545 112.418 248.186 128.093 247.85C133.401 247.736 139.639 247.789 142.795 243.519C144.945 240.61 144.821 236.663 144.585 233.053C143.75 220.235 142.692 207.432 141.414 194.651C140.158 182.096 138.672 169.478 134.963 157.418C131.253 145.358 125.172 133.78 115.889 125.234C111.348 121.054 105.999 117.611 100.032 116.033C93.8111 114.388 87.2471 114.834 80.8401 115.437C67.0071 116.74 53.2381 118.724 39.5991 121.38C28.8101 123.482 17.4071 126.393 9.97412 134.491Z" fill="#F46B29"/>
<path d="M1.48346 84.7787L4.46346 121.135C4.85046 125.853 9.06347 129.268 13.6745 128.6L101.936 115.81C106.183 115.194 109.221 111.318 108.862 106.972L106.082 73.3697C105.7 68.7527 101.646 65.3657 97.1165 65.8797L8.65447 75.9157C4.29747 76.4097 1.11946 80.3387 1.48346 84.7787Z" fill="#172F35"/>
<path d="M7.19542 85.9028L10.0764 120.48C10.4504 124.968 14.5244 128.215 18.9824 127.58L104.317 115.416C108.423 114.831 111.361 111.144 111.013 107.01L108.325 75.0518C107.956 70.6608 104.036 67.4398 99.6564 67.9278L14.1284 77.4728C9.91642 77.9428 6.84342 81.6788 7.19542 85.9028Z" fill="#A6BEBD"/>
<path d="M102.035 127.473C82.2887 128.623 62.6687 131.919 43.6297 137.282C42.3987 137.629 41.9797 139.19 42.8827 140.096C44.2627 141.481 45.5657 143.285 46.0157 143.926C57.6177 160.443 57.3417 182.503 57.9417 201.801C58.4357 217.674 57.8697 233.555 57.2907 249.417C57.2147 251.506 57.2707 253.947 58.9447 255.198C60.0907 256.054 61.6427 256.051 63.0727 256.006C90.4347 255.134 117.722 251.956 144.552 246.518C145.956 209.604 142.795 176.872 131.293 149.444C129.758 145.784 119.042 131.68 115.668 129.59C111.693 127.127 106.703 127.201 102.035 127.473Z" fill="#172F35"/>
<path d="M43.6911 152.435C42.0821 148.309 39.4771 143.689 36.7461 140.203C34.0151 136.717 30.2791 133.861 25.9511 132.926C18.4171 131.299 10.4981 136.016 6.70508 142.725C11.4711 138.582 18.5571 137.707 24.5621 139.661C30.5681 141.615 35.5291 146.085 39.0271 151.344C42.5251 156.602 44.6851 162.633 46.4201 168.705C54.3301 196.379 53.9911 225.726 51.6951 254.416C56.0461 220.036 56.2821 184.72 43.6911 152.435Z" fill="#FFC088"/>
<path d="M162.424 228.94H87.1738V244.94H162.424V228.94Z" fill="#172F35"/>
<path d="M165.239 132.238C164.862 130.85 164.408 129.417 163.404 128.386C161.318 126.244 157.868 126.649 154.898 126.304C149.398 125.665 144.664 121.925 141.525 117.34C130.687 122.287 118.053 123.242 108.343 115.428C107.325 116.379 106.256 117.274 105.146 118.104C99.4324 122.38 92.7064 125.122 85.8604 127.14C83.4804 127.842 80.9444 128.538 79.2454 130.347C76.2624 133.523 77.0904 138.558 77.9734 142.825C83.6614 170.308 83.4194 198.998 77.3194 226.389C76.3144 230.9 79.3134 235.315 83.8584 236.15C111.212 241.177 139.693 240.033 166.542 232.766C158.263 200.087 174.084 164.77 165.239 132.238Z" fill="#A6BEBD"/>
<path d="M125.966 154.172C119.977 156.093 113.602 156.806 107.337 156.254C107.331 153.827 107.325 151.401 107.319 148.974C113.505 148.46 119.667 147.662 125.78 146.581C125.841 149.112 125.904 151.642 125.966 154.172Z" fill="white"/>
<path d="M125.812 122.34C130.552 127.405 130.683 135.106 130.569 142.042C130.017 175.621 130.229 209.212 131.204 242.782C134.2 242.526 137.196 242.27 140.192 242.014C139.481 210.476 138.77 178.938 138.059 147.4C137.866 138.828 137.657 130.15 135.349 121.892C132.17 122.041 128.991 122.19 125.812 122.34Z" fill="#172F35"/>
<path d="M136.106 201.139C135.279 183.847 134.423 165.965 135.764 148.244C136.497 138.539 134.6 130.916 132.442 123.025C132.107 123.101 131.77 123.163 131.433 123.223C133.575 131.052 135.464 138.605 134.741 148.167C133.397 165.951 134.254 183.865 135.082 201.188C135.349 206.759 135.625 212.52 135.825 218.217C136.077 225.397 136.338 232.821 135.307 240.031C135.267 240.311 135.462 240.571 135.743 240.611C135.767 240.614 135.792 240.616 135.816 240.616C136.066 240.616 136.286 240.432 136.323 240.175C137.365 232.876 137.104 225.406 136.851 218.181C136.648 212.477 136.373 206.713 136.106 201.139Z" fill="#A6BEBD"/>
<path d="M105.384 117.797C110.965 122.147 117.88 124.761 124.944 125.188C132.007 125.616 139.187 123.856 145.252 120.21C143.785 118.959 142.647 117.324 141.984 115.513C136.796 117.794 131.13 119.269 125.482 118.802C119.834 118.335 114.206 115.738 110.899 111.135C109.688 113.788 107.764 116.112 105.384 117.797Z" fill="#172F35"/>
<path d="M130.577 322.448C128.755 322.448 121.794 322.448 119.972 322.448C106.531 322.448 95.6338 345.028 95.6338 372.882C95.6338 400.736 106.53 423.314 119.972 423.314C121.794 423.314 128.755 423.314 130.577 423.314C144.018 423.314 154.915 400.735 154.915 372.882C154.915 345.028 144.018 322.448 130.577 322.448Z" fill="#172F35"/>
<path d="M114.951 408.421C121.222 408.421 126.306 392.509 126.306 372.882C126.306 353.254 121.222 337.343 114.951 337.343C108.68 337.343 103.596 353.254 103.596 372.882C103.596 392.509 108.68 408.421 114.951 408.421Z" fill="#A6BEBD"/>
<path d="M112.388 395.582C117.64 395.582 121.897 382.257 121.897 365.821C121.897 349.384 117.64 336.06 112.388 336.06C107.136 336.06 102.879 349.384 102.879 365.821C102.879 382.257 107.136 395.582 112.388 395.582Z" fill="#172F35"/>
<path d="M199.837 277.005C189.818 264.365 174.833 255.773 158.864 253.512C142.894 251.25 126.113 255.344 112.978 264.705C108.257 268.069 103.889 272.236 101.581 277.553C98.1909 285.36 99.7039 294.319 101.275 302.684C105.427 324.791 109.578 346.898 113.73 369.005C114.213 371.575 114.736 374.242 116.289 376.346C118.327 379.108 121.765 380.411 125.064 381.358C149.603 388.402 175.79 383.328 200.803 378.222C205.851 377.192 211.412 375.831 214.293 371.56C215.869 369.222 216.38 366.345 216.776 363.553C218.776 349.445 218.785 335.056 216.801 320.945C214.59 305.211 209.707 289.456 199.837 277.005Z" fill="#172F35"/>
<path d="M116.638 302.895C113.037 293.914 107.822 282.647 97.8161 279.888C89.3781 277.562 80.1921 281.981 74.6031 288.718C69.0141 295.455 66.3611 304.111 64.3171 312.622C58.8421 335.425 60.0051 359.883 67.8261 381.991C88.0631 384.237 104.398 385.466 125.633 384.581C126.917 384.528 127.014 361.392 126.971 359.162C126.806 350.566 126.001 341.984 124.572 333.506C122.885 323.505 120.701 313.106 116.883 303.508C116.802 303.306 116.721 303.101 116.638 302.895Z" fill="#F46B29"/>
<path d="M116.386 308.927C120.864 320.072 120.752 332.639 118.224 344.381C115.696 356.123 110.877 367.227 106.088 378.242C105.285 380.089 103.795 382.296 101.851 381.771C100.404 381.38 99.8137 379.688 99.4477 378.235C96.7017 367.353 93.9457 356.413 92.9727 345.232C91.9997 334.051 92.8807 322.518 97.1917 312.155C98.5907 308.792 100.457 305.444 103.486 303.422C106.515 301.4 110.955 301.116 113.598 303.623L116.386 308.927Z" fill="#172F35"/>
<path d="M138.593 379.59C130.09 378.649 120.761 377.297 115.116 370.869C114.019 374.384 115.568 378.313 118.159 380.929C120.749 383.545 124.224 385.076 127.682 386.342C152.756 395.521 180.472 393.621 206.837 389.398C208.133 385.612 203.853 390.567 205.148 386.781C181.91 393.596 162.663 382.252 138.593 379.59Z" fill="#F46B29"/>
<path d="M45.6133 389.215C58.5773 398.495 75.2363 402.447 90.4743 397.761C76.3743 391.115 61.0943 387.388 45.6133 389.215Z" fill="#172F35"/>
<path d="M81.3917 410.875C82.0907 403.483 82.7897 396.09 83.4897 388.698C74.1927 389.122 64.8507 388.547 55.6767 386.985C55.1397 393.812 54.1797 400.606 52.8037 407.315C62.3327 408.502 71.8617 409.688 81.3917 410.875Z" fill="white"/>
<path d="M242.878 302.821C237.115 289.141 233.778 274.467 231.911 259.714C229.703 242.271 229.481 224.646 229.261 207.065C215.871 205.639 202.214 206.76 189.235 210.35C198.107 243.22 208.835 277.318 228.113 307.014C233.073 305.87 237.991 304.357 242.878 302.821Z" fill="#FFC088"/>
<path d="M71.5179 399.643C74.6439 400.16 77.7009 401.585 79.7329 404.017C83.2309 408.204 83.0329 414.278 82.3429 419.69C81.6529 425.102 80.7159 430.906 83.1799 435.773C70.6899 435.728 58.1979 436.295 45.7629 437.471C44.4729 428.66 45.0019 419.241 49.4059 411.501C53.8089 403.76 62.7319 398.19 71.5179 399.643Z" fill="#0C4E5F"/>
<path d="M68.1957 398.641C66.6447 398.805 64.9617 399.285 64.1277 400.603C63.6807 401.309 63.5427 402.162 63.4407 402.991C62.7217 408.845 63.3577 414.861 65.2847 420.436C65.5787 421.286 65.9757 422.208 66.7967 422.576C67.3357 422.818 67.9537 422.769 68.5437 422.733C72.4877 422.497 76.4807 423.117 80.1677 424.538C79.7527 418.715 79.9567 412.848 80.7737 407.068C80.9947 405.506 81.2307 403.792 80.3977 402.453C79.9027 401.657 79.0927 401.114 78.2707 400.664C75.2197 398.993 71.6547 398.277 68.1957 398.641Z" fill="#F46B29"/>
<path d="M51.127 413.242C51.972 412.222 53.154 411.239 54.464 411.435C55.556 411.599 56.362 412.543 56.88 413.517C57.934 415.496 58.215 417.779 58.753 419.956C59.291 422.133 60.207 424.383 62.075 425.623C58.652 428.417 54.569 430.398 50.256 431.357C49.413 431.545 48.539 431.694 47.69 431.537C46.841 431.381 46.012 430.862 45.702 430.056C45.445 429.388 45.573 428.642 45.705 427.939C46.675 422.747 47.756 417.309 51.127 413.242Z" fill="#A6BEBD"/>
<path d="M84.146 430.741C83.965 426.779 83 422.491 79.897 420.02C76.239 417.107 70.806 417.742 66.622 419.829C63.422 421.425 60.641 423.731 57.646 425.684C54.651 427.637 51.277 429.279 47.701 429.278C46.565 429.278 45.312 429.143 44.405 429.827C43.379 430.601 43.255 432.067 43.219 433.352C43.18 434.788 43.184 436.36 44.088 437.476C45.052 438.665 46.725 438.952 48.248 439.116C57.976 440.161 67.796 439.523 77.559 438.883C78.988 438.789 80.488 438.673 81.689 437.893C83.906 436.454 84.267 433.382 84.146 430.741Z" fill="#FFC088"/>
<path d="M150.606 73.0546C153.753 83.9726 151.688 96.2716 145.147 105.564C143.775 107.513 142.15 109.388 139.991 110.398C135.999 112.267 131.32 110.77 127.178 109.259C122.516 107.558 117.675 105.742 114.272 102.131C111.065 98.7276 109.501 94.0796 108.727 89.4686C107.803 83.9636 107.959 77.9976 110.826 73.2066C114.397 67.2386 121.599 64.2106 128.545 63.8666C135.491 63.5226 142.327 65.4486 149.015 67.3566L150.606 73.0546Z" fill="#172F35"/>
<path d="M142.601 118.8C142.078 118.142 141.585 117.462 141.133 116.762C138.003 111.915 136.371 106.279 134.78 100.733C128.966 100.82 123.152 100.908 117.338 100.995C116.115 105.655 113.589 109.869 110.321 113.433C119.248 120.341 131.705 121.052 142.601 118.8Z" fill="#FFC088"/>
<path d="M148.886 85.6657C148.847 85.4597 148.805 85.2537 148.76 85.0497C148.423 83.5167 147.725 81.6977 148.506 80.1757C149.724 77.8047 149.531 77.2277 147.95 72.3217L146.243 68.5047C142.272 64.1997 136.261 62.1577 130.405 62.0947C124.549 62.0317 118.807 63.7697 113.423 66.0747C111.629 66.8427 109.686 67.8667 109.086 69.7237C108.745 70.7787 108.909 71.9227 109.087 73.0167C109.793 77.3677 110.653 81.6927 111.513 86.0157C112.206 89.4997 112.917 93.0377 114.562 96.1857C116.649 100.18 120.087 103.269 123.452 106.266C124.822 107.486 126.22 108.725 127.894 109.474C131.089 110.905 134.941 110.319 137.959 108.545C140.977 106.771 143.248 103.942 144.995 100.908C146.866 97.6587 148.212 94.1077 148.964 90.4337C149.287 88.8647 149.182 87.2367 148.886 85.6657Z" fill="#FFC088"/>
<path d="M123.434 81.5306C125.594 79.3156 128.356 78.2876 131.305 78.5276C131.415 78.0736 131.637 77.6466 131.959 77.3076C128.556 76.8936 125.028 78.3826 122.785 80.9756C123.039 81.1106 123.25 81.3086 123.434 81.5306Z" fill="#0C4E5F"/>
<path d="M128.373 86.2466C128.065 86.2776 127.734 86.2946 127.465 86.1396C127.218 85.9976 127.068 85.7326 126.972 85.4646C126.784 84.9376 126.767 84.3506 126.926 83.8136C127.082 83.2886 127.416 82.8036 127.895 82.5386C128.374 82.2736 129.001 82.2566 129.457 82.5606C130.017 82.9346 130.204 83.6646 130.281 84.3336C130.317 84.6456 130.337 84.9706 130.225 85.2636C130.092 85.6076 129.787 85.8636 129.449 86.0116C129.111 86.1576 128.74 86.2096 128.373 86.2466Z" fill="#0C4E5F"/>
<path d="M129.597 84.0456C129.418 83.7316 129.084 83.4486 128.73 83.5196C128.353 83.5946 128.161 84.0186 128.101 84.3976C128.059 84.6666 128.053 84.9476 128.141 85.2056C128.228 85.4636 128.419 85.6956 128.676 85.7846C129.078 85.9236 129.546 85.6586 129.718 85.2696C129.889 84.8806 129.808 84.4146 129.597 84.0456Z" fill="#172F35"/>
<path d="M127.969 84.3536C128.099 84.3626 128.224 84.2886 128.312 84.1926C128.484 84.0046 128.525 83.6716 128.328 83.5096C128.21 83.4126 128.032 83.4026 127.897 83.4726C127.761 83.5426 127.668 83.6826 127.639 83.8336C127.596 84.0616 127.738 84.3386 127.969 84.3536Z" fill="white"/>
<path d="M144.693 78.4566C145.872 78.4566 146.903 79.1556 147.417 80.1496C147.423 80.1596 147.431 80.1696 147.437 80.1796C147.656 80.0986 147.804 79.8376 147.78 79.5916C147.751 79.2956 147.554 79.0446 147.352 78.8266C146.938 78.3776 146.46 77.9776 145.907 77.7186C145.354 77.4596 144.719 77.3496 144.123 77.4856C143.73 77.5746 143.341 77.7906 143.162 78.1516C143.049 78.3796 143.06 78.6616 143.172 78.8846C143.625 78.6196 144.141 78.4566 144.693 78.4566Z" fill="#0C4E5F"/>
<path d="M144.387 83.8428C144.345 83.4578 144.493 83.0737 144.707 82.7517C145.011 82.2927 145.54 81.9028 146.077 82.0238C146.439 82.1058 146.721 82.4077 146.87 82.7487C147.019 83.0887 147.056 83.4668 147.084 83.8368C147.117 84.2828 147.11 84.8027 146.762 85.0837C146.466 85.3227 146.034 85.2868 145.673 85.1708C145.051 84.9698 144.458 84.4898 144.387 83.8428Z" fill="#0C4E5F"/>
<path d="M146.346 83.1899C146.2 83.0179 145.974 82.8699 145.761 82.9439C145.597 83.0009 145.502 83.1699 145.436 83.3309C145.335 83.5779 145.266 83.8469 145.308 84.1099C145.35 84.3729 145.521 84.6279 145.775 84.7089C146.122 84.8189 146.513 84.5529 146.616 84.2039C146.718 83.8539 146.582 83.4679 146.346 83.1899Z" fill="#172F35"/>
<path d="M145.47 83.4247C145.569 83.4317 145.664 83.3757 145.731 83.3017C145.861 83.1587 145.893 82.9057 145.743 82.7827C145.653 82.7087 145.518 82.7017 145.415 82.7547C145.312 82.8077 145.241 82.9147 145.219 83.0287C145.186 83.2027 145.294 83.4127 145.47 83.4247Z" fill="white"/>
<path d="M146.273 85.4847C143.055 83.6297 137.211 84.4226 133.733 85.0146C130.255 85.6066 126.081 87.6897 122.942 89.3007C122.066 89.7507 121.143 90.2927 120.768 91.2027C120.551 91.7297 120.548 92.3167 120.553 92.8877C120.576 95.8057 120.71 98.7227 120.955 101.631C121.034 102.578 121.131 103.546 121.528 104.409C121.935 105.295 122.632 106.013 123.365 106.657C124.488 107.644 125.744 108.51 127.153 109.011C129.423 109.819 135.57 111.142 137.814 110.264C140.058 109.386 139.849 109.296 141.488 107.53C144.736 104.03 147.268 100.441 149.008 95.9937C149.777 94.0287 150.642 90.5107 149.862 89.4137C149.274 88.5877 147.153 85.9917 146.273 85.4847Z" fill="#172F35"/>
<path d="M136.123 85.7626C131.135 86.1396 126.305 88.2056 122.539 91.4936C123.023 96.2916 123.139 100.565 123.767 105.363C124.344 106.42 125.565 108.105 126.395 108.727C129.007 110.686 131.595 111.139 134.823 111.632C139.909 112.409 143.317 109.122 146.102 104.796C148.887 100.47 150.092 94.2746 150.631 89.1586C146.085 85.5056 141.939 85.3226 136.123 85.7626Z" fill="white"/>
<path d="M123.283 92.9775C119.305 90.8525 116.663 89.3645 114.109 87.9265L112.529 87.0385L113.031 86.1445L114.612 87.0335C117.162 88.4685 119.799 89.9535 123.768 92.0735L123.283 92.9775Z" fill="white"/>
<path d="M114.89 97.7551L114.44 98.6775L124.438 103.548L124.888 102.626L114.89 97.7551Z" fill="white"/>
<path d="M119.187 79.5887C123.929 75.7857 139.567 76.6837 149.222 75.9567C149.025 75.0037 148.556 74.2017 147.95 72.3217L146.243 68.5047C142.272 64.1997 136.261 62.1577 130.405 62.0947C124.549 62.0317 118.807 63.7697 113.423 66.0747C111.629 66.8427 109.686 67.8667 109.086 69.7237C108.745 70.7787 108.909 71.9227 109.087 73.0167C109.793 77.3677 110.653 81.6927 111.513 86.0157C112.206 89.4997 112.917 93.0377 114.562 96.1857C115.198 97.4037 115.971 98.5307 116.819 99.6037C115.528 91.7477 114.439 84.3367 119.187 79.5887Z" fill="#172F35"/>
<path d="M118.572 49.7246C112.99 51.2456 107.663 54.1706 104.031 58.6746C100.316 63.2816 98.6043 69.2186 97.9583 75.1026C97.3723 80.4436 97.6103 85.9426 99.3153 91.0376C101.135 96.4756 104.726 101.434 109.793 104.175C110.652 104.64 111.622 104.932 112.591 104.803C115.28 104.446 115.814 101.693 115.91 99.3966C116.127 94.2286 115.696 88.5576 114.527 83.2286C113.682 79.3766 116.492 75.6726 120.431 75.4876C131.098 74.9876 141.688 74.8806 152.406 74.1166C152.902 74.0816 153.437 74.0296 153.806 73.6966C154.245 73.3006 154.302 72.6416 154.304 72.0506C154.33 63.9246 149.257 56.2156 142.2 52.1846C135.144 48.1536 126.412 47.5876 118.572 49.7246Z" fill="#F46B29"/>
<path d="M111.76 105.016C111.093 105.016 110.481 104.795 110.02 104.383C109.808 104.195 109.79 103.871 109.978 103.66C110.167 103.448 110.491 103.43 110.702 103.618C111.087 103.96 111.559 104.011 111.894 103.986C112.543 103.943 113.214 103.608 113.644 103.111C114.456 102.17 114.687 100.838 114.816 99.5386C115.186 95.7806 114.893 92.0206 113.943 88.3656C113.843 87.9796 113.735 87.5896 113.628 87.1976C112.889 84.5166 112.126 81.7446 113.219 79.1586C114.041 77.2146 115.913 75.6356 118.356 74.8246C120.495 74.1146 122.74 74.0326 124.912 73.9526L148.328 73.0906C150.325 73.0166 152.588 72.9336 154.461 72.0006C154.712 71.8756 155.023 71.9776 155.148 72.2316C155.274 72.4846 155.171 72.7926 154.918 72.9186C152.846 73.9506 150.466 74.0376 148.366 74.1146L124.95 74.9766C122.85 75.0546 120.679 75.1336 118.679 75.7976C116.517 76.5146 114.871 77.8846 114.164 79.5576C113.21 81.8156 113.925 84.4126 114.617 86.9256C114.726 87.3226 114.835 87.7166 114.937 88.1066C115.918 91.8796 116.221 95.7606 115.838 99.6396C115.7 101.036 115.423 102.62 114.422 103.781C113.81 104.49 112.89 104.949 111.963 105.01C111.893 105.013 111.827 105.016 111.76 105.016Z" fill="#A6BEBD"/>
<path d="M132.396 50.4985C123.072 48.4575 112.75 51.9325 106.558 59.1965C100.366 66.4605 98.5711 77.2025 102.063 86.0855C100.449 78.5175 102.024 70.3215 106.328 63.8905C110.631 57.4595 117.607 52.8775 125.219 51.4815L132.396 50.4985Z" fill="#FFC088"/>
<path d="M89.8569 135.798C91.0999 135.007 92.8109 135.321 93.9929 136.2C95.1759 137.079 95.9269 138.414 96.5479 139.75C99.8689 146.898 100.36 155.1 99.3029 162.91C98.2459 170.72 95.7219 178.246 93.2109 185.717C102.698 191.538 112.654 196.595 122.949 200.824C106.429 204.388 88.7089 202.107 73.6299 194.476C83.3059 178.229 84.9309 158.644 87.8929 139.968C88.1419 138.4 88.5189 136.649 89.8569 135.798Z" fill="#172F35"/>
<path d="M101.719 221.485C106.084 222.582 110.829 223.495 114.97 221.734C118.34 220.302 120.764 217.318 122.94 214.374C125.164 211.366 127.368 207.464 125.731 204.1C124.254 201.065 120.455 200.165 117.165 199.413C106.934 197.077 97.1319 192.879 88.3819 187.086C89.7749 180.091 92.6929 173.511 95.0929 166.794C97.4929 160.078 99.4069 152.977 98.6639 145.883C97.9209 138.789 94.0539 131.668 87.5559 128.727C85.4089 127.755 82.9359 127.271 80.6829 127.961C77.4999 128.936 75.4489 131.962 73.8159 134.863C63.7969 152.67 65.3909 171.317 59.5109 193.816C58.6449 197.128 59.5479 200.845 61.2879 203.793C63.2309 207.086 66.8599 208.947 70.3429 210.526C80.4459 215.108 90.9609 218.78 101.719 221.485Z" fill="#A6BEBD"/>
<path d="M113.88 214.596C113.54 216.638 113.677 218.958 115.107 220.454C116.066 221.457 117.445 221.92 118.765 222.348C119.941 222.729 121.173 223.115 122.393 222.916C123.662 222.71 124.747 221.895 125.675 221.005C128.023 218.752 129.725 215.833 130.529 212.68C130.982 210.903 131.13 208.929 130.26 207.315C129.43 205.777 127.774 204.81 126.062 204.462C123.171 203.875 120.075 204.915 117.884 206.89C115.693 208.865 114.364 211.687 113.88 214.596Z" fill="#172F35"/>
<path d="M113.418 221.648C113.232 221.648 113.052 221.547 112.962 221.37C112.411 220.302 111.73 220.357 110.359 220.571C109.395 220.722 108.301 220.893 107.104 220.482C102.634 218.95 97.9277 217.889 93.3767 216.864C88.8967 215.854 84.2647 214.81 79.8317 213.314C71.4427 210.483 63.1417 206.591 59.2387 197.367C59.1287 197.106 59.2507 196.805 59.5107 196.695C59.7707 196.584 60.0727 196.707 60.1827 196.967C63.9277 205.818 71.9967 209.588 80.1587 212.342C84.5407 213.821 89.1467 214.859 93.6007 215.863C98.1787 216.895 102.912 217.961 107.435 219.511C108.393 219.84 109.312 219.696 110.199 219.557C111.492 219.354 112.958 219.126 113.871 220.899C114.001 221.151 113.902 221.46 113.65 221.589C113.577 221.63 113.497 221.648 113.418 221.648Z" fill="#E8E8E8"/>
<path d="M62.2903 409.131C65.3213 407.531 68.6863 406.374 72.1633 406.262C75.6403 406.15 79.2383 407.167 81.7433 409.429C82.5703 410.176 83.0683 411.429 83.1383 412.586C83.1583 412.919 82.7453 413.084 82.5053 412.852C79.7453 410.198 75.9863 408.495 72.0353 408.671C67.7903 408.86 63.7193 410.655 60.5553 413.316C59.7483 412.82 59.6643 411.673 60.1283 410.88C60.5933 410.088 61.4493 409.575 62.2903 409.131Z" fill="#172F35"/>
<path d="M62.4836 412.689C65.5146 411.089 68.8796 409.932 72.3566 409.82C75.8336 409.708 79.4316 410.725 81.9366 412.987C82.7636 413.734 83.2616 414.987 83.3316 416.144C83.3516 416.477 82.9386 416.642 82.6986 416.41C79.9386 413.756 76.1796 412.053 72.2286 412.229C67.9836 412.418 63.9126 414.213 60.7496 416.874C59.9426 416.378 59.8586 415.232 60.3226 414.438C60.7856 413.646 61.6426 413.133 62.4836 412.689Z" fill="#172F35"/>
<path d="M61.1525 418.98C63.6865 416.148 67.3835 414.432 71.1745 414.154C74.9645 413.876 78.8145 415 81.9605 417.132C82.5475 417.53 83.1385 417.996 83.3975 418.657C83.6565 419.318 83.4395 420.212 82.7775 420.468C79.7825 418.281 76.1135 417.032 72.4065 416.938C68.6995 416.844 64.9715 417.905 61.8695 419.937C61.5925 420.118 61.2245 420.308 60.9565 420.113C60.6065 419.857 60.8625 419.304 61.1525 418.98Z" fill="#172F35"/>
<path d="M138.11 240.783H104.835C97.961 241.935 89.048 238.579 84.008 242.896C76.092 249.676 74.391 266.058 75.643 275.765C75.869 277.517 76.299 279.331 77.554 280.696C80.111 283.477 84.821 283.333 88.862 283.342C96.304 283.36 103.739 284.75 110.559 287.4C114.619 288.978 118.941 291.05 123.231 290.063C126.463 289.319 128.872 286.985 131.078 284.758C136.242 279.544 141.451 274.199 144.609 267.844C147.767 261.49 148.621 253.864 145.013 247.702C143.387 244.929 140.96 242.628 138.11 240.783Z" fill="#A6BEBD"/>
<path d="M131.637 252.055C129.534 249.537 126.964 246.862 123.683 246.814C121.238 246.779 119.048 248.244 117.112 249.738C103.632 260.145 93.9118 274.621 85.4298 289.389C67.5208 320.571 54.0368 354.291 45.5078 389.224C60.6708 390.931 75.7008 393.814 90.4188 397.839C101.406 359.777 112.565 321.3 132.227 286.907C136.061 280.2 140.37 272.887 139.04 265.276C138.162 260.241 134.914 255.979 131.637 252.055Z" fill="#A6BEBD"/>
<path d="M77.2354 280.216C79.1324 282.805 82.6593 283.878 85.8273 283.362C88.9953 282.845 91.8053 280.945 93.9913 278.594C96.1773 276.243 97.8154 273.448 99.4364 270.677C93.5894 276.495 85.4804 279.979 77.2354 280.216Z" fill="#172F35"/>
<path d="M50.6942 390.17C50.6502 390.17 50.6052 390.164 50.5612 390.153C50.2872 390.08 50.1252 389.799 50.1982 389.525C57.6922 361.47 69.2452 332.065 85.5172 299.63C89.6262 291.439 94.2882 283.07 102.048 278.614C102.334 278.45 102.512 278.17 102.536 277.849C102.559 277.54 102.431 277.252 102.186 277.059L100.899 276.045C100.279 275.555 99.9532 274.792 100.027 274.002C100.1 273.233 100.548 272.563 101.226 272.212C103.809 270.871 106.571 269.949 109.437 269.47C107.708 269.096 105.935 268.986 104.166 269.139C103.624 269.183 103.114 268.87 102.914 268.35C102.713 267.831 102.873 267.258 103.312 266.924C105.169 265.508 107.178 264.294 109.289 263.304L91.1572 266.759C88.2952 267.304 85.3362 267.866 82.3562 267.411C78.9432 266.891 76.4692 265.201 75.3892 262.653C75.2792 262.392 75.4012 262.091 75.6612 261.981C75.9202 261.869 76.2232 261.991 76.3332 262.252C77.5322 265.083 80.3542 266.069 82.5102 266.398C85.3182 266.826 88.1882 266.28 90.9652 265.752L117.046 260.782C117.327 260.73 117.593 260.912 117.646 261.19C117.699 261.468 117.516 261.737 117.238 261.79C112.442 262.703 107.841 264.761 103.932 267.74C103.826 267.82 103.847 267.926 103.868 267.982C103.889 268.037 103.949 268.135 104.077 268.118C105.945 267.957 107.82 268.074 109.649 268.46C110.143 268.564 110.481 268.987 110.471 269.488C110.461 269.989 110.104 270.398 109.604 270.481C106.844 270.943 104.184 271.831 101.697 273.121C101.324 273.315 101.087 273.672 101.046 274.098C101.004 274.541 101.186 274.967 101.532 275.24L102.819 276.254C103.328 276.655 103.604 277.28 103.557 277.924C103.508 278.581 103.134 279.172 102.557 279.503C95.0442 283.816 90.4712 292.038 86.4322 300.09C70.1922 332.46 58.6642 361.801 51.1872 389.788C51.1282 390.019 50.9212 390.17 50.6942 390.17Z" fill="#E8E8E8"/>
<path d="M263.305 243.786C261.002 236.345 258.516 228.593 253.022 223.07C245.66 215.67 234.466 213.811 224.038 213.327C203.576 212.378 182.601 215.389 164.334 224.657C158.048 227.846 151.989 231.88 147.872 237.601C142.645 244.863 141.05 254.1 140.455 263.028C138.389 294.061 146.619 324.741 150.117 355.646C151.16 364.86 151.494 375.12 145.68 382.344C143.89 384.568 141.418 387.263 142.687 389.82C143.621 391.702 146.057 392.148 148.147 392.353C178.702 395.352 210.383 395.454 239.086 384.557C255.302 378.401 270.86 368.078 278.513 352.512C283.862 341.631 284.908 329.035 283.566 316.985C282.224 304.934 278.621 293.267 275.035 281.684C271.125 269.052 267.215 256.419 263.305 243.786Z" fill="#F46B29"/>
<path d="M267.827 327.402C262.402 316.82 252.626 307.954 240.891 306.028C230.085 304.254 218.835 308.604 210.75 315.991C202.666 323.378 197.485 333.505 194.38 344.006C191.275 354.507 190.102 365.468 188.957 376.359C188.463 381.063 188.274 386.58 191.873 389.649C195.089 392.391 199.877 391.875 204.023 391.056C218.058 388.281 231.755 383.799 244.714 377.738C255.911 372.502 267.401 365.074 271.139 353.292C273.839 344.782 271.9 335.345 267.827 327.402Z" fill="#172F35"/>
<path d="M164.991 240.115C163.719 237.946 160.795 237.515 158.916 239.186C153.18 244.288 149.906 252.093 149.013 259.836C147.9 269.486 149.947 279.2 151.977 288.689C158.771 287.595 155.893 288.058 162.687 286.964C161.929 280.394 161.477 273.696 162.788 267.217C163.911 261.668 166.473 256.242 170.581 252.42C171.838 251.251 171.905 249.313 170.761 248.033C168.582 245.594 166.646 242.937 164.991 240.115Z" fill="white"/>
<path d="M249.932 232.688C249.818 234.179 249.55 235.658 249.134 237.094C248.805 238.232 249.12 239.461 249.993 240.261C255.097 244.936 258.979 250.94 261.127 257.521C262.138 257.836 263.211 256.981 263.528 255.971C263.845 254.961 263.615 253.87 263.383 252.837C261.833 245.948 257.583 237.497 252.528 231.763C251.651 230.77 250.033 231.366 249.932 232.688Z" fill="white"/>
<path d="M152.328 344.493C153.257 330.091 150.249 315.768 147.728 301.559C145.206 287.349 143.162 272.712 145.99 258.56C148.818 244.408 157.385 230.643 170.745 225.186C156.674 229.503 148.051 241.866 144.552 256.162C141.053 270.458 142.512 286.473 145.449 300.895C148.386 315.316 151.594 329.793 152.328 344.493Z" fill="#FFC088"/>
<path d="M229.42 219.119C229.35 215.119 229.296 211.12 229.246 207.122C214.603 205.562 199.668 206.788 185.475 210.714C186.323 213.855 187.194 217.008 188.078 220.166C191.763 239.235 210.208 312.37 210.208 312.37L228.593 307.971L204.603 223.765C212.968 223.064 221.279 221.471 229.42 219.119Z" fill="#172F35"/>
<path d="M229.42 218.036C217.402 221.509 204.977 223.177 192.601 222.504C200.872 251.528 211.203 280.965 228.113 307.014C233.073 305.87 237.991 304.357 242.878 302.821C237.115 289.141 233.778 274.467 231.911 259.714C230.162 245.898 229.663 231.968 229.42 218.036Z" fill="#FFC088"/>
<path d="M264.92 194.476C264.92 197.378 263.199 199.731 261.075 199.731C258.951 199.731 257.23 197.378 257.23 194.476C257.23 191.574 258.952 189.221 261.075 189.221C263.199 189.221 264.92 191.574 264.92 194.476Z" fill="#172F35"/>
<path d="M276.501 196.892C276.14 197.75 275.249 198.292 274.337 198.48C273.425 198.668 272.481 198.557 271.557 198.445C267.005 197.896 262.452 197.347 257.9 196.798C258.01 195.132 258.12 193.466 258.23 191.799C262.496 192.043 266.762 192.287 271.029 192.53C272.404 192.609 273.839 192.705 275.024 193.407C276.207 194.11 277.035 195.622 276.501 196.892Z" fill="#172F35"/>
<path d="M259.96 189.645C253.902 190.192 249.242 188.291 244.867 184.065C242.269 181.555 240.273 178.354 237.193 176.465C232.141 173.366 225.707 174.587 219.811 175.199C211.1 176.103 201.966 175.499 193.971 179.074C188.074 181.71 183.38 186.379 178.361 190.445C169.704 197.458 159.739 202.837 149.148 206.294C151.09 208.443 152.538 211.069 153.582 213.88C162.074 212.149 170.973 211.955 179.674 212.284C193.226 212.797 206.827 214.45 220.305 212.942C225.846 212.322 231.425 211.133 236.288 208.404C240.216 206.199 243.546 203.065 247.373 200.69C251.2 198.315 254.66 197.149 258.97 198.458C261.716 196.515 261.929 191.801 259.96 189.645Z" fill="#F46B29"/>
<path d="M180.188 195.946C180.721 195.839 181.241 195.643 181.684 195.329C183.878 193.773 183.366 190.186 185.2 188.22C181.589 190.976 177.978 193.733 174.367 196.489C176.123 195.607 178.26 196.332 180.188 195.946Z" fill="#FFC088"/>
<path d="M162.203 220.971C163.29 220.479 163.884 219.261 163.566 218.11C163.285 217.094 163.207 216.022 163.348 214.977C163.512 213.759 163.964 212.577 163.955 211.348C163.941 209.565 162.963 207.941 161.923 206.492C161.157 205.425 160.291 204.357 159.094 203.816C157.294 203.002 155.201 203.556 153.308 204.12C152.079 204.486 150.665 205.033 150.331 206.271C150.176 206.844 150.299 207.454 150.465 208.024C151.133 210.307 152.524 212.372 154.389 213.848C155.548 214.765 156.993 215.619 157.284 217.068C157.497 218.133 156.98 219.236 156.221 220.013C155.463 220.79 154.485 221.309 153.542 221.847C145.857 226.225 139.456 232.589 134.037 239.579C133.896 239.76 133.76 239.953 133.633 240.15C133.616 240.174 133.594 240.192 133.578 240.216C133.267 240.674 133.014 241.207 133.056 241.758C133.129 242.697 134.041 243.371 134.956 243.591C135.634 243.754 136.504 243.648 136.796 243.014C136.998 242.576 136.838 242.067 136.732 241.596C136.627 241.134 136.586 240.66 136.593 240.187C143.595 232.022 152.403 225.408 162.203 220.971Z" fill="white"/>
<path d="M238.942 201.3C241.166 197.754 240.919 193.231 240.194 189.109C239.669 186.119 238.845 182.96 236.57 180.95C234.472 179.097 231.535 178.579 228.75 178.303C219.947 177.431 210.979 178.246 202.477 180.69C197.193 182.209 191.638 184.764 189.306 189.743C186.854 194.978 188.402 202.757 192.673 206.653C196.944 210.549 202.787 210.279 208.567 210.413C215.32 210.569 222.649 209.508 229.095 207.492C235.901 205.363 236.872 204.6 238.942 201.3Z" fill="white"/>
<path d="M231.153 179.869C233.956 182.7 235.585 186.523 236.403 190.422C237.221 194.321 237.286 198.333 237.348 202.316C239.713 196.65 239.718 190.041 237.36 184.372C236.819 183.071 236.135 181.788 235.071 180.865C234.006 179.942 232.494 179.437 231.153 179.869Z" fill="#172F35"/>
<path d="M260.627 202.326C261.317 202.571 262.072 202.363 262.804 202.399C268.468 202.679 273.13 202.212 277.739 204.388C277.447 204.529 277.287 205.516 277.47 205.784C277.993 206.38 279.112 205.992 279.351 205.236C279.59 204.479 279.134 203.643 278.482 203.191C277.83 202.739 276.596 202.141 275.817 201.996C271.257 201.149 267.124 200.745 262.563 199.898C261.362 199.52 260.981 197.964 261.206 196.725C261.43 195.486 262.049 194.317 262.064 193.058C262.088 191.024 260.194 189.254 258.208 189.157C257.713 189.133 257.34 189.62 257.516 190.083C258.501 192.673 258.235 195.718 256.835 198.108C256.571 198.558 256.71 199.136 257.173 199.377C258.387 200.01 259.212 201.823 260.627 202.326Z" fill="white"/>
<path d="M264.823 167.852C270.716 165.431 273.531 158.691 271.11 152.798C268.689 146.905 261.949 144.09 256.056 146.511C250.162 148.932 247.347 155.672 249.768 161.565C252.189 167.459 258.93 170.274 264.823 167.852Z" fill="white"/>
<path d="M259.638 192.696C259.143 192.696 258.708 192.338 258.627 191.833L256.339 177.595C256.067 175.891 256.213 174.126 256.764 172.493L261.13 159.541C261.31 159.005 261.894 158.716 262.429 158.897C262.966 159.078 263.254 159.659 263.073 160.196L258.707 173.148C258.262 174.467 258.144 175.892 258.365 177.269L260.653 191.508C260.743 192.067 260.363 192.593 259.803 192.683C259.746 192.692 259.692 192.696 259.638 192.696Z" fill="white"/>
<path d="M130.21 188.196C138.28 188.196 144.822 181.654 144.822 173.584C144.822 165.514 138.28 158.972 130.21 158.972C122.14 158.972 115.598 165.514 115.598 173.584C115.598 181.654 122.14 188.196 130.21 188.196Z" fill="white"/>
<path d="M156.441 207.592C155.977 207.592 155.557 207.276 155.445 206.805L150.981 188.084C150.518 186.144 149.249 184.484 147.499 183.53L131.855 174.997C131.357 174.726 131.174 174.103 131.445 173.606C131.716 173.109 132.342 172.925 132.836 173.197L148.48 181.73C150.74 182.962 152.378 185.105 152.975 187.609L157.439 206.33C157.57 206.881 157.231 207.434 156.68 207.565C156.601 207.583 156.52 207.592 156.441 207.592Z" fill="white"/>
<path d="M115.339 219.115C116.126 221.044 116.913 222.973 117.7 224.902C128.798 220.219 140.222 216.308 151.862 213.206C151.167 211.047 150.123 209.002 148.783 207.173C137.634 211.153 126.486 215.134 115.339 219.115Z" fill="#172F35"/>
<path d="M145.078 207.757C144.988 206.412 145.995 205.139 147.27 204.701C148.544 204.263 149.994 204.567 151.138 205.279C152.282 205.992 153.152 207.074 153.849 208.228C154.714 209.661 155.351 211.264 155.444 212.935C155.486 213.699 155.199 214.608 154.764 215.486C153.855 217.323 151.418 217.804 149.916 216.409C147.444 214.118 145.243 210.208 145.078 207.757Z" fill="#172F35"/>
<path d="M119.784 221.577C121.149 224.179 120.553 227.181 118.453 228.282C116.353 229.384 113.544 228.168 112.179 225.567C110.814 222.966 111.41 219.963 113.51 218.862C115.61 217.76 118.419 218.975 119.784 221.577Z" fill="#172F35"/>
<path d="M249.767 323.384C247.786 323.643 240.218 324.635 238.237 324.894C223.623 326.808 214.992 352.908 218.958 383.191C222.924 413.474 237.986 436.471 252.599 434.557C254.58 434.298 262.148 433.306 264.129 433.047C278.743 431.133 287.374 405.033 283.408 374.75C279.443 344.467 264.381 321.47 249.767 323.384Z" fill="#172F35"/>
<path d="M249.282 379.219C251.979 399.811 249.124 417.164 242.907 417.979C236.689 418.793 229.462 402.76 226.765 382.168C224.068 361.576 226.923 344.223 233.14 343.408C239.359 342.594 246.586 358.627 249.282 379.219Z" fill="#A6BEBD"/>
<path d="M272.563 325.508C268.171 319.416 262.503 314.092 255.652 311.015C241.535 304.675 228.281 309.993 221.521 323.494C216.8 332.922 212.753 345.485 213.362 356.109C214.042 367.984 214.304 381.368 216.901 392.976C239.43 390.338 271.758 385.013 291.518 377.639C288.716 359.856 283.091 340.113 272.563 325.508Z" fill="#F46B29"/>
<path d="M231.254 315.012C227.192 317.198 224.024 320.994 222.599 325.381C224.418 323.239 227.657 322.66 230.327 323.537C232.997 324.413 235.121 326.524 236.574 328.929C238.027 331.334 238.887 334.042 239.735 336.721C243.887 349.838 248.039 362.955 252.191 376.073C252.726 377.762 253.31 379.532 254.611 380.736C257.048 382.991 260.878 382.402 264.116 381.669C262.448 382.026 260.716 381.084 259.653 379.75C258.59 378.416 258.06 376.746 257.557 375.115C252.115 357.483 247.253 339.672 242.98 321.72C242.301 318.866 241.389 315.672 238.799 314.293C236.475 313.056 233.573 313.764 231.254 315.012Z" fill="#FFC088"/>
<path d="M219 346.328C217.763 361.711 223.117 376.738 226.759 391.735C227.484 394.722 228.175 397.8 229.871 400.363C231.568 402.927 234.542 404.9 237.585 404.467C240.924 403.992 243.32 400.752 243.925 397.435C244.53 394.117 243.737 390.722 242.948 387.443C238.861 370.45 234.774 353.457 230.687 336.463C228.427 334.157 224.261 334.954 222.08 337.335C219.899 339.717 219.258 343.11 219 346.328Z" fill="#172F35"/>
<path d="M234.287 386.866C234.287 393.662 232.393 399.171 230.057 399.171C227.721 399.171 225.827 393.662 225.827 386.866C225.827 380.07 227.721 374.561 230.057 374.561C232.394 374.561 234.287 380.07 234.287 386.866Z" fill="#A6BEBD"/>
<path d="M237.957 400.462C238.543 401.175 239.639 401.318 240.491 400.964C241.343 400.61 241.97 399.85 242.386 399.027C243.702 396.421 243.14 393.3 242.484 390.455C238.807 374.497 233.137 359.006 230.323 342.873C230.089 341.532 229.852 340.132 229.042 339.038C228.232 337.944 226.651 337.287 225.47 337.963C224.659 338.427 224.244 339.396 224.196 340.33C224.149 341.263 224.41 342.182 224.663 343.081C227.337 352.572 229.413 362.231 230.876 371.982C232.936 372.515 234.258 374.494 235.189 376.407C238.303 382.808 239.213 390.257 237.729 397.219C237.496 398.319 237.243 399.594 237.957 400.462Z" fill="#A6BEBD"/>
<path d="M227.788 373.261C226.387 374.994 225.352 377.021 224.769 379.173C224.581 376.851 225.797 374.471 227.788 373.261Z" fill="#A6BEBD"/>
<path d="M146.615 218.018C145.9 215.91 144.667 210.484 142.684 209.473C140.213 208.212 137.324 208.073 134.608 207.919C131.727 207.756 128.787 207.383 125.936 208.02C123.792 208.5 122.082 209.44 120.638 211.096C119.1 212.86 118.242 214.226 118.331 216.565C118.42 218.904 122.275 222.978 124.614 223.067C123.923 223.396 123.724 224.342 123.983 225.063C124.242 225.783 124.83 226.327 125.397 226.841C126.659 227.984 127.922 229.127 129.184 230.269C130.11 231.107 131.101 231.98 132.328 232.218C133.891 232.522 135.447 231.728 136.77 230.842C139.139 229.254 141.799 228.138 143.539 225.879C145.623 223.174 147.712 221.251 146.615 218.018Z" fill="#FFC088"/>
</svg>
