<svg width="435" height="443" viewBox="0 0 435 443" fill="none" xmlns="http://www.w3.org/2000/svg">
<path opacity="0.7" d="M33.9894 137.971C33.9894 137.971 6.11238 209.959 45.2864 282.474C84.4604 354.99 165.165 393.276 229.755 426.022C294.345 458.768 361.416 442.821 393.289 389.184C425.162 335.547 381.444 297.256 381.392 220.766C381.341 144.276 392.839 124.024 351.429 59.4022C310.019 -5.22081 208.37 -19.5228 131.529 28.4062C54.6894 76.3352 33.9894 137.971 33.9894 137.971Z" fill="white"/>
<path d="M97.0151 406.861C120.615 431.776 178.555 422.652 203.651 406.861C285.11 355.606 427.896 270.293 434.359 146.693C437.106 94.1573 390.782 66.5723 371.426 58.4793C324.944 39.0443 273.949 33.2103 223.618 30.9593C171.047 28.6083 114.655 30.4393 67.3071 56.0883C49.3731 65.8033 32.4541 78.2633 20.8721 95.2723C9.10708 112.55 2.33808 133.126 0.542083 153.895C-2.35392 187.396 6.65908 220.987 20.2881 251.727C33.9171 282.467 52.0931 310.93 68.7751 340.126C79.6591 359.174 77.1331 385.871 97.0151 406.861Z" fill="#5068E8"/>
<path opacity="0.7" d="M97.0151 406.861C120.615 431.776 178.555 422.652 203.651 406.861C285.11 355.606 427.896 270.293 434.359 146.693C437.106 94.1573 390.782 66.5723 371.426 58.4793C324.944 39.0443 273.949 33.2103 223.618 30.9593C171.047 28.6083 114.655 30.4393 67.3071 56.0883C49.3731 65.8033 32.4541 78.2633 20.8721 95.2723C9.10708 112.55 2.33808 133.126 0.542083 153.895C-2.35392 187.396 6.65908 220.987 20.2881 251.727C33.9171 282.467 52.0931 310.93 68.7751 340.126C79.6591 359.174 77.1331 385.871 97.0151 406.861Z" fill="white"/>
<path d="M67.3571 215.945H47.9121V341.579H67.3571V215.945Z" fill="#5A6B84"/>
<path d="M73.7129 215.945H63.7539V341.579H73.7129V215.945Z" fill="#687F93"/>
<path d="M89.2407 341.579H33.3267C32.3237 341.579 31.5107 340.766 31.5107 339.763V331.055C31.5107 330.052 32.3237 329.239 33.3267 329.239H89.2407C90.2437 329.239 91.0567 330.052 91.0567 331.055V339.763C91.0567 340.766 90.2437 341.579 89.2407 341.579Z" fill="#5A6B84"/>
<path d="M95.716 341.579H86.398C85.395 341.579 84.582 340.766 84.582 339.763V331.055C84.582 330.052 85.395 329.239 86.398 329.239H95.716C96.719 329.239 97.532 330.052 97.532 331.055V339.763C97.532 340.766 96.719 341.579 95.716 341.579Z" fill="#687F93"/>
<path d="M358.873 215.945H339.428V341.579H358.873V215.945Z" fill="#5A6B84"/>
<path d="M365.229 215.945H355.27V341.579H365.229V215.945Z" fill="#687F93"/>
<path d="M380.755 341.579H324.841C323.838 341.579 323.025 340.766 323.025 339.763V331.055C323.025 330.052 323.838 329.239 324.841 329.239H380.755C381.758 329.239 382.571 330.052 382.571 331.055V339.763C382.571 340.766 381.758 341.579 380.755 341.579Z" fill="#5A6B84"/>
<path d="M387.231 341.579H377.913C376.91 341.579 376.097 340.766 376.097 339.763V331.055C376.097 330.052 376.91 329.239 377.913 329.239H387.231C388.234 329.239 389.047 330.052 389.047 331.055V339.763C389.047 340.766 388.234 341.579 387.231 341.579Z" fill="#687F93"/>
<path d="M104.215 229.753H32.5867C31.9927 229.753 31.5107 229.271 31.5107 228.677V214.181C31.5107 213.586 31.9927 213.104 32.5867 213.104H104.214C104.808 213.104 105.291 213.586 105.291 214.181V228.677C105.291 229.271 104.809 229.753 104.215 229.753Z" fill="#5A6B84"/>
<path d="M378.999 229.753H95.494C94.9 229.753 94.418 229.271 94.418 228.677V214.181C94.418 213.586 94.9 213.104 95.494 213.104H378.999C379.594 213.104 380.075 213.586 380.075 214.181V228.677C380.075 229.271 379.593 229.753 378.999 229.753Z" fill="#687F93"/>
<path opacity="0.36" d="M380.294 213.995H31.3506V221.429H380.294V213.995Z" fill="#687F93"/>
<path d="M328.328 134.283H316.101V145.844H328.328V134.283Z" fill="#5A6B84"/>
<path d="M328.328 134.283H319.631V145.844H328.328V134.283Z" fill="#687F93"/>
<path opacity="0.36" d="M328.328 134.283H316.101V138.423H328.328V134.283Z" fill="#687F93"/>
<path d="M273.87 144.715H360.052C360.318 144.715 360.57 144.831 360.743 145.034L395.177 185.377C395.317 185.541 395.394 185.75 395.394 185.967V216.684C395.394 217.185 394.987 217.592 394.486 217.592H273.87C273.369 217.592 272.962 217.185 272.962 216.684V145.624C272.962 145.122 273.369 144.715 273.87 144.715Z" fill="#78A9E2"/>
<path d="M255.191 144.715H286.21C286.476 144.715 286.728 144.831 286.901 145.034L321.335 185.377C321.475 185.541 321.552 185.75 321.552 185.967V216.684C321.552 217.185 321.145 217.592 320.644 217.592H255.191C254.69 217.592 254.283 217.185 254.283 216.684V145.624C254.283 145.122 254.689 144.715 255.191 144.715Z" fill="#8ABBDD"/>
<path d="M69.3846 157.275H273.242C273.508 157.275 273.76 157.391 273.933 157.593L302.348 190.884C302.488 191.048 302.565 191.257 302.565 191.474V216.683C302.565 217.184 302.158 217.591 301.657 217.591H69.3846C68.8826 217.591 68.4766 217.184 68.4766 216.683V158.183C68.4766 157.682 68.8836 157.275 69.3846 157.275Z" fill="#DFEAF4"/>
<path d="M34.8211 144.715H65.8401C66.1061 144.715 66.3581 144.831 66.5311 145.034L100.965 185.377C101.105 185.541 101.182 185.75 101.182 185.967V216.684C101.182 217.185 100.775 217.592 100.274 217.592H34.8211C34.3191 217.592 33.9131 217.185 33.9131 216.684V145.624C33.9131 145.122 34.3191 144.715 34.8211 144.715Z" fill="#78A9E2"/>
<path d="M24.908 144.715H55.927C56.193 144.715 56.445 144.831 56.618 145.034L91.052 185.377C91.192 185.541 91.269 185.75 91.269 185.967V216.684C91.269 217.185 90.862 217.592 90.361 217.592H24.908C24.406 217.592 24 217.185 24 216.684V145.624C24 145.122 24.407 144.715 24.908 144.715Z" fill="#8ABBDD"/>
<path d="M47.1506 156.387H31.3506V174.094H47.1506V156.387Z" fill="#687F93"/>
<path d="M83.1596 186.612H31.3506V189.95H83.1596V186.612Z" fill="#687F93"/>
<path d="M83.1596 194.33H31.3506V197.668H83.1596V194.33Z" fill="#687F93"/>
<path d="M83.1596 202.048H31.3506V205.386H83.1596V202.048Z" fill="#687F93"/>
<path d="M83.1596 209.766H31.3506V213.104H83.1596V209.766Z" fill="#687F93"/>
<path opacity="0.36" d="M302.566 191.14H101.182V217.592H302.566V191.14Z" fill="#DFEAF4"/>
<path d="M281.976 213.104H121.772C121.178 213.104 120.696 212.622 120.696 212.028V201.51C120.696 200.916 121.178 200.434 121.772 200.434H281.975C282.569 200.434 283.052 200.916 283.052 201.51V212.028C283.052 212.622 282.57 213.104 281.976 213.104Z" fill="#5A6B84"/>
<path d="M121.074 206.152C121.074 206.152 131.534 213.106 134.278 226.52C137.022 239.935 134.334 312.739 140.985 326.823C146.168 337.798 158.363 341.578 158.363 341.578H320.454C320.454 341.578 308.259 337.798 303.076 326.823C296.425 312.739 299.113 239.934 296.369 226.52C293.625 213.106 283.165 206.152 283.165 206.152H121.074Z" fill="#F2F5F9"/>
<path d="M128.266 206.152C128.266 206.152 137.971 212.9 140.517 225.917C143.063 238.934 140.569 309.584 146.74 323.251C151.549 333.902 162.864 337.569 162.864 337.569H304.787C304.787 337.569 301.583 336.25 297.137 323.251C292.284 309.062 293.46 238.934 290.914 225.917C288.368 212.9 278.663 206.152 278.663 206.152H128.266Z" fill="#C2D7DE"/>
<path d="M245.622 306.668C264.747 306.668 280.251 291.164 280.251 272.039C280.251 252.914 264.747 237.41 245.622 237.41C226.497 237.41 210.993 252.914 210.993 272.039C210.993 291.164 226.497 306.668 245.622 306.668Z" fill="#ED4D46"/>
<path d="M198.579 277.742H238.911V237.41H198.579V277.742Z" fill="#5068E8"/>
<path d="M196.513 310.322L234.133 245.161H158.893L196.513 310.322Z" fill="#7CD3F9"/>
<path opacity="0.36" d="M320.45 341.58H158.36C158.36 341.58 146.17 337.8 140.99 326.82C134.33 312.74 137.02 239.94 134.28 226.52C133.07 220.62 130.36 215.96 127.71 212.61C127.71 212.6 127.71 212.6 127.71 212.59C135.12 213.22 144.26 230.1 145.6 241.45C151.91 294.7 167.26 312.59 228.44 317.61C253.88 319.7 282 320.52 301.26 320.53C301.78 323.19 302.38 325.33 303.08 326.82C308.26 337.8 320.45 341.58 320.45 341.58Z" fill="#C2D7DE"/>
<path opacity="0.36" d="M286.058 208.52V208.531H123.973C122.272 206.949 121.077 206.152 121.077 206.152H283.162C283.162 206.152 284.357 206.948 286.058 208.52Z" fill="#5A6B84"/>
<path d="M287.317 200.433H116.431C115.836 200.433 115.354 200.915 115.354 201.509V205.076C115.354 205.67 115.836 206.153 116.431 206.153H287.317C287.912 206.153 288.394 205.671 288.394 205.076V201.509C288.393 200.915 287.911 200.433 287.317 200.433Z" fill="#687F93"/>
<path d="M353.312 136.526H287.485C286.984 136.526 286.577 136.12 286.577 135.618V93.7771C286.577 93.2761 286.984 92.8691 287.485 92.8691H353.312C353.813 92.8691 354.22 93.2761 354.22 93.7771V135.618C354.22 136.119 353.813 136.526 353.312 136.526Z" fill="#687F93"/>
<path d="M355.128 136.526H289.302C288.8 136.526 288.394 136.12 288.394 135.618V93.7771C288.394 93.2761 288.801 92.8691 289.302 92.8691H355.128C355.63 92.8691 356.036 93.2761 356.036 93.7771V135.618C356.036 136.119 355.629 136.526 355.128 136.526Z" fill="#C2D7DE"/>
<path d="M354.22 131.774V94.6851L290.21 94.6851V131.774H354.22Z" fill="#F2F5F9"/>
<path d="M310.889 125.16C317.888 125.16 323.563 119.486 323.563 112.486C323.563 105.486 317.888 99.812 310.889 99.812C303.889 99.812 298.215 105.486 298.215 112.486C298.215 119.486 303.889 125.16 310.889 125.16Z" fill="#ED4D46"/>
<path d="M328.106 110.399H313.345V125.16H328.106V110.399Z" fill="#5068E8"/>
<path d="M328.863 98.4751L315.094 122.323H342.632L328.863 98.4751Z" fill="#7CD3F9"/>
<path d="M349.975 113.647H328.238V127.55H349.975V113.647Z" fill="#D6E4EA"/>
<path d="M349.975 111.995H328.238V113.647H349.975V111.995Z" fill="#C2D7DE"/>
<path d="M306.839 154.193L301.809 148.355H308.316L313.345 154.193H306.839Z" fill="#E8F0F9"/>
<path d="M344.999 154.193L339.969 148.355H357.196L362.226 154.193H344.999Z" fill="#687F93"/>
<path d="M315.617 154.193L310.587 148.355H317.093L322.123 154.193H315.617Z" fill="#E8F0F9"/>
<path d="M324.394 154.193L319.364 148.355H325.87L330.9 154.193H324.394Z" fill="#E8F0F9"/>
<path d="M333.173 154.193L328.143 148.355H334.649L339.678 154.193H333.173Z" fill="#E8F0F9"/>
<path d="M313.826 162.303L308.796 156.465H315.303L320.332 162.303H313.826Z" fill="#E8F0F9"/>
<path d="M322.603 162.303L317.573 156.465H324.079L329.109 162.303H322.603Z" fill="#E8F0F9"/>
<path d="M331.382 162.303L326.352 156.465H332.858L337.888 162.303H331.382Z" fill="#E8F0F9"/>
<path d="M340.16 162.303L335.13 156.465H341.636L346.665 162.303H340.16Z" fill="#E8F0F9"/>
<path d="M320.812 170.413L315.782 164.575H322.289L327.318 170.413H320.812Z" fill="#E8F0F9"/>
<path d="M329.591 170.413L324.561 164.575H331.067L336.097 170.413H329.591Z" fill="#E8F0F9"/>
<path d="M338.369 170.413L333.339 164.575H339.845L344.875 170.413H338.369Z" fill="#E8F0F9"/>
<path d="M354.133 178.523L342.116 164.575H348.622L360.638 178.523H354.133Z" fill="#E8F0F9"/>
<path d="M327.8 178.523L322.77 172.685H329.277L334.306 178.523H327.8Z" fill="#E8F0F9"/>
<path d="M336.578 178.523L331.548 172.685H338.054L343.084 178.523H336.578Z" fill="#E8F0F9"/>
<path d="M345.355 178.523L340.325 172.685H346.831L351.861 178.523H345.355Z" fill="#E8F0F9"/>
<path opacity="0.36" d="M73.7141 229.753H47.9121V239.274H73.7141V229.753Z" fill="#5A6B84"/>
<path opacity="0.36" d="M365.229 229.753H339.427V239.274H365.229V229.753Z" fill="#5A6B84"/>
<path d="M332.279 156.93C332.279 156.93 329.248 157.013 328.914 156.93C328.58 156.847 328.223 154.007 327.39 153.461C326.557 152.915 326.169 153.591 325.392 152.915C324.615 152.24 323.209 150.557 322.599 150.531C321.988 150.505 320.858 150.94 320.858 150.94C320.858 150.94 319.568 149.935 318.791 149.991C318.014 150.047 316.959 150.213 317.015 150.602C317.043 150.796 317.01 151.048 317.447 151.527C317.613 151.709 318.272 151.798 318.498 151.994C318.867 152.314 319.832 153.528 319.832 153.528C319.832 153.528 317.03 151.86 316.571 151.879C316.114 151.897 314.249 152.154 313.954 152.756C313.798 153.076 313.83 153.812 314.239 153.854C314.484 153.879 315.545 153.642 316.009 153.769C316.487 153.899 317.295 154.578 317.747 154.912C317.317 154.885 316.096 154.329 315.011 154.486C314.615 154.543 313.018 155.21 313.295 155.765C313.572 156.32 314.945 156.085 315.611 156.307C316.277 156.529 316.571 158.041 317.736 159.429C318.902 160.817 322.846 162.361 323.496 162.427C324.146 162.492 331.78 163.371 331.78 163.371L332.279 156.93Z" fill="#FF9A8F"/>
<path d="M386.1 329.297C386.1 329.297 385.1 335.657 385.1 337.941C385.1 340.225 385.1 341.579 385.1 341.579H406.364C406.364 341.579 407.017 338.592 405.167 337.07C403.318 335.547 399.099 334.219 398.062 332.713C397.025 331.207 397.067 329.298 397.067 329.298H386.1V329.297Z" fill="#001432"/>
<path d="M407.849 180.611C407.849 180.611 408.819 194.427 408.497 213.485C408.175 232.543 406.046 246.236 404.624 270.747C403.663 287.312 398.834 331.077 398.834 331.077H385.101C385.101 331.077 385.764 282.077 385.92 270.765C386.266 245.755 382.437 221.34 382.437 213.852C382.437 197.36 382.437 180.612 382.437 180.612H407.849V180.611Z" fill="#324B6F"/>
<path opacity="0.36" d="M385.879 262.15C385.759 256.17 385.449 250.34 385.059 244.88C385.719 243.54 383.269 218.822 384.299 217.712C385.949 215.942 387.681 224.88 387.82 227.3C388.593 240.734 386.299 261.53 385.879 262.15Z" fill="#324B6F"/>
<path d="M372.459 329.297C372.459 329.297 373.458 335.657 373.458 337.941C373.458 340.225 373.458 341.579 373.458 341.579H346.483C346.483 341.579 345.83 338.592 347.68 337.07C349.529 335.547 359.459 334.219 360.496 332.713C361.533 331.207 361.491 329.298 361.491 329.298H372.459V329.297Z" fill="#001432"/>
<path d="M364.371 186.936C364.371 186.936 362.03 213.219 362.015 224.409C362 235.6 359.376 331.105 359.376 331.105L372.974 331.076C372.974 331.076 378.85 284.868 380.048 275.347C381.324 265.199 390.067 241.822 388.91 212.205C388.461 200.701 390.067 186.937 390.067 186.937H364.371V186.936Z" fill="#324B6F"/>
<path d="M375.524 100.524L380.074 111.809L367.869 118.354L365.188 107.127L375.524 100.524Z" fill="#F48282"/>
<path d="M355.672 84.3326C355.672 84.3326 355.173 96.2456 356.909 100.64C358.729 105.245 361.907 108.472 363.444 108.709C365.191 108.978 372.417 104.982 374.863 96.7196L370.251 79.9546L355.672 84.3326Z" fill="#FF9A8F"/>
<path d="M372.737 104.713C370.059 107.393 364.451 108.866 363.441 108.71C363.441 108.71 364.404 105.319 367.147 104.06C368.849 103.281 372.387 102.476 372.737 104.713Z" fill="#F48282"/>
<path d="M361.276 97.0868C361.276 97.0868 357.273 93.1668 357.072 88.3198C357.072 88.3198 355.314 88.1058 354.498 86.4198C353.682 84.7338 352.948 79.4058 354.626 78.4308C356.304 77.4558 360.103 79.2228 361.505 77.8138C362.907 76.4048 366.65 75.9158 368.725 75.8968C372.561 75.8618 374.418 78.7698 374.418 78.7698C374.418 78.7698 378.729 78.7238 380.075 86.5698C380.66 89.9808 377.386 99.5248 376.794 103.67C376.794 103.67 369.413 104.969 368.03 104.433C366.646 103.897 361.772 100.463 361.276 97.0868Z" fill="#001432"/>
<path d="M361.035 97.9208C361.957 96.5898 360.085 91.8588 359.026 91.7648C357.966 91.6718 358.606 93.0198 358.43 93.7478C358.254 94.4758 358.623 95.3068 358.856 95.5858C360.067 97.0428 360.114 99.2508 361.035 97.9208Z" fill="#F48282"/>
<path opacity="0.36" d="M358.879 94.4197C358.709 93.8697 358.66 92.5207 359.066 92.6227C359.472 92.7247 360.074 93.7077 360.27 94.2537C360.465 94.8007 359.327 92.6697 359.158 92.9057C358.988 93.1417 359.091 93.8907 359.352 93.9387C359.613 93.9857 360.34 94.6757 360.387 95.3187C360.434 95.9627 360.398 97.1087 360.129 96.8117C359.859 96.5157 359.074 95.0497 358.879 94.4197Z" fill="#F48282"/>
<path d="M378.768 107.589L365.62 111.995C365.62 111.995 353.279 118.353 352.038 125.518C351.61 127.99 362.702 153.691 363.442 171.079C364.016 184.562 362.226 197.058 362.226 197.058C362.226 197.058 371.482 200.429 380.728 200.431C402.655 200.437 408.562 197.493 408.562 197.493C408.562 197.493 408.449 145.817 404.532 130.989C402.067 121.66 399.827 115.346 394.914 111.994C391.03 109.347 378.768 107.589 378.768 107.589Z" fill="#5068E8"/>
<path opacity="0.36" d="M368.09 166.63C367.1 173.39 365.23 178.18 363.48 181.4C363.58 178.18 363.59 174.66 363.44 171.08C363.08 162.64 360.28 152.25 357.55 143.5C358.19 133.16 360.21 125.58 365.02 127.55C365.02 127.55 370.29 151.63 368.09 166.63Z" fill="#5068E8"/>
<path d="M352.947 123.34C349.564 128.24 351.001 154.328 349.527 154.754C348.053 155.18 338.011 155.944 329.14 156.465C326.529 156.618 320.901 162.402 325.028 166.084C330.661 166.847 354.448 170.325 357.837 169.17C361.226 168.016 362.804 165.824 364.525 162.887C366.245 159.95 366.698 142.051 366.698 136.526C366.699 123.696 357.791 116.326 352.947 123.34Z" fill="#5068E8"/>
<path d="M365.621 111.995V110.239L378.195 106.119L378.769 107.589L365.621 111.995Z" fill="#FA8927"/>
<path d="M130.242 46.5381H63.7539V125.712H130.242V46.5381Z" fill="#A2C4E0"/>
<path d="M127.062 50.3252H66.9346V121.924H127.062V50.3252Z" fill="#DFEAF4"/>
<g opacity="0.36">
<path d="M84.0609 65.9342C84.0609 69.4472 81.2129 72.2952 77.6999 72.2952C74.1869 72.2952 71.3389 69.4472 71.3389 65.9342C71.3389 62.4212 74.1869 59.5732 77.6999 59.5732C81.2129 59.5732 84.0609 62.4212 84.0609 65.9342Z" fill="#687F93"/>
<path d="M122.657 61.5171H89.9893V64.4621H122.657V61.5171Z" fill="#687F93"/>
<path d="M112.755 66.4033H89.9893V69.3483H112.755V66.4033Z" fill="#687F93"/>
<path d="M84.0609 86.1252C84.0609 89.6382 81.2129 92.4861 77.6999 92.4861C74.1869 92.4861 71.3389 89.6382 71.3389 86.1252C71.3389 82.6122 74.1869 79.7642 77.6999 79.7642C81.2129 79.7642 84.0609 82.6122 84.0609 86.1252Z" fill="#687F93"/>
<path d="M122.657 81.707H89.9893V84.652H122.657V81.707Z" fill="#687F93"/>
<path d="M112.755 86.5942H89.9893V89.5392H112.755V86.5942Z" fill="#687F93"/>
<path d="M84.0609 106.315C84.0609 109.828 81.2129 112.676 77.6999 112.676C74.1869 112.676 71.3389 109.828 71.3389 106.315C71.3389 102.802 74.1869 99.9541 77.6999 99.9541C81.2129 99.9541 84.0609 102.802 84.0609 106.315Z" fill="#687F93"/>
<path d="M122.657 101.898H89.9893V104.843H122.657V101.898Z" fill="#687F93"/>
<path d="M112.755 106.784H89.9893V109.729H112.755V106.784Z" fill="#687F93"/>
</g>
<path opacity="0.36" d="M84.3671 121.924H73.0781L108.009 50.3252H119.298L84.3671 121.924Z" fill="#DFEAF4"/>
</svg>
