<svg width="500" height="500" viewBox="0 0 500 500" fill="none" xmlns="http://www.w3.org/2000/svg">
<path d="M437.544 412.561C428.66 422.114 420.254 428.274 413.613 433.142C335.546 490.355 243.172 473.678 223.54 469.605C194.549 463.591 138.511 451.965 97.9969 403.301C36.7021 329.676 46.2465 213.682 93.7909 137.113C102.488 123.107 148.426 45.371 241.795 32.9046C298.301 25.3601 364.169 40.5765 411.868 81.395C511.994 167.077 504.866 340.169 437.544 412.561Z" fill="url(#paint0_linear_135_441)"/>
<path d="M467.619 79.407C466.766 77.0335 463.358 77.4055 463.027 79.9109C459.823 104.132 449.476 167.377 425.175 203.631C385.605 262.661 366.156 352.101 402.144 391.83C402.144 391.83 560.485 338.014 467.619 79.407Z" fill="#BDD0FB"/>
<path opacity="0.43" d="M467.679 113.305C467.725 114.075 467.704 114.714 467.711 115.403L467.687 117.433L467.595 121.488C467.516 124.19 467.396 126.89 467.276 129.59C467.017 134.989 466.693 140.384 466.32 145.776C465.554 156.558 464.503 167.318 463.293 178.059C462.099 188.803 460.61 199.513 458.899 210.187C457.18 220.858 455.312 231.509 453.102 242.091C448.723 263.26 443.213 284.206 436.276 304.67C432.702 314.863 428.866 324.966 424.465 334.819C419.996 344.637 415.115 354.266 409.57 363.488C409.449 363.688 409.192 363.751 408.996 363.628C408.804 363.508 408.741 363.255 408.85 363.057L408.853 363.052C414.025 353.651 418.693 343.983 422.887 334.103C427.108 324.232 430.764 314.12 434.157 303.927C437.545 293.728 440.53 283.391 443.285 272.993C446.036 262.591 448.365 252.079 450.635 241.556C455.089 220.484 458.438 199.177 461.213 177.798C462.578 167.104 463.732 156.38 464.699 145.639C465.191 140.269 465.635 134.894 466.013 129.513L466.519 121.44L466.732 117.403L466.816 115.385C466.833 114.724 466.862 114.013 466.854 113.434L466.852 113.338C466.849 113.105 467.031 112.913 467.26 112.909C467.481 112.906 467.665 113.082 467.679 113.305Z" fill="white"/>
<path d="M364.259 34.3825C362.844 32.4435 359.817 33.7343 360.182 36.1243C363.714 59.2292 371.117 120.11 358.514 160.129C337.993 225.288 344.045 312.728 387.658 339.135C387.658 339.135 518.492 245.662 364.259 34.3825Z" fill="#91B3FA"/>
<path opacity="0.43" d="M373.375 65.4488C373.624 66.1433 373.775 66.7347 373.965 67.3643L374.486 69.2327L375.486 72.9767C376.136 75.4768 376.748 77.986 377.359 80.4953C378.565 85.5182 379.709 90.556 380.808 95.6044C382.988 105.706 384.899 115.866 386.66 126.053C388.436 136.239 389.931 146.476 391.214 156.741C392.487 167.006 393.619 177.294 394.419 187.615C396.058 208.249 396.597 228.994 395.7 249.694C395.144 260.037 394.323 270.371 392.917 280.634C391.438 290.883 389.532 301.073 386.906 311.075C386.848 311.297 386.625 311.428 386.408 311.369C386.197 311.311 386.069 311.093 386.117 310.877L386.118 310.872C388.347 300.809 390.044 290.643 391.248 280.413C392.482 270.185 393.132 259.894 393.519 249.601C393.901 239.304 393.878 228.994 393.626 218.691C393.371 208.386 392.698 198.097 391.97 187.815C390.427 167.25 387.808 146.778 384.645 126.399C383.042 116.212 381.237 106.057 379.258 95.9366C378.276 90.8747 377.248 85.8215 376.159 80.7822L374.469 73.2374L373.586 69.4754L373.125 67.6015C372.964 66.9906 372.801 66.3299 372.64 65.8027L372.612 65.7136C372.546 65.4967 372.664 65.2656 372.876 65.1978C373.082 65.1317 373.301 65.2442 373.375 65.4488Z" fill="white"/>
<path d="M233.17 426.779C328.755 426.779 406.243 347.633 406.243 250.001C406.243 152.369 328.755 73.2225 233.17 73.2225C137.585 73.2225 60.0977 152.369 60.0977 250.001C60.0977 347.633 137.585 426.779 233.17 426.779Z" fill="url(#paint1_linear_135_441)"/>
<path d="M367.139 375C434.727 305.964 434.727 194.036 367.139 125C299.55 55.9644 189.968 55.9644 122.38 125C54.7912 194.036 54.7912 305.964 122.38 375C189.968 444.036 299.55 444.036 367.139 375Z" fill="white"/>
<path d="M244.765 400.874C326.344 400.874 392.476 333.326 392.476 250C392.476 166.675 326.344 99.1267 244.765 99.1267C163.187 99.1267 97.0547 166.675 97.0547 250C97.0547 333.326 163.187 400.874 244.765 400.874Z" fill="url(#paint2_linear_135_441)"/>
<path d="M244.765 408.431C159.238 408.431 89.6562 337.36 89.6562 250C89.6562 162.641 159.238 91.5697 244.765 91.5697C330.292 91.5697 399.874 162.641 399.874 250C399.874 337.36 330.292 408.431 244.765 408.431ZM244.765 99.1267C163.317 99.1267 97.055 166.808 97.055 250C97.055 333.193 163.317 400.874 244.765 400.874C326.213 400.874 392.475 333.193 392.475 250C392.475 166.808 326.213 99.1267 244.765 99.1267Z" fill="white"/>
<path d="M244.762 341.98C294.497 341.98 334.814 300.799 334.814 250C334.814 199.201 294.497 158.02 244.762 158.02C195.028 158.02 154.711 199.201 154.711 250C154.711 300.799 195.028 341.98 244.762 341.98Z" fill="url(#paint3_linear_135_441)"/>
<path d="M244.762 349.537C191.028 349.537 147.312 304.885 147.312 250C147.312 195.116 191.028 150.464 244.762 150.464C298.496 150.464 342.212 195.116 342.212 250C342.212 304.885 298.496 349.537 244.762 349.537ZM244.762 165.577C199.187 165.577 162.109 203.449 162.109 250C162.109 296.551 199.187 334.424 244.762 334.424C290.337 334.424 327.416 296.551 327.416 250C327.416 203.449 290.337 165.577 244.762 165.577Z" fill="white"/>
<path d="M244.764 285.636C264.032 285.636 279.652 269.681 279.652 250C279.652 230.319 264.032 214.365 244.764 214.365C225.495 214.365 209.875 230.319 209.875 250C209.875 269.681 225.495 285.636 244.764 285.636Z" fill="#455A64"/>
<path d="M244.763 293.193C221.446 293.193 202.477 273.817 202.477 250C202.477 226.183 221.446 206.807 244.763 206.807C268.08 206.807 287.05 226.183 287.05 250C287.05 273.817 268.08 293.193 244.763 293.193ZM244.763 221.92C229.605 221.92 217.273 234.517 217.273 250C217.273 265.483 229.605 278.08 244.763 278.08C259.922 278.08 272.254 265.483 272.254 250C272.254 234.517 259.922 221.92 244.763 221.92Z" fill="white"/>
<path d="M485.8 303.135L493.19 318.37L461.851 311C451.583 308.586 442.916 301.594 438.238 291.95L485.8 303.135Z" fill="url(#paint4_linear_135_441)"/>
<path d="M486.831 298.558L500 288.158L468.66 280.788C458.392 278.373 447.605 280.79 439.27 287.373L486.831 298.558Z" fill="url(#paint5_linear_135_441)"/>
<path d="M487.537 297.927L486.3 303.413L282.891 255.579L284.127 250.092L487.537 297.927Z" fill="url(#paint6_linear_135_441)"/>
<path d="M293.566 247.387C296.648 248.112 293.303 262.951 290.221 262.226L243.425 245.025C241.696 244.39 242.29 241.755 244.117 241.955L293.566 247.387Z" fill="url(#paint7_linear_135_441)"/>
<path d="M343.217 461.454C343.217 461.454 345.715 465.132 345.841 470.298C345.87 471.515 344.906 472.519 343.715 472.562L324.487 473.247C323.587 473.279 323.181 472.11 323.9 471.555C327.449 468.816 334.434 463.686 339.541 461.586L343.217 461.454Z" fill="url(#paint8_linear_135_441)"/>
<path d="M343.697 455.184L343.205 462.734C343.15 463.579 342.437 464.241 341.612 464.171C341.11 464.129 340.506 463.997 339.84 463.691C339.206 463.4 338.815 462.732 338.841 462.023L339.176 452.913L343.697 455.184Z" fill="url(#paint9_linear_135_441)"/>
<path d="M450.337 428.514C450.337 428.514 454.346 426.707 459.336 427.561C460.511 427.762 461.294 428.92 461.109 430.122L458.119 449.535C457.979 450.444 456.778 450.629 456.381 449.803C454.422 445.724 450.816 437.746 449.766 432.226L450.337 428.514Z" fill="url(#paint10_linear_135_441)"/>
<path d="M444.4 426.844L451.564 428.771C452.366 428.986 452.867 429.826 452.643 430.641C452.507 431.137 452.266 431.716 451.845 432.327C451.445 432.907 450.73 433.173 450.053 433.012L441.359 430.948L444.4 426.844Z" fill="url(#paint11_linear_135_441)"/>
<path d="M346.289 274.096C346.289 274.096 345.646 272.575 345.749 271.675C345.852 270.776 345.877 267.966 344.228 266.781C344.228 266.781 343.334 266.826 343.316 267.85C342.266 266.698 342.212 265.703 341.127 266.409C340.041 267.115 335.956 269.646 337.996 271.316C340.037 272.986 343.243 276.163 343.243 276.163L346.289 274.096Z" fill="url(#paint12_linear_135_441)"/>
<path d="M381.695 395.558C381.695 395.558 385.334 425.224 395.754 426.356C406.175 427.488 446.082 433.376 446.082 433.376L447.19 427.262C447.19 427.262 424.133 412.995 410.387 413.221C403.514 402.805 405.191 374.022 405.191 374.022L381.695 395.558Z" fill="url(#paint13_linear_135_441)"/>
<path d="M424.563 291.989C423.335 325.062 406.35 327.984 406.35 327.984V370.285H382.4C382.4 370.285 370.787 341.4 371.088 331.744C353.816 324.283 345.073 281.625 343.246 276.163C344.097 275.502 344.554 275.527 346.293 274.096C369.836 312.368 375.58 318.251 375.58 318.251H388.882C414.444 315.906 420.732 291.088 420.732 291.088L424.563 291.989Z" fill="#455A64"/>
<path d="M405.601 370.196C405.601 370.196 407.504 390.923 367.532 407.076C357.777 425.645 344.983 460.261 344.983 460.261H336.559C336.559 460.261 342.323 407.982 352.521 397.565C362.72 387.148 373.845 375.426 382.398 370.293C402.183 368.18 405.601 370.196 405.601 370.196Z" fill="url(#paint14_linear_135_441)"/>
<path d="M388.558 302.833L392.966 318.693C392.966 318.693 385.433 322.828 379.863 321.711L378.332 307.731L388.558 302.833Z" fill="url(#paint15_linear_135_441)"/>
<path d="M379.423 291.316C379.262 291.501 373.266 306.732 373.266 306.732L381.853 310.044L389.635 296.471C389.635 296.471 382.128 288.21 379.423 291.316Z" fill="url(#paint16_linear_135_441)"/>
<path d="M386.067 298.258L382.518 305.731C382.472 305.827 382.416 305.914 382.347 305.994C381.923 306.481 380.345 308.05 378.872 306.304C377.535 304.719 376.293 303.293 375.041 302.916C374.479 302.747 373.884 303.04 373.666 303.595C373.121 304.979 371.951 308.121 371.342 311.009C371.218 311.596 371.56 312.177 372.12 312.355C373.81 312.888 377.404 313.912 380.485 314.044C380.902 314.062 381.295 313.85 381.51 313.485C382.56 311.702 385.77 306.295 386.893 304.93C387.946 303.649 390.151 303.942 391.068 304.132C391.368 304.195 391.678 304.129 391.93 303.95C392.82 303.318 394.567 301.644 392.642 299.177C392.239 298.661 392.334 297.913 392.852 297.518C393.882 296.73 395.053 295.258 393.719 293.112C392.362 290.93 390.244 291.009 388.916 291.337C388.379 291.47 387.841 291.182 387.613 290.668C387.484 290.375 387.229 290.135 386.741 290.122C386.084 290.104 385.598 289.486 385.683 288.821C385.847 287.542 385.577 285.871 383.477 284.929C379.751 283.257 376.922 286.79 376.369 289.606C375.817 292.422 379.958 294.001 382.485 294.097C384.406 294.171 385.607 296.263 386.073 297.261C386.22 297.577 386.216 297.943 386.067 298.258Z" fill="url(#paint17_linear_135_441)"/>
<path d="M385.574 307.638C385.574 307.638 386.743 302.773 388.78 302.763C390.817 302.752 392.588 304.665 390.283 307.206C387.416 310.366 385.574 307.638 385.574 307.638Z" fill="url(#paint18_linear_135_441)"/>
<path d="M425.364 283.263C425.364 283.263 420.191 280.923 420.856 284.848C421.521 288.773 420.132 291.642 423.08 291.944C426.029 292.246 426.365 285.976 425.364 283.263Z" fill="url(#paint19_linear_135_441)"/>
<g opacity="0.3">
<path d="M119.091 110.121C118.258 110.164 117.511 109.559 117.38 108.699C117.091 106.819 116.879 104.898 116.748 102.99C116.684 102.062 117.369 101.257 118.278 101.191C118.289 101.191 118.299 101.19 118.31 101.19C119.205 101.143 119.976 101.837 120.038 102.754C120.163 104.567 120.365 106.391 120.638 108.177C120.779 109.096 120.164 109.959 119.264 110.102C119.206 110.112 119.148 110.118 119.091 110.121ZM118.466 95.4583C118.401 95.4617 118.336 95.4612 118.27 95.4567C117.361 95.3946 116.673 94.5916 116.734 93.6634C116.859 91.7566 117.065 89.8364 117.347 87.9564C117.485 87.0366 118.323 86.4072 119.227 86.5453C120.127 86.6863 120.745 87.5463 120.608 88.4653C120.34 90.2525 120.144 92.0765 120.026 93.8887C119.969 94.7496 119.289 95.4155 118.466 95.4583ZM121.017 81.0201C120.834 81.0297 120.646 81.0078 120.46 80.951C119.587 80.6834 119.092 79.7445 119.353 78.8534C119.889 77.0267 120.51 75.2008 121.198 73.4269C121.534 72.5621 122.493 72.1398 123.339 72.4812C124.186 72.824 124.6 73.8033 124.265 74.6681C123.611 76.3526 123.022 78.086 122.513 79.821C122.307 80.5221 121.694 80.9849 121.017 81.0201ZM126.666 67.5243C126.363 67.54 126.052 67.4706 125.769 67.3061C124.977 66.8466 124.7 65.8179 125.15 65.0092C126.074 63.35 127.078 61.7118 128.136 60.14C128.652 59.3745 129.679 59.1801 130.43 59.7063C131.18 60.2332 131.37 61.2823 130.854 62.0491C129.849 63.5417 128.895 65.0977 128.018 66.6746C127.729 67.1937 127.21 67.4961 126.666 67.5243ZM135.12 55.6543C134.695 55.6765 134.262 55.5316 133.923 55.2151C133.251 54.5872 133.204 53.5217 133.819 52.8353C135.076 51.4303 136.411 50.0602 137.785 48.7644C138.453 48.1326 139.497 48.1746 140.115 48.8586C140.733 49.542 140.692 50.6077 140.023 51.2394C138.716 52.4709 137.448 53.7732 136.253 55.1082C135.948 55.4492 135.538 55.6326 135.12 55.6543ZM145.933 45.9907C145.383 46.0194 144.831 45.766 144.493 45.2697C143.973 44.5055 144.158 43.456 144.906 42.925C146.439 41.8371 148.037 40.8025 149.656 39.8511C150.446 39.387 151.454 39.6646 151.908 40.4712C152.363 41.277 152.091 42.3074 151.301 42.7715C149.763 43.6757 148.245 44.6582 146.789 45.692C146.526 45.8781 146.23 45.9753 145.933 45.9907ZM206.092 38.8436C205.864 38.8555 205.63 38.8189 205.404 38.7279C203.755 38.0638 202.056 37.4645 200.354 36.9468C199.481 36.6812 198.984 35.7431 199.244 34.8519C199.503 33.96 200.422 33.4523 201.295 33.7178C203.088 34.263 204.878 34.894 206.614 35.593C207.461 35.9344 207.877 36.9128 207.543 37.7783C207.298 38.4131 206.718 38.811 206.092 38.8436ZM158.566 39.0196C157.882 39.0551 157.222 38.6508 156.952 37.9663C156.612 37.1031 157.021 36.1218 157.865 35.7741C159.597 35.0613 161.38 34.4169 163.165 33.8588C164.037 33.5907 164.959 34.0863 165.225 34.9765C165.492 35.866 165.002 36.808 164.131 37.0808C162.436 37.6105 160.742 38.2224 159.098 38.8991C158.923 38.9706 158.744 39.0104 158.566 39.0196ZM192.217 35.0337C192.108 35.0394 191.997 35.0347 191.885 35.0174C190.132 34.7469 188.344 34.5508 186.571 34.4328C185.662 34.3721 184.973 33.5704 185.032 32.6422C185.092 31.714 185.876 31.0058 186.785 31.0704C188.651 31.1947 190.532 31.4011 192.377 31.6853C193.278 31.8242 193.898 32.6828 193.762 33.6024C193.643 34.4081 192.984 34.9938 192.217 35.0337ZM172.406 35.1056C171.575 35.1489 170.828 34.5452 170.695 33.6871C170.553 32.7681 171.167 31.9053 172.066 31.759C173.908 31.4609 175.788 31.2399 177.652 31.1032C177.664 31.1019 177.676 31.1013 177.687 31.1006C178.581 31.0542 179.351 31.7462 179.416 32.662C179.481 33.5904 178.798 34.3968 177.889 34.4632C176.118 34.5936 174.333 34.8038 172.583 35.0873C172.524 35.0962 172.465 35.1026 172.406 35.1056Z" fill="#91B3FA"/>
<path d="M216.436 44.1607C216.112 44.1775 215.779 44.0974 215.483 43.9086C214.761 43.4494 214.017 42.9984 213.273 42.5667C212.481 42.1078 212.203 41.0792 212.653 40.2704C213.102 39.461 214.109 39.176 214.901 39.6368C215.684 40.0903 216.465 40.5649 217.225 41.0478C217.998 41.5394 218.236 42.5786 217.754 43.3681C217.458 43.8552 216.958 44.1336 216.436 44.1607Z" fill="#91B3FA"/>
</g>
<g opacity="0.3">
<path d="M245.362 86.173C244.567 86.2144 243.837 85.662 243.666 84.8412C243.489 83.9918 243.292 83.1318 243.079 82.2856C242.853 81.3842 243.385 80.4663 244.267 80.2352C245.153 80.0033 246.048 80.5478 246.275 81.4485C246.498 82.3395 246.706 83.2452 246.893 84.1396C247.082 85.0496 246.514 85.9444 245.623 86.1383C245.536 86.1573 245.448 86.1686 245.362 86.173Z" fill="#91B3FA"/>
<path d="M185.877 165.409C185.119 165.448 184.358 165.474 183.593 165.488C182.682 165.504 181.931 164.763 181.915 163.832C181.9 162.902 182.629 162.131 183.536 162.118C185.301 162.087 187.061 161.983 188.786 161.806C189.693 161.715 190.501 162.389 190.592 163.314C190.683 164.24 190.022 165.066 189.115 165.159C188.048 165.269 186.958 165.352 185.877 165.409ZM174.897 165.033C174.805 165.038 174.711 165.035 174.616 165.023C172.789 164.802 170.95 164.498 169.152 164.121C168.26 163.934 167.685 163.044 167.867 162.133C168.051 161.221 168.924 160.632 169.815 160.821C171.523 161.179 173.269 161.467 175.006 161.678C175.91 161.788 176.556 162.626 176.449 163.55C176.352 164.377 175.685 164.992 174.897 165.033ZM197.67 163.665C196.894 163.705 196.174 163.178 195.985 162.378C195.771 161.473 196.316 160.563 197.201 160.345C198.895 159.927 200.594 159.429 202.252 158.865C203.117 158.572 204.051 159.048 204.339 159.93C204.626 160.813 204.159 161.767 203.295 162.062C201.549 162.656 199.759 163.18 197.976 163.62C197.874 163.645 197.771 163.66 197.67 163.665ZM161.122 161.758C160.913 161.769 160.699 161.738 160.489 161.663C158.756 161.037 157.028 160.328 155.353 159.555C154.523 159.172 154.154 158.174 154.53 157.327C154.905 156.478 155.881 156.101 156.712 156.485C158.302 157.218 159.942 157.892 161.589 158.487C162.448 158.796 162.897 159.759 162.594 160.636C162.364 161.299 161.77 161.724 161.122 161.758ZM210.954 158.743C210.318 158.776 209.692 158.428 209.391 157.807C208.988 156.972 209.323 155.962 210.139 155.55C211.701 154.762 213.251 153.895 214.748 152.972C215.528 152.491 216.542 152.747 217.012 153.544C217.483 154.341 217.232 155.376 216.452 155.856C214.877 156.828 213.245 157.741 211.6 158.571C211.392 158.676 211.173 158.732 210.954 158.743ZM222.86 150.963C222.351 150.99 221.836 150.775 221.491 150.339C220.919 149.615 221.03 148.554 221.739 147.97C223.098 146.849 224.426 145.656 225.688 144.426C226.346 143.782 227.389 143.806 228.02 144.48C228.649 145.153 228.625 146.219 227.966 146.862C226.639 148.157 225.241 149.412 223.81 150.591C223.529 150.824 223.196 150.946 222.86 150.963ZM232.821 140.717C232.434 140.737 232.038 140.619 231.711 140.353C230.998 139.774 230.88 138.714 231.448 137.986C232.536 136.588 233.579 135.129 234.547 133.648C235.053 132.874 236.076 132.665 236.834 133.182C237.592 133.699 237.796 134.744 237.29 135.519C236.272 137.077 235.174 138.614 234.029 140.084C233.722 140.477 233.277 140.694 232.821 140.717ZM240.358 128.497C240.089 128.511 239.814 128.458 239.555 128.33C238.736 127.924 238.394 126.916 238.791 126.079C239.554 124.473 240.258 122.817 240.884 121.154C241.211 120.286 242.167 119.852 243.016 120.186C243.866 120.52 244.29 121.494 243.963 122.363C243.304 124.114 242.562 125.859 241.759 127.55C241.487 128.123 240.939 128.467 240.358 128.497ZM245.085 114.88C244.934 114.888 244.78 114.874 244.626 114.837C243.739 114.626 243.187 113.72 243.395 112.814C243.791 111.08 244.12 109.306 244.373 107.541C244.505 106.62 245.345 105.984 246.243 106.117C247.145 106.252 247.769 107.107 247.637 108.028C247.371 109.887 247.024 111.755 246.607 113.58C246.436 114.328 245.801 114.843 245.085 114.88ZM246.768 100.544C246.734 100.546 246.7 100.546 246.665 100.546C245.755 100.537 245.024 99.7752 245.033 98.8449C245.046 97.5317 245.019 96.2028 244.954 94.8936C244.93 94.4198 244.901 93.9468 244.868 93.4762C244.802 92.548 245.485 91.7409 246.393 91.6739C247.312 91.5871 248.092 92.3037 248.158 93.2312C248.193 93.7269 248.223 94.2234 248.248 94.7222C248.317 96.099 248.345 97.4978 248.331 98.8788C248.323 99.7741 247.631 100.499 246.768 100.544Z" fill="#91B3FA"/>
<path d="M148.36 155.443C148.032 155.46 147.697 155.378 147.399 155.186C146.643 154.7 145.883 154.189 145.14 153.666C144.39 153.139 144.2 152.09 144.717 151.324C145.234 150.557 146.26 150.363 147.01 150.891C147.716 151.388 148.438 151.873 149.156 152.335C149.926 152.829 150.158 153.87 149.673 154.657C149.376 155.14 148.878 155.416 148.36 155.443Z" fill="#91B3FA"/>
</g>
<path d="M149.608 135.812C149.828 136.061 150.179 136.14 150.482 136.008L159.111 132.247C162.714 134.794 166.74 136.772 171.073 138.046L173.683 147.244C173.774 147.567 174.056 147.795 174.385 147.811L185.624 148.387C185.953 148.403 186.255 148.205 186.378 147.894L189.874 139.008C194.31 138.183 198.51 136.626 202.344 134.459L210.562 139.082C210.85 139.244 211.207 139.202 211.451 138.976L219.797 131.265C220.041 131.039 220.118 130.681 219.988 130.372L216.306 121.558C218.8 117.878 220.736 113.765 221.983 109.339L230.989 106.674C231.305 106.581 231.528 106.293 231.544 105.957L232.107 94.4769C232.123 94.1414 231.93 93.8322 231.624 93.7071L222.925 90.1362C222.117 85.605 220.592 81.3155 218.471 77.3995L222.997 69.005C223.156 68.7109 223.114 68.3462 222.894 68.0971L215.344 59.5729C215.124 59.3237 214.772 59.245 214.47 59.3769L205.841 63.138C202.238 60.5912 198.212 58.613 193.878 57.3396L191.269 48.141C191.177 47.8185 190.896 47.5907 190.567 47.5737L179.328 46.9989C178.999 46.982 178.696 47.18 178.574 47.4917L175.078 56.3779C170.641 57.2026 166.442 58.7601 162.608 60.9265L154.39 56.3039C154.102 56.1417 153.744 56.1843 153.501 56.4096L145.155 64.1209C144.911 64.3462 144.834 64.7047 144.963 65.0137L148.645 73.8278C146.152 77.5077 144.215 81.6204 142.968 86.0464L133.963 88.7117C133.647 88.8051 133.424 89.093 133.408 89.4285L132.845 100.909C132.828 101.244 133.022 101.553 133.327 101.679L142.027 105.25C142.834 109.781 144.359 114.07 146.48 117.986L141.954 126.381C141.796 126.675 141.837 127.039 142.058 127.289L149.608 135.812Z" fill="#91B3FA"/>
<path d="M183.045 109.233C177.538 109.52 172.497 105.641 171.385 99.957C170.162 93.7091 174.144 87.6112 180.261 86.3625C183.224 85.7568 186.24 86.3676 188.753 88.0797C191.267 89.7919 192.978 92.4016 193.57 95.4282C194.792 101.676 190.81 107.774 184.694 109.023C184.142 109.135 183.591 109.205 183.045 109.233ZM182.054 88.8427C181.629 88.8649 181.203 88.9187 180.778 89.0054C176.088 89.9625 173.035 94.6387 173.972 99.4284C174.91 104.218 179.486 107.339 184.177 106.38C188.867 105.423 191.919 100.746 190.982 95.9567C190.528 93.6358 189.217 91.6351 187.289 90.3222C185.723 89.2553 183.901 88.7465 182.054 88.8427Z" fill="#BDD0FB"/>
<path d="M184.106 125.887C183.16 125.937 182.206 125.938 181.248 125.889C180.946 125.874 180.644 125.853 180.343 125.828C178.858 125.703 177.385 125.457 175.947 125.095C175.927 125.09 175.907 125.085 175.888 125.08C175.832 125.066 175.777 125.052 175.721 125.037C175.613 125.009 175.505 124.98 175.398 124.95C175.114 124.873 174.924 124.619 174.91 124.335C174.906 124.266 174.913 124.195 174.932 124.125C175.026 123.765 175.388 123.553 175.74 123.649C177.55 124.146 179.426 124.446 181.313 124.542C190.69 125.023 199.188 120.438 204.259 113.145C207.08 109.089 208.84 104.195 209.101 98.8676C209.147 97.9335 209.146 97.0038 209.1 96.0824C208.79 89.8812 206.421 84.0262 202.287 79.3596C197.54 73.9988 191.032 70.8473 183.964 70.4858C169.367 69.7405 156.908 81.2577 156.177 96.1605C156.132 97.0793 156.133 97.9972 156.178 98.9101C156.376 102.866 157.42 106.733 159.246 110.231C159.294 110.321 159.319 110.418 159.323 110.514C159.336 110.766 159.208 111.016 158.975 111.142C158.653 111.317 158.254 111.194 158.082 110.865C156.164 107.192 155.068 103.132 154.861 98.9792C154.813 98.021 154.812 97.0577 154.859 96.0932C155.626 80.4465 168.717 68.3561 184.03 69.1393C191.45 69.5187 198.281 72.8274 203.266 78.4552C207.605 83.3542 210.092 89.5009 210.417 96.0109C210.466 96.9783 210.466 97.9541 210.419 98.9345C210.047 106.514 206.808 113.492 201.298 118.583C196.501 123.016 190.481 125.556 184.106 125.887Z" fill="#BDD0FB"/>
<g opacity="0.3">
<path d="M65.0924 157.383C64.6523 157.406 64.2322 157.134 64.0794 156.687C63.7938 155.854 63.5291 155 63.2929 154.149C63.1393 153.596 63.4532 153.021 63.9947 152.864C64.5361 152.705 65.099 153.028 65.2527 153.581C65.4778 154.391 65.7301 155.205 66.0025 156.001C66.1883 156.543 65.9081 157.136 65.3774 157.327C65.283 157.36 65.1872 157.378 65.0924 157.383Z" fill="#91B3FA"/>
<path d="M63.1958 149.618C62.6802 149.644 62.2181 149.269 62.1383 148.737C61.9118 147.233 61.7587 145.701 61.683 144.183C61.667 143.863 61.6546 143.543 61.6449 143.22C61.6286 142.645 62.1018 142.186 62.6329 142.148C63.1953 142.131 63.6646 142.583 63.6818 143.157C63.6906 143.465 63.7024 143.772 63.7177 144.077C63.7898 145.525 63.9361 146.987 64.1515 148.42C64.2372 148.988 63.8558 149.519 63.2999 149.607C63.2648 149.612 63.2301 149.616 63.1958 149.618ZM62.8812 138.819C62.8331 138.821 62.7838 138.821 62.7347 138.816C62.1741 138.763 61.762 138.256 61.8135 137.684C61.979 135.848 62.2577 134.006 62.6417 132.211C62.7616 131.649 63.3072 131.295 63.8543 131.416C64.4043 131.539 64.752 132.093 64.6322 132.655C64.2658 134.368 64.0003 136.124 63.8422 137.875C63.795 138.397 63.3789 138.793 62.8812 138.819ZM65.1398 128.265C65.0106 128.271 64.8782 128.253 64.7489 128.207C64.2184 128.016 63.9407 127.421 64.1279 126.879C64.7287 125.143 65.4419 123.426 66.2491 121.778C66.5009 121.263 67.1111 121.056 67.6159 121.313C68.1189 121.57 68.3229 122.195 68.0716 122.709C67.3019 124.281 66.6215 125.917 66.0491 127.572C65.9069 127.982 65.5397 128.244 65.1398 128.265ZM69.8697 118.6C69.659 118.611 69.4435 118.555 69.2545 118.428C68.7863 118.109 68.6588 117.463 68.9707 116.985C69.9713 115.449 71.0737 113.964 72.2482 112.57C72.6155 112.135 73.2591 112.088 73.6846 112.461C74.1112 112.836 74.1593 113.492 73.7922 113.929C72.6726 115.257 71.6207 116.674 70.6668 118.138C70.4808 118.423 70.1811 118.584 69.8697 118.6ZM76.7668 110.409C76.4726 110.425 76.1741 110.31 75.9604 110.07C75.5822 109.645 75.6131 108.987 76.029 108.6C77.3637 107.361 78.7856 106.195 80.2557 105.133C80.7152 104.8 81.3509 104.913 81.6757 105.382C82.0004 105.851 81.8913 106.501 81.4323 106.832C80.0296 107.845 78.6731 108.958 77.3999 110.14C77.2184 110.308 76.9938 110.397 76.7668 110.409ZM85.4001 104.177C85.0192 104.197 84.6426 103.996 84.4499 103.629C84.1841 103.123 84.3709 102.493 84.8663 102.221C86.4554 101.351 88.113 100.574 89.7922 99.9121C90.3192 99.7067 90.9068 99.9732 91.1094 100.509C91.3118 101.045 91.0501 101.647 90.5255 101.854C88.924 102.485 87.3443 103.225 85.8292 104.055C85.6921 104.13 85.5457 104.169 85.4001 104.177ZM95.2607 100.291C94.7838 100.316 94.3409 99.994 94.2214 99.5037C94.0854 98.946 94.4179 98.3814 94.9637 98.2422C96.7077 97.7984 98.5017 97.4608 100.297 97.2382C100.857 97.1784 101.363 97.5766 101.431 98.1467C101.498 98.7171 101.1 99.2353 100.542 99.305C98.8299 99.5162 97.1189 99.8384 95.456 100.262C95.3906 100.278 95.3253 100.288 95.2607 100.291ZM111.049 99.3369C110.991 99.3399 110.93 99.338 110.87 99.3299C109.396 99.1411 107.887 99.0314 106.383 99.0039C106.155 98.9985 105.931 98.9958 105.708 98.9961C105.145 98.9949 104.69 98.5293 104.69 97.9544C104.69 97.3785 105.15 96.8968 105.71 96.9144C105.948 96.9152 106.185 96.9171 106.424 96.923C107.996 96.9521 109.578 97.0671 111.123 97.2655C111.682 97.3371 112.077 97.8569 112.007 98.4272C111.945 98.9353 111.534 99.3117 111.049 99.3369Z" fill="#91B3FA"/>
</g>
<g opacity="0.3">
<path d="M108.461 186.7C107.905 186.728 107.428 186.295 107.393 185.727C107.357 185.153 107.782 184.658 108.344 184.622C110.034 184.512 111.732 184.295 113.391 183.978C113.941 183.878 114.476 184.244 114.58 184.809C114.683 185.374 114.318 185.917 113.766 186.024C112.026 186.355 110.246 186.583 108.475 186.699C108.47 186.699 108.465 186.699 108.461 186.7ZM103.249 186.72C103.212 186.721 103.176 186.721 103.138 186.719C101.368 186.618 99.5853 186.406 97.8402 186.089C97.2864 185.987 96.9174 185.448 97.0161 184.882C97.1144 184.315 97.6464 183.941 98.1973 184.039C99.8625 184.342 101.563 184.545 103.253 184.642C103.815 184.674 104.244 185.165 104.213 185.738C104.183 186.275 103.762 186.693 103.249 186.72ZM118.684 184.743C118.233 184.767 117.805 184.48 117.662 184.019C117.491 183.472 117.788 182.887 118.324 182.713C119.939 182.187 121.535 181.558 123.07 180.84C123.584 180.603 124.186 180.831 124.42 181.354C124.654 181.876 124.429 182.494 123.918 182.733C122.309 183.485 120.635 184.145 118.942 184.695C118.856 184.723 118.769 184.739 118.684 184.743ZM93.0042 184.85C92.8885 184.856 92.7698 184.842 92.6524 184.805C90.9563 184.272 89.2756 183.625 87.6572 182.885C87.1435 182.65 86.9141 182.034 87.1439 181.509C87.3738 180.987 87.9767 180.752 88.4898 180.986C90.0331 181.692 91.6352 182.307 93.2522 182.816C93.7897 182.986 94.0916 183.568 93.9258 184.117C93.7963 184.546 93.4194 184.828 93.0042 184.85ZM128.14 180.321C127.78 180.339 127.421 180.162 127.22 179.826C126.925 179.336 127.075 178.695 127.554 178.395C128.995 177.491 130.396 176.488 131.719 175.412C132.16 175.054 132.801 175.129 133.151 175.579C133.501 176.029 133.428 176.684 132.988 177.042C131.6 178.169 130.131 179.221 128.621 180.169C128.47 180.263 128.305 180.312 128.14 180.321ZM136.282 173.71C136.006 173.724 135.727 173.625 135.515 173.412C135.114 173.009 135.109 172.35 135.504 171.941C136.693 170.708 137.82 169.39 138.852 168.026C139.197 167.571 139.837 167.487 140.281 167.839C140.727 168.19 140.809 168.843 140.465 169.297C139.383 170.728 138.202 172.109 136.955 173.401C136.769 173.594 136.528 173.697 136.282 173.71ZM142.64 165.297C142.446 165.307 142.247 165.261 142.068 165.151C141.584 164.858 141.426 164.219 141.713 163.725C142.58 162.238 143.364 160.684 144.043 159.105C144.27 158.58 144.871 158.34 145.386 158.572C145.901 158.804 146.135 159.417 145.908 159.944C145.195 161.599 144.373 163.23 143.464 164.79C143.283 165.1 142.968 165.28 142.64 165.297Z" fill="#91B3FA"/>
<path d="M83.4654 180.482C83.2692 180.492 83.0682 180.445 82.8872 180.333C82.1409 179.872 81.4051 179.387 80.6989 178.89C80.2359 178.564 80.1184 177.916 80.4374 177.443C80.7572 176.971 81.3905 176.851 81.8545 177.176C82.5276 177.65 83.2299 178.113 83.9418 178.553C84.4234 178.85 84.5772 179.49 84.286 179.981C84.1042 180.288 83.7917 180.465 83.4654 180.482Z" fill="#91B3FA"/>
</g>
<path d="M83.6396 167.014C83.7872 167.181 84.0221 167.233 84.2245 167.145L89.9988 164.628C92.4096 166.332 95.1039 167.656 98.0034 168.508L99.7495 174.664C99.8107 174.88 99.9993 175.032 100.219 175.043L107.74 175.428C107.96 175.439 108.163 175.307 108.245 175.098L110.584 169.152C113.552 168.6 116.363 167.558 118.928 166.108L124.427 169.202C124.62 169.31 124.859 169.282 125.022 169.131L130.607 163.971C130.77 163.82 130.821 163.58 130.735 163.373L128.271 157.475C129.94 155.013 131.235 152.261 132.07 149.299L138.096 147.516C138.307 147.453 138.457 147.261 138.468 147.036L138.844 139.354C138.855 139.129 138.726 138.922 138.521 138.839L132.7 136.449C132.16 133.417 131.139 130.547 129.72 127.926L132.748 122.309C132.854 122.112 132.827 121.868 132.679 121.702L127.627 115.998C127.48 115.831 127.245 115.778 127.042 115.866L121.268 118.383C118.857 116.679 116.163 115.355 113.263 114.503L111.517 108.348C111.456 108.132 111.268 107.979 111.048 107.968L103.527 107.584C103.307 107.572 103.104 107.705 103.022 107.913L100.683 113.86C97.7145 114.411 94.9041 115.454 92.3387 116.903L86.8394 113.81C86.6466 113.701 86.4077 113.73 86.2446 113.881L80.6601 119.041C80.497 119.192 80.4453 119.431 80.5317 119.638L82.9955 125.536C81.327 127.999 80.0311 130.751 79.197 133.712L73.1707 135.496C72.9596 135.558 72.8101 135.751 72.7993 135.975L72.4225 143.657C72.4116 143.882 72.5411 144.089 72.7454 144.173L78.5669 146.562C79.1073 149.594 80.1275 152.464 81.5467 155.085L78.5183 160.702C78.4121 160.899 78.4401 161.143 78.5876 161.31L83.6396 167.014Z" fill="#91B3FA"/>
<path d="M106.012 149.368C104.371 149.454 102.752 149.002 101.36 148.054C99.6481 146.887 98.4832 145.109 98.08 143.048C97.2472 138.794 99.959 134.64 104.125 133.788C108.299 132.944 112.359 135.709 113.192 139.964C113.595 142.025 113.189 144.124 112.046 145.872C110.905 147.622 109.164 148.812 107.145 149.224C106.768 149.3 106.389 149.348 106.012 149.368ZM105.351 135.723C105.077 135.738 104.801 135.772 104.524 135.828C101.46 136.455 99.4653 139.51 100.078 142.641C100.375 144.156 101.231 145.465 102.491 146.322C103.751 147.18 105.261 147.484 106.747 147.183C108.231 146.88 109.512 146.005 110.351 144.719C111.192 143.432 111.491 141.888 111.194 140.371C110.637 137.524 108.11 135.58 105.351 135.723Z" fill="#BDD0FB"/>
<path d="M106.736 160.961C106.092 160.995 105.442 160.995 104.785 160.962C103.48 160.896 102.181 160.694 100.919 160.361C100.863 160.345 100.806 160.33 100.75 160.314C100.312 160.195 100.018 159.802 99.9961 159.364C99.9908 159.257 100.002 159.148 100.03 159.04C100.176 158.485 100.735 158.158 101.278 158.305C102.453 158.628 103.666 158.822 104.886 158.883H104.886C104.953 158.887 105.021 158.89 105.087 158.892C107.974 159.012 110.781 158.391 113.306 157.121C114.676 156.431 115.964 155.548 117.136 154.485C117.146 154.476 117.155 154.467 117.165 154.459C117.194 154.432 117.223 154.406 117.251 154.379C120.649 151.239 122.646 146.936 122.875 142.263C122.905 141.658 122.905 141.057 122.875 140.46C122.674 136.445 121.14 132.655 118.465 129.633C115.391 126.163 111.178 124.124 106.603 123.89C102.03 123.658 97.6362 125.256 94.238 128.394C90.8407 131.534 88.843 135.837 88.614 140.51C88.5843 141.105 88.5851 141.699 88.6146 142.29C88.7428 144.851 89.4181 147.354 90.6009 149.619C90.6737 149.758 90.7125 149.907 90.7193 150.055C90.7387 150.445 90.5414 150.831 90.1816 151.026C89.6845 151.295 89.0684 151.105 88.8029 150.597C87.4798 148.064 86.724 145.262 86.5799 142.398C86.5469 141.736 86.5461 141.072 86.5787 140.407C86.8353 135.177 89.0699 130.363 92.8715 126.851C96.6726 123.339 101.583 121.545 106.704 121.811C111.824 122.072 116.536 124.354 119.975 128.238C122.969 131.617 124.685 135.858 124.909 140.35C124.942 141.016 124.943 141.69 124.91 142.366C124.413 152.49 116.442 160.456 106.736 160.961Z" fill="#BDD0FB"/>
<defs>
<linearGradient id="paint0_linear_135_441" x1="543.946" y1="606.046" x2="147.193" y2="123.634" gradientUnits="userSpaceOnUse">
<stop stop-color="#DAE3FE"/>
<stop offset="1" stop-color="#E9EFFD"/>
</linearGradient>
<linearGradient id="paint1_linear_135_441" x1="610.05" y1="280.797" x2="-219.232" y2="215.845" gradientUnits="userSpaceOnUse">
<stop stop-color="#4F52FF"/>
<stop offset="1" stop-color="#4042E2"/>
</linearGradient>
<linearGradient id="paint2_linear_135_441" x1="590.818" y1="73.7812" x2="-757.31" y2="731.802" gradientUnits="userSpaceOnUse">
<stop stop-color="#4F52FF"/>
<stop offset="1" stop-color="#4042E2"/>
</linearGradient>
<linearGradient id="paint3_linear_135_441" x1="728.627" y1="-91.7075" x2="-436.04" y2="696.663" gradientUnits="userSpaceOnUse">
<stop stop-color="#4F52FF"/>
<stop offset="1" stop-color="#4042E2"/>
</linearGradient>
<linearGradient id="paint4_linear_135_441" x1="458.122" y1="301.847" x2="615.541" y2="352.797" gradientUnits="userSpaceOnUse">
<stop stop-color="#4F52FF"/>
<stop offset="1" stop-color="#4042E2"/>
</linearGradient>
<linearGradient id="paint5_linear_135_441" x1="461.388" y1="287.353" x2="625.161" y2="308.866" gradientUnits="userSpaceOnUse">
<stop stop-color="#4F52FF"/>
<stop offset="1" stop-color="#4042E2"/>
</linearGradient>
<linearGradient id="paint6_linear_135_441" x1="233.95" y1="198.721" x2="400.03" y2="280.842" gradientUnits="userSpaceOnUse">
<stop stop-color="#09005D"/>
<stop offset="1" stop-color="#1A0F91"/>
</linearGradient>
<linearGradient id="paint7_linear_135_441" x1="262.208" y1="244.781" x2="400.612" y2="289.576" gradientUnits="userSpaceOnUse">
<stop stop-color="#09005D"/>
<stop offset="1" stop-color="#1A0F91"/>
</linearGradient>
<linearGradient id="paint8_linear_135_441" x1="345.726" y1="466.927" x2="323.373" y2="467.692" gradientUnits="userSpaceOnUse">
<stop stop-color="#09005D"/>
<stop offset="1" stop-color="#1A0F91"/>
</linearGradient>
<linearGradient id="paint9_linear_135_441" x1="344.082" y1="458.042" x2="338.382" y2="458.809" gradientUnits="userSpaceOnUse">
<stop stop-color="#FEBBBA"/>
<stop offset="1" stop-color="#FF928E"/>
</linearGradient>
<linearGradient id="paint10_linear_135_441" x1="456.074" y1="427.037" x2="452.454" y2="449.58" gradientUnits="userSpaceOnUse">
<stop stop-color="#09005D"/>
<stop offset="1" stop-color="#1A0F91"/>
</linearGradient>
<linearGradient id="paint11_linear_135_441" x1="447.22" y1="427.001" x2="446.895" y2="432.864" gradientUnits="userSpaceOnUse">
<stop stop-color="#FEBBBA"/>
<stop offset="1" stop-color="#FF928E"/>
</linearGradient>
<linearGradient id="paint12_linear_135_441" x1="337.634" y1="269.421" x2="346.84" y2="272.387" gradientUnits="userSpaceOnUse">
<stop stop-color="#FEBBBA"/>
<stop offset="1" stop-color="#FF928E"/>
</linearGradient>
<linearGradient id="paint13_linear_135_441" x1="404.904" y1="398.088" x2="448.911" y2="481.264" gradientUnits="userSpaceOnUse">
<stop stop-color="#09005D"/>
<stop offset="1" stop-color="#1A0F91"/>
</linearGradient>
<linearGradient id="paint14_linear_135_441" x1="345.296" y1="409.8" x2="396.038" y2="419.933" gradientUnits="userSpaceOnUse">
<stop stop-color="#09005D"/>
<stop offset="1" stop-color="#1A0F91"/>
</linearGradient>
<linearGradient id="paint15_linear_135_441" x1="370.574" y1="278.016" x2="404.657" y2="360.085" gradientUnits="userSpaceOnUse">
<stop stop-color="#FEBBBA"/>
<stop offset="1" stop-color="#FF928E"/>
</linearGradient>
<linearGradient id="paint16_linear_135_441" x1="382.056" y1="293.853" x2="379.518" y2="324.977" gradientUnits="userSpaceOnUse">
<stop stop-color="#FEBBBA"/>
<stop offset="1" stop-color="#FF928E"/>
</linearGradient>
<linearGradient id="paint17_linear_135_441" x1="388.667" y1="307.902" x2="371.903" y2="293.304" gradientUnits="userSpaceOnUse">
<stop stop-color="#09005D"/>
<stop offset="1" stop-color="#1A0F91"/>
</linearGradient>
<linearGradient id="paint18_linear_135_441" x1="389.396" y1="326.927" x2="388.388" y2="305.31" gradientUnits="userSpaceOnUse">
<stop stop-color="#FEBBBA"/>
<stop offset="1" stop-color="#FF928E"/>
</linearGradient>
<linearGradient id="paint19_linear_135_441" x1="420.251" y1="286.686" x2="425.89" y2="287.812" gradientUnits="userSpaceOnUse">
<stop stop-color="#FEBBBA"/>
<stop offset="1" stop-color="#FF928E"/>
</linearGradient>
</defs>
</svg>
