<svg width="500" height="500" viewBox="0 0 500 500" fill="none" xmlns="http://www.w3.org/2000/svg">
<path d="M488.616 205.942C494.607 305.48 449.19 400.771 370.471 449.329C356.512 457.94 341.063 465.382 324.001 471.079C198.001 513.145 151.001 477.721 118.001 433.441C85.0013 389.161 116.001 313.884 78.0013 282.887C40.0013 251.89 -5.99871 207.61 13.0013 142.296C32.0013 76.9819 79.0013 33.8079 123.001 38.2369C167.001 42.6649 213.001 100.23 244.001 62.5909C275.001 24.9519 374.001 -11.5791 439.001 51.5209C473.738 85.2419 485.341 151.528 488.616 205.942Z" fill="#5068E8"/>
<path opacity="0.7" d="M488.616 205.942C494.607 305.48 449.19 400.771 370.471 449.329C356.512 457.94 341.063 465.382 324.001 471.079C198.001 513.145 151.001 477.721 118.001 433.441C85.0013 389.161 116.001 313.884 78.0013 282.887C40.0013 251.89 -5.99871 207.61 13.0013 142.296C32.0013 76.9819 79.0013 33.8079 123.001 38.2369C167.001 42.6649 213.001 100.23 244.001 62.5909C275.001 24.9519 374.001 -11.5791 439.001 51.5209C473.738 85.2419 485.341 151.528 488.616 205.942Z" fill="white"/>
<path d="M225.115 59.1431L179.074 24.6591" stroke="#263238" stroke-miterlimit="10"/>
<path d="M349.823 152.545L229.641 62.533" stroke="#263238" stroke-miterlimit="10"/>
<path d="M362.686 162.179L356.914 157.856" stroke="#263238" stroke-miterlimit="10"/>
<path d="M294.018 143.788L190.41 105.508" stroke="#263238" stroke-miterlimit="10"/>
<path d="M343.794 162.179L300.695 146.256" stroke="#263238" stroke-miterlimit="10"/>
<path d="M180.396 165.323L168.496 165.201" stroke="#263238" stroke-miterlimit="10"/>
<path d="M293.977 166.482L189.82 165.419" stroke="#263238" stroke-miterlimit="10"/>
<path d="M316.597 166.712L301.52 166.559" stroke="#263238" stroke-miterlimit="10"/>
<path d="M355.66 114.704L337.754 51.105" stroke="#263238" stroke-miterlimit="10"/>
<path d="M359.663 128.932L357.359 120.749" stroke="#263238" stroke-miterlimit="10"/>
<path d="M389.309 154.427L411.047 134.977" stroke="#263238" stroke-miterlimit="10"/>
<path d="M382.332 160.668L386.593 156.855" stroke="#263238" stroke-miterlimit="10"/>
<path d="M444.59 100.824L486.606 59.417" stroke="#263238" stroke-miterlimit="10"/>
<path d="M434.469 110.798L441.499 103.87" stroke="#263238" stroke-miterlimit="10"/>
<path d="M400.855 22.773L402.732 10.302" stroke="#263238" stroke-miterlimit="10"/>
<path d="M391.277 86.4451L400.211 27.0601" stroke="#263238" stroke-miterlimit="10"/>
<path d="M389.887 95.686L390.674 90.454" stroke="#263238" stroke-miterlimit="10"/>
<path d="M462.172 140.993L473.004 137.244" stroke="#263238" stroke-miterlimit="10"/>
<path d="M415.426 157.175L455.278 143.38" stroke="#263238" stroke-miterlimit="10"/>
<path d="M394.422 164.446L411.201 158.637" stroke="#263238" stroke-miterlimit="10"/>
<path d="M297.84 70.306L323.396 100.219" stroke="#263238" stroke-miterlimit="10"/>
<path d="M256.902 22.392L294.817 66.77" stroke="#263238" stroke-miterlimit="10"/>
<path d="M371.665 109.213C371.079 109.213 370.605 109.688 370.605 110.274V171.535H372.726V110.274C372.725 109.687 372.251 109.213 371.665 109.213Z" fill="#263238" stroke="#263238" stroke-miterlimit="10"/>
<path d="M372.727 110.273C372.727 110.273 375.003 114.157 382.311 113.314C389.619 112.471 393.835 108.536 401.987 111.627C410.138 114.719 409.295 118.092 414.073 119.216C418.851 120.34 422.224 120.621 422.224 120.621C422.224 120.621 415.478 123.151 410.7 125.961C405.922 128.772 399.176 124.556 395.522 126.242C391.868 127.929 388.214 132.426 383.154 133.55C378.095 134.674 372.825 131.863 372.825 131.863L372.727 110.273Z" fill="#5068E8" stroke="#263238" stroke-miterlimit="10"/>
<path d="M129.854 77.346C129.854 77.346 125.535 64.39 109.494 62.539C93.4534 60.688 95.9214 69.943 90.9854 73.027C86.0494 76.112 81.1134 71.176 75.5614 72.41C70.0084 73.644 68.7744 78.58 65.6894 80.431C62.6044 82.282 57.6684 78.58 52.7334 79.197C47.7974 79.814 46.5634 83.516 44.7124 84.75C42.8614 85.984 36.6914 86.601 36.6914 86.601H158.234C158.234 86.601 155.149 76.112 145.894 73.645C136.641 71.176 134.173 76.729 129.854 77.346Z" stroke="#263238" stroke-miterlimit="10"/>
<path d="M143.895 100.614C143.895 100.614 141.54 93.549 132.793 92.54C124.046 91.531 125.392 96.577 122.7 98.259C120.008 99.941 117.317 97.25 114.289 97.923C111.261 98.596 110.588 101.287 108.906 102.297C107.224 103.306 104.532 101.288 101.841 101.624C99.1498 101.96 98.4768 103.979 97.4668 104.652C96.4578 105.325 93.0938 105.661 93.0938 105.661H159.37C159.37 105.661 157.688 99.942 152.641 98.596C147.596 97.25 146.25 100.278 143.895 100.614Z" stroke="#263238" stroke-miterlimit="10"/>
<path d="M351.81 24.646C351.81 24.646 349.455 17.581 340.708 16.572C331.961 15.563 333.307 20.609 330.615 22.291C327.924 23.973 325.232 21.282 322.204 21.955C319.176 22.628 318.503 25.319 316.821 26.329C315.139 27.338 312.447 25.32 309.756 25.656C307.065 25.992 306.392 28.011 305.382 28.684C304.373 29.357 301.008 29.693 301.008 29.693H367.284C367.284 29.693 365.602 23.974 360.555 22.628C355.511 21.281 354.165 24.309 351.81 24.646Z" stroke="#263238" stroke-miterlimit="10"/>
<path d="M472.56 158.19C472.56 158.19 470.205 151.125 461.458 150.116C452.711 149.107 454.057 154.153 451.365 155.835C448.674 157.517 445.982 154.826 442.954 155.499C439.926 156.172 439.253 158.863 437.571 159.873C435.889 160.882 433.197 158.864 430.506 159.2C427.815 159.536 427.142 161.555 426.132 162.228C425.123 162.901 421.758 163.237 421.758 163.237H488.034C488.034 163.237 486.352 157.518 481.306 156.172C476.26 154.826 474.915 157.854 472.56 158.19Z" stroke="#263238" stroke-miterlimit="10"/>
<path d="M355.569 364.724L336.622 361.844L321.161 359.874L304.033 358.055L289.633 356.843L266.29 355.176L247.343 354.592C224.184 358.973 181.645 372.703 147.225 385.967C129.68 392.728 114.161 399.598 104.848 403.868C107.394 414.559 111.423 424.618 118 433.443C151 477.724 198 513.148 324 471.082C330.081 469.052 335.947 466.791 341.624 464.343L346.474 452.945L356.781 432.785L382.095 388.979L392.857 372.002L377.547 368.516L355.569 364.724Z" fill="#5068E8"/>
<path d="M454.532 309.027L439.201 299.203L423.274 290.57L407.496 283.277L389.486 275.983L371.178 269.88L350.786 264.522L336.199 261.545L320.868 261.098L293.183 261.842L255.75 264.155C255.75 264.155 271.875 271.965 290.015 283.051C308.155 294.137 322.012 313.284 330.578 325.378C339.144 337.471 348.718 363.17 348.718 363.17L360.015 365.142L382.193 369.31L398.566 373.18L418.214 377.645L439.531 383.806C452.768 365.034 463.583 344.303 471.696 322.251L454.532 309.027Z" fill="#5068E8"/>
<path d="M160.051 276.871L162.486 270.58L166.748 262.057L174.053 250.896L182.779 240.141L194.346 229.589L206.116 219.849L198.405 217.211L170.807 210.717L164.11 212.341L153.761 214.979L134.889 221.27L120.075 227.764L102.42 237.707L79.4892 252.52C77.4312 253.786 65.2532 263.322 59.9922 267.458C66.0052 272.94 72.0982 278.074 77.9982 282.887C81.8792 286.052 85.0302 289.686 87.6132 293.695L93.2892 292.091L109.32 287.424L133.265 282.148L160.051 276.871Z" fill="#5068E8"/>
<path d="M366.258 171.822L350.277 184.553L336.733 197.284L322.919 212.723L311.272 226.266L304.23 236.83L298.001 246.039L295.562 250.102L318.044 260.665L320.867 261.098L327.525 260.665L338.63 232.225L347.568 214.89L358.945 195.658L369.508 180.49L376.551 171.822H366.258Z" fill="#5068E8"/>
<path d="M171.561 210.991C171.561 210.991 113.615 215.865 41.5898 283.558" stroke="#263238" stroke-miterlimit="10"/>
<path d="M206.218 219.656C206.218 219.656 169.934 244.567 160.188 276.518" stroke="#263238" stroke-miterlimit="10"/>
<path d="M335.281 478.96C347.841 443.31 380.541 391.06 393.031 371.73" stroke="#263238" stroke-miterlimit="10"/>
<path d="M51.4727 431.42C51.4727 431.42 144.543 377.39 247.343 354.59" stroke="#263238" stroke-miterlimit="10"/>
<path d="M254.066 264.31C254.066 264.31 324.824 286.728 348.643 363.791" stroke="#263238" stroke-miterlimit="10"/>
<path d="M336.035 261.508C336.035 261.508 437.618 277.621 490.861 342.074" stroke="#263238" stroke-miterlimit="10"/>
<path d="M295.199 250.388C295.199 250.388 318.483 207.636 366.696 171.945" stroke="#263238" stroke-miterlimit="10"/>
<path d="M376.647 171.45C376.647 171.45 339.029 218.455 327.758 261.033" stroke="#263238" stroke-miterlimit="10"/>
<path d="M453.745 344.392C452.82 343.898 451.62 344.054 450.457 344.818C448.474 346.037 445.858 349.427 445.233 350.558C444.409 351.242 443.617 351.959 442.861 352.708C443.524 351.367 445.301 347.712 443.805 345.462C441.719 342.618 439.093 346.713 440.25 349.297C441.12 351.455 441.54 353.176 441.504 354.128C440.532 355.198 439.625 356.32 438.788 357.49C439.201 356.099 440.357 352.165 438.479 350.184C435.945 347.733 434.077 352.178 435.652 354.528C436.883 356.517 437.589 358.147 437.708 359.086C436.929 360.303 436.223 361.564 435.59 362.861C435.761 361.451 436.264 357.338 434.06 355.691C431.153 353.698 430.062 358.38 432.005 360.435C433.555 362.194 434.524 363.687 434.795 364.594C434.229 365.921 433.74 367.281 433.33 368.666C433.264 367.227 433.071 363.096 430.63 361.848C427.431 360.367 427.133 365.177 429.391 366.886C431.208 368.361 432.411 369.674 432.832 370.529C432.494 371.932 432.234 373.357 432.062 374.797C431.746 373.331 430.856 369.33 428.269 368.522C424.866 367.596 425.373 372.431 427.889 373.749C429.911 374.897 431.311 375.991 431.881 376.773C431.77 378.463 431.772 380.167 431.899 381.876C431.91 382.031 432.04 382.148 432.192 382.148C432.199 382.148 432.207 382.148 432.214 382.147C432.376 382.135 432.497 381.994 432.485 381.832C432.36 380.147 432.358 378.467 432.467 376.801C433.135 376.112 434.707 375.315 436.929 374.934C439.558 374.384 441.617 372.038 438.31 371.142C435.613 370.304 433.424 373.321 432.664 374.701C432.835 373.324 433.088 371.962 433.413 370.619C434.195 370.071 435.868 369.575 438.1 369.584C440.781 369.5 443.196 367.558 440.087 366.118C437.593 364.856 434.964 367.368 433.965 368.595C434.359 367.295 434.822 366.018 435.356 364.771C436.218 364.369 437.946 364.169 440.138 364.554C442.792 364.927 445.494 363.422 442.67 361.481C440.423 359.825 437.42 361.846 436.231 362.882C436.831 361.674 437.496 360.499 438.225 359.363C439.14 359.11 440.878 359.201 442.98 359.949C445.533 360.762 448.453 359.723 445.996 357.335C444.043 355.314 440.709 356.844 439.381 357.664C440.175 356.566 441.035 355.514 441.95 354.507C442.893 354.402 444.603 354.777 446.565 355.871C448.948 357.097 452.022 356.549 450.006 353.78C448.41 351.444 444.811 352.436 443.373 353.027C444.136 352.278 444.932 351.559 445.764 350.876C446.867 350.469 450.159 349.391 451.499 349.047C452.297 348.773 454.897 347.749 454.854 346.071C454.846 345.408 454.412 344.747 453.745 344.392Z" fill="#263238"/>
<path d="M462.458 366.607C462.036 366.019 461.244 365.749 460.291 365.867C458.69 366.017 456.035 367.319 455.302 367.83C454.583 368.002 453.873 368.205 453.176 368.438C453.996 367.809 456.212 366.087 455.972 364.236C455.547 361.837 452.671 363.573 452.599 365.528C452.48 367.131 452.215 368.325 451.902 368.904C450.974 369.27 450.069 369.689 449.193 370.159C449.873 369.423 451.791 367.338 451.231 365.537C450.409 363.245 447.895 365.429 448.153 367.366C448.309 368.974 448.249 370.199 448.036 370.818C447.182 371.334 446.36 371.901 445.572 372.511C446.108 371.689 447.675 369.295 446.812 367.601C445.619 365.479 443.514 368.047 444.091 369.914C444.515 371.477 444.66 372.698 444.551 373.342C443.795 373.991 443.078 374.685 442.401 375.418C442.799 374.506 443.94 371.888 442.808 370.369C441.278 368.475 439.625 371.365 440.503 373.113C441.179 374.582 441.524 375.762 441.524 376.42C440.886 377.186 440.291 377.99 439.744 378.83C439.995 377.825 440.665 375.074 439.309 373.785C437.483 372.173 436.322 375.323 437.478 376.908C438.38 378.236 438.914 379.342 439.029 380C438.445 381.013 437.926 382.07 437.483 383.168C437.443 383.267 437.487 383.379 437.581 383.426C437.586 383.428 437.59 383.43 437.595 383.432C437.699 383.474 437.817 383.424 437.859 383.32C438.296 382.238 438.807 381.196 439.384 380.197C440.008 379.973 441.225 379.96 442.718 380.402C444.515 380.863 446.506 380.038 444.731 378.474C443.316 377.132 441.039 378.333 440.147 378.956C440.673 378.155 441.246 377.388 441.857 376.655C442.509 376.554 443.697 376.758 445.077 377.444C446.764 378.21 448.853 377.744 447.366 375.903C446.206 374.36 443.81 375.114 442.816 375.57C443.457 374.885 444.133 374.235 444.845 373.625C445.502 373.639 446.633 374.043 447.875 374.95C449.406 375.991 451.539 375.883 450.381 373.819C449.494 372.107 447.016 372.443 445.964 372.722C446.704 372.157 447.475 371.632 448.274 371.15C448.918 371.272 449.967 371.86 451.041 372.964C452.375 374.247 454.502 374.494 453.707 372.265C453.114 370.417 450.581 370.347 449.508 370.45C450.335 370.012 451.189 369.622 452.063 369.278C452.679 369.501 453.624 370.255 454.506 371.532C455.608 373.019 457.681 373.618 457.276 371.286C457 369.352 454.467 368.868 453.396 368.795C454.097 368.564 454.81 368.361 455.534 368.192C456.342 368.276 458.711 368.613 459.646 368.809C460.224 368.883 462.148 369.041 462.633 367.989C462.83 367.573 462.763 367.031 462.458 366.607Z" fill="#263238"/>
<path d="M184.87 326.529C184.169 326.28 183.342 326.517 182.606 327.176C181.343 328.241 179.864 330.899 179.545 331.759C179.039 332.327 178.559 332.914 178.107 333.519C178.43 332.507 179.291 329.753 178.003 328.332C176.237 326.556 174.827 329.709 175.913 331.401C176.752 332.824 177.229 333.988 177.305 334.66C176.736 335.514 176.218 336.398 175.754 337.308C175.897 336.288 176.292 333.403 174.764 332.211C172.726 330.758 171.884 334.077 173.238 335.56C174.313 336.826 174.981 337.896 175.164 338.543C174.746 339.48 174.384 340.44 174.077 341.418C174.048 340.41 173.966 337.469 172.245 336.545C169.993 335.453 169.722 338.856 171.304 340.093C172.578 341.164 173.417 342.11 173.703 342.718C173.446 343.709 173.247 344.716 173.105 345.732C172.906 344.729 172.334 341.849 170.488 341.231C168.085 340.529 168.385 343.938 170.151 344.899C171.583 345.743 172.567 346.537 172.952 347.093C172.863 348.114 172.832 349.142 172.863 350.171C172.486 349.175 171.437 346.46 169.536 346.167C167.049 345.877 167.916 349.218 169.822 349.877C171.363 350.469 172.462 351.089 172.945 351.578C173.046 352.776 173.228 353.973 173.498 355.159C173.522 355.266 173.625 355.335 173.732 355.319C173.737 355.318 173.742 355.317 173.747 355.316C173.859 355.29 173.93 355.179 173.904 355.066C173.638 353.896 173.459 352.717 173.36 351.536C173.756 350.981 174.776 350.256 176.295 349.753C178.082 349.089 179.28 347.224 176.863 346.945C174.881 346.642 173.663 348.992 173.276 350.041C173.251 349.056 173.284 348.073 173.37 347.096C173.861 346.628 174.983 346.103 176.551 345.873C178.425 345.53 179.915 343.911 177.579 343.229C175.695 342.607 174.114 344.649 173.543 345.616C173.682 344.662 173.872 343.716 174.115 342.784C174.678 342.411 175.87 342.088 177.45 342.126C179.353 342.107 181.091 340.765 178.902 339.701C177.149 338.776 175.255 340.513 174.53 341.366C174.823 340.455 175.166 339.559 175.558 338.684C176.174 338.41 177.404 338.29 178.958 338.592C180.837 338.892 182.777 337.854 180.799 336.438C179.214 335.226 177.035 336.653 176.189 337.369C176.63 336.514 177.123 335.684 177.659 334.881C178.31 334.708 179.55 334.79 181.043 335.35C182.846 335.959 184.946 335.248 183.237 333.518C181.869 332.047 179.447 333.124 178.5 333.691C178.956 333.084 179.439 332.495 179.951 331.928C180.683 331.525 182.879 330.42 183.784 330.037C184.315 329.76 186.032 328.766 185.824 327.593C185.75 327.125 185.376 326.708 184.87 326.529Z" fill="#263238"/>
<path d="M193.337 341.204C192.978 340.836 192.394 340.73 191.737 340.914C190.629 341.189 188.902 342.384 188.442 342.82C187.955 343.017 187.478 343.234 187.014 343.472C187.523 342.944 188.897 341.5 188.532 340.226C187.98 338.587 186.144 340.11 186.3 341.49C186.386 342.628 186.326 343.495 186.168 343.934C185.555 344.289 184.964 344.679 184.399 345.102C184.799 344.513 185.924 342.847 185.341 341.642C184.521 340.12 182.987 341.919 183.374 343.252C183.653 344.364 183.741 345.231 183.657 345.688C183.112 346.141 182.595 346.625 182.106 347.137C182.396 346.504 183.242 344.656 182.457 343.559C181.395 342.195 180.189 344.221 180.791 345.471C181.254 346.524 181.485 347.365 181.476 347.83C181.014 348.366 180.584 348.929 180.186 349.515C180.369 348.833 180.893 346.874 179.938 345.927C178.663 344.759 177.808 346.963 178.61 348.097C179.24 349.057 179.607 349.849 179.676 350.311C179.309 350.917 178.976 351.544 178.681 352.191C178.751 351.459 178.93 349.457 177.842 348.695C176.389 347.756 175.908 350.091 176.887 351.081C177.661 351.918 178.153 352.638 178.303 353.088C178 353.861 177.747 354.658 177.553 355.476C177.535 355.55 177.578 355.624 177.649 355.647C177.653 355.648 177.656 355.649 177.659 355.65C177.736 355.668 177.814 355.621 177.833 355.543C178.025 354.737 178.274 353.951 178.573 353.189C178.987 352.966 179.841 352.828 180.936 352.98C182.246 353.114 183.557 352.324 182.145 351.413C181.01 350.62 179.538 351.705 178.977 352.237C179.262 351.619 179.583 351.02 179.934 350.441C180.381 350.301 181.236 350.318 182.278 350.654C183.544 351.013 184.961 350.465 183.722 349.33C182.744 348.369 181.142 349.152 180.493 349.577C180.871 349.028 181.276 348.5 181.711 347.997C182.174 347.937 183.011 348.101 183.978 348.607C185.163 349.176 186.649 348.874 185.618 347.547C184.814 346.439 183.11 346.937 182.401 347.244C182.861 346.769 183.347 346.318 183.856 345.896C184.321 345.914 185.12 346.215 185.991 346.877C187.063 347.636 188.583 347.585 187.789 346.104C187.177 344.869 185.391 345.088 184.648 345.274C185.182 344.879 185.741 344.515 186.318 344.181C186.774 344.272 187.517 344.702 188.272 345.505C189.203 346.432 190.722 346.633 190.191 345.039C189.792 343.71 187.963 343.638 187.203 343.701C187.671 343.464 188.15 343.247 188.64 343.051C189.216 343.025 190.915 343.01 191.592 343.049C192.006 343.039 193.373 342.947 193.602 342.157C193.7 341.843 193.595 341.47 193.337 341.204Z" fill="#263238"/>
<path d="M56.888 351.459C57.342 351.298 57.878 351.451 58.354 351.878C59.172 352.568 60.13 354.289 60.337 354.847C60.665 355.215 60.976 355.595 61.269 355.987C61.06 355.332 60.502 353.548 61.336 352.627C62.48 351.477 63.393 353.519 62.69 354.615C62.146 355.537 61.837 356.291 61.788 356.726C62.157 357.279 62.492 357.852 62.793 358.441C62.701 357.78 62.444 355.912 63.434 355.139C64.754 354.198 65.299 356.348 64.422 357.308C63.726 358.128 63.293 358.821 63.175 359.24C63.446 359.847 63.68 360.469 63.879 361.102C63.898 360.449 63.951 358.544 65.066 357.946C66.525 357.239 66.7 359.443 65.676 360.245C64.85 360.939 64.307 361.551 64.122 361.945C64.288 362.587 64.418 363.239 64.509 363.897C64.638 363.247 65.009 361.382 66.204 360.981C67.76 360.527 67.566 362.735 66.422 363.357C65.494 363.904 64.857 364.418 64.607 364.778C64.664 365.439 64.685 366.105 64.665 366.772C64.909 366.127 65.588 364.368 66.82 364.178C68.431 363.99 67.869 366.154 66.635 366.581C65.637 366.964 64.925 367.366 64.612 367.683C64.547 368.459 64.429 369.234 64.254 370.003C64.238 370.073 64.172 370.117 64.102 370.107C64.099 370.107 64.095 370.106 64.092 370.105C64.019 370.088 63.974 370.016 63.99 369.943C64.163 369.185 64.278 368.421 64.343 367.656C64.087 367.297 63.426 366.827 62.442 366.501C61.284 366.071 60.509 364.863 62.074 364.682C63.358 364.485 64.147 366.008 64.398 366.687C64.414 366.049 64.393 365.412 64.337 364.779C64.019 364.476 63.292 364.136 62.276 363.987C61.062 363.765 60.097 362.716 61.61 362.274C62.831 361.871 63.854 363.194 64.225 363.82C64.135 363.202 64.012 362.589 63.855 361.986C63.49 361.744 62.718 361.535 61.695 361.56C60.462 361.548 59.337 360.678 60.754 359.989C61.889 359.39 63.117 360.515 63.586 361.067C63.396 360.477 63.174 359.897 62.92 359.33C62.521 359.152 61.724 359.075 60.717 359.271C59.5 359.465 58.243 358.793 59.525 357.875C60.552 357.09 61.963 358.014 62.511 358.478C62.225 357.924 61.906 357.387 61.559 356.866C61.138 356.754 60.334 356.807 59.367 357.17C58.199 357.564 56.839 357.104 57.946 355.983C58.832 355.03 60.401 355.728 61.014 356.095C60.718 355.702 60.406 355.32 60.074 354.953C59.6 354.692 58.177 353.976 57.591 353.728C57.247 353.549 56.135 352.905 56.269 352.145C56.317 351.846 56.56 351.575 56.888 351.459Z" fill="#263238"/>
<path d="M51.4036 360.966C51.6356 360.728 52.0146 360.659 52.4396 360.778C53.1576 360.956 54.2756 361.73 54.5736 362.012C54.8886 362.14 55.1976 362.28 55.4986 362.434C55.1686 362.092 54.2786 361.157 54.5146 360.331C54.8726 359.269 56.0616 360.256 55.9606 361.15C55.9046 361.887 55.9436 362.449 56.0466 362.733C56.4436 362.963 56.8266 363.216 57.1926 363.489C56.9336 363.108 56.2046 362.028 56.5826 361.247C57.1136 360.261 58.1076 361.427 57.8566 362.29C57.6756 363.011 57.6186 363.572 57.6736 363.868C58.0266 364.161 58.3616 364.475 58.6786 364.807C58.4906 364.397 57.9426 363.2 58.4506 362.489C59.1386 361.605 59.9196 362.918 59.5296 363.727C59.2296 364.409 59.0806 364.954 59.0856 365.255C59.3846 365.602 59.6636 365.967 59.9216 366.347C59.8026 365.905 59.4636 364.636 60.0826 364.023C60.9086 363.266 61.4616 364.694 60.9426 365.429C60.5346 366.051 60.2966 366.564 60.2516 366.863C60.4886 367.255 60.7046 367.661 60.8956 368.081C60.8506 367.607 60.7346 366.31 61.4396 365.816C62.3806 365.208 62.6926 366.72 62.0586 367.362C61.5576 367.904 61.2386 368.37 61.1416 368.662C61.3376 369.163 61.5016 369.679 61.6276 370.209C61.6386 370.257 61.6116 370.305 61.5656 370.32C61.5636 370.321 61.5606 370.321 61.5586 370.322C61.5086 370.334 61.4586 370.303 61.4466 370.253C61.3226 369.731 61.1606 369.222 60.9676 368.728C60.6996 368.583 60.1466 368.494 59.4366 368.593C58.5876 368.68 57.7386 368.168 58.6536 367.578C59.3896 367.065 60.3426 367.767 60.7056 368.112C60.5206 367.712 60.3136 367.323 60.0856 366.948C59.7966 366.857 59.2416 366.869 58.5666 367.086C57.7466 367.319 56.8286 366.964 57.6316 366.228C58.2646 365.606 59.3026 366.113 59.7236 366.388C59.4786 366.033 59.2156 365.69 58.9346 365.364C58.6346 365.325 58.0926 365.431 57.4656 365.759C56.6976 366.128 55.7356 365.932 56.4036 365.073C56.9246 364.355 58.0276 364.678 58.4876 364.877C58.1896 364.569 57.8746 364.277 57.5446 364.004C57.2436 364.016 56.7256 364.211 56.1616 364.639C55.4666 365.131 54.4826 365.098 54.9966 364.138C55.3936 363.338 56.5496 363.48 57.0306 363.6C56.6846 363.344 56.3226 363.108 55.9486 362.892C55.6536 362.951 55.1716 363.229 54.6826 363.749C54.0796 364.35 53.0956 364.48 53.4396 363.447C53.6976 362.586 54.8826 362.54 55.3746 362.58C55.0716 362.427 54.7616 362.286 54.4436 362.159C54.0706 362.142 52.9696 362.133 52.5316 362.158C52.2636 362.152 51.3776 362.092 51.2296 361.58C51.1676 361.379 51.2356 361.137 51.4036 360.966Z" fill="#263238"/>
<path d="M482.1 399.01C455.81 388.15 425.82 378.92 393.03 371.73C348.83 362.02 299.54 356 247.34 354.59C239.49 354.38 231.59 354.27 223.62 354.27C144.78 354.27 71.6602 364.78 11.4102 382.73" stroke="#263238" stroke-miterlimit="10"/>
<path d="M473.719 272.115C482.167 273.39 490.699 274.79 499.31 276.323" stroke="#263238" stroke-miterlimit="10"/>
<path d="M37.3711 310.71C37.3711 310.71 214.665 234.272 469.126 271.433" stroke="#263238" stroke-miterlimit="10"/>
<path d="M40.4727 196.841C72.2267 196.043 185.831 198.292 319.705 261.348" stroke="#263238" stroke-miterlimit="10"/>
<path d="M31.6406 197.231C31.6406 197.231 33.3136 197.097 36.5106 196.969" stroke="#263238" stroke-miterlimit="10"/>
<path d="M191.93 215.21C191.93 215.21 325.079 147.942 491.285 178.891" stroke="#263238" stroke-miterlimit="10"/>
<path d="M89.4473 302.673L93.6993 305.744L93.9353 316.846C93.9353 316.846 89.2103 316.61 87.3213 314.956C85.4313 313.302 84.6523 310.371 84.6523 310.371L89.4473 302.673Z" fill="white" stroke="#263238" stroke-miterlimit="10"/>
<path d="M84.9336 231.009C84.9336 231.009 69.7396 274.049 70.6956 278.637C71.6516 283.225 78.1516 301.387 79.1076 303.299C80.0636 305.211 82.5486 305.593 82.5486 305.593C82.5486 305.593 84.2686 308.843 84.6516 310.372C85.0336 311.901 87.1366 311.328 88.2836 310.946C89.4306 310.564 90.1956 308.843 90.5776 308.269C90.9596 307.696 90.9596 308.46 90.9596 306.548C90.9596 304.636 89.4306 299.474 89.4306 299.474C89.4306 299.474 90.3866 296.798 90.3866 294.695C90.3866 292.592 88.0926 277.68 87.9016 276.725C87.7106 275.769 89.6226 269.46 89.6226 269.46L84.9336 231.009Z" fill="#5068E8" stroke="#263238" stroke-miterlimit="10"/>
<path d="M137.425 436.478C137.425 436.478 138.937 438.936 139.504 439.314C140.071 439.692 143.285 441.772 144.419 442.339C145.553 442.906 146.498 443.851 146.498 445.553C146.498 447.255 144.797 447.822 141.205 449.145C137.613 450.468 135.534 452.548 130.429 452.926C125.325 453.304 123.434 452.359 123.434 450.846C123.434 449.334 124.171 439.21 124.171 439.21C124.171 439.21 134.967 439.503 137.425 436.478Z" fill="#263238" stroke="#263238" stroke-miterlimit="10"/>
<path d="M94.0614 437.32C94.0614 437.32 93.7164 447.125 94.0684 447.909C94.4204 448.693 96.1784 449.947 99.6954 450.104C103.212 450.261 105.85 449.163 106.553 448.536C107.256 447.909 107.256 446.341 107.256 446.341L108.343 437.711L94.0614 437.32Z" fill="#263238" stroke="#263238" stroke-miterlimit="10"/>
<path d="M93.4549 298.926C93.4549 298.926 91.1509 315.343 91.5339 320.122C91.9159 324.901 92.1079 331.784 92.1079 331.784L93.9349 429.053L91.3359 430.47L92.9899 437.321C92.9899 437.321 96.0609 438.502 99.1319 438.738C102.203 438.974 108.345 437.793 108.345 437.793L109.29 433.069L107.873 429.289C107.873 429.289 107.873 427.872 108.346 425.982C108.818 424.092 111.181 382.753 111.181 382.753L117.087 333.619L119.213 337.162L124.646 428.108C124.646 428.108 122.756 431.651 122.992 432.36C123.228 433.069 124.173 435.903 124.173 435.903V439.21C124.173 439.21 127.48 440.627 130.315 439.919C133.15 439.21 137.165 437.793 137.165 437.793C137.165 437.793 138.346 434.486 138.346 433.777C138.346 433.068 138.11 431.415 138.11 430.47C138.11 429.525 146.785 325.666 146.785 325.666L144.015 300.311L93.4549 298.926Z" fill="#263238" stroke="#263238" stroke-miterlimit="10"/>
<path d="M104.967 218.805C104.967 218.805 85.185 226.999 84.935 231.009C84.684 235.019 93.456 298.926 93.456 298.926L140.822 300.179C140.822 300.179 146.586 229.505 145.584 228.001C144.582 226.497 124.949 219.009 124.949 219.009C124.949 219.009 108.208 217.879 104.967 218.805Z" fill="#5068E8" stroke="#263238" stroke-miterlimit="10"/>
<path d="M134.124 193.726C134.124 193.726 135.143 197.6 134.532 199.231C133.92 200.862 134.328 201.066 134.328 202.697C134.328 204.328 134.736 206.775 133.308 209.629C131.881 212.483 130.25 217.173 128.619 217.581C126.988 217.989 125.561 217.173 125.561 217.173L124.949 219.008L108.434 216.561L109.046 212.279C109.046 212.279 108.638 201.677 108.842 199.842C109.046 198.007 108.842 192.094 113.735 188.424C118.628 184.755 131.474 184.347 134.124 193.726Z" fill="white" stroke="#263238" stroke-miterlimit="10"/>
<path d="M111.49 180.066C111.49 180.066 106.393 181.697 104.558 189.037C102.723 196.377 104.762 203.105 105.985 204.533C107.208 205.961 108.839 208.611 108.839 208.611L109.043 212.281C109.043 212.281 118.422 213.504 120.461 213.097C122.5 212.689 123.315 212.281 124.131 211.67C124.947 211.059 125.762 208.815 126.374 205.961C126.986 203.107 129.636 200.048 129.636 201.679C129.636 203.31 129.636 204.941 129.636 204.941C129.636 204.941 131.879 204.533 131.879 202.902C131.879 201.271 131.471 199.844 131.879 199.028C132.287 198.212 133.714 197.397 134.53 195.766C135.345 194.135 135.345 189.038 135.345 189.038C135.345 189.038 137.792 192.3 137.996 189.446C138.2 186.592 136.773 182.31 132.491 180.271C128.209 178.232 125.151 178.64 125.151 178.64C125.151 178.64 117.607 173.745 111.49 180.066Z" fill="#263238" stroke="#263238" stroke-miterlimit="10"/>
<path d="M129.639 220.232C129.639 220.232 125.765 216.358 119.037 214.727C112.309 213.096 107.211 214.523 106.192 215.95C105.172 217.377 104.969 218.805 104.969 218.805C104.969 218.805 114.348 219.009 118.018 219.417C121.688 219.825 132.297 222.016 132.297 222.016L129.639 220.232Z" fill="#5068E8" stroke="#263238" stroke-miterlimit="10"/>
<path d="M137.062 248.552L139.568 295.167L147.589 323.487L154.104 322.986L155.608 316.721C155.608 316.721 156.36 311.207 156.36 310.205C156.36 309.203 154.607 251.811 151.85 242.539C149.093 233.266 145.834 227.251 142.827 227.251" fill="#5068E8"/>
<path d="M137.062 248.552L139.568 295.167L147.589 323.487L154.104 322.986L155.608 316.721C155.608 316.721 156.36 311.207 156.36 310.205C156.36 309.203 154.607 251.811 151.85 242.539C149.093 233.266 145.834 227.251 142.827 227.251" stroke="#263238" stroke-miterlimit="10"/>
<path d="M154.922 331.691H152.461V342.739H154.922V331.691Z" fill="#263238" stroke="#263238" stroke-miterlimit="10"/>
<path d="M154.104 322.985L157.107 331.21L153.475 337.136C153.475 337.136 149.651 336.945 149.078 336.371C148.504 335.797 146.019 333.312 146.975 332.547C147.931 331.782 147.931 331.782 147.931 331.782C147.931 331.782 146.402 327.003 146.784 325.664C147.166 324.326 147.589 323.484 147.589 323.484L154.104 322.985Z" fill="white" stroke="#263238" stroke-miterlimit="10"/>
<path d="M101.02 327.477L122.28 333.619" stroke="#7D7D7D" stroke-miterlimit="10"/>
<path d="M150.945 331.691H148.484V342.739H150.945V331.691Z" fill="#263238" stroke="#263238" stroke-miterlimit="10"/>
<path d="M151.988 393.271L164.502 388.648V343.149L151.988 342.716V393.271Z" fill="#808080" stroke="#263238" stroke-miterlimit="10"/>
<path d="M151.988 342.716H140.117V393.271H151.988V342.716Z" fill="#4C4C4C" stroke="#263238" stroke-miterlimit="10"/>
<path d="M105.504 240.281C105.504 240.281 115.865 260.341 121.596 264.97" stroke="#263238" stroke-miterlimit="10"/>
<path d="M111.234 258.577C111.234 258.577 118.949 268.717 123.138 270.48" stroke="#263238" stroke-miterlimit="10"/>
</svg>
