<svg width="500" height="500" viewBox="0 0 500 500" fill="none" xmlns="http://www.w3.org/2000/svg">
<path d="M500 382.398H0V382.648H500V382.398Z" fill="#EBEBEB"/>
<path d="M449.9 398.494H396.832V398.744H449.9V398.494Z" fill="#EBEBEB"/>
<path d="M331.22 395.361H272.555V395.611H331.22V395.361Z" fill="#EBEBEB"/>
<path d="M399.387 393.917H380.195V394.167H399.387V393.917Z" fill="#EBEBEB"/>
<path d="M143.666 390.888H100.473V391.138H143.666V390.888Z" fill="#EBEBEB"/>
<path d="M94.9049 390.888H79.4609V391.138H94.9049V390.888Z" fill="#EBEBEB"/>
<path d="M185.668 395.111H131.473V395.361H185.668V395.111Z" fill="#EBEBEB"/>
<path d="M237.014 337.8H43.915C40.768 337.8 38.207 335.239 38.207 332.092V60.66C38.207 57.513 40.768 54.952 43.915 54.952H237.014C240.16 54.952 242.721 57.513 242.721 60.66V332.092C242.721 335.239 240.16 337.8 237.014 337.8ZM43.915 55.203C40.905 55.203 38.457 57.651 38.457 60.661V332.093C38.457 335.103 40.905 337.551 43.915 337.551H237.014C240.023 337.551 242.471 335.103 242.471 332.093V60.66C242.471 57.651 240.023 55.202 237.014 55.202L43.915 55.203Z" fill="#EBEBEB"/>
<path d="M453.309 337.8H260.211C257.064 337.8 254.504 335.239 254.504 332.092V60.66C254.504 57.513 257.065 54.952 260.211 54.952H453.309C456.457 54.952 459.017 57.513 459.017 60.66V332.092C459.018 335.239 456.457 337.8 453.309 337.8ZM260.211 55.203C257.202 55.203 254.754 57.651 254.754 60.661V332.093C254.754 335.103 257.202 337.551 260.211 337.551H453.309C456.319 337.551 458.767 335.103 458.767 332.093V60.66C458.767 57.651 456.319 55.202 453.309 55.202L260.211 55.203Z" fill="#EBEBEB"/>
<path d="M372.777 277.777C347.197 244.615 335.358 212.11 304.26 259.946C290.265 245.163 277.966 230.37 269.013 216.423C220.564 140.95 171.851 187.396 132.295 238.678C92.739 289.961 47 382.394 47 382.394H196.847H449.609H458.768C458.768 382.394 398.511 311.14 372.777 277.777Z" fill="#F5F5F5"/>
<path d="M284.972 304.418C271.717 279.551 265.63 255.154 249.395 291.75C233.954 326.556 194.355 382.394 194.355 382.394H329.264C329.264 382.394 298.227 329.284 284.972 304.418Z" fill="#F0F0F0"/>
<path d="M66.1726 89.455C67.4516 89.501 68.3896 89.813 68.9476 90.31C75.0596 87.339 82.1526 85.513 88.0746 85.716C91.0856 85.814 93.4496 86.427 95.1066 87.427C101.615 82.942 110.01 79.764 116.191 79.764C119.703 79.764 121.926 80.793 122.769 82.509C129.511 79.498 136.485 77.649 142.167 77.649C151.228 77.649 154.354 82.348 150.907 88.947C155.181 89.065 158.779 91.67 155.708 94.01H55.6406C55.7616 93.865 55.8826 93.721 56.0196 93.571C58.2186 91.183 62.7596 89.339 66.1726 89.455Z" fill="#FAFAFA"/>
<path d="M169.515 118.573C170.267 118.602 170.801 118.829 171.104 119.195C174.809 117.031 179.032 115.703 182.481 115.85C184.242 115.921 185.597 116.371 186.515 117.098C186.519 117.102 186.52 117.098 186.52 117.098C190.512 113.837 195.559 111.525 199.175 111.525C201.233 111.525 202.488 112.273 202.901 113.521C206.972 111.327 211.129 109.983 214.454 109.983C218.576 109.983 220.477 112.05 220.034 115.232C221.984 114.308 223.912 113.761 225.5 113.761C227.701 113.761 228.773 114.807 228.659 116.446C228.853 116.446 229.045 116.454 229.234 116.471C232.603 116.744 233.974 118.862 232.453 121.283H163.637C165.082 119.686 167.63 118.493 169.515 118.573Z" fill="#FAFAFA"/>
<path d="M78.1265 149.551C78.6465 149.571 79.0155 149.728 79.2255 149.981C81.7875 148.485 84.7075 147.566 87.0915 147.668C88.3095 147.717 89.2465 148.028 89.8805 148.531C89.8835 148.534 89.8845 148.531 89.8845 148.531C92.6445 146.276 96.1345 144.678 98.6345 144.678C100.058 144.678 100.925 145.195 101.211 146.058C104.026 144.541 106.9 143.611 109.199 143.611C112.049 143.611 113.364 145.041 113.057 147.24C114.405 146.601 115.738 146.223 116.837 146.223C118.359 146.223 119.099 146.946 119.021 148.08C119.155 148.08 119.289 148.086 119.419 148.097C121.749 148.286 122.696 149.75 121.645 151.424H74.0625C75.0615 150.32 76.8235 149.495 78.1265 149.551Z" fill="#FAFAFA"/>
<path d="M398.811 140.056C418.08 140.056 433.7 124.436 433.7 105.167C433.7 85.8984 418.08 70.2781 398.811 70.2781C379.542 70.2781 363.922 85.8984 363.922 105.167C363.922 124.436 379.542 140.056 398.811 140.056Z" fill="#F0F0F0"/>
<path d="M313.653 104.149C314.932 104.195 315.87 104.507 316.428 105.004C322.54 102.033 329.633 100.207 335.556 100.41C338.567 100.508 340.931 101.121 342.588 102.121C349.096 97.636 357.491 94.458 363.672 94.458C367.184 94.458 369.407 95.487 370.25 97.203C376.992 94.192 383.966 92.343 389.648 92.343C398.709 92.343 401.835 97.042 398.388 103.641C402.662 103.759 406.26 106.364 403.19 108.704H303.121C303.242 108.559 303.363 108.415 303.5 108.265C305.698 105.877 310.24 104.033 313.653 104.149Z" fill="#FAFAFA"/>
<path d="M380.335 160.124C381.087 160.153 381.621 160.38 381.924 160.746C385.629 158.582 389.852 157.254 393.301 157.401C395.062 157.472 396.417 157.922 397.335 158.649C397.339 158.653 397.34 158.649 397.34 158.649C401.332 155.388 406.379 153.077 409.995 153.077C412.053 153.077 413.308 153.825 413.721 155.073C417.792 152.879 421.949 151.535 425.274 151.535C429.395 151.535 431.297 153.603 430.854 156.784C432.804 155.86 434.732 155.313 436.32 155.313C438.521 155.313 439.593 156.359 439.479 157.998C439.673 157.998 439.865 158.006 440.054 158.023C443.423 158.296 444.794 160.414 443.273 162.835H374.457C375.901 161.238 378.449 160.044 380.335 160.124Z" fill="#FAFAFA"/>
<path d="M249.998 427.561C357.08 427.561 443.887 422.492 443.887 416.238C443.887 409.985 357.08 404.915 249.998 404.915C142.916 404.915 56.1094 409.985 56.1094 416.238C56.1094 422.492 142.916 427.561 249.998 427.561Z" fill="#F5F5F5"/>
<path d="M391.522 284.622L390.566 284.916L392.948 292.678L393.904 292.385L391.522 284.622Z" fill="#5068E8"/>
<path d="M382.304 254.678L381.348 254.971L388.43 278.065L389.386 277.772L382.304 254.678Z" fill="#5068E8"/>
<path d="M349.014 157.996H313.428L239.285 399.729C236.802 407.826 242.857 416.017 251.326 416.017H411.114C419.583 416.017 425.639 407.826 423.155 399.729L349.014 157.996Z" fill="#5068E8"/>
<path opacity="0.2" d="M349.015 157.996H331.222L308.668 416.017H411.116C419.585 416.017 425.641 407.826 423.157 399.729L349.015 157.996Z" fill="#263238"/>
<path opacity="0.2" d="M349.014 157.996H340.664L366.113 416.017H411.116C419.585 416.017 425.641 407.826 423.157 399.729L349.014 157.996Z" fill="#263238"/>
<path opacity="0.2" d="M313.427 157.996H322L260.667 416.017H251.326C242.857 416.017 236.801 407.826 239.285 399.729L313.427 157.996Z" fill="white"/>
<path d="M330.941 148.389C341.617 148.389 350.964 155.554 353.738 165.864L365.222 208.556L362.168 222.056L350.488 210.973L339.418 236.39L329.341 218.723L316.821 236.39L311.375 209.89L299.974 225L297.277 207.556L308.097 166.042C310.807 155.645 320.196 148.389 330.941 148.389Z" fill="#5068E8"/>
<path opacity="0.7" d="M330.941 148.389C341.617 148.389 350.964 155.554 353.738 165.864L365.222 208.556L362.168 222.056L350.488 210.973L339.418 236.39L329.341 218.723L316.821 236.39L311.375 209.89L299.974 225L297.277 207.556L308.097 166.042C310.807 155.645 320.196 148.389 330.941 148.389Z" fill="white"/>
<path d="M308.668 417.017C308.29 417.017 307.928 416.802 307.759 416.436L290.814 379.697C290.634 379.306 290.724 378.843 291.038 378.549L357.009 316.731L316.02 236.846C315.922 236.654 315.888 236.436 315.924 236.224L330.265 150.891C330.356 150.346 330.872 149.977 331.417 150.07C331.961 150.162 332.329 150.677 332.237 151.222L317.951 236.228L359.133 316.488C359.337 316.885 359.253 317.369 358.927 317.674L292.932 379.514L309.575 415.598C309.806 416.099 309.587 416.694 309.086 416.925C308.951 416.988 308.808 417.017 308.668 417.017Z" fill="white"/>
<path d="M368.137 319.314C369.427 313.849 366.044 308.373 360.579 307.083C355.114 305.793 349.638 309.177 348.348 314.641C347.058 320.106 350.442 325.582 355.906 326.872C361.371 328.162 366.847 324.779 368.137 319.314Z" fill="#5068E8"/>
<path d="M358.241 328.111C352.084 328.111 347.074 323.102 347.074 316.944C347.074 310.787 352.083 305.777 358.241 305.777C364.398 305.777 369.408 310.786 369.408 316.944C369.408 323.102 364.399 328.111 358.241 328.111ZM358.241 307.778C353.187 307.778 349.074 311.89 349.074 316.945C349.074 322 353.186 326.112 358.241 326.112C363.296 326.112 367.408 322 367.408 316.945C367.408 311.89 363.296 307.778 358.241 307.778Z" fill="white"/>
<path d="M301.767 380.91C302.666 375.367 298.902 370.145 293.36 369.245C287.817 368.346 282.595 372.109 281.695 377.652C280.796 383.195 284.56 388.417 290.102 389.317C295.645 390.216 300.867 386.452 301.767 380.91Z" fill="#5068E8"/>
<path d="M291.722 390.444C285.565 390.444 280.555 385.435 280.555 379.277C280.555 373.12 285.564 368.11 291.722 368.11C297.879 368.11 302.889 373.119 302.889 379.277C302.889 385.435 297.88 390.444 291.722 390.444ZM291.722 370.111C286.667 370.111 282.555 374.223 282.555 379.278C282.555 384.333 286.667 388.445 291.722 388.445C296.776 388.445 300.889 384.333 300.889 379.278C300.889 374.223 296.777 370.111 291.722 370.111Z" fill="white"/>
<path d="M316.909 246.556C322.524 246.556 327.076 242.004 327.076 236.389C327.076 230.774 322.524 226.222 316.909 226.222C311.294 226.222 306.742 230.774 306.742 236.389C306.742 242.004 311.294 246.556 316.909 246.556Z" fill="#5068E8"/>
<path d="M316.909 247.556C310.752 247.556 305.742 242.547 305.742 236.389C305.742 230.232 310.751 225.222 316.909 225.222C323.066 225.222 328.076 230.231 328.076 236.389C328.076 242.546 323.066 247.556 316.909 247.556ZM316.909 227.222C311.855 227.222 307.742 231.334 307.742 236.389C307.742 241.444 311.854 245.556 316.909 245.556C321.964 245.556 326.076 241.444 326.076 236.389C326.076 231.335 321.964 227.222 316.909 227.222Z" fill="white"/>
<path d="M341.294 152.683C342.194 147.14 338.43 141.918 332.887 141.018C327.344 140.119 322.122 143.883 321.223 149.425C320.323 154.968 324.087 160.19 329.63 161.09C335.172 161.989 340.395 158.225 341.294 152.683Z" fill="#5068E8"/>
<path d="M331.249 162.222C325.092 162.222 320.082 157.213 320.082 151.055C320.082 144.897 325.091 139.888 331.249 139.888C337.407 139.888 342.416 144.897 342.416 151.055C342.416 157.213 337.406 162.222 331.249 162.222ZM331.249 141.889C326.195 141.889 322.082 146.001 322.082 151.056C322.082 156.11 326.194 160.223 331.249 160.223C336.304 160.223 340.416 156.111 340.416 151.056C340.416 146.001 336.303 141.889 331.249 141.889Z" fill="white"/>
<path d="M331.219 151.111C330.667 151.111 330.219 150.663 330.219 150.111V105.166C330.219 104.614 330.667 104.166 331.219 104.166C331.771 104.166 332.219 104.614 332.219 105.166V150.111C332.219 150.664 331.771 151.111 331.219 151.111Z" fill="#5068E8"/>
<path d="M290.891 123.861C299.853 126.917 308.815 120.806 317.778 123.861C317.778 118.768 317.778 113.676 317.778 108.583C308.816 105.528 299.854 111.639 290.891 108.583C290.891 113.676 290.891 118.769 290.891 123.861Z" fill="#5068E8"/>
<path opacity="0.2" d="M300.711 109.153V124.423C306.401 123.673 312.091 121.923 317.781 123.863V108.583C312.091 106.643 306.401 108.393 300.711 109.153Z" fill="black"/>
<path d="M304.332 120.445C313.294 123.5 322.256 117.39 331.219 120.445C331.219 115.352 331.219 110.26 331.219 105.167C322.257 102.111 313.295 108.223 304.332 105.167C304.332 110.259 304.332 115.352 304.332 120.445Z" fill="#5068E8"/>
<path d="M158.719 215.633L161.831 220.637L152.902 221.777C152.902 221.777 153.086 219.818 153.752 216.882C154.03 215.656 155.235 214.875 156.463 215.142L158.719 215.633Z" fill="#7F3E3B"/>
<path d="M161.095 228.649L154.145 226.516L152.902 221.777L161.831 220.637L161.095 228.649Z" fill="#7F3E3B"/>
<path d="M184.766 159.643C185.833 159.313 187.109 158.866 188.291 158.464C189.494 158.046 190.692 157.602 191.879 157.138C194.247 156.196 196.603 155.234 198.861 154.141C203.372 152.01 207.725 149.487 210.859 146.487C211.654 145.75 212.309 144.974 212.866 144.205L213.068 143.916C213.116 143.901 213.328 143.405 212.924 144.341C212.694 144.964 212.673 145.615 212.717 146.008C212.727 146.108 212.742 146.208 212.764 146.306L212.811 146.517C212.829 146.582 212.852 146.65 212.875 146.709L212.918 146.827C213.052 147.123 213.092 147.106 213.067 147.05C213.024 146.973 212.95 146.842 212.829 146.681C212.342 146.022 211.478 145.173 210.59 144.382C209.683 143.585 208.719 142.757 207.716 141.961C203.687 138.766 199.314 135.619 195.037 132.47L197.638 127.606C202.815 129.612 207.756 131.9 212.645 134.748C213.863 135.472 215.093 136.209 216.307 137.07C217.532 137.943 218.745 138.825 220.073 140.158C220.735 140.887 221.46 141.551 222.232 143.34L222.364 143.694L222.49 144.131C222.529 144.283 222.564 144.416 222.595 144.587C222.626 144.769 222.651 144.952 222.671 145.136C222.754 145.863 222.688 146.855 222.35 147.796C221.826 149.048 221.837 148.826 221.711 149.098L221.377 149.665C220.468 151.151 219.444 152.499 218.349 153.68C213.93 158.406 208.868 161.473 203.766 164.117C201.195 165.407 198.601 166.58 195.953 167.596C194.632 168.11 193.304 168.599 191.962 169.062C190.599 169.538 189.316 169.935 187.799 170.36L184.766 159.643Z" fill="#7F3E3B"/>
<path d="M188.836 125.744L183.508 129.222L191.13 130.965L193.085 125.59L188.836 125.744Z" fill="#7F3E3B"/>
<path d="M199.613 128.417L193.084 125.591L191.129 130.965C191.129 130.965 196.317 136.404 199.613 132.773V128.417Z" fill="#7F3E3B"/>
<path d="M160.73 169.194C158.268 173.647 155.782 178.256 153.409 182.813C151.045 187.378 148.709 191.98 146.768 196.562C146.264 197.708 145.82 198.842 145.394 199.973L145.248 200.347C145.257 200.31 145.25 200.266 145.253 200.239C145.244 200.172 145.233 200.147 145.216 200.157C145.192 200.185 145.171 200.373 145.238 200.673C145.362 201.273 145.763 202.163 146.304 203.049C146.849 203.942 147.498 204.89 148.232 205.814C151.183 209.522 154.943 213.188 158.642 216.627L155.562 221.203C150.639 218.622 146.112 215.693 141.845 211.728C140.791 210.72 139.74 209.652 138.759 208.401C137.784 207.142 136.821 205.748 136.067 203.862C135.693 202.923 135.393 201.811 135.31 200.524C135.274 199.877 135.289 199.191 135.406 198.478C135.455 198.125 135.543 197.766 135.638 197.411L135.805 196.849C136.211 195.483 136.636 194.134 137.102 192.832C138.947 187.589 141.163 182.682 143.483 177.823C145.855 172.984 148.329 168.302 151.091 163.617L160.73 169.194Z" fill="#7F3E3B"/>
<path d="M167.742 137.161C167.093 143.917 168.051 150.459 166.539 156.333C166.539 156.333 168.219 161.785 178.205 161.785C189.186 161.785 183.242 156.334 183.242 156.334C177.194 154.903 177.177 150.456 178.059 146.281L167.742 137.161Z" fill="#7F3E3B"/>
<path d="M165.174 158.204C164.32 156.478 163.377 154.503 165.146 153.885C167.092 153.204 177.86 152.51 181.632 153.788C185.403 155.066 184.483 158.566 184.483 158.566L165.174 158.204Z" fill="#263238"/>
<path d="M143.759 404.074C143.033 403.919 142.282 403.602 141.765 403.354C141.696 403.321 141.653 403.25 141.657 403.173C141.661 403.096 141.71 403.03 141.782 403.004C142.106 402.886 144.97 401.87 145.743 402.501C145.863 402.599 145.996 402.781 145.95 403.095C145.887 403.516 145.688 403.82 145.356 403.996C144.937 404.218 144.356 404.201 143.759 404.074ZM142.36 403.207C143.636 403.758 144.671 403.928 145.178 403.659C145.4 403.541 145.53 403.338 145.574 403.038C145.596 402.892 145.547 402.831 145.503 402.795C145.101 402.467 143.515 402.831 142.36 403.207Z" fill="#5068E8"/>
<path d="M141.807 403.368C141.772 403.36 141.739 403.343 141.712 403.316C141.663 403.267 141.644 403.194 141.664 403.128C141.692 403.033 142.362 400.808 143.433 400.257C143.712 400.114 143.996 400.09 144.276 400.187C144.709 400.336 144.767 400.635 144.764 400.8C144.744 401.711 142.807 403.096 141.9 403.364C141.87 403.374 141.838 403.375 141.807 403.368ZM144.07 400.524C143.917 400.491 143.765 400.515 143.608 400.596C142.921 400.949 142.39 402.216 142.157 402.858C143.095 402.417 144.372 401.33 144.384 400.792C144.385 400.743 144.388 400.628 144.153 400.546C144.125 400.537 144.097 400.53 144.07 400.524Z" fill="#5068E8"/>
<path d="M195.292 409.311C194.55 409.311 193.749 409.157 193.192 409.022C193.118 409.004 193.061 408.943 193.049 408.868C193.037 408.792 193.071 408.717 193.136 408.676C193.428 408.493 196.018 406.903 196.905 407.359C197.043 407.43 197.211 407.581 197.231 407.897C197.258 408.322 197.125 408.66 196.838 408.902C196.474 409.206 195.903 409.311 195.292 409.311ZM193.743 408.755C195.106 409.028 196.154 408.979 196.593 408.61C196.786 408.448 196.87 408.223 196.851 407.92C196.842 407.772 196.782 407.723 196.731 407.697C196.27 407.46 194.795 408.146 193.743 408.755Z" fill="#5068E8"/>
<path d="M193.237 409.027C193.201 409.027 193.165 409.017 193.133 408.996C193.075 408.958 193.042 408.891 193.047 408.822C193.055 408.724 193.247 406.408 194.179 405.646C194.422 405.448 194.695 405.365 194.989 405.401C195.443 405.457 195.563 405.737 195.594 405.899C195.764 406.794 194.158 408.552 193.327 409.003C193.3 409.02 193.268 409.027 193.237 409.027ZM194.857 405.774C194.701 405.774 194.557 405.829 194.42 405.941C193.822 406.429 193.566 407.779 193.472 408.456C194.298 407.829 195.321 406.5 195.22 405.972C195.211 405.924 195.189 405.811 194.942 405.78C194.914 405.776 194.886 405.774 194.857 405.774Z" fill="#5068E8"/>
<path d="M184.598 408.737H191.944L192.019 391.724H184.673L184.598 408.737Z" fill="#7F3E3B"/>
<path d="M133.133 401.98L140.149 403.341L145.987 386.659L138.971 385.299L133.133 401.98Z" fill="#7F3E3B"/>
<path d="M141.097 402.358L133.025 400.639C132.731 400.576 132.441 400.728 132.328 401.004L129.795 407.141C129.532 407.778 129.944 408.52 130.624 408.653C133.451 409.204 134.849 409.329 138.398 410.085C140.582 410.55 145.042 411.737 148.058 412.379C151.008 413.007 151.988 410.098 150.8 409.563C145.475 407.163 143.681 405.035 142.186 403.051C141.917 402.695 141.527 402.45 141.097 402.358Z" fill="#263238"/>
<path d="M191.861 407.886H183.838C183.538 407.886 183.286 408.095 183.232 408.388L182.033 414.918C181.909 415.595 182.448 416.237 183.14 416.225C186.032 416.176 190.207 416.006 193.845 416.006C198.098 416.006 198.306 416.238 203.294 416.238C206.31 416.238 207.029 413.189 205.756 412.913C199.96 411.656 198.737 411.521 193.653 408.459C193.1 408.126 192.495 407.886 191.861 407.886Z" fill="#263238"/>
<path d="M154.443 157.802C147.685 159.646 139.691 178.344 139.691 178.344L155.213 187.111C155.213 187.111 158.843 180.494 162.421 172.294C166.169 163.702 165.718 154.725 154.443 157.802Z" fill="#263238"/>
<path d="M198.351 190.81C198.298 199.01 197.801 209.21 196.58 221.87H157.28C156.804 216.166 159.153 189.524 153.562 162.604C153.03 160.044 154.734 157.556 157.321 157.178C159.699 156.83 162.682 156.472 165.609 156.33C170.62 156.09 177.884 155.93 182.309 156.33C184.782 156.555 187.202 156.955 189.169 157.342C192.363 157.97 194.957 160.314 195.83 163.45C196.705 166.592 197.616 171.518 198.067 179.081C198.268 182.45 198.378 186.33 198.351 190.81Z" fill="#263238"/>
<path d="M180.681 171.985C186.804 175.366 200.874 171.5 200.874 171.5L200.14 152.447C200.14 152.447 193.899 152.961 185.319 156.453C175.737 160.354 173.783 168.177 180.681 171.985Z" fill="#263238"/>
<path d="M188.726 154.778C188.726 154.778 185.881 155.778 184.832 156.086C181.061 160.227 178.715 169.222 178.715 169.222L183.509 175.555C181.693 166.167 188.726 154.778 188.726 154.778Z" fill="#5068E8"/>
<path opacity="0.2" d="M188.726 154.778C188.726 154.778 185.881 155.778 184.832 156.086C181.061 160.227 178.715 169.222 178.715 169.222L183.509 175.555C181.693 166.167 188.726 154.778 188.726 154.778Z" fill="black"/>
<path d="M198.359 201.945C194.613 204.834 187.16 198.112 187.16 198.112L187.382 201.522C194.215 207.23 198.257 204.397 198.257 204.397C198.257 204.397 198.494 203.333 198.359 201.945Z" fill="#5068E8"/>
<path opacity="0.2" d="M198.359 201.945C194.613 204.834 187.16 198.112 187.16 198.112L187.382 201.522C194.215 207.23 198.257 204.397 198.257 204.397C198.257 204.397 198.494 203.333 198.359 201.945Z" fill="black"/>
<path d="M163.423 156.086C161.256 156.292 160.094 156.625 160.094 156.625C160.094 156.625 157.36 162.604 158.985 170.146L163.297 168.208C163.297 168.208 161.923 161.672 163.423 156.086Z" fill="#5068E8"/>
<path opacity="0.2" d="M163.423 156.086C161.256 156.292 160.094 156.625 160.094 156.625C160.094 156.625 157.36 162.604 158.985 170.146L163.297 168.208C163.297 168.208 161.923 161.672 163.423 156.086Z" fill="black"/>
<path d="M158.358 169.25C160.699 165.581 178.744 165.993 182.642 169C186.541 172.007 191.252 204.833 185.483 208.5C179.714 212.167 153.092 213.917 152.903 206.5C152.714 199.083 158.774 186.182 158.048 181.917C157.322 177.652 155.167 174.25 158.358 169.25Z" fill="#5068E8"/>
<path opacity="0.4" d="M158.605 180.712C158.605 180.712 165.182 183.274 179.099 180.165C176.394 181.578 162.091 184.809 158.605 180.712Z" fill="#263238"/>
<path opacity="0.4" d="M166.549 179.75C166.635 180.364 166.295 180.861 165.789 180.861C165.283 180.861 164.802 180.364 164.716 179.75C164.63 179.136 164.97 178.639 165.476 178.639C165.983 178.639 166.463 179.136 166.549 179.75Z" fill="#263238"/>
<path opacity="0.4" d="M181.881 209.028C181.857 209.028 181.832 209.025 181.808 209.017C181.676 208.976 181.602 208.837 181.642 208.705C183.764 201.754 183.501 192.17 180.859 180.219C179.764 175.264 181.013 170.462 181.673 169.473C181.749 169.358 181.905 169.327 182.02 169.404C182.135 169.481 182.166 169.636 182.089 169.751C181.408 170.772 180.334 175.529 181.347 180.112C184.007 192.148 184.267 201.817 182.12 208.851C182.087 208.958 181.988 209.028 181.881 209.028Z" fill="#263238"/>
<g opacity="0.2">
<path d="M192.016 391.729L191.979 400.498H184.629L184.666 391.729H192.016Z" fill="black"/>
<path d="M138.965 385.303L145.984 386.664L142.971 395.262L135.953 393.901L138.965 385.303Z" fill="black"/>
</g>
<path d="M182.638 221.87C182.638 221.87 176.468 278.012 172.704 299.045C168.581 322.078 147.23 394.375 147.23 394.375L134.07 391.573C134.07 391.573 148.767 323.938 150.746 301.133C152.894 276.383 157.284 221.87 157.284 221.87H182.638Z" fill="#5068E8"/>
<path d="M150.18 389.934C150.236 389.946 147.94 394.739 147.94 394.739L133.133 391.586L134.191 387.097L150.18 389.934Z" fill="#263238"/>
<path opacity="0.2" d="M178.145 241.873C168.578 243.763 170.986 279.713 172.86 298.203C175.135 285.133 178.234 259.983 180.325 242.133C179.673 241.813 178.949 241.713 178.145 241.873Z" fill="black"/>
<path d="M196.579 221.87C196.579 221.87 199.711 276.797 199.777 299.2C199.846 322.502 194.652 398.801 194.652 398.801H182.207C182.207 398.801 178.857 323.864 177.42 300.979C175.853 276.03 170.75 221.871 170.75 221.871H196.579V221.87Z" fill="#5068E8"/>
<path d="M196.857 393.843C196.914 393.843 196.354 399.01 196.354 399.01H181.216L180.629 394.399L196.857 393.843Z" fill="#263238"/>
<path d="M184.422 130.162C184.505 130.749 184.885 131.193 185.27 131.154C185.655 131.115 185.9 130.607 185.817 130.019C185.734 129.432 185.354 128.988 184.969 129.027C184.584 129.067 184.339 129.575 184.422 130.162Z" fill="#263238"/>
<path d="M184.828 131.199C184.828 131.199 186.648 134.449 188.355 135.932C187.449 137.008 185.614 136.747 185.614 136.747L184.828 131.199Z" fill="#630F0F"/>
<path d="M184.657 126.328C184.76 126.29 184.844 126.205 184.874 126.091C184.923 125.906 184.813 125.714 184.628 125.665C184.561 125.648 182.986 125.244 181.586 126.521C181.444 126.651 181.434 126.871 181.563 127.013C181.693 127.155 181.913 127.165 182.055 127.035C183.177 126.01 184.435 126.334 184.448 126.337C184.52 126.356 184.593 126.351 184.657 126.328Z" fill="#263238"/>
<path d="M164.584 130.931C166.049 138.096 166.542 142.35 170.723 145.677C177.011 150.681 185.48 146.463 186.188 139.089C186.825 132.451 184.322 121.849 176.829 119.705C169.447 117.592 163.118 123.766 164.584 130.931Z" fill="#7F3E3B"/>
<path d="M180.039 131.997C178.823 135.778 172.027 143 169.625 143.555C167.223 144.111 160.637 138.416 160.039 135.441C157.638 135.166 155.002 130.374 158.674 128.496C155.981 127.125 156.694 119.981 162.171 120.495C158.825 117.276 162.841 111.832 167.395 113.276C168.487 110.498 174.652 108.72 178.198 112.998C180.968 111.442 185.818 114.581 185.461 119.282C185.217 122.498 182.272 125.123 180.116 125.588C181.273 127.012 180.039 131.997 180.039 131.997Z" fill="#263238"/>
<path d="M176.371 131.004C176.771 132.888 177.915 134.574 179.143 135.621C180.991 137.196 182.476 135.915 182.433 133.744C182.394 131.79 181.386 128.616 179.305 127.868C177.255 127.132 175.914 128.85 176.371 131.004Z" fill="#7F3E3B"/>
</svg>
