<svg width="500" height="500" viewBox="0 0 500 500" fill="none" xmlns="http://www.w3.org/2000/svg">
<path d="M500 382.398H0V382.648H500V382.398Z" fill="#EBEBEB"/>
<path d="M238.401 337.8H45.3017C42.1547 337.8 39.5938 335.239 39.5938 332.092V60.66C39.5938 57.513 42.1547 54.952 45.3017 54.952H238.401C241.547 54.952 244.108 57.513 244.108 60.66V332.092C244.108 335.239 241.547 337.8 238.401 337.8ZM45.3017 55.203C42.2917 55.203 39.8438 57.651 39.8438 60.661V332.093C39.8438 335.103 42.2917 337.551 45.3017 337.551H238.401C241.41 337.551 243.858 335.103 243.858 332.093V60.66C243.858 57.651 241.41 55.202 238.401 55.202L45.3017 55.203Z" fill="#EBEBEB"/>
<path d="M454.697 337.8H261.598C258.452 337.8 255.891 335.239 255.891 332.092V60.66C255.891 57.513 258.452 54.952 261.598 54.952H454.697C457.845 54.952 460.405 57.513 460.405 60.66V332.092C460.405 335.239 457.844 337.8 454.697 337.8ZM261.598 55.203C258.589 55.203 256.141 57.651 256.141 60.661V332.093C256.141 335.103 258.589 337.551 261.598 337.551H454.697C457.707 337.551 460.155 335.103 460.155 332.093V60.66C460.155 57.651 457.707 55.202 454.697 55.202L261.598 55.203Z" fill="#EBEBEB"/>
<path d="M500 382.398H0V382.648H500V382.398Z" fill="#EBEBEB"/>
<path d="M449.899 398.494H416.777V398.744H449.899V398.494Z" fill="#EBEBEB"/>
<path d="M331.22 401.208H322.527V401.458H331.22V401.208Z" fill="#EBEBEB"/>
<path d="M415.778 389.208H396.586V389.458H415.778V389.208Z" fill="#EBEBEB"/>
<path d="M95.6539 390.888H52.4609V391.138H95.6539V390.888Z" fill="#EBEBEB"/>
<path d="M225.149 395.111H131.473V395.361H225.149V395.111Z" fill="#EBEBEB"/>
<path d="M154.368 158.677C166.663 158.71 201.138 163.713 201.138 145.195C201.138 129.46 184.289 130.618 184.289 130.618C184.289 130.618 184.776 116.985 169.764 115.172C154.368 113.313 152.044 128.043 152.044 128.043C152.044 128.043 125.319 118.663 129.385 142.201C129.385 142.201 114.57 139.584 114.57 150.181C114.57 162.024 142.457 158.646 154.368 158.677Z" fill="#F0F0F0"/>
<path d="M138.876 298.708C163.832 298.783 233.805 310.243 233.805 267.827C233.805 231.787 199.607 234.439 199.607 234.439C199.607 234.439 200.595 203.214 170.126 199.062C138.876 194.803 134.159 228.543 134.159 228.543C134.159 228.543 79.9137 207.059 88.1687 260.972C88.1687 260.972 58.0977 254.979 58.0977 279.25C58.0977 306.373 114.702 298.635 138.876 298.708Z" fill="#F5F5F5"/>
<path d="M232.094 302.462C218.288 302.503 179.578 308.843 179.578 285.378C179.578 265.44 198.497 266.908 198.497 266.908C198.497 266.908 197.95 249.634 214.806 247.337C232.094 244.981 234.703 263.646 234.703 263.646C234.703 263.646 264.712 251.761 260.145 281.586C260.145 281.586 276.78 278.271 276.78 291.698C276.781 306.702 245.468 302.422 232.094 302.462Z" fill="#F0F0F0"/>
<path d="M309.146 204.16C322.916 204.195 361.525 209.474 361.525 189.932C361.525 173.327 342.655 174.549 342.655 174.549C342.655 174.549 343.2 160.163 326.388 158.25C309.145 156.288 306.542 171.833 306.542 171.833C306.542 171.833 276.611 161.935 281.166 186.774C281.166 186.774 264.574 184.013 264.574 195.195C264.575 207.691 295.807 204.126 309.146 204.16Z" fill="#F0F0F0"/>
<path d="M268.09 382.282L288.213 251.826L348.054 176.277L368.455 90.2371C368.455 90.2371 417.909 138.025 419.28 139.279C420.652 140.533 431.539 269.521 433.051 271.49C434.563 273.459 448.771 295.952 448.771 295.952L455.382 381.889L268.09 382.282Z" fill="#FAFAFA"/>
<path d="M268.09 382.282L296.768 269.556L337.404 230.823L345.011 279.851L355.245 224.081L366.867 243.096L364.344 177.536L366.362 156.561L373.181 170.484L368.454 90.2361L402.932 91.0331L410.108 128.912L419.279 139.278L433.05 271.489L448.771 295.951L455.381 381.888L268.09 382.282Z" fill="#EBEBEB"/>
<path d="M369.355 90.6711L389.835 156.939L402.038 166.635C402.038 166.635 408.474 193.569 408.401 191.847C408.328 190.125 407.662 159.95 407.662 159.95L410.822 135.328L402.848 91.4691L369.355 90.6711Z" fill="#F5F5F5"/>
<path d="M433.051 271.489L437.831 293.767L448.772 295.951L433.051 271.489Z" fill="#F5F5F5"/>
<path d="M356.063 337.439C377.936 337.505 439.263 347.549 439.263 310.374C439.263 278.787 409.29 281.112 409.29 281.112C409.29 281.112 410.156 253.745 383.452 250.106C356.063 246.374 351.929 275.945 351.929 275.945C351.929 275.945 304.386 257.115 311.621 304.367C311.621 304.367 285.266 299.114 285.266 320.387C285.265 344.157 334.875 337.375 356.063 337.439Z" fill="#F5F5F5"/>
<path d="M110.888 390.888H104.555V391.138H110.888V390.888Z" fill="#EBEBEB"/>
<path d="M252.139 427.016C359.221 427.016 446.028 421.946 446.028 415.693C446.028 409.439 359.221 404.37 252.139 404.37C145.057 404.37 58.25 409.439 58.25 415.693C58.25 421.946 145.057 427.016 252.139 427.016Z" fill="#F5F5F5"/>
<path d="M403.349 95.08C403.349 104.74 395.519 112.57 385.859 112.57C385.469 112.57 385.079 112.56 384.689 112.53C375.589 111.93 368.379 104.35 368.379 95.08C368.379 85.81 375.589 78.23 384.689 77.63C385.079 77.6 385.469 77.59 385.859 77.59C395.519 77.59 403.349 85.42 403.349 95.08Z" fill="#5068E8"/>
<path opacity="0.2" d="M401.009 95.08C401.009 104.35 393.799 111.93 384.689 112.53C375.589 111.93 368.379 104.35 368.379 95.08C368.379 85.81 375.589 78.23 384.689 77.63C393.799 78.23 401.009 85.81 401.009 95.08Z" fill="white"/>
<path opacity="0.4" d="M396.752 100.08C399.518 93.4038 396.348 85.7492 389.671 82.9836C382.994 80.218 375.34 83.3885 372.574 90.0652C369.808 96.7419 372.979 104.396 379.656 107.162C386.332 109.928 393.987 106.757 396.752 100.08Z" fill="white"/>
<g opacity="0.7">
<path d="M390.67 97.864C391.176 100.757 389.188 102.692 385.608 102.996L385.548 105.389H383.373L383.433 102.996C381.332 102.801 379.391 102.149 378.137 101.322L379.122 98.625C380.424 99.474 381.976 100.017 383.503 100.17L383.599 96.495C381.47 95.886 379.11 95.082 378.649 92.449C378.143 89.557 380.172 87.6 383.823 87.337L383.883 84.944H386.058L386.002 87.359C387.573 87.51 389.063 87.947 390.221 88.598L389.367 91.295C388.321 90.665 387.125 90.294 385.928 90.164L385.837 93.992C387.942 94.579 390.232 95.362 390.67 97.864ZM383.666 93.383L383.748 90.251C382.55 90.491 381.972 91.164 382.096 91.991C382.214 92.665 382.825 93.056 383.666 93.383ZM387.245 98.429C387.135 97.799 386.565 97.406 385.755 97.124L385.689 100.103C386.822 99.864 387.39 99.256 387.245 98.429Z" fill="white"/>
</g>
<path d="M298.865 255.71H239.695V415.741H298.865V255.71Z" fill="#5068E8"/>
<path opacity="0.2" d="M256.4 255.555H239.68V415.773H256.4V255.555Z" fill="black"/>
<path d="M239.615 319.71H180.445V415.74H239.615V319.71Z" fill="#5068E8"/>
<path opacity="0.2" d="M198.225 319.71H180.445V415.64H198.225V319.71Z" fill="black"/>
<path d="M180.4 340.1H121.23V415.74H180.4V340.1Z" fill="#5068E8"/>
<path opacity="0.2" d="M138.83 340.1H121.23V415.64H138.83V340.1Z" fill="black"/>
<path d="M121.211 360.494H62.043V415.742H121.211V360.494Z" fill="#5068E8"/>
<path opacity="0.2" d="M78.7669 360.439H62.0469V415.639H78.7669V360.439Z" fill="black"/>
<path d="M222.917 132.081C220.107 135.478 217.213 138.806 214.317 142.129L212.128 144.608L210.164 146.798C209.356 147.751 208.824 148.947 208.635 150.25L207.976 156.705C207.755 158.895 207.542 161.084 207.285 163.273C206.802 167.65 206.299 172.026 205.712 176.398C205.506 177.931 204.096 179.006 202.564 178.8C201.212 178.618 200.217 177.499 200.142 176.186C199.888 171.786 199.721 167.39 199.572 162.996C199.482 160.798 199.437 158.602 199.383 156.406L199.234 149.704C199.275 146.621 200.293 143.521 202.056 140.919L204.233 137.991L206.206 135.369C208.859 131.89 211.515 128.418 214.254 125.013C216.19 122.607 219.709 122.226 222.115 124.162C224.521 126.098 224.902 129.617 222.966 132.023C222.955 132.034 222.927 132.069 222.917 132.081Z" fill="#5068E8"/>
<path d="M199.448 176.692L195.793 182.897L204.207 183.751L205.688 177.451C205.863 176.705 205.384 175.952 204.628 175.822C203.233 175.583 201.051 175.484 199.448 176.692Z" fill="#CB7A63"/>
<path d="M195.793 182.897L196.177 185.092C196.366 186.177 197.31 186.967 198.411 186.964L201.151 186.957C201.986 186.955 202.751 186.493 203.143 185.756L204.207 183.751L195.793 182.897Z" fill="#CB7A63"/>
<path d="M198.852 172.04L206.951 172.317L206.429 177.155L199.588 176.627L198.852 172.04Z" fill="#5068E8"/>
<path opacity="0.3" d="M198.852 172.04L206.951 172.317L206.429 177.155L199.588 176.627L198.852 172.04Z" fill="white"/>
<path d="M207.022 222.837L205.691 224.837L204.673 222.771L207.098 191.373C207.483 186.381 205.8 182.28 199.59 182.129C193.782 181.988 190.257 185.956 189.852 190.939L187.309 222.28L185.918 224.274L184.969 222.214L187.528 190.88C188.001 185.087 190.572 180.439 199.706 180.659C208.856 180.88 209.876 185.625 209.43 191.431L207.022 222.837Z" fill="#263238"/>
<path d="M181.284 201.658L179.678 201.65C176.334 201.634 173.5 204.109 173.066 207.425L170.105 230.052L180.523 230.423L181.284 201.658Z" fill="#263238"/>
<path opacity="0.2" d="M181.284 201.658L179.678 201.65C176.334 201.634 173.5 204.109 173.066 207.425L170.105 230.052L180.523 230.423L181.284 201.658Z" fill="white"/>
<path d="M210.696 223.102L208.342 223.036L208.571 191.638C208.607 186.646 206.637 182.545 200.417 182.394C194.599 182.253 191.351 186.221 191.295 191.204L190.943 222.545L188.598 222.479L188.966 191.145C189.034 185.352 191.28 180.704 200.429 180.924C209.595 181.145 210.946 185.89 210.907 191.696L210.696 223.102Z" fill="#263238"/>
<path d="M221.739 231.648L175.434 230.274L175.881 206.932C175.925 203.942 178.343 201.583 181.283 201.66L214.996 202.542C218.804 202.642 221.879 205.851 221.863 209.716L221.739 231.648Z" fill="#263238"/>
<path opacity="0.4" d="M216.606 231.495L180.521 230.424C177.709 230.341 175.466 227.941 175.508 225.068L175.879 206.931C175.923 203.941 178.341 201.582 181.281 201.659L214.994 202.541C218.802 202.641 221.877 205.85 221.861 209.715L221.759 226.418C221.747 229.304 219.439 231.579 216.606 231.495Z" fill="white"/>
<g opacity="0.3">
<path d="M210.698 223.102L209.507 225.102L208.345 223.036L208.574 191.638C208.61 186.646 206.64 182.545 200.42 182.394C194.602 182.253 191.354 186.221 191.298 191.204L190.946 222.545L189.695 224.539L188.602 222.478L188.97 191.144C189.038 185.351 191.284 180.703 200.433 180.923C209.599 181.144 210.95 185.889 210.911 191.695L210.698 223.102Z" fill="white"/>
</g>
<path d="M191.742 210.434L187.883 210.329L187.9 208.876L191.758 208.98L191.742 210.434Z" fill="#263238"/>
<path d="M191.638 219.855L187.77 219.747L187.788 218.288L191.654 218.395L191.638 219.855Z" fill="#263238"/>
<path d="M211.574 210.969L207.699 210.865L207.71 209.408L211.583 209.512L211.574 210.969Z" fill="#263238"/>
<path d="M211.512 220.41L207.629 220.302L207.64 218.839L211.521 218.947L211.512 220.41Z" fill="#263238"/>
<path d="M204.192 211.598L195.906 211.374L195.937 208.265L204.217 208.487L204.192 211.598Z" fill="white"/>
<path d="M239.938 96.992C240.257 96.931 240.596 97.263 240.7 97.745C240.803 98.227 240.636 98.679 240.318 98.74C239.999 98.801 239.66 98.469 239.557 97.987C239.427 97.489 239.619 97.053 239.938 96.992Z" fill="#263238"/>
<path d="M239.995 97.396C240.321 97.244 240.62 96.904 240.751 96.569C240.472 96.83 240.089 96.975 239.707 96.966C239.853 97.048 239.987 97.228 239.995 97.396Z" fill="#263238"/>
<path d="M240.631 102.29C241.471 102.325 242.282 101.986 242.848 101.365C241.623 100.301 240.55 99.076 239.656 97.722L240.631 102.29Z" fill="#B74D3C"/>
<path d="M237.26 96.203C237.723 95.622 238.439 95.3 239.181 95.339C239.212 95.349 239.244 95.354 239.277 95.353C239.44 95.35 239.569 95.215 239.566 95.052C239.563 94.889 239.428 94.76 239.266 94.763C238.338 94.688 237.431 95.066 236.832 95.779C236.786 95.832 236.762 95.9 236.762 95.971C236.762 96.134 236.894 96.266 237.057 96.266C237.13 96.272 237.202 96.249 237.26 96.203Z" fill="#263238"/>
<path d="M234.215 125.103C225.896 125.192 224.621 120.664 224.621 120.664C227.092 118.238 227.215 113.798 226.69 109.84C227.327 110.735 228.121 111.517 229.161 112.21C231.151 113.518 235.468 111.416 235.468 111.416C235.479 111.416 235.468 112.154 235.524 113.216C235.658 115.81 236.228 120.361 238.588 121.066C238.588 121.066 243.385 125.003 234.215 125.103Z" fill="#CB7A63"/>
<path d="M235.591 112.091C235.503 112.473 235.414 112.856 235.361 113.261C235.327 113.284 235.292 113.296 235.257 113.297C233.309 113.781 231.155 113.515 229.165 112.207C228.117 111.513 227.323 110.736 226.689 109.841C226.563 108.837 226.379 107.856 226.195 106.956L235.254 111.91L235.591 112.091Z" fill="#CB7A63"/>
<path d="M241.549 105.299C241.49 108.375 239.807 110.971 237.453 112.383H237.441C237.43 112.395 237.418 112.395 237.406 112.395C236.774 112.795 236.084 113.08 235.358 113.261C235.324 113.284 235.289 113.296 235.254 113.297C233.306 113.781 231.152 113.515 229.162 112.207C228.114 111.513 227.32 110.736 226.686 109.841C225.055 107.604 224.375 104.618 223.209 100.422C222.849 99.1889 222.777 97.8839 223.006 96.6209C223.824 92.1039 228.15 89.1089 232.656 89.9269C238.979 91.0499 241.673 99.6789 241.549 105.299Z" fill="#CB7A63"/>
<path opacity="0.2" d="M236.997 112.546C236.415 112.915 236.125 113.06 235.521 113.217C235.465 112.155 235.477 111.417 235.465 111.417C235.521 110.489 235.588 109.561 235.588 109.561C235.588 109.594 236.561 112.546 236.997 112.546Z" fill="black"/>
<path d="M239.366 93.954C238.689 95.03 236.557 95.94 236.629 95.69C236.996 94.797 236.928 93.083 235.821 93.484C236.127 94.167 237.045 99.302 236.629 99.925C236.401 100.266 236.186 104.374 234.437 107.996C233.042 110.886 233.042 111.782 233.042 111.782L227.363 112.878C225.237 112.612 223.257 109.896 223.082 109.595C222.34 108.318 220.071 106.641 218.891 105.754C218.381 105.37 217.982 104.805 217.766 104.199C217.377 103.109 218.172 99.181 218.345 97.334C218.594 94.677 219.989 92.219 223.843 90.641C226.226 89.665 228.231 87.524 230.662 86.677C233.094 85.83 235.986 85.868 238.04 87.421C239.05 88.185 241.063 91.257 239.366 93.954Z" fill="#263238"/>
<path d="M236.399 97.694C238.149 98.207 239.061 100.785 239.136 102.423C239.221 104.232 238.013 105.375 236.436 104.164C235.248 103.231 234.4 101.934 234.021 100.472C233.593 98.699 234.649 97.18 236.399 97.694Z" fill="#CB7A63"/>
<path d="M238.505 103.718C238.505 104.14 238.163 104.482 237.741 104.482C237.319 104.482 236.977 104.14 236.977 103.718C236.977 103.296 237.319 102.954 237.741 102.954C238.163 102.954 238.505 103.296 238.505 103.718Z" fill="#5068E8"/>
<path opacity="0.3" d="M238.505 103.718C238.505 104.14 238.163 104.482 237.741 104.482C237.319 104.482 236.977 104.14 236.977 103.718C236.977 103.296 237.319 102.954 237.741 102.954C238.163 102.954 238.505 103.296 238.505 103.718Z" fill="white"/>
<path d="M222.234 123.663C222.234 123.663 223.527 119.674 225.476 118.414C227.426 117.154 235.985 118.461 237.326 118.986C238.667 119.511 240.021 122.602 240.021 122.602L222.234 123.663Z" fill="#5068E8"/>
<path opacity="0.3" d="M222.234 123.663C222.234 123.663 223.527 119.674 225.476 118.414C227.426 117.154 235.985 118.461 237.326 118.986C238.667 119.511 240.021 122.602 240.021 122.602L222.234 123.663Z" fill="white"/>
<path d="M241.778 121.959C240.446 121.74 240.079 121.539 238.553 121.419C233.961 121.203 229.359 121.253 224.773 121.568C223.098 121.688 221.487 122.012 219.888 122.395C216.603 123.184 214.388 126.245 214.632 129.59C215.314 138.952 218.081 144.445 218.489 150.608C219.302 162.887 217.343 171.496 217.01 174.362L223.305 175.318C234.549 175.051 242.014 172.634 248.202 170.002C248.202 170.002 246.58 155.157 248.148 149.808C252.433 135.194 249.651 132.882 248.806 128.698C248.102 125.22 245.304 122.537 241.778 121.959Z" fill="#5068E8"/>
<path opacity="0.1" d="M248.148 149.804C247.634 151.548 247.466 154.299 247.466 157.206C247.466 163.244 248.204 169.998 248.204 169.998C242.02 172.637 234.551 175.052 223.302 175.32L217.007 174.358C217.342 171.495 219.299 162.886 218.494 150.608C218.08 144.447 215.319 138.957 214.636 129.586C214.39 126.243 216.604 123.179 219.891 122.396C221.49 122.005 223.1 121.692 224.777 121.569C229.362 121.256 233.957 121.2 238.553 121.412C240.074 121.535 240.443 121.736 241.773 121.96C245.306 122.541 248.102 125.214 248.806 128.703C249.108 130.201 249.667 131.465 250.047 133.142C250.516 135.177 250.74 137.827 249.957 142.266C249.601 144.347 249.02 146.818 248.148 149.804Z" fill="white"/>
<path d="M243.587 121.506C245.885 121.83 248.162 122.289 250.45 122.675C252.73 123.115 255.008 123.567 257.28 124.056L256.457 123.991C257.471 124.036 258.363 124.115 258.926 124.15C259.198 124.17 259.389 124.165 259.318 124.206C259.304 124.229 259.171 124.271 259.016 124.371C258.822 124.475 258.588 124.644 258.334 124.904C257.81 125.429 257.6 126.132 257.615 126.34C257.611 126.567 257.683 126.514 257.695 126.338C257.734 125.977 257.657 125.287 257.508 124.577L257.612 124.872C256.459 121.544 255.364 118.193 254.361 114.805C253.388 111.406 252.453 107.992 251.789 104.472C251.534 103.121 252.423 101.818 253.775 101.563C254.809 101.368 255.816 101.848 256.345 102.686C258.25 105.72 259.883 108.86 261.478 112.015C263.044 115.182 264.517 118.385 265.932 121.61L266.036 121.905C266.423 122.925 266.801 123.998 267.028 125.441C267.132 126.165 267.205 127.027 267.04 128.147C266.887 129.242 266.287 130.811 265.105 131.964C264.527 132.543 263.902 132.95 263.307 133.262C262.739 133.547 262.18 133.749 261.724 133.873C260.772 134.136 260.057 134.213 259.425 134.278C258.177 134.396 257.256 134.401 256.459 134.448L256.331 134.456L255.635 134.383C253.324 134.141 251.018 133.863 248.714 133.572C246.419 133.228 244.112 132.956 241.827 132.549C238.787 132.008 236.761 129.104 237.303 126.063C237.832 123.093 240.625 121.093 243.587 121.506Z" fill="#5068E8"/>
<g opacity="0.1">
<path d="M243.587 121.506C245.885 121.83 248.162 122.289 250.45 122.675C252.73 123.115 255.008 123.567 257.28 124.056L256.457 123.991C257.471 124.036 258.363 124.115 258.926 124.15C259.198 124.17 259.389 124.165 259.318 124.206C259.304 124.229 259.171 124.271 259.016 124.371C258.822 124.475 258.588 124.644 258.334 124.904C257.81 125.429 257.6 126.132 257.615 126.34C257.611 126.567 257.683 126.514 257.695 126.338C257.734 125.977 257.657 125.287 257.508 124.577L257.612 124.872C256.459 121.544 255.364 118.193 254.361 114.805C253.388 111.406 252.453 107.992 251.789 104.472C251.534 103.121 252.423 101.818 253.775 101.563C254.809 101.368 255.816 101.848 256.345 102.686C258.25 105.72 259.883 108.86 261.478 112.015C263.044 115.182 264.517 118.385 265.932 121.61L266.036 121.905C266.423 122.925 266.801 123.998 267.028 125.441C267.132 126.165 267.205 127.027 267.04 128.147C266.887 129.242 266.287 130.811 265.105 131.964C264.527 132.543 263.902 132.95 263.307 133.262C262.739 133.547 262.18 133.749 261.724 133.873C260.772 134.136 260.057 134.213 259.425 134.278C258.177 134.396 257.256 134.401 256.459 134.448L256.331 134.456L255.635 134.383C253.324 134.141 251.018 133.863 248.714 133.572C246.419 133.228 244.112 132.956 241.827 132.549C238.787 132.008 236.761 129.104 237.303 126.063C237.832 123.093 240.625 121.093 243.587 121.506Z" fill="white"/>
</g>
<path d="M284.935 99.978L314.916 99.059L314.456 89.667L284.535 91.637L284.935 99.978Z" fill="#5068E8"/>
<path d="M262.275 100.338L286.519 99.5579L286.15 91.8569L261.949 93.4179L262.275 100.338Z" fill="#5068E8"/>
<path d="M283.319 99.7549L284.908 99.9229L284.514 91.6949L282.949 92.0149L283.319 99.7549Z" fill="#263238"/>
<path opacity="0.2" d="M283.319 99.7549L284.908 99.9229L284.514 91.6949L282.949 92.0149L283.319 99.7549Z" fill="black"/>
<path d="M284.911 99.979L286.539 99.929L286.136 91.532L284.512 91.639L284.911 99.979Z" fill="#263238"/>
<path d="M258.511 99.1999L260.917 100.317L260.599 93.5699L258.309 94.9129L258.511 99.1999Z" fill="#263238"/>
<path d="M246.192 99.1159L253.321 98.7449L253.173 95.5869L246.047 96.0129L246.192 99.1159Z" fill="#263238"/>
<path opacity="0.2" d="M246.192 99.1159L253.321 98.7449L253.173 95.5869L246.047 96.0129L246.192 99.1159Z" fill="black"/>
<path d="M252.347 99.383L260.279 99.078L260.071 94.658L252.148 95.127L252.347 99.383Z" fill="#263238"/>
<path opacity="0.2" d="M258.511 99.1999L260.917 100.317L260.599 93.5699L258.309 94.9129L258.511 99.1999Z" fill="black"/>
<path d="M260.961 100.381L262.276 100.338L261.95 93.418L260.637 93.503L260.961 100.381Z" fill="#263238"/>
<path d="M313.896 99.0899L318.598 98.9219L318.137 89.4939L313.438 89.7339L313.896 99.0899Z" fill="#263238"/>
<path d="M315.982 99.7569L321.982 99.5889L322.131 99.1739C323.413 95.6169 323.158 91.6869 321.427 88.3259L315.441 88.7399L315.572 89.0539C316.994 92.4559 317.14 96.2569 315.982 99.7569Z" fill="#5068E8"/>
<g opacity="0.4">
<path d="M309.59 90.7088L312.017 90.5588L312.066 91.5938L309.601 91.7358C309.542 91.3978 309.562 91.0518 309.59 90.7088Z" fill="white"/>
<path d="M308.12 90.8239C308.094 91.1659 308.078 91.5089 308.131 91.8449L287.086 93.0369L287.035 92.1019L308.12 90.8239Z" fill="white"/>
</g>
<g opacity="0.4">
<path d="M262.461 93.9639L262.505 94.8029L282.278 93.6289L282.235 92.7109L262.461 93.9639Z" fill="white"/>
</g>
<g opacity="0.4">
<path d="M315.969 89.0639L316.028 90.1119L320.718 89.8029L320.667 88.7339L315.969 89.0639Z" fill="white"/>
</g>
<path opacity="0.3" d="M321.376 98.2039C321.346 98.5619 321.328 98.9209 321.385 99.2749L316.528 99.4409L316.469 98.3919L321.376 98.2039Z" fill="black"/>
<path opacity="0.3" d="M312.678 97.6189C312.65 97.9659 312.634 98.3139 312.688 98.6559L286.946 99.5759L286.895 98.6419L312.678 97.6189Z" fill="black"/>
<path opacity="0.3" d="M282.042 98.5229C282.022 98.8289 282.01 99.1379 282.054 99.4409L262.927 100.113L262.883 99.2719L282.042 98.5229Z" fill="black"/>
<path d="M244.59 96.133L244.652 99.153C244.662 99.666 245.127 100.075 245.692 100.065L248.143 100.023L248.041 95.075L245.591 95.165C245.027 95.187 244.58 95.619 244.59 96.133Z" fill="#5068E8"/>
<path d="M257.261 104.511L258.192 98.8829C258.231 98.6489 258.239 98.4109 258.218 98.1759L257.951 95.1929C257.907 94.8069 257.636 94.4279 257.216 94.2989L252.72 94.2469C252.127 94.0599 251.475 94.3439 251.278 94.8719L250.471 98.5589C250.41 98.8349 250.416 99.1219 250.488 99.3949L251.822 104.472C251.951 104.896 252.342 105.226 252.826 105.319L255.764 105.345C256.456 105.478 257.12 105.109 257.261 104.511Z" fill="#CE7A63"/>
<path d="M259.902 106.882L252.257 109.571L250.984 104.874L257.548 102.877L259.902 106.882Z" fill="#5068E8"/>
<path opacity="0.3" d="M259.902 106.882L252.257 109.571L250.984 104.874L257.548 102.877L259.902 106.882Z" fill="white"/>
<path opacity="0.2" d="M249.961 142.267L244.102 131.208L250.051 133.142C250.52 135.178 250.744 137.828 249.961 142.267Z" fill="black"/>
<path d="M280.165 234.075L278.953 249.096L285.79 249.226L287.666 233.752L280.165 234.075Z" fill="#CE7A63"/>
<path d="M286.872 247.174L279.073 247.332C278.779 247.338 278.526 247.561 278.465 247.871L277.122 254.711C276.999 255.317 277.356 255.911 277.919 256.038C277.991 256.054 278.065 256.062 278.139 256.062C280.95 255.953 283.448 255.737 286.949 255.671C291.079 255.589 290.037 256.14 294.893 256.116C297.819 256.098 298.32 252.517 297.077 252.367C291.391 251.715 290.784 249.886 288.572 247.748C288.091 247.339 287.486 247.135 286.872 247.174Z" fill="#263238"/>
<path d="M205.507 298.446L202.742 312.242L210.093 314.487L213.634 300.396L205.507 298.446Z" fill="#CE7A63"/>
<path d="M244.838 170.604C244.838 170.604 234.375 231.668 228.692 249.639C224.646 262.435 213.792 304.299 213.792 304.299L203.946 302.116C203.946 302.116 202.845 273.62 208.321 258.911C210.189 253.893 212.627 249.366 213.287 246.255C216.107 232.964 210.295 208.852 212.864 190.868C214.257 181.12 217.232 174.168 217.232 174.168L244.838 170.604Z" fill="#263238"/>
<path d="M228.692 249.639C224.646 262.435 213.792 304.299 213.792 304.299L203.946 302.116C203.946 302.116 202.845 273.62 208.321 258.911C210.189 253.893 212.627 249.366 213.287 246.255C216.107 232.964 210.295 208.852 212.864 190.868C214.257 181.12 217.232 174.168 217.232 174.168" fill="#263238"/>
<path opacity="0.2" d="M232.008 189.479L237.275 210.161L241.128 190.378L232.008 189.479Z" fill="black"/>
<path d="M288.146 241.28L278.526 241.59C278.526 241.59 279.236 229 279.236 210.64C279.236 207.81 279.676 205.02 280.296 202.52C281.666 196.91 283.886 192.73 283.886 192.73C283.886 192.73 282.856 192.79 281.096 192.87C275.656 193.15 241.934 194.892 241.274 194.842C240.774 194.792 237.71 195.198 232.216 192.52C222.008 187.543 221.906 173.57 221.906 173.57L248.196 170C248.196 170.02 248.626 170.08 254.956 170.19C274.146 170.52 297.729 171.263 301.868 177.851C307.689 187.119 288.146 241.28 288.146 241.28Z" fill="#263238"/>
<path d="M210.461 310.916L202.394 311.025C202.09 311.029 201.841 311.254 201.795 311.565L200.791 318.46C200.698 319.071 201.101 319.673 201.691 319.805C201.767 319.822 201.843 319.831 201.92 319.831C204.824 319.739 207.4 319.537 211.021 319.493C215.294 319.437 214.245 319.987 219.273 319.994C222.302 319.995 222.618 316.383 221.323 316.223C215.398 315.528 214.665 313.678 212.254 311.506C211.734 311.09 211.096 310.88 210.461 310.916Z" fill="#263238"/>
<path opacity="0.2" d="M280.297 202.52C281.667 196.91 283.887 192.73 283.887 192.73C283.887 192.73 282.857 192.79 281.097 192.87C281.017 192.84 280.937 192.82 280.837 192.82L287.849 192.23L280.297 202.52Z" fill="black"/>
<path d="M96.5433 127.758C103.318 127.758 108.809 122.266 108.809 115.492C108.809 108.718 103.318 103.226 96.5433 103.226C89.769 103.226 84.2773 108.718 84.2773 115.492C84.2773 122.266 89.769 127.758 96.5433 127.758Z" fill="#5068E8"/>
<path opacity="0.6" d="M96.5433 127.758C103.318 127.758 108.809 122.266 108.809 115.492C108.809 108.718 103.318 103.226 96.5433 103.226C89.769 103.226 84.2773 108.718 84.2773 115.492C84.2773 122.266 89.769 127.758 96.5433 127.758Z" fill="white"/>
<path d="M96.5623 98.549C95.5543 98.549 94.7383 97.7329 94.7383 96.7249V88.6699C94.7383 87.6619 95.5543 86.8459 96.5623 86.8459C97.5703 86.8459 98.3863 87.6619 98.3863 88.6699V96.7249C98.3863 97.7319 97.5703 98.549 96.5623 98.549Z" fill="#5068E8"/>
<path d="M96.5623 143.95C95.5543 143.95 94.7383 143.134 94.7383 142.126V134.071C94.7383 133.063 95.5543 132.247 96.5623 132.247C97.5703 132.247 98.3863 133.063 98.3863 134.071V142.126C98.3863 143.133 97.5703 143.95 96.5623 143.95Z" fill="#5068E8"/>
<path d="M83.3614 104.018C82.8944 104.018 82.4274 103.84 82.0714 103.484L78.5894 100.002C77.8764 99.2889 77.8764 98.1349 78.5894 97.4229C79.3024 96.7099 80.4574 96.7099 81.1684 97.4229L84.6504 100.905C85.3624 101.618 85.3624 102.772 84.6504 103.484C84.2954 103.84 83.8284 104.018 83.3614 104.018Z" fill="#5068E8"/>
<path d="M113.016 133.671C112.549 133.671 112.083 133.493 111.726 133.137L108.48 129.891C107.767 129.179 107.767 128.024 108.48 127.312C109.192 126.599 110.347 126.599 111.059 127.312L114.305 130.558C115.018 131.27 115.018 132.425 114.305 133.137C113.949 133.493 113.482 133.671 113.016 133.671Z" fill="#5068E8"/>
<path d="M77.8907 117.222H69.8357C68.8277 117.222 68.0117 116.406 68.0117 115.398C68.0117 114.39 68.8277 113.574 69.8357 113.574H77.8907C78.8987 113.574 79.7147 114.39 79.7147 115.398C79.7147 116.406 78.8987 117.222 77.8907 117.222Z" fill="#5068E8"/>
<path d="M123.293 117.222H115.238C114.23 117.222 113.414 116.406 113.414 115.398C113.414 114.39 114.23 113.574 115.238 113.574H123.293C124.3 113.574 125.117 114.39 125.117 115.398C125.117 116.406 124.301 117.222 123.293 117.222Z" fill="#5068E8"/>
<path d="M80.2896 133.496C79.8226 133.496 79.3566 133.318 78.9996 132.962C78.2866 132.25 78.2866 131.095 78.9996 130.383L82.0696 127.313C82.7806 126.6 83.9366 126.6 84.6486 127.313C85.3606 128.025 85.3606 129.18 84.6486 129.892L81.5786 132.962C81.2236 133.318 80.7566 133.496 80.2896 133.496Z" fill="#5068E8"/>
<path d="M109.766 104.018C109.299 104.018 108.833 103.84 108.476 103.484C107.763 102.772 107.763 101.617 108.476 100.905L111.768 97.613C112.481 96.9 113.635 96.9 114.347 97.613C115.06 98.325 115.06 99.48 114.347 100.192L111.055 103.484C110.699 103.84 110.232 104.018 109.766 104.018Z" fill="#5068E8"/>
<g opacity="0.6">
<path d="M96.5623 98.549C95.5543 98.549 94.7383 97.7329 94.7383 96.7249V88.6699C94.7383 87.6619 95.5543 86.8459 96.5623 86.8459C97.5703 86.8459 98.3863 87.6619 98.3863 88.6699V96.7249C98.3863 97.7319 97.5703 98.549 96.5623 98.549Z" fill="white"/>
<path d="M96.5623 143.95C95.5543 143.95 94.7383 143.134 94.7383 142.126V134.071C94.7383 133.063 95.5543 132.247 96.5623 132.247C97.5703 132.247 98.3863 133.063 98.3863 134.071V142.126C98.3863 143.133 97.5703 143.95 96.5623 143.95Z" fill="white"/>
<path d="M83.3614 104.018C82.8944 104.018 82.4274 103.84 82.0714 103.484L78.5894 100.002C77.8764 99.2889 77.8764 98.1349 78.5894 97.4229C79.3024 96.7099 80.4574 96.7099 81.1684 97.4229L84.6504 100.905C85.3624 101.618 85.3624 102.772 84.6504 103.484C84.2954 103.84 83.8284 104.018 83.3614 104.018Z" fill="white"/>
<path d="M113.016 133.671C112.549 133.671 112.083 133.493 111.726 133.137L108.48 129.891C107.767 129.179 107.767 128.024 108.48 127.312C109.192 126.599 110.347 126.599 111.059 127.312L114.305 130.558C115.018 131.27 115.018 132.425 114.305 133.137C113.949 133.493 113.482 133.671 113.016 133.671Z" fill="white"/>
<path d="M77.8907 117.222H69.8357C68.8277 117.222 68.0117 116.406 68.0117 115.398C68.0117 114.39 68.8277 113.574 69.8357 113.574H77.8907C78.8987 113.574 79.7147 114.39 79.7147 115.398C79.7147 116.406 78.8987 117.222 77.8907 117.222Z" fill="white"/>
<path d="M123.293 117.222H115.238C114.23 117.222 113.414 116.406 113.414 115.398C113.414 114.39 114.23 113.574 115.238 113.574H123.293C124.3 113.574 125.117 114.39 125.117 115.398C125.117 116.406 124.301 117.222 123.293 117.222Z" fill="white"/>
<path d="M80.2896 133.496C79.8226 133.496 79.3566 133.318 78.9996 132.962C78.2866 132.25 78.2866 131.095 78.9996 130.383L82.0696 127.313C82.7806 126.6 83.9366 126.6 84.6486 127.313C85.3606 128.025 85.3606 129.18 84.6486 129.892L81.5786 132.962C81.2236 133.318 80.7566 133.496 80.2896 133.496Z" fill="white"/>
<path d="M109.766 104.018C109.299 104.018 108.833 103.84 108.476 103.484C107.763 102.772 107.763 101.617 108.476 100.905L111.768 97.613C112.481 96.9 113.635 96.9 114.347 97.613C115.06 98.325 115.06 99.48 114.347 100.192L111.055 103.484C110.699 103.84 110.232 104.018 109.766 104.018Z" fill="white"/>
</g>
</svg>
