<svg width="500" height="500" viewBox="0 0 500 500" fill="none" xmlns="http://www.w3.org/2000/svg">
<path opacity="0.7" d="M67.9318 167.086C67.9318 167.086 40.0548 239.074 79.2288 311.589C118.403 384.105 199.108 422.391 263.698 455.137C328.288 487.883 395.359 471.936 427.232 418.299C459.105 364.662 415.387 326.371 415.335 249.881C415.284 173.391 426.782 153.139 385.372 88.5169C343.962 23.8939 242.313 9.59194 165.472 57.5209C88.6318 105.45 67.9318 167.086 67.9318 167.086Z" fill="white"/>
<path d="M130.957 435.976C154.557 460.891 212.497 451.767 237.593 435.976C319.052 384.721 461.838 299.408 468.301 175.808C471.048 123.272 424.724 95.687 405.368 87.594C358.886 68.159 307.891 62.325 257.56 60.074C204.989 57.723 148.597 59.554 101.249 85.203C83.3155 94.918 66.3965 107.378 54.8145 124.387C43.0495 141.665 36.2805 162.241 34.4845 183.01C31.5885 216.511 40.6015 250.102 54.2305 280.842C67.8595 311.582 86.0355 340.045 102.717 369.241C113.601 388.289 111.075 414.986 130.957 435.976Z" fill="#F46B29"/>
<path opacity="0.7" d="M130.957 435.976C154.557 460.891 212.497 451.767 237.593 435.976C319.052 384.721 461.838 299.408 468.301 175.808C471.048 123.272 424.724 95.687 405.368 87.594C358.886 68.159 307.891 62.325 257.56 60.074C204.989 57.723 148.597 59.554 101.249 85.203C83.3155 94.918 66.3965 107.378 54.8145 124.387C43.0495 141.665 36.2805 162.241 34.4845 183.01C31.5885 216.511 40.6015 250.102 54.2305 280.842C67.8595 311.582 86.0355 340.045 102.717 369.241C113.601 388.289 111.075 414.986 130.957 435.976Z" fill="white"/>
<path d="M446.554 238.598C446.554 238.598 438.355 225.942 415.579 229.46C392.802 232.978 389.638 258.512 389.638 258.512C389.638 258.512 371.44 252.06 364.319 263.486C357.198 274.912 355.716 279.732 355.716 279.732C355.716 279.732 272.546 278.643 221.905 289.832C221.905 289.832 321.794 286.404 355.716 298.46C355.716 298.46 365.575 294.367 374.046 295.716C382.517 297.065 384.1 318.359 384.1 318.359C384.1 318.359 385.682 313.668 394.386 322.378C403.089 331.088 399.133 342.147 399.133 342.147L414.957 355.329C414.957 355.329 308.55 311.514 210.237 327.235C210.237 327.235 189.128 295.292 164.372 303.3C164.372 303.3 165.541 282.564 142.688 272.408C119.836 262.253 100.933 277.499 100.933 277.499C100.933 277.499 88.3901 232.812 56.2451 249.115" stroke="#263238" stroke-miterlimit="10" stroke-linecap="round" stroke-linejoin="round"/>
<path d="M67.6152 401.493C67.6152 401.493 149.961 353.517 248.832 353.517C347.703 353.517 426.724 407.801 426.724 407.801" stroke="#263238" stroke-miterlimit="10" stroke-linecap="round" stroke-linejoin="round"/>
<path d="M426.724 192.708C403.36 178.821 390.428 178.821 390.428 178.821C390.428 178.821 389.901 166.749 378.296 162.281C366.692 157.813 358.252 168.518 358.252 168.518C358.252 168.518 350.867 163.544 345.065 165.426C339.263 167.308 335.046 173.047 335.046 173.047H300.194L342.955 178.821C342.955 178.821 347.343 188.934 355.435 191.044C363.526 193.154 368.274 191.044 368.274 191.044C368.274 191.044 372.512 193.47 381.461 194.458C395.175 195.973 403.359 188.321 403.359 188.321" stroke="#263238" stroke-miterlimit="10" stroke-linecap="round" stroke-linejoin="round"/>
<path d="M58.3149 173.046C61.2859 158.868 79.2199 158.65 84.4949 168.517C84.4949 168.517 96.6269 161.91 102.957 170.674L145.777 168.517C145.777 168.517 72.8909 178.213 47.0449 185.156" stroke="#263238" stroke-miterlimit="10" stroke-linecap="round" stroke-linejoin="round"/>
<path d="M300.977 88.8121C299.507 86.7521 306.347 87.8821 306.347 87.8821C306.347 87.8821 307.667 86.8921 311.887 87.3721C315.257 87.7521 328.047 93.9421 328.047 93.9421L332.009 92.8721" stroke="#263238" stroke-miterlimit="10" stroke-linecap="round" stroke-linejoin="round"/>
<path d="M358.832 112.757C331.938 105.555 305.187 91.4409 305.187 91.4409" stroke="#263238" stroke-miterlimit="10" stroke-linecap="round" stroke-linejoin="round"/>
<path d="M338.59 90.591L353.387 87.102C354.447 86.822 355.567 86.832 356.617 87.142L362.257 88.812L344.227 97.522L343.397 97.922L338.627 100.222L356.987 108.182L363.183 103.552L365.775 104.752L364.765 107.437" stroke="#263238" stroke-miterlimit="10" stroke-linecap="round" stroke-linejoin="round"/>
<path d="M334.303 92.8301C337.006 92.1711 337.14 90.2291 337.14 90.2291C337.14 90.2291 338.311 91.0091 339.866 92.0801C342.291 93.7581 345.654 96.1431 346.891 97.3171C347.337 97.7501 347.503 98.0171 347.241 98.0301C347.06 98.0391 346.674 97.9711 346.137 97.8471C343.82 97.3171 338.702 95.6571 335.162 94.2241C333.09 93.4001 331.569 92.6471 331.45 92.2311C331.107 90.9501 333.839 88.8981 334.822 89.1411" stroke="#263238" stroke-miterlimit="10" stroke-linecap="round" stroke-linejoin="round"/>
<path d="M311.395 99.929C310.552 99.758 308.293 101.608 308.631 102.692C308.744 103.036 310.072 103.627 311.868 104.254C311.878 104.252 311.88 104.262 311.89 104.26C314.461 105.174 317.972 106.188 320.214 106.701C320.654 106.803 321.039 106.886 321.369 106.95C321.827 107.038 322.162 107.081 322.311 107.06C322.532 107.044 322.384 106.82 321.994 106.472C321.842 106.33 321.646 106.177 321.427 106.008C320.079 104.982 317.636 103.408 315.802 102.258C315.366 101.981 314.956 101.73 314.615 101.515C313.887 101.064 313.408 100.776 313.408 100.776" stroke="#263238" stroke-miterlimit="10" stroke-linecap="round" stroke-linejoin="round"/>
<path d="M326.688 95.896C326.194 96.984 335.753 101.651 337.204 101.296" stroke="#263238" stroke-miterlimit="10" stroke-linecap="round" stroke-linejoin="round"/>
<path d="M329.357 103.792L318.847 107.212L317.517 107.642L306.217 111.322C306.217 111.322 303.247 109.742 302.957 108.852C302.807 108.412 306.287 105.952 309.867 103.552" stroke="#263238" stroke-miterlimit="10" stroke-linecap="round" stroke-linejoin="round"/>
<path d="M317.487 98.6021C317.487 98.6021 315.871 99.1751 313.411 100.775C313.411 100.775 312.942 102.655 311.293 102.655" stroke="#263238" stroke-miterlimit="10" stroke-linecap="round" stroke-linejoin="round"/>
<path d="M355.484 108.771C355.484 108.771 365.172 108.424 365.548 108.424C365.924 108.424 369.781 109.86 369.781 109.86L359.957 112.341" stroke="#263238" stroke-miterlimit="10" stroke-linecap="round" stroke-linejoin="round"/>
<path d="M350.311 110.853C350.311 110.853 345.702 113.216 345.984 113.627C346.266 114.038 349.276 114.996 349.276 114.996L356.142 113.216" stroke="#263238" stroke-miterlimit="10" stroke-linecap="round" stroke-linejoin="round"/>
<path d="M308.722 88.1489C308.722 88.1489 308.887 88.1719 309.21 88.2339" stroke="#263238" stroke-linecap="round" stroke-linejoin="round"/>
<path d="M310.986 88.646C313.319 89.261 317.388 90.581 322.877 93.299" stroke="#263238" stroke-linecap="round" stroke-linejoin="round" stroke-dasharray="0.91 1.83"/>
<path d="M323.702 93.7119C323.85 93.7869 324 93.8639 324.151 93.9409" stroke="#263238" stroke-linecap="round" stroke-linejoin="round"/>
<path d="M169.133 199.155C169.133 199.155 187.198 180.752 192.22 137.238H195.579C195.579 137.238 190.468 185.616 172.721 204.111" fill="#757575"/>
<path d="M169.133 199.155C169.133 199.155 187.198 180.752 192.22 137.238H195.579C195.579 137.238 190.468 185.616 172.721 204.111" stroke="#263238" stroke-miterlimit="10" stroke-linecap="round" stroke-linejoin="round"/>
<path d="M197.46 117.3C197.12 130.74 195.96 148.28 192.36 155.8C185.22 170.72 164.38 179.01 163.37 167.97C163.34 167.62 163.32 167.27 163.31 166.91C163.15 155.76 175.09 137.62 178.5 120.41C182.01 102.66 186.54 98.99 197.51 99.91C197.51 99.91 197.7 107.52 197.46 117.3Z" fill="white"/>
<mask id="mask0_28_7079" style="mask-type:luminance" maskUnits="userSpaceOnUse" x="163" y="99" width="35" height="75">
<path d="M197.46 117.3C197.12 130.74 195.96 148.28 192.36 155.8C185.22 170.72 164.38 179.01 163.37 167.97C163.34 167.62 163.32 167.27 163.31 166.91C163.15 155.76 175.09 137.62 178.5 120.41C182.01 102.66 186.54 98.99 197.51 99.91C197.51 99.91 197.7 107.52 197.46 117.3Z" fill="white"/>
</mask>
<g mask="url(#mask0_28_7079)">
<path opacity="0.4" d="M197.461 117.3C197.121 130.74 195.961 148.28 192.361 155.8C185.221 170.72 164.381 179.01 163.371 167.97C163.341 167.62 163.321 167.27 163.311 166.91C181.691 157.79 188.471 120.23 188.471 120.23L197.461 117.3Z" fill="#F46B29"/>
</g>
<path d="M197.46 117.3C197.12 130.74 195.96 148.28 192.36 155.8C185.22 170.72 164.38 179.01 163.37 167.97C163.34 167.62 163.32 167.27 163.31 166.91C163.15 155.76 175.09 137.62 178.5 120.41C182.01 102.66 186.54 98.99 197.51 99.91C197.51 99.91 197.7 107.52 197.46 117.3Z" stroke="#263238" stroke-miterlimit="10" stroke-linecap="round" stroke-linejoin="round"/>
<path d="M191.505 134.342C191.505 134.342 185.97 147.891 185.97 152.279C185.97 156.667 180.447 162.281 180.447 162.281" stroke="#263238" stroke-miterlimit="10" stroke-linecap="round" stroke-linejoin="round"/>
<path d="M197.509 99.907C197.509 99.907 234.925 98.5401 241.742 104.426C260.796 120.878 233.05 139.715 236.826 182.662L189.041 175.056C189.041 175.056 200.899 156.931 190.632 132.103C184.395 117.024 187.887 102.836 197.509 99.907Z" fill="#F46B29"/>
<mask id="mask1_28_7079" style="mask-type:luminance" maskUnits="userSpaceOnUse" x="187" y="99" width="62" height="84">
<path d="M197.509 99.907C197.509 99.907 234.925 98.5401 241.742 104.426C260.796 120.878 233.05 139.715 236.826 182.662L189.041 175.056C189.041 175.056 200.899 156.931 190.632 132.103C184.395 117.024 187.887 102.836 197.509 99.907Z" fill="white"/>
</mask>
<g mask="url(#mask1_28_7079)">
<path opacity="0.15" d="M236.83 182.66L189.04 175.06C189.04 175.06 195.73 164.83 194.71 149.21C196.97 149.93 201.11 150.6 207.07 149.01C211.694 147.782 216.354 146.136 219.925 144.747C221.429 144.162 222.657 146.054 221.518 147.196C217.5 151.225 211.674 156.296 207.071 157.35C199.221 159.13 212.031 163.09 215.511 160.98C219.001 158.87 229.321 165.43 229.321 165.43C229.321 165.43 227.221 160.12 226.961 159.89C226.711 159.65 231.741 159.92 231.741 159.92C231.741 159.92 241.521 143.34 238.831 141.22C236.141 139.09 232.621 128.8 231.741 125.11C230.871 121.42 209.471 116.93 204.101 109.91C198.731 102.88 204.101 117.2 204.101 117.2C204.101 117.2 192.981 118.94 187.561 115.58C188.031 107.72 191.621 101.71 197.511 99.9101C197.511 99.9101 234.921 98.5401 241.741 104.43C260.8 120.88 233.05 139.71 236.83 182.66Z" fill="black"/>
</g>
<path d="M197.509 99.907C197.509 99.907 234.925 98.5401 241.742 104.426C260.796 120.878 233.05 139.715 236.826 182.662L189.041 175.056C189.041 175.056 200.899 156.931 190.632 132.103C184.395 117.024 187.887 102.836 197.509 99.907Z" stroke="#263238" stroke-miterlimit="10" stroke-linecap="round" stroke-linejoin="round"/>
<path d="M242.404 105.901C253.877 100.992 257.597 126.728 258.132 132.17C258.667 137.612 266.308 147.46 268.146 156.714C269.984 165.968 275.221 197.519 281.928 202.785C288.634 208.051 261.981 210.232 262.756 205.443C265.377 189.223 245.963 167.072 245.275 161.037C244.587 155.002 244.34 145.708 244.34 145.708C244.34 145.708 228.584 111.814 242.404 105.901Z" fill="white" stroke="#263238" stroke-miterlimit="10" stroke-linecap="round" stroke-linejoin="round"/>
<path d="M224.847 367.587C224.847 367.587 225.6 370.258 224.847 373.782C224.094 377.306 226.695 383.255 223.636 383.545C220.577 383.835 212.887 384.95 212.211 381.128C211.535 377.306 213.545 371.364 213.545 371.364C213.545 371.364 211.363 364.307 214.589 362.644C217.815 360.981 225.275 362.566 224.847 367.587Z" fill="#F46B29" stroke="#263238" stroke-miterlimit="10" stroke-linecap="round" stroke-linejoin="round"/>
<path d="M244.63 215.8C244.63 216.92 244.61 218.04 244.59 219.18C243.77 253.26 231.26 294.06 229.29 302.35C227.03 311.88 230.02 321.87 228.46 333.52C226.96 344.81 222.57 367.59 222.57 367.59C222.57 367.59 215.66 370.1 215.16 365.11C215.16 365.11 217.3 357.31 213.97 334.57C212.34 323.37 216.86 310.48 215.36 303.27C214.09 297.2 212.78 261.98 208.71 245.63C208.42 246.34 208.14 247.07 207.9 247.8C201.62 265.97 207.86 289.59 204.35 314.38C204.35 314.38 206.32 341.88 204.35 350.03C200.51 365.94 204.12 404.16 204.12 404.16L187.54 405.53C187.54 405.53 178.34 354.91 177.68 341.54C176.93 326.33 181.68 316.22 180.45 302.91C178.99 287.22 172.18 249.96 171.47 240.51C168.14 196.46 190.86 171.47 190.86 171.47C190.86 171.47 202.8 167.34 214.1 168.85C227.83 170.68 236.13 175.74 236.13 175.74C241.05 181.03 246.13 200.64 244.63 215.8Z" fill="#263238"/>
<path d="M214.926 379.639C214.926 379.639 220.922 382.098 225.082 379.639" stroke="#263238" stroke-miterlimit="10" stroke-linecap="round" stroke-linejoin="round"/>
<path d="M213.545 371.364C213.545 371.364 218.442 374.85 222.963 372.248" stroke="#263238" stroke-miterlimit="10" stroke-linecap="round" stroke-linejoin="round"/>
<path opacity="0.3" d="M229.29 302.35C227.03 311.88 230.02 321.87 228.46 333.52C226.96 344.81 222.57 367.59 222.57 367.59C222.57 367.59 215.66 370.1 215.16 365.11C215.16 365.11 217.3 357.31 213.97 334.57C212.34 323.37 216.86 310.48 215.36 303.27C214.09 297.2 212.78 261.98 208.71 245.63C208.42 246.34 208.14 247.07 207.9 247.8V236.93C207.9 236.93 210.61 232.53 210.58 230.78C210.56 229.02 211.71 225.89 211.71 225.89C211.71 225.89 232.46 232.66 244.59 219.18C243.77 253.26 231.26 294.06 229.29 302.35Z" fill="black"/>
<path d="M184.256 417.611C180.154 406.682 178.747 391.963 183.267 384.217C183.267 384.217 180.154 381.813 182.981 376.764C184.655 373.774 198.662 370.58 202.116 374.697C205.569 378.813 201.401 381.816 201.401 381.816C201.401 381.816 206.093 381.129 206.093 401.781C206.093 417.314 184.256 417.611 184.256 417.611Z" fill="#F46B29" stroke="#263238" stroke-miterlimit="10" stroke-linecap="round" stroke-linejoin="round"/>
<path d="M186.57 391.603C193.669 381.182 204.162 384.97 205.762 394.401C207.362 403.832 207.991 410.954 209.083 422.397C210.174 433.84 206.227 435.513 196.755 436.733C187.283 437.954 177.539 404.861 186.57 391.603Z" fill="#757575" stroke="#263238" stroke-miterlimit="10" stroke-linecap="round" stroke-linejoin="round"/>
<path d="M186.984 398.716C186.984 398.716 198.23 396.106 204.097 395.621" stroke="#263238" stroke-miterlimit="10" stroke-linecap="round" stroke-linejoin="round"/>
<path d="M186.042 407.737C186.042 407.737 199.925 405.209 204.097 404.788" stroke="#263238" stroke-miterlimit="10" stroke-linecap="round" stroke-linejoin="round"/>
<path d="M186.984 415.481C186.984 415.481 204.292 413.104 206.093 411.675" stroke="#263238" stroke-miterlimit="10" stroke-linecap="round" stroke-linejoin="round"/>
<path d="M188.115 423.581C188.115 423.581 204.879 420.991 207.328 419.555" stroke="#263238" stroke-miterlimit="10" stroke-linecap="round" stroke-linejoin="round"/>
<path d="M191.505 428.855C191.505 428.855 204.125 426.783 207.328 425.464" stroke="#263238" stroke-miterlimit="10" stroke-linecap="round" stroke-linejoin="round"/>
<path d="M195.07 433.564C195.07 433.564 206.009 431.026 207.328 430.739" stroke="#263238" stroke-miterlimit="10" stroke-linecap="round" stroke-linejoin="round"/>
<path d="M186.042 381.128C186.042 381.128 194.832 375.255 200.609 379.639" stroke="#263238" stroke-miterlimit="10" stroke-linecap="round" stroke-linejoin="round"/>
<path d="M182.087 397.075C182.087 397.075 183.493 385.275 192.447 383.545C201.401 381.815 202.354 386.187 202.354 386.187" stroke="#263238" stroke-miterlimit="10" stroke-linecap="round" stroke-linejoin="round"/>
<path d="M210.583 233.395C210.583 233.395 213.587 241.581 225.068 249.115" stroke="white" stroke-miterlimit="10" stroke-linecap="round" stroke-linejoin="round"/>
<path d="M225.182 302.078C225.182 302.078 218.634 304.309 218.627 312.05" stroke="white" stroke-miterlimit="10" stroke-linecap="round" stroke-linejoin="round"/>
<path d="M184.087 310.874C184.087 310.874 188.608 303.723 195.326 305.604" stroke="white" stroke-miterlimit="10" stroke-linecap="round" stroke-linejoin="round"/>
<path d="M188.042 286.931C188.042 286.931 195.765 290.859 197.021 297.79" stroke="white" stroke-miterlimit="10" stroke-linecap="round" stroke-linejoin="round"/>
<path d="M182.154 235.631C198.179 236.36 207.067 244.195 207.067 244.195" stroke="white" stroke-miterlimit="10" stroke-linecap="round" stroke-linejoin="round"/>
<path d="M177.811 221.408C186.954 229.701 200.286 228.748 211.714 225.891C219.332 231.605 229.808 234.462 237.989 229.125" stroke="white" stroke-miterlimit="10" stroke-linecap="round" stroke-linejoin="round"/>
<path d="M211.839 186.68C211.839 186.68 214.602 205.172 211.839 217.023" stroke="white" stroke-miterlimit="10" stroke-linecap="round" stroke-linejoin="round"/>
<path d="M185.976 186.68C185.976 186.68 191.496 184.42 202.798 186.68L200.627 200.533L191.505 206.27L182.499 200.533C182.499 200.533 182.454 194.968 184.086 191.452" stroke="white" stroke-miterlimit="10" stroke-linecap="round" stroke-linejoin="round"/>
<path d="M221.904 187.685C221.904 187.685 225.74 200.947 225.068 204.111L233.681 210.081L238.832 204.973C238.832 204.973 237.922 191.617 235.052 188.897C235.052 188.897 228.459 187.684 225.181 187.684" stroke="white" stroke-miterlimit="10" stroke-linecap="round" stroke-linejoin="round"/>
<path d="M191.505 175.448C191.505 175.448 214.661 170.379 231.742 177.136" stroke="white" stroke-miterlimit="10" stroke-linecap="round" stroke-linejoin="round"/>
<path d="M284.482 204.832C287.5 207.987 290.633 220.295 285.346 219.868C280.059 219.441 264.549 209.384 264.549 209.384L284.482 204.832Z" fill="white" stroke="#263238" stroke-miterlimit="10" stroke-linecap="round" stroke-linejoin="round"/>
<path d="M249.43 450.797C249.43 450.797 250.257 458.434 248.312 463.242H240.634C240.634 463.242 238.124 459.282 239.536 450.797H249.43Z" fill="#757575" stroke="#263238" stroke-miterlimit="10" stroke-linecap="round" stroke-linejoin="round"/>
<path d="M342.756 450.797C342.756 450.797 345.122 457.019 341.638 463.242H334.611C334.611 463.242 331.451 459.282 332.862 450.797H342.756Z" fill="#757575" stroke="#263238" stroke-miterlimit="10" stroke-linecap="round" stroke-linejoin="round"/>
<path d="M334.107 451.268C334.107 451.268 335.602 456.642 334.826 461.356" stroke="#263238" stroke-miterlimit="10" stroke-linecap="round" stroke-linejoin="round"/>
<path d="M345.171 453.179H236.865C234.392 453.179 232.356 451.172 232.319 448.696L232.255 444.495C232.217 442.019 234.192 440.012 236.665 440.012H344.97C347.443 440.012 349.479 442.019 349.517 444.495L349.581 448.696C349.618 451.172 347.644 453.179 345.171 453.179Z" fill="#999999" stroke="#263238" stroke-miterlimit="10" stroke-linecap="round" stroke-linejoin="round"/>
<path d="M230.629 277.499C230.629 277.499 227.655 361.811 228.516 419.995C228.615 426.709 229.823 432.351 231.271 436.753C233.4 443.223 240.026 447.661 247.453 447.661H334.375C339.899 447.661 345.059 445.203 348.065 441.043C352.217 435.297 356.918 426.519 355.434 417.61C352.9 402.392 230.629 277.499 230.629 277.499Z" fill="#F46B29"/>
<mask id="mask2_28_7079" style="mask-type:luminance" maskUnits="userSpaceOnUse" x="228" y="277" width="128" height="171">
<path d="M230.629 277.499C230.629 277.499 227.655 361.811 228.516 419.995C228.615 426.709 229.823 432.351 231.271 436.753C233.4 443.223 240.026 447.661 247.453 447.661H334.375C339.899 447.661 345.059 445.203 348.065 441.043C352.217 435.297 356.918 426.519 355.434 417.61C352.9 402.392 230.629 277.499 230.629 277.499Z" fill="white"/>
</mask>
<g mask="url(#mask2_28_7079)">
<path opacity="0.3" d="M230.629 277.499C230.629 277.499 227.655 361.811 228.516 419.995C228.615 426.709 229.823 432.351 231.271 436.753C233.4 443.223 240.026 447.661 247.453 447.661H334.375C339.899 447.661 345.059 445.203 348.065 441.043C352.217 435.297 356.918 426.519 355.434 417.61C352.9 402.392 230.629 277.499 230.629 277.499Z" fill="black"/>
</g>
<mask id="mask3_28_7079" style="mask-type:luminance" maskUnits="userSpaceOnUse" x="228" y="277" width="128" height="171">
<path d="M230.629 277.499C230.629 277.499 227.655 361.811 228.516 419.995C228.615 426.709 229.823 432.351 231.271 436.753C233.4 443.223 240.026 447.661 247.453 447.661H334.375C339.899 447.661 345.059 445.203 348.065 441.043C352.217 435.297 356.918 426.519 355.434 417.61C352.9 402.392 230.629 277.499 230.629 277.499Z" fill="white"/>
</mask>
<g mask="url(#mask3_28_7079)">
<path d="M233.693 430.084C236.149 434.536 241.177 437.362 246.642 437.362H336.158C341.074 437.362 345.61 435.07 348.161 431.297L349.289 429.629" stroke="#263238" stroke-miterlimit="10" stroke-linecap="round" stroke-linejoin="round"/>
</g>
<path d="M230.629 277.499C230.629 277.499 227.655 361.811 228.516 419.995C228.615 426.709 229.823 432.351 231.271 436.753C233.4 443.223 240.026 447.661 247.453 447.661H334.375C339.899 447.661 345.059 445.203 348.065 441.043C352.217 435.297 356.918 426.519 355.434 417.61C352.9 402.392 230.629 277.499 230.629 277.499Z" stroke="#263238" stroke-miterlimit="10" stroke-linecap="round" stroke-linejoin="round"/>
<path d="M304.544 298.608L295.167 216.016H253.968L255.336 305.604L251.037 301.115L249.67 211.527H299.439L308.817 294.118L304.544 298.608Z" fill="#BFBFBF" stroke="#263238" stroke-miterlimit="10"/>
<path d="M249.732 215.662C249.732 215.662 251.746 214.673 253.967 216.016H295.166C295.166 216.016 298.174 214.772 299.868 215.311L300.431 213.701C300.962 212.18 299.813 210.571 298.196 210.571H251.127C249.51 210.571 248.41 212.181 248.987 213.701L249.732 215.662Z" fill="#757575" stroke="#263238" stroke-miterlimit="10" stroke-linecap="round" stroke-linejoin="round"/>
<path d="M346.171 427.716H242.233C235.98 427.716 230.886 422.022 230.856 415.121L230.261 279.807C230.241 275.386 234.191 271.853 239.081 271.853H320.374C325.265 271.853 329.87 275.386 330.671 279.807L355.209 415.121C356.46 422.022 352.424 427.716 346.171 427.716Z" fill="#F46B29" stroke="#263238" stroke-miterlimit="10" stroke-linecap="round" stroke-linejoin="round"/>
<g opacity="0.2">
<path d="M245.483 280.196C244.451 280.196 243.645 281.296 243.683 282.659L247.23 409.73C247.287 411.779 248.367 413.448 249.641 413.448C250.915 413.448 251.891 411.778 251.82 409.73L247.437 282.659C247.39 281.296 246.515 280.196 245.483 280.196Z" fill="black"/>
<path d="M267.801 280.196C266.769 280.196 266.006 281.296 266.098 282.659L274.639 409.73C274.777 411.779 275.922 413.448 277.197 413.448C278.471 413.448 279.381 411.778 279.23 409.73L269.853 282.659C269.752 281.296 268.834 280.196 267.801 280.196Z" fill="black"/>
<path d="M290.876 280.196C289.844 280.196 289.126 281.296 289.273 282.659L302.977 409.73C303.198 411.779 304.411 413.448 305.686 413.448C306.96 413.448 307.803 411.778 307.568 409.73L293.028 282.659C292.871 281.296 291.908 280.196 290.876 280.196Z" fill="black"/>
<path d="M313.194 280.196C312.162 280.196 311.487 281.296 311.687 282.659L330.385 409.73C330.687 411.779 331.965 413.448 333.24 413.448C334.514 413.448 335.291 411.778 334.976 409.73L315.441 282.659C315.232 281.296 314.227 280.196 313.194 280.196Z" fill="black"/>
</g>
<path d="M246.697 390.645L245.272 339.57" stroke="#263238" stroke-miterlimit="10" stroke-linecap="round" stroke-linejoin="round"/>
<path d="M254.17 406.683L254.435 413.661C254.518 415.834 252.989 417.611 251.018 417.611C249.046 417.611 247.401 415.834 247.34 413.661L247.119 405.74" stroke="#263238" stroke-miterlimit="10" stroke-linecap="round" stroke-linejoin="round"/>
<path d="M252.684 367.587L254.099 404.788" stroke="#263238" stroke-miterlimit="10" stroke-linecap="round" stroke-linejoin="round"/>
<path d="M243.955 292.354L243.685 282.678C243.645 281.249 244.898 280.092 246.485 280.092C247.279 280.092 248.007 280.384 248.546 280.847C249.086 281.317 249.429 281.966 249.456 282.678L252.294 357.309" stroke="#263238" stroke-miterlimit="10" stroke-linecap="round" stroke-linejoin="round"/>
<path d="M244.136 298.871L244.028 295.018" stroke="#263238" stroke-miterlimit="10" stroke-linecap="round" stroke-linejoin="round"/>
<path d="M245.052 331.679L244.167 299.953" stroke="#263238" stroke-miterlimit="10" stroke-linecap="round" stroke-linejoin="round"/>
<path d="M279.448 375.257L282.442 413.661C282.611 415.834 281.154 417.611 279.182 417.611C277.21 417.611 275.494 415.834 275.346 413.661L274.744 404.789" stroke="#263238" stroke-miterlimit="10" stroke-linecap="round" stroke-linejoin="round"/>
<path d="M274.302 309.236L278.923 368.511" stroke="#263238" stroke-miterlimit="10" stroke-linecap="round" stroke-linejoin="round"/>
<path d="M266.857 288.502L266.462 282.678C266.365 281.249 267.571 280.092 269.159 280.092C269.953 280.092 270.693 280.384 271.25 280.847C271.809 281.317 272.177 281.966 272.233 282.678L274.069 306.232" stroke="#263238" stroke-miterlimit="10" stroke-linecap="round" stroke-linejoin="round"/>
<path d="M268.859 318.012L267.71 301.076" stroke="#263238" stroke-miterlimit="10" stroke-linecap="round" stroke-linejoin="round"/>
<path d="M273.67 388.943L269.313 324.726" stroke="#263238" stroke-miterlimit="10" stroke-linecap="round" stroke-linejoin="round"/>
<path d="M291.937 307.731L289.237 282.679C289.083 281.25 290.243 280.093 291.83 280.093C292.624 280.093 293.375 280.385 293.951 280.848C294.528 281.318 294.923 281.967 295.007 282.679L295.461 286.53" stroke="#263238" stroke-miterlimit="10" stroke-linecap="round" stroke-linejoin="round"/>
<path d="M297.42 358.601L294.153 328.286" stroke="#263238" stroke-miterlimit="10" stroke-linecap="round" stroke-linejoin="round"/>
<path d="M296.016 291.222L310.451 413.66C310.707 415.833 309.321 417.61 307.349 417.61C305.377 417.61 303.59 415.833 303.356 413.66L298.893 372.251" stroke="#263238" stroke-miterlimit="10" stroke-linecap="round" stroke-linejoin="round"/>
<path d="M319.253 331.679L312.015 282.679C311.804 281.25 312.918 280.093 314.505 280.093C315.299 280.093 316.062 280.385 316.656 280.848C317.252 281.318 317.673 281.967 317.785 282.679L318.189 285.24" stroke="#263238" stroke-miterlimit="10" stroke-linecap="round" stroke-linejoin="round"/>
<path d="M321.248 345.191L320.621 340.949" stroke="#263238" stroke-miterlimit="10" stroke-linecap="round" stroke-linejoin="round"/>
<path d="M329.608 401.78L321.803 348.943" stroke="#263238" stroke-miterlimit="10" stroke-linecap="round" stroke-linejoin="round"/>
<path d="M333.43 381.813L338.457 413.661C338.8 415.834 337.484 417.611 335.513 417.611C333.541 417.611 331.683 415.834 331.362 413.661L330.616 408.609" stroke="#263238" stroke-miterlimit="10" stroke-linecap="round" stroke-linejoin="round"/>
<path d="M321.503 306.233L332.308 374.693" stroke="#263238" stroke-miterlimit="10" stroke-linecap="round" stroke-linejoin="round"/>
<path d="M319.522 293.69L320.846 302.078" stroke="#263238" stroke-miterlimit="10" stroke-linecap="round" stroke-linejoin="round"/>
<path d="M250.469 283.821L244.677 302.147C244.066 304.08 245.949 305.973 248.067 305.542L268.698 301.338C270.783 300.913 271.433 298.525 269.881 297.047L255.045 282.922C253.575 281.521 251.039 282.018 250.469 283.821Z" fill="white" stroke="#263238" stroke-miterlimit="10" stroke-linecap="round" stroke-linejoin="round"/>
<path d="M247.687 304.095C247.054 304.224 246.636 303.887 246.486 303.737C246.336 303.587 246.006 303.175 246.187 302.597L251.936 284.243C252.106 283.701 252.596 283.55 252.799 283.51C253.001 283.47 253.521 283.423 253.963 283.844L268.796 298.016C269.26 298.459 269.188 298.949 269.136 299.139C269.083 299.329 268.894 299.786 268.271 299.912L247.687 304.095Z" fill="white" stroke="#263238" stroke-miterlimit="10" stroke-linecap="round" stroke-linejoin="round"/>
<path d="M262.204 300.081L259.621 297.563L259.463 297.014L253.982 298.119L254.183 298.845L253.291 302.076L254.682 301.794C254.682 301.794 255.22 299.451 257.184 299.054C259.145 298.658 260.945 300.523 260.945 300.523" stroke="#263238" stroke-miterlimit="10" stroke-linecap="round" stroke-linejoin="round"/>
<path d="M254.636 297.278L254.812 295.371L254.657 294.818L257.032 294.342L257.228 295.033L258.51 296.498" stroke="#263238" stroke-miterlimit="10" stroke-linecap="round" stroke-linejoin="round"/>
<path d="M254.941 293.741L254.062 289.225L254.614 289.116L256.35 293.459" stroke="#263238" stroke-miterlimit="10" stroke-linecap="round" stroke-linejoin="round"/>
<path d="M253.189 288.469L255.099 288.091" stroke="#263238" stroke-miterlimit="10" stroke-linecap="round" stroke-linejoin="round"/>
<path d="M253.916 287.47L253.793 287.032" stroke="#263238" stroke-miterlimit="10" stroke-linecap="round" stroke-linejoin="round"/>
<path opacity="0.6" d="M263.55 299.974C263.55 299.974 260.457 297.181 260.25 296.41L259.326 295.925C259.326 295.925 258.28 294.511 258.038 293.65C257.796 292.792 256.82 292.461 256.591 291.069C256.364 289.684 255.66 289.221 255.66 289.221L256.227 288.383C256.227 288.383 254.582 287.818 254.529 287.166C254.476 286.515 254.387 286.038 253.795 286.095C253.203 286.151 253.042 287.533 253.042 287.533C253.042 287.533 252.168 288.756 252.309 289.162C252.449 289.569 253.026 289.864 253.026 289.864C253.026 289.864 253.874 293.797 253.691 294.071C253.508 294.345 253.383 295.071 253.356 295.86C253.33 296.652 253.064 297.796 252.642 297.89C252.22 297.984 251.795 302.438 251.795 302.438L249.2 302.893C248.509 303.014 247.898 302.412 248.065 301.777L252.496 284.981C252.64 284.435 253.402 284.278 253.832 284.705L267.094 297.904C267.602 298.409 267.371 299.202 266.673 299.343L263.55 299.974Z" fill="#F46B29"/>
<path d="M316.111 304.727L297.77 301.35C296.34 301.087 295.289 299.819 295.422 298.524L296.796 285.079C296.922 283.848 298.147 283.054 299.534 283.302L317.32 286.475C318.724 286.725 319.8 287.937 319.723 289.185L318.882 302.826C318.8 304.14 317.559 304.993 316.111 304.727Z" fill="white" stroke="#263238" stroke-miterlimit="10" stroke-linecap="round" stroke-linejoin="round"/>
<path opacity="0.6" d="M316.26 304.236L297.672 300.816C296.657 300.629 295.91 299.729 296.003 298.809L297.401 284.989C297.49 284.114 298.36 283.549 299.347 283.725L317.402 286.948C318.4 287.126 319.165 287.988 319.109 288.875L318.229 302.886C318.17 303.82 317.288 304.425 316.26 304.236Z" fill="#F46B29"/>
<path d="M297.911 299.92C297.351 299.817 296.936 299.319 296.987 298.811L298.325 285.353C298.373 284.869 298.857 284.554 299.403 284.652L317.23 287.84C317.782 287.939 318.206 288.418 318.175 288.908L317.297 302.535C317.264 303.05 316.775 303.385 316.208 303.281L297.911 299.92Z" fill="white" stroke="#263238" stroke-miterlimit="10" stroke-linecap="round" stroke-linejoin="round"/>
<path opacity="0.6" d="M298.367 291.629H299.234L298.937 294.146L301.157 294.701L301.558 289.019L300.605 287.728L302.237 287.606L302.372 286.718L303.9 288.503L302.729 289.466L302.338 293.255L304.414 293.832C304.414 293.832 303.352 290.38 307.899 291.022L308.897 289.402L309.545 291.097C309.545 291.097 310.831 291.288 311.65 292.357C312.472 293.43 312.506 295.42 312.506 295.42H314.104L314.739 291.63C314.739 291.63 313.177 290.696 313.064 290.274C312.951 289.853 315.218 289.402 315.218 289.402C315.218 289.402 317.255 290.81 316.741 291.097C316.226 291.385 315.792 292.144 315.792 292.144L315.261 301.626L315.985 302.351L297.91 298.871L298.367 291.629Z" fill="#F46B29"/>
<path d="M303.709 299.492L304.103 295.019L312.676 296.577L312.348 301.074" stroke="#263238" stroke-miterlimit="10" stroke-linecap="round" stroke-linejoin="round"/>
<path d="M307.193 299.629L307.344 297.79L309.101 298.111L308.956 299.952" stroke="#263238" stroke-miterlimit="10" stroke-linecap="round" stroke-linejoin="round"/>
<path d="M302.97 293.688L314.149 295.716" stroke="#263238" stroke-miterlimit="10" stroke-linecap="round" stroke-linejoin="round"/>
<path d="M304.29 292.877C304.29 292.877 303.776 290.485 307.899 291.021L308.897 289.401L309.636 291.334C309.636 291.334 312.988 292.286 312.524 294.368" stroke="#263238" stroke-miterlimit="10" stroke-linecap="round" stroke-linejoin="round"/>
<path d="M300.809 298.46L301.663 289.273L302.73 289.465L302.45 292.543" stroke="#263238" stroke-miterlimit="10" stroke-linecap="round" stroke-linejoin="round"/>
<path d="M300.63 287.914L303.901 288.502" stroke="#263238" stroke-miterlimit="10" stroke-linecap="round" stroke-linejoin="round"/>
<path d="M302.458 286.526L302.384 287.336" stroke="#263238" stroke-miterlimit="10" stroke-linecap="round" stroke-linejoin="round"/>
<path d="M315.183 301.092L315.815 291.822L314.739 291.629L314.522 294.73" stroke="#263238" stroke-miterlimit="10" stroke-linecap="round" stroke-linejoin="round"/>
<path d="M313.747 290.272L317.046 290.865" stroke="#263238" stroke-miterlimit="10" stroke-linecap="round" stroke-linejoin="round"/>
<path d="M315.476 288.859L315.42 289.675" stroke="#263238" stroke-miterlimit="10" stroke-linecap="round" stroke-linejoin="round"/>
<path d="M300.087 293.621L299.064 293.435L299.278 291.225L298.565 291.096" stroke="#263238" stroke-miterlimit="10" stroke-linecap="round" stroke-linejoin="round"/>
<path d="M307.01 353.69C306.757 361.802 299.886 367.465 291.698 366.155C283.543 364.85 277.464 357.164 278.078 349.167C278.677 341.366 285.453 336.144 293.252 337.336C301.082 338.532 307.256 345.778 307.01 353.69Z" fill="white" stroke="#263238" stroke-miterlimit="10"/>
<path opacity="0.6" d="M280.885 351.847C280.885 351.847 279.852 348.487 282.955 343.744C286.012 339.071 292.632 338.431 297.331 341.289C302.073 344.173 304.121 349.727 304.248 352.192C304.376 354.676 303.594 355.73 303.594 355.73H302.831L302.895 354.016L301.535 353.803L301.479 355.214L299.76 354.775L299.278 358.601L297.34 358.295L297.398 357.037L295.744 356.192C295.744 356.192 294.597 350.643 295.305 347.265C295.305 347.265 299.109 346.688 298.95 345.275C298.792 343.869 295.586 342.994 295.586 342.994C295.586 342.994 295.938 341.18 294.433 341.269C292.929 341.358 292.81 342.911 292.81 342.911C292.81 342.911 289.13 342.167 289.032 343.742C288.933 345.324 293.169 346.39 293.169 346.39L291.623 355.213L290.103 354.774L290.663 353.044L287.762 350.657L287.435 356.191H286.323L286.235 351.417H283.795L283.193 353.214L280.885 351.847Z" fill="#F46B29"/>
<path d="M291.794 364.38C284.631 363.237 279.254 356.469 279.775 349.432C280.285 342.546 286.278 337.91 293.165 338.965C300.075 340.024 305.526 346.449 305.29 353.421C305.049 360.547 298.982 365.527 291.794 364.38Z" stroke="#263238" stroke-miterlimit="10"/>
<path d="M290.603 362.644C290.603 362.644 292.724 356.6 293.308 347.74" stroke="#263238" stroke-miterlimit="10" stroke-linecap="round" stroke-linejoin="round"/>
<path d="M294.876 347.983C294.876 347.983 294.601 357.979 295.986 362.612" stroke="#263238" stroke-miterlimit="10" stroke-linecap="round" stroke-linejoin="round"/>
<path d="M290.519 345.191C290.519 345.191 293.647 347.571 297.889 346.333" stroke="#263238" stroke-miterlimit="10" stroke-linecap="round" stroke-linejoin="round"/>
<path d="M289.032 343.744L298.949 345.277" stroke="#263238" stroke-miterlimit="10" stroke-linecap="round" stroke-linejoin="round"/>
<path d="M290.639 343.109C290.639 343.109 294.832 342.216 297.984 344.243" stroke="#263238" stroke-miterlimit="10" stroke-linecap="round" stroke-linejoin="round"/>
<path d="M294.449 340.952L294.344 342.996" stroke="#263238" stroke-miterlimit="10" stroke-linecap="round" stroke-linejoin="round"/>
<path d="M290.966 356.141L289.445 355.901L289.564 353.861L288.449 352.491L288.159 357.308L285.607 356.905L285.915 352.094L284.34 351.847L284.181 354.242L281.474 353.816" stroke="#263238" stroke-miterlimit="10" stroke-linecap="round" stroke-linejoin="round"/>
<path d="M296.26 356.86L297.398 357.039L297.34 358.297L299.278 358.603L299.415 355.408L301.459 355.729L301.535 353.803L302.895 354.016L302.799 356.569L303.71 356.712" stroke="#263238" stroke-miterlimit="10" stroke-linecap="round" stroke-linejoin="round"/>
<path d="M318.967 374.525L306.957 377.213C305.569 377.524 304.536 378.613 304.246 380.075L301.67 393.066C301.367 394.593 301.873 396.281 303.001 397.492L312.981 408.207C314.149 409.461 315.765 410.025 317.215 409.683L329.766 406.726C331.203 406.387 332.234 405.206 332.471 403.631L334.489 390.238C334.716 388.731 334.136 387.08 332.97 385.905L323.007 375.861C321.881 374.725 320.342 374.217 318.967 374.525Z" fill="white" stroke="#263238" stroke-miterlimit="10" stroke-linecap="round" stroke-linejoin="round"/>
<path d="M316.584 407.683C315.769 407.874 314.853 407.556 314.194 406.852L304.216 396.179C303.58 395.499 303.291 394.542 303.46 393.681L306.003 380.666C306.165 379.841 306.752 379.219 307.535 379.043L319.576 376.34C320.353 376.166 321.23 376.456 321.865 377.098L331.83 387.181C332.486 387.845 332.813 388.783 332.683 389.632L330.629 403C330.493 403.885 329.909 404.553 329.102 404.742L316.584 407.683Z" fill="white" stroke="#263238" stroke-miterlimit="10" stroke-linecap="round" stroke-linejoin="round"/>
<path opacity="0.6" d="M304.902 393.444L307.605 380.573L320.444 377.558L331.514 388.053L331.439 392.813C331.439 392.813 330.113 391.752 328.354 391.649L326.995 389.915C326.995 389.915 328.951 385.795 325.351 384.207C321.768 382.627 320.567 386.081 321.496 388.945L318.963 390.647L310.09 385.755L305.674 393.911L304.902 393.444Z" fill="#F46B29"/>
<path d="M309.863 399.474L330.577 394.677" stroke="#263238" stroke-miterlimit="10" stroke-linecap="round" stroke-linejoin="round"/>
<path d="M306.201 395.394L310.67 386.322L323.938 394.881" fill="white"/>
<path d="M306.201 395.394L310.67 386.322L323.938 394.881" stroke="#263238" stroke-miterlimit="10" stroke-linecap="round" stroke-linejoin="round"/>
<path d="M307.892 391.964L313.639 390.648" stroke="#263238" stroke-miterlimit="10" stroke-linecap="round" stroke-linejoin="round"/>
<path d="M312.16 393.618L319.146 392.012" stroke="#263238" stroke-miterlimit="10" stroke-linecap="round" stroke-linejoin="round"/>
<path d="M308.164 397.294L316.737 395.316" stroke="#263238" stroke-miterlimit="10" stroke-linecap="round" stroke-linejoin="round"/>
<path d="M320.915 391.007C320.915 391.007 322.545 390.423 322.728 389.876C322.91 389.33 321.862 386.463 322.602 385.696C323.34 384.931 325.217 385.399 325.479 385.638C325.741 385.877 326.773 387.843 326.778 388.394C326.784 388.946 325.802 389.272 325.802 389.272" fill="white"/>
<path d="M320.915 391.007C320.915 391.007 322.545 390.423 322.728 389.876C322.91 389.33 321.862 386.463 322.602 385.696C323.34 384.931 325.217 385.399 325.479 385.638C325.741 385.877 326.773 387.843 326.778 388.394C326.784 388.946 325.802 389.272 325.802 389.272" stroke="#263238" stroke-miterlimit="10" stroke-linecap="round" stroke-linejoin="round"/>
<path d="M326.428 388.946C326.428 388.946 327.985 392.721 328.278 392.653C328.571 392.585 329.735 392.216 330.156 393.444" fill="white"/>
<path d="M326.428 388.946C326.428 388.946 327.985 392.721 328.278 392.653C328.571 392.585 329.735 392.216 330.156 393.444" stroke="#263238" stroke-miterlimit="10" stroke-linecap="round" stroke-linejoin="round"/>
<path d="M324.967 391.384C324.967 391.384 325.389 392.913 326.196 393.134C327.003 393.356 327.375 393.372 327.599 394.035" fill="white"/>
<path d="M324.967 391.384C324.967 391.384 325.389 392.913 326.196 393.134C327.003 393.356 327.375 393.372 327.599 394.035" stroke="#263238" stroke-miterlimit="10" stroke-linecap="round" stroke-linejoin="round"/>
<path d="M310.732 400.903L330.259 396.303L329.365 403.083L315.668 406.682L310.732 400.903Z" fill="#F46B29"/>
<path d="M297.334 322.789L301.43 320.822C301.987 320.555 302.157 319.879 301.81 319.313L300.467 317.12C300.124 316.559 299.397 316.319 298.843 316.583L298.296 316.844C297.741 317.108 297.014 316.868 296.674 316.308L292.76 309.86C292.428 309.313 291.712 309.079 291.161 309.337L289.661 310.04L284.938 312.249L277.536 315.71L273.701 317.503C273.197 317.739 272.973 318.303 273.174 318.836L273.415 319.475C272.747 319.098 272.09 318.984 271.548 318.984C270.865 318.984 270.168 319.155 269.415 319.507L267.724 320.298L260.939 323.472C260.361 323.742 260.144 324.427 260.454 325.002C259.806 324.748 259.148 324.606 258.484 324.606C257.87 324.606 257.266 324.718 256.689 324.939C255.621 325.348 254.685 326.126 253.991 327.145C253.763 327.48 253.355 327.652 252.934 327.61C252.688 327.586 252.443 327.573 252.2 327.573C251.179 327.573 250.218 327.793 249.421 328.207C247.923 328.986 246.999 330.404 246.82 332.209L246.482 331.547C246.182 330.96 245.46 330.708 244.868 330.984L242.409 332.134C241.815 332.412 241.573 333.116 241.87 333.708L247.672 345.268C247.981 345.883 248.722 346.147 249.326 345.857L251.826 344.655C252.427 344.366 252.661 343.636 252.349 343.025L251.905 342.157C251.402 341.173 252.324 340.131 253.362 340.503C255.158 341.146 257.048 341.499 258.668 341.689C259.061 341.738 259.387 341.776 259.725 341.809L259.862 341.813C260.535 341.813 261.153 341.488 261.518 340.942C261.662 340.726 261.831 340.458 262.028 340.143C263.777 337.383 265.65 333.369 264.737 329.796C264.533 328.998 264.188 328.264 263.727 327.6L263.934 327.502L268.228 335.413C268.552 336.009 269.289 336.265 269.875 335.983L273.354 334.311L278.136 332.013V332.014L282.527 329.903L282.428 329.654L282.596 329.871L287.104 327.706V327.705L290.551 326.05L297.334 322.789Z" fill="white" stroke="#263238" stroke-miterlimit="10"/>
<path d="M243.549 333.415L245.211 332.635L250.646 343.329L248.962 344.136L243.549 333.415Z" fill="#263238"/>
<path d="M262.101 324.715L267.084 322.378L267.889 323.834L266.205 324.626L271.096 333.533L269.463 334.315L264.589 325.386L262.896 326.182L262.101 324.715Z" fill="#263238"/>
<path d="M276.895 330.755C276.656 330.529 276.505 330.393 276.03 329.544L275.115 327.912C274.577 326.952 274.057 326.751 273.325 327.099L272.768 327.363L275.129 331.6L273.507 332.377L267.784 322.048L270.201 320.915C271.855 320.139 272.995 320.571 273.877 322.134L274.328 322.933C274.92 323.983 274.964 324.813 274.44 325.489L274.457 325.518C275.449 325.475 276.141 326.114 276.748 327.19L277.649 328.788C277.934 329.293 278.158 329.657 278.537 329.967L276.895 330.755ZM270.196 322.749L271.948 325.892L272.577 325.594C273.176 325.31 273.393 324.874 272.934 324.055L272.37 323.049C271.962 322.322 271.536 322.119 270.969 322.386L270.196 322.749Z" fill="#263238"/>
<path d="M284.606 327.061L282.993 327.834L281.644 326.093L279.68 327.03L280.471 329.042L278.994 329.749L274.822 318.748L277.141 317.661L284.606 327.061ZM279.087 325.536L280.627 324.803L276.935 320.017L276.906 320.031L279.087 325.536Z" fill="#263238"/>
<path d="M286.273 323.847L286.302 323.833L282.695 315.057L284.133 314.383L288.5 325.197L286.13 326.332L278.708 316.927L280.297 316.182L286.273 323.847Z" fill="#263238"/>
<path d="M288.902 317.498L291.049 316.482L291.902 317.91L289.751 318.931L291.505 321.889L294.219 320.593L295.086 322.04L290.789 324.099L284.857 314.042L289.104 312.051L289.947 313.458L287.256 314.724L288.902 317.498Z" fill="#263238"/>
<path d="M290.065 311.6L291.613 310.874L296.754 319.383L299.319 318.158L300.194 319.594L296.059 321.575L290.065 311.6Z" fill="#263238"/>
<path d="M260.516 327.201C257.796 325.479 255.435 327.677 254.918 330.215C252.492 329.005 249.168 329.367 248.874 332.472C248.372 337.778 255.574 339.245 258.828 339.625C259.198 339.671 259.504 339.707 259.756 339.731C259.892 339.528 260.051 339.277 260.243 338.972C261.937 336.319 265.136 330.126 260.516 327.201Z" fill="#F46B29" stroke="#263238" stroke-miterlimit="10" stroke-linecap="round" stroke-linejoin="round"/>
<path d="M250.113 401.784C247.617 401.784 245.451 399.75 245.077 397.07L242.369 377.673C242.183 376.34 242.499 375.027 243.257 373.976C244.013 372.927 245.119 372.262 246.373 372.099L265.796 369.576C265.991 369.55 266.186 369.538 266.379 369.538C268.757 369.538 270.894 371.397 271.351 373.879L274.884 393.052C275.142 394.454 274.884 395.844 274.153 396.967C273.419 398.093 272.299 398.811 271.002 398.988L250.728 401.743C250.521 401.771 250.316 401.784 250.113 401.784Z" fill="white" stroke="#263238" stroke-miterlimit="10" stroke-linecap="round" stroke-linejoin="round"/>
<path d="M270.654 397.021L250.436 399.761C248.736 399.991 247.144 398.674 246.881 396.828L244.122 377.445C243.875 375.711 245.004 374.139 246.641 373.926L266.117 371.388C267.74 371.176 269.307 372.39 269.619 374.107L273.103 393.293C273.434 395.119 272.339 396.793 270.654 397.021Z" fill="white" stroke="#263238" stroke-miterlimit="10" stroke-linecap="round" stroke-linejoin="round"/>
<path d="M248.125 391.187L269.738 388.064" stroke="#263238" stroke-miterlimit="10" stroke-linecap="round" stroke-linejoin="round"/>
<path d="M269.179 389.59C269.179 389.59 265.634 389.973 266.276 390.803C266.919 391.635 265.661 392.598 263.406 392.856C261.149 393.114 260.635 394.857 260.109 395.116C259.582 395.375 255.386 396.869 253.991 396.544C252.598 396.219 255.494 395.116 253.919 394.663C252.346 394.21 248.751 394.081 249.149 393.436C249.547 392.792 248.155 392.187 248.155 392.187" fill="white"/>
<path d="M269.179 389.59C269.179 389.59 265.634 389.973 266.276 390.803C266.919 391.635 265.661 392.598 263.406 392.856C261.149 393.114 260.635 394.857 260.109 395.116C259.582 395.375 255.386 396.869 253.991 396.544C252.598 396.219 255.494 395.116 253.919 394.663C252.346 394.21 248.751 394.081 249.149 393.436C249.547 392.792 248.155 392.187 248.155 392.187" stroke="#263238" stroke-miterlimit="10" stroke-linecap="round" stroke-linejoin="round"/>
<path d="M267.734 385.275C267.734 385.275 265.727 378.048 263.391 376.98Z" fill="white"/>
<path d="M267.734 385.275C267.734 385.275 265.727 378.048 263.391 376.98" stroke="#263238" stroke-miterlimit="10" stroke-linecap="round" stroke-linejoin="round"/>
<path d="M262.215 376.808C262.215 376.808 260.602 376.389 260.112 378.117Z" fill="white"/>
<path d="M262.215 376.808C262.215 376.808 260.602 376.389 260.112 378.117" stroke="#263238" stroke-miterlimit="10" stroke-linecap="round" stroke-linejoin="round"/>
<path d="M262.561 375.61C262.561 375.61 260.472 374.572 259.388 374.999Z" fill="white"/>
<path d="M262.561 375.61C262.561 375.61 260.472 374.572 259.388 374.999" stroke="#263238" stroke-miterlimit="10" stroke-linecap="round" stroke-linejoin="round"/>
<path d="M263.317 375.61C263.317 375.61 263.8 373.781 265.135 373.781Z" fill="white"/>
<path d="M263.317 375.61C263.317 375.61 263.8 373.781 265.135 373.781" stroke="#263238" stroke-miterlimit="10" stroke-linecap="round" stroke-linejoin="round"/>
<path d="M264.302 376.039C264.302 376.039 265.605 375.896 266.762 376.764Z" fill="white"/>
<path d="M264.302 376.039C264.302 376.039 265.605 375.896 266.762 376.764" stroke="#263238" stroke-miterlimit="10" stroke-linecap="round" stroke-linejoin="round"/>
<path d="M247.476 385.275C247.821 384.97 249.934 379.275 251.177 379.657C252.421 380.04 255.357 383.028 256.364 383.184C257.372 383.34 259.924 386.23 259.924 386.23" fill="white"/>
<path d="M247.476 385.275C247.821 384.97 249.934 379.275 251.177 379.657C252.421 380.04 255.357 383.028 256.364 383.184C257.372 383.34 259.924 386.23 259.924 386.23" stroke="#263238" stroke-miterlimit="10" stroke-linecap="round" stroke-linejoin="round"/>
<path d="M258.66 383.184C258.66 383.184 259.086 382.215 259.715 381.842C260.343 381.469 264.419 385.14 265.076 385.276" fill="white"/>
<path d="M258.66 383.184C258.66 383.184 259.086 382.215 259.715 381.842C260.343 381.469 264.419 385.14 265.076 385.276" stroke="#263238" stroke-miterlimit="10" stroke-linecap="round" stroke-linejoin="round"/>
<path opacity="0.6" d="M246.305 383.541L245.411 377.522C245.225 376.272 246.042 375.137 247.224 374.995L259.318 373.539C259.318 373.539 257.854 374.531 257.654 375.254C257.454 375.978 260.01 376.03 260.01 376.03C260.01 376.03 258.678 377.248 258.893 378.118C259.109 378.99 259.835 379.857 260.185 379.64C260.535 379.423 261.829 377.249 262.691 378.118C263.556 378.99 265.974 384.217 265.974 384.217C265.974 384.217 261.829 381.852 260.567 381.287C259.307 380.723 257.732 382.234 257.732 382.234C257.732 382.234 254.797 382.34 253.485 380.35C252.181 378.372 250.467 377.818 249.215 378.834C247.96 379.855 246.305 383.541 246.305 383.541Z" fill="#F46B29"/>
<path opacity="0.6" d="M260.34 373.053C260.34 373.053 262.005 373.842 262.495 374.329C262.495 374.329 264.224 372.501 265.319 372.656C266.415 372.811 267.19 374.147 266.62 374.329C266.05 374.512 265.447 374.896 265.447 374.896C265.447 374.896 267.695 375.772 267.755 376.763C267.815 377.756 266.473 377.782 266.122 377.769C266.122 377.769 268.837 383.966 269.153 386.229L270.73 385.914L268.692 374.124C268.489 372.951 267.421 372.117 266.312 372.263L260.34 373.053Z" fill="#F46B29"/>
<path opacity="0.6" d="M250.167 391.7L269.124 388.7C269.124 388.7 265.203 389.718 265.348 390.197C265.494 390.676 265.674 391.765 264.179 391.701C262.685 391.637 259.884 392.922 259.822 393.501C259.76 394.082 255.768 395.959 255.452 395.57C255.137 395.181 256.232 394.146 255.199 393.759C254.167 393.372 250.54 393.934 250.451 393.073C250.363 392.213 250.167 391.7 250.167 391.7Z" fill="#F46B29"/>
<path d="M325.364 345.129L310.476 335.195C309.294 334.406 308.873 332.911 309.532 331.856L311.251 329.107C311.902 328.066 313.379 327.849 314.554 328.621L329.347 338.345C330.562 339.144 331.04 340.67 330.408 341.754L328.741 344.617C328.101 345.716 326.587 345.945 325.364 345.129Z" fill="white" stroke="#263238" stroke-miterlimit="10" stroke-linecap="round" stroke-linejoin="round"/>
<path opacity="0.6" d="M311.615 333.09C312.4 331.841 313.563 330.245 313.563 330.245C313.563 330.245 315.206 332.274 315.724 332.378C316.243 332.482 316.541 332.149 317.581 332.636C318.623 333.123 317.924 332.934 319.526 334.316C321.135 335.704 323.162 336.694 323.878 336.767C324.594 336.84 325.15 336.19 325.796 337.165C326.444 338.143 327.494 339.569 327.494 339.569L327.714 340.953L326.199 342.914C326.199 342.914 323.052 341.396 323.174 340.258C323.296 339.124 320.529 338.815 320.529 338.815C320.529 338.815 318.703 339.178 318.406 338.333C318.11 337.491 317.068 336.209 317.068 336.209H318.744L316.797 334.315L313.314 334.895L311.615 333.09Z" fill="#F46B29"/>
<path d="M313.926 330.679C313.926 330.679 312.547 333.11 312.966 333.09C313.385 333.07 314.433 334.315 314.433 334.315" stroke="#263238" stroke-miterlimit="10" stroke-linecap="round" stroke-linejoin="round"/>
<path d="M316.344 333.434C316.542 333.211 316.755 332.979 317.059 332.909C317.363 332.839 317.78 333.007 317.868 333.321C317.895 333.42 317.983 333.571 318.05 333.506" stroke="#263238" stroke-miterlimit="10" stroke-linecap="round" stroke-linejoin="round"/>
<path d="M317.841 336.378C317.603 335.965 317.806 335.481 318.139 335.221C318.471 334.961 318.909 334.849 319.286 334.65C319.367 334.607 319.451 334.559 319.549 334.567C319.743 334.583 319.873 334.794 319.975 334.969C320.284 335.497 320.735 335.96 321.263 336.29C320.655 336.601 320.115 337.018 319.669 337.52C319.556 337.647 319.444 337.794 319.45 337.976C319.456 338.157 319.642 338.365 319.816 338.327" stroke="#263238" stroke-miterlimit="10" stroke-linecap="round" stroke-linejoin="round"/>
<path d="M323.096 340.166C323.682 339.818 323.755 339.022 323.934 338.357C323.956 338.275 323.985 338.188 324.06 338.148C324.168 338.091 324.314 338.158 324.436 338.224C325.098 338.58 325.76 338.936 326.423 339.293" stroke="#263238" stroke-miterlimit="10" stroke-linecap="round" stroke-linejoin="round"/>
<path d="M324.791 342.751C324.729 342.392 324.926 342.067 325.203 341.88C325.48 341.692 325.827 341.616 326.167 341.542" stroke="#263238" stroke-miterlimit="10" stroke-linecap="round" stroke-linejoin="round"/>
<path d="M286.523 219.629C285.669 220.186 282.995 219.348 282.995 219.348C282.995 219.348 279.987 221.235 277.424 220.99C277.424 220.99 276.077 222.707 271.692 219.879C271.692 219.879 270.918 222.65 268.027 221.397C265.136 220.144 263.591 215.513 265.541 214.55C267.873 213.398 270.074 215.81 270.074 215.81C270.074 215.81 270.564 213.566 272.771 213.398C274.35 213.278 275.871 214.418 275.871 214.418C275.871 214.418 275.945 213.376 277.48 213.398C279.872 213.431 280.861 215.53 280.861 215.53C280.861 215.53 281.288 213.398 282.66 213.398C285.377 213.398 286.506 216.087 286.506 216.087" fill="white"/>
<path d="M286.523 219.629C285.669 220.186 282.995 219.348 282.995 219.348C282.995 219.348 279.987 221.235 277.424 220.99C277.424 220.99 276.077 222.707 271.692 219.879C271.692 219.879 270.918 222.65 268.027 221.397C265.136 220.144 263.591 215.513 265.541 214.55C267.873 213.398 270.074 215.81 270.074 215.81C270.074 215.81 270.564 213.566 272.771 213.398C274.35 213.278 275.871 214.418 275.871 214.418C275.871 214.418 275.945 213.376 277.48 213.398C279.872 213.431 280.861 215.53 280.861 215.53C280.861 215.53 281.288 213.398 282.66 213.398C285.377 213.398 286.506 216.087 286.506 216.087" stroke="#263238" stroke-miterlimit="10" stroke-linecap="round" stroke-linejoin="round"/>
<path d="M264.069 200.533C263.244 205.658 258.305 210.708 257.948 213.397C257.59 216.086 262.669 218.323 263.567 218.509C264.465 218.695 267.51 220.932 268.578 218.509C269.646 216.086 264.207 214.97 264.207 214.97C264.207 214.97 272.299 212.59 272.76 210.707C272.76 210.707 279.75 213.335 284.181 210.707C288.612 208.079 285.923 205.092 278.474 200.532" fill="white"/>
<path d="M264.069 200.533C263.244 205.658 258.305 210.708 257.948 213.397C257.59 216.086 262.669 218.323 263.567 218.509C264.465 218.695 267.51 220.932 268.578 218.509C269.646 216.086 264.207 214.97 264.207 214.97C264.207 214.97 272.299 212.59 272.76 210.707C272.76 210.707 279.75 213.335 284.181 210.707C288.612 208.079 285.923 205.092 278.474 200.532" stroke="#263238" stroke-miterlimit="10" stroke-linecap="round" stroke-linejoin="round"/>
<path d="M280.859 215.53C280.859 215.53 281.174 217.951 282.993 219.348" stroke="#263238" stroke-miterlimit="10" stroke-linecap="round" stroke-linejoin="round"/>
<path d="M275.869 214.417C275.416 216.46 277.292 219.629 277.292 219.629" stroke="#263238" stroke-miterlimit="10" stroke-linecap="round" stroke-linejoin="round"/>
<path d="M270.073 215.809C270.073 215.809 270.102 218.979 271.691 219.879" stroke="#263238" stroke-miterlimit="10" stroke-linecap="round" stroke-linejoin="round"/>
<path d="M181.25 203.67C181.06 205.09 180.79 206.54 180.45 208.03C175.42 230.13 169.39 244.19 169.39 244.19C169.39 244.19 171.28 258.25 152.82 258.51C134.36 258.76 130.29 238.11 136.24 217.83C136.24 217.83 139.76 199.09 147.54 186.75C150.62 181.84 154.38 177.95 158.85 176.63C173.52 172.31 183.98 184.13 181.25 203.67Z" fill="#757575"/>
<mask id="mask4_28_7079" style="mask-type:luminance" maskUnits="userSpaceOnUse" x="133" y="175" width="49" height="84">
<path d="M181.25 203.67C181.06 205.09 180.79 206.54 180.45 208.03C175.42 230.13 169.39 244.19 169.39 244.19C169.39 244.19 171.28 258.25 152.82 258.51C134.36 258.76 130.29 238.11 136.24 217.83C136.24 217.83 139.76 199.09 147.54 186.75C150.62 181.84 154.38 177.95 158.85 176.63C173.52 172.31 183.98 184.13 181.25 203.67Z" fill="white"/>
</mask>
<g mask="url(#mask4_28_7079)">
<path opacity="0.2" d="M181.25 203.67C178.07 213.18 171.06 220.24 162.03 219.35C148.47 218.02 145.31 200.24 147.54 186.75C150.62 181.84 154.38 177.95 158.85 176.63C173.52 172.31 183.98 184.13 181.25 203.67Z" fill="white"/>
</g>
<mask id="mask5_28_7079" style="mask-type:luminance" maskUnits="userSpaceOnUse" x="133" y="175" width="49" height="84">
<path d="M181.25 203.67C181.06 205.09 180.79 206.54 180.45 208.03C175.42 230.13 169.39 244.19 169.39 244.19C169.39 244.19 171.28 258.25 152.82 258.51C134.36 258.76 130.29 238.11 136.24 217.83C136.24 217.83 139.76 199.09 147.54 186.75C150.62 181.84 154.38 177.95 158.85 176.63C173.52 172.31 183.98 184.13 181.25 203.67Z" fill="white"/>
</mask>
<g mask="url(#mask5_28_7079)">
<path opacity="0.2" d="M169.389 244.19C169.389 244.19 171.279 258.25 152.819 258.51C152.329 258.52 151.849 258.51 151.389 258.48C149.319 256.92 147.429 255.29 145.779 253.81C136.639 245.64 140.409 245.11 143.329 246.43C146.259 247.75 161.509 243.79 155.309 241.25C149.119 238.72 141.269 222.85 143.839 219.88C146.409 216.91 158.599 231.92 164.369 231.95C167.839 231.97 173.409 225.62 177.289 220.55C173.199 235.3 169.389 244.19 169.389 244.19Z" fill="black"/>
</g>
<path d="M181.25 203.67C181.06 205.09 180.79 206.54 180.45 208.03C175.42 230.13 169.39 244.19 169.39 244.19C169.39 244.19 171.28 258.25 152.82 258.51C134.36 258.76 130.29 238.11 136.24 217.83C136.24 217.83 139.76 199.09 147.54 186.75C150.62 181.84 154.38 177.95 158.85 176.63C173.52 172.31 183.98 184.13 181.25 203.67Z" stroke="#263238" stroke-miterlimit="10" stroke-linecap="round" stroke-linejoin="round"/>
<path d="M146.265 188.898C144.531 204.764 147.042 215.113 159.851 219.859C172.66 224.605 179.978 214.157 180.829 206.197" stroke="#263238" stroke-miterlimit="10" stroke-linecap="round" stroke-linejoin="round"/>
<path d="M157.689 220.959C157.689 220.959 151.814 234.148 151.563 238.669C151.312 243.19 152.185 253.377 149.303 255.496" stroke="#263238" stroke-miterlimit="10" stroke-linecap="round" stroke-linejoin="round"/>
<path d="M161.106 221.7C161.106 221.7 155.581 233.395 155.33 236.409C155.079 239.423 157.841 252.487 155.33 255.497" stroke="#263238" stroke-miterlimit="10" stroke-linecap="round" stroke-linejoin="round"/>
<path d="M169.394 244.194C169.394 244.194 160.596 254.243 148.046 250.222" stroke="#263238" stroke-miterlimit="10" stroke-linecap="round" stroke-linejoin="round"/>
<path d="M141.265 222.846C141.265 222.846 150.055 240.262 161.106 238.598" stroke="#263238" stroke-miterlimit="10" stroke-linecap="round" stroke-linejoin="round"/>
<path d="M161.106 177.136C161.106 177.136 151.311 179.145 149.302 189.945C147.293 200.745 150.809 213.261 158.72 215.793" stroke="#263238" stroke-miterlimit="10" stroke-linecap="round" stroke-linejoin="round"/>
<path d="M180.447 192.708C180.447 192.708 183.571 215.217 168.138 215.514" stroke="#263238" stroke-miterlimit="10" stroke-linecap="round" stroke-linejoin="round"/>
<path d="M164.371 191.452C180.706 152.279 180.447 117.864 194.76 99.7691C194.76 99.7691 198.205 98.7521 200.626 99.7691C200.626 99.7691 190.793 115.102 187.502 127.659C184.211 140.217 177.681 176.634 169.393 192.708" fill="#757575"/>
<mask id="mask6_28_7079" style="mask-type:luminance" maskUnits="userSpaceOnUse" x="164" y="99" width="37" height="94">
<path d="M164.371 191.452C180.706 152.279 180.447 117.864 194.76 99.7691C194.76 99.7691 198.205 98.7521 200.626 99.7691C200.626 99.7691 190.793 115.102 187.502 127.659C184.211 140.217 177.681 176.634 169.393 192.708" fill="white"/>
</mask>
<g mask="url(#mask6_28_7079)">
<path opacity="0.2" d="M164.371 191.452C180.706 152.279 180.447 117.864 194.76 99.7691C194.76 99.7691 198.205 98.7521 200.626 99.7691C200.626 99.7691 190.793 115.102 187.502 127.659C184.211 140.217 177.681 176.634 169.393 192.708" fill="white"/>
</g>
<path d="M164.371 191.452C180.706 152.279 180.447 117.864 194.76 99.7691C194.76 99.7691 198.205 98.7521 200.626 99.7691C200.626 99.7691 190.793 115.102 187.502 127.659C184.211 140.217 177.681 176.634 169.393 192.708" stroke="#263238" stroke-miterlimit="10" stroke-linecap="round" stroke-linejoin="round"/>
<path d="M204.354 62.1081C210.835 52.3131 224.025 49.6761 234.571 57.5871C245.117 65.4981 244.22 89.9861 254.84 94.8831C265.46 99.7811 274.654 90.2361 279.852 99.9061C279.852 99.9061 272.869 94.1301 265.711 101.288C260.024 106.975 252.662 104.07 252.662 104.07C252.662 104.07 256.168 110.706 268.445 107.693C268.445 107.693 259.935 120.251 241.742 119.372C225.785 118.601 217.478 109.954 217.478 109.954C217.478 109.954 217.478 117.991 228.918 123.195C228.918 123.195 219.249 125.274 208.449 115.103C199.333 106.517 200.663 97.5171 200.663 97.5171C200.663 97.5171 192.344 104.68 200.648 113.345C200.648 113.345 190.115 112.34 189.487 102.42C189.125 96.6981 195.766 90.3651 196.896 85.0901C196.896 85.0901 179.818 92.5371 178.687 99.9081C177.744 106.057 183.019 107.694 183.019 107.694C176.175 109.075 166.882 97.0741 183.019 88.0681C199.156 79.0621 195.769 71.5721 198.592 67.2181C201.416 62.8621 204.354 62.1081 204.354 62.1081Z" fill="#263238"/>
<path d="M233.57 122.011C233.57 122.011 236.525 132.362 240.289 135.296" stroke="#263238" stroke-miterlimit="10" stroke-linecap="round" stroke-linejoin="round"/>
<path d="M204.098 118.846C204.098 118.846 197.608 133.421 194.406 133.483" stroke="#263238" stroke-miterlimit="10" stroke-linecap="round" stroke-linejoin="round"/>
<path d="M228.231 139.813C228.231 139.813 212.178 158.604 202.798 158.209" stroke="#263238" stroke-miterlimit="10" stroke-linecap="round" stroke-linejoin="round"/>
<path d="M225.067 158.215C225.067 158.215 230.671 162.604 233.57 168.517" stroke="#263238" stroke-miterlimit="10" stroke-linecap="round" stroke-linejoin="round"/>
<path d="M193.528 170.675C193.528 170.675 201.527 163.945 214.186 165.726C226.845 167.506 228.23 169.484 228.23 169.484" stroke="#263238" stroke-miterlimit="10" stroke-linecap="round" stroke-linejoin="round"/>
<g opacity="0.2">
<path d="M206.604 63.9631C202.384 67.6151 200.802 83.8201 214.516 96.1571C228.23 108.494 247.462 105.874 249.669 99.3171" stroke="white" stroke-miterlimit="10" stroke-linecap="round" stroke-linejoin="round"/>
<path d="M205.286 90.2971C205.286 90.2971 202.111 106.982 215.515 115.088" stroke="white" stroke-miterlimit="10" stroke-linecap="round" stroke-linejoin="round"/>
<path d="M210.88 60.7582C216.099 56.0112 227.308 53.3732 233.572 62.0772C239.836 70.7802 244.319 103.22 263.572 97.6812" stroke="white" stroke-miterlimit="10" stroke-linecap="round" stroke-linejoin="round"/>
<path d="M214.516 63.9631C222.692 66.2971 221.099 82.9121 226.643 90.2971C232.187 97.6821 237.159 102.272 244.901 99.3171" stroke="white" stroke-miterlimit="10" stroke-linecap="round" stroke-linejoin="round"/>
<path d="M229.709 108.231C229.709 108.231 245.089 118.517 259.869 112.187" stroke="white" stroke-miterlimit="10" stroke-linecap="round" stroke-linejoin="round"/>
<path d="M199.253 72.0991C199.253 72.0991 203.216 81.5291 187.504 88.1551" stroke="white" stroke-miterlimit="10" stroke-linecap="round" stroke-linejoin="round"/>
</g>
</svg>
