<svg width="3000" height="1688" viewBox="0 0 3000 1688" fill="none" xmlns="http://www.w3.org/2000/svg">
<g clip-path="url(#clip0_131_30)">
<rect width="3000" height="1687.5" fill="white"/>
<g filter="url(#filter0_d_131_30)">
<path d="M0.0065918 1687.67L-0.00219727 -0.00012207L781.341 -0.00012207L2217.31 1687.67L0.0065918 1687.67Z" fill="white"/>
</g>
</g>
<path d="M836.922 1424.53L862.703 1503.98H946.375L878.641 1553.2L904.422 1632.66L836.922 1583.44L769.422 1632.66L795.203 1553.2L727.469 1503.98H811.141L836.922 1424.53Z" fill="#297EA6" fill-opacity="0.05"/>
<path d="M963.016 15.9375L982.469 75.4687H1045.05L994.422 112.266L1013.64 172.031L963.016 135.234L912.391 172.031L931.609 112.266L880.984 75.4687H943.563L963.016 15.9375Z" fill="#297EA6" fill-opacity="0.05"/>
<path d="M1134.11 255L1150.98 307.031H1205.59L1161.53 339.141L1178.41 391.172L1134.11 359.062L1089.81 391.172L1106.69 339.141L1062.62 307.031H1117.23L1134.11 255Z" fill="#297EA6" fill-opacity="0.05"/>
<path d="M2109.11 322.031L2122.94 364.688H2167.94L2131.61 391.172L2145.44 434.062L2109.11 407.578L2072.78 434.062L2086.61 391.172L2050.28 364.688H2095.28L2109.11 322.031Z" fill="#297EA6" fill-opacity="0.05"/>
<path d="M1605.2 720.938L1630.05 797.344H1710.44L1645.28 844.687L1670.13 921.094L1605.2 873.75L1540.28 921.094L1565.13 844.687L1499.97 797.344H1580.36L1605.2 720.938Z" fill="#297EA6" fill-opacity="0.05"/>
<path d="M385.984 44.0625L403.797 99.1406H461.687L414.812 133.125L432.859 188.203L385.984 154.219L339.109 188.203L357.156 133.125L310.281 99.1406H368.172L385.984 44.0625Z" fill="#297EA6" fill-opacity="0.05"/>
<path d="M1415.83 1005L1426.84 1038.75H1462L1433.41 1059.61L1444.42 1093.12L1415.83 1072.27L1387.23 1093.12L1398.25 1059.61L1369.66 1038.75H1404.81L1415.83 1005Z" fill="#297EA6" fill-opacity="0.05"/>
<path d="M1797.86 1211.25L1818.72 1275.47H1886.22L1831.61 1315.08L1852.47 1379.3L1797.86 1339.45L1743.25 1379.3L1764.11 1315.08L1709.5 1275.47H1777L1797.86 1211.25Z" fill="#297EA6" fill-opacity="0.05"/>
<path d="M613.797 151.875L638.172 226.641H716.922L653.172 273.047L677.547 347.813L613.797 301.641L550.047 347.813L574.422 273.047L510.672 226.641H589.422L613.797 151.875Z" fill="#297EA6" fill-opacity="0.05"/>
<path d="M1030.98 974.062L1055.36 1048.83H1134.11L1070.36 1095.23L1094.73 1170L1030.98 1123.83L967.234 1170L991.609 1095.23L927.859 1048.83H1006.61L1030.98 974.062Z" fill="#297EA6" fill-opacity="0.05"/>
<path d="M1225.75 1272.19L1247.08 1338.05H1316.22L1260.2 1378.59L1281.77 1444.22L1225.75 1403.67L1169.73 1444.22L1191.3 1378.59L1135.28 1338.05H1204.42L1225.75 1272.19Z" fill="#297EA6" fill-opacity="0.05"/>
<path d="M320.828 806.719L333.25 844.922H373.328L340.984 868.594L353.406 906.797L320.828 883.125L288.25 906.797L300.672 868.594L268.328 844.922H308.406L320.828 806.719Z" fill="#297EA6" fill-opacity="0.05"/>
<path d="M508.33 1272.66L519.346 1306.41H554.502L525.908 1327.27L536.924 1360.78L508.33 1339.92L479.736 1360.78L490.752 1327.27L462.158 1306.41H497.314L508.33 1272.66Z" fill="#297EA6" fill-opacity="0.05"/>
<path d="M339.578 1006.17L361.375 1073.44H432.156L374.969 1114.92L396.766 1182.19L339.578 1140.7L282.391 1182.19L304.187 1114.92L247 1073.44H317.781L339.578 1006.17Z" fill="#297EA6" fill-opacity="0.05"/>
<path d="M726.297 1065.47L750.672 1140.23H829.422L765.672 1186.64L790.047 1261.41L726.297 1215.23L662.547 1261.41L686.922 1186.64L623.172 1140.23H701.922L726.297 1065.47Z" fill="#297EA6" fill-opacity="0.05"/>
<path d="M2071.61 0L2082.63 33.75H2117.78L2089.19 54.6094L2100.2 88.125L2071.61 67.2656L2043.02 88.125L2054.03 54.6094L2025.44 33.75H2060.59L2071.61 0Z" fill="#297EA6" fill-opacity="0.05"/>
<path d="M379.422 485.625L391.844 523.828H431.922L399.578 547.5L412 585.703L379.422 562.031L346.844 585.703L359.266 547.5L326.922 523.828H367L379.422 485.625Z" fill="#297EA6" fill-opacity="0.05"/>
<defs>
<filter id="filter0_d_131_30" x="-4.00195" y="0" width="2225.31" height="1695.67" filterUnits="userSpaceOnUse" color-interpolation-filters="sRGB">
<feFlood flood-opacity="0" result="BackgroundImageFix"/>
<feColorMatrix in="SourceAlpha" type="matrix" values="0 0 0 0 0 0 0 0 0 0 0 0 0 0 0 0 0 0 127 0" result="hardAlpha"/>
<feOffset dy="4"/>
<feGaussianBlur stdDeviation="2"/>
<feComposite in2="hardAlpha" operator="out"/>
<feColorMatrix type="matrix" values="0 0 0 0 0 0 0 0 0 0 0 0 0 0 0 0 0 0 0.25 0"/>
<feBlend mode="normal" in2="BackgroundImageFix" result="effect1_dropShadow_131_30"/>
<feBlend mode="normal" in="SourceGraphic" in2="effect1_dropShadow_131_30" result="shape"/>
</filter>
<clipPath id="clip0_131_30">
<rect width="3000" height="1687.5" fill="white"/>
</clipPath>
</defs>
</svg>
